<svg width="209" height="175" viewBox="0 0 209 175" fill="none" xmlns="http://www.w3.org/2000/svg">
<rect x="1" y="1" width="150" height="150" rx="38" fill="#D0E0D4" stroke="black" stroke-width="1.5"/>
<rect width="126.916" height="84.6829" rx="8" transform="matrix(0.995813 -0.0914181 0.0797635 0.996814 53.7522 29.666)" fill="black"/>
<rect width="126.916" height="84.6829" rx="8" transform="matrix(0.995813 -0.091418 0.0797635 0.996814 46.9316 24.1841)" fill="white" stroke="black" stroke-width="1.5"/>
<path d="M119.857 37.868L162.823 34.2553M120.737 50.5574L163.702 46.9447" stroke="black" stroke-width="1.5"/>
<path d="M70.6455 63.498C67.9586 71.2985 65.9916 73.4345 66.5005 79.7237L114.532 75.2651C114.512 70.5147 112.717 66.325 108.756 62.3365C104.795 58.3479 106.782 51.431 102.578 39.9405C98.3734 28.4501 79.2329 30.2268 74.8766 39.3437C70.5203 48.4606 73.8865 54.0885 70.6455 63.498Z" fill="black"/>
<path d="M83.359 41.5296C82.1327 44.9109 78.4033 48.2522 76.878 49.4829L77.4137 56.1041C77.6408 58.9109 78.6976 61.5644 80.4254 63.6663L81.5068 64.9818L81.966 70.6572L96.1088 69.3444L95.6496 63.669L96.5093 62.3232C98.1043 59.8264 98.8433 56.7971 98.5978 53.7624L98.0922 47.5137C88.4595 47.1009 84.2564 43.3523 83.359 41.5296Z" fill="white" stroke="black" stroke-width="1.47801"/>
<path fill-rule="evenodd" clip-rule="evenodd" d="M123.975 102.145L61.6526 107.866C60.9775 107.928 60.3153 107.904 59.6766 107.804L58.7754 96.6655C58.1171 88.5303 63.0824 80.928 70.8118 78.2367L82.6302 74.1216L82.3101 70.1651L96.3467 68.8623L96.6669 72.8188L108.247 74.6677C116.297 75.9529 122.389 82.5521 123.048 90.6998L123.975 102.145Z" fill="#379C60"/>
<path d="M123.975 102.145L124.034 102.893L124.782 102.824L124.721 102.076L123.975 102.145ZM61.6526 107.866L61.7124 108.614L61.6526 107.866ZM59.6766 107.804L58.9298 107.873L58.9769 108.454L59.5518 108.545L59.6766 107.804ZM58.7754 96.6655L58.0286 96.7348L58.7754 96.6655ZM70.8118 78.2367L71.0504 78.9456L70.8118 78.2367ZM82.6302 74.1216L82.8689 74.8305L83.4244 74.6371L83.3771 74.0524L82.6302 74.1216ZM82.3101 70.1651L82.2495 69.4176L81.5028 69.4869L81.5633 70.2344L82.3101 70.1651ZM96.3467 68.8623L97.0936 68.793L97.0331 68.0454L96.2862 68.1147L96.3467 68.8623ZM96.6669 72.8188L95.9201 72.888L95.9671 73.4686L96.5407 73.5602L96.6669 72.8188ZM108.247 74.6677L108.374 73.9263L108.247 74.6677ZM123.048 90.6998L122.302 90.769L123.048 90.6998ZM123.915 101.397L61.5928 107.119L61.7124 108.614L124.034 102.893L123.915 101.397ZM61.5928 107.119C60.9798 107.175 60.3797 107.153 59.8015 107.062L59.5518 108.545C60.2509 108.655 60.9752 108.682 61.7124 108.614L61.5928 107.119ZM58.0286 96.7348L58.9298 107.873L60.4234 107.734L59.5222 96.5963L58.0286 96.7348ZM70.5731 77.5279C62.5174 80.3328 57.3425 88.256 58.0286 96.7348L59.5222 96.5963C58.8917 88.8045 63.6473 81.5232 71.0504 78.9456L70.5731 77.5279ZM82.3916 73.4128L70.5731 77.5279L71.0504 78.9456L82.8689 74.8305L82.3916 73.4128ZM81.5633 70.2344L81.8834 74.1909L83.3771 74.0524L83.0569 70.0959L81.5633 70.2344ZM96.2862 68.1147L82.2495 69.4176L82.3707 70.9127L96.4073 69.6098L96.2862 68.1147ZM97.4137 72.7495L97.0936 68.793L95.5999 68.9315L95.9201 72.888L97.4137 72.7495ZM108.374 73.9263L96.7931 72.0773L96.5407 73.5602L108.121 75.4092L108.374 73.9263ZM123.795 90.6305C123.108 82.1413 116.76 75.2654 108.374 73.9263L108.121 75.4092C115.833 76.6404 121.67 82.963 122.302 90.769L123.795 90.6305ZM124.721 102.076L123.795 90.6305L122.302 90.769L123.228 102.214L124.721 102.076Z" fill="black"/>
<path d="M140.159 80.7C140.789 78.2757 142.679 76.4353 145.087 75.9009C164.737 71.5412 185.523 77.6544 200.346 92.1531L200.644 92.4443C202.499 94.2585 203.255 96.9344 202.612 99.4093L189.226 150.94C188.775 152.679 187.477 154.037 185.784 154.543L155.195 163.694C153.254 164.274 151.123 163.64 149.741 162.068L127.96 137.31C126.754 135.94 126.298 134.06 126.75 132.321L140.159 80.7Z" fill="white" stroke="black" stroke-width="1.45432"/>
<path d="M194.758 97.7075C189.447 90.2666 181.622 86.0399 172.582 83.3462L153.26 157.73L180.59 150.088C181.905 149.72 182.919 148.679 183.267 147.336L195.321 100.934C195.606 99.8373 195.428 98.6459 194.758 97.7075Z" fill="black"/>
<path d="M146.115 106.722L155.832 128.24L185.79 109.615" stroke="black" stroke-width="8.7259"/>
<path fill-rule="evenodd" clip-rule="evenodd" d="M160.213 130.963L188.232 113.58L183.566 106.118L163.42 118.617L160.213 130.963Z" fill="white"/>
</svg>
