<svg width="196" height="160" viewBox="0 0 196 160" fill="none" xmlns="http://www.w3.org/2000/svg">
<rect x="1" y="9" width="163" height="150" rx="38" fill="#D0E0D4" stroke="black" stroke-width="1.5"/>
<path d="M64.6831 136.638L41.577 93.4875C41.577 93.4875 54.3671 69.2351 83.3838 55.776C111.647 42.6663 110.289 61.5826 161.85 29.9452L181.367 77.6483C134.261 102.407 135.966 91.032 108.914 102.631C87.2721 111.91 70.4093 129.169 64.6831 136.638Z" fill="white" stroke="black" stroke-width="1.5"/>
<path d="M70.6162 115.603L47.5102 72.4523C47.5102 72.4523 60.3002 48.2 89.3169 34.7408C117.58 21.6312 116.223 40.5475 167.783 8.91007L187.3 56.6132C140.194 81.3721 141.899 69.9969 114.847 81.5958C93.2052 90.8749 76.3424 108.134 70.6162 115.603Z" fill="white" stroke="black" stroke-width="1.5"/>
<ellipse cx="17.6769" cy="11.3566" rx="17.6769" ry="11.3566" transform="matrix(0.906996 -0.42114 0.378677 0.925529 94.0725 50.8125)" fill="black" stroke="black" stroke-width="1.5"/>
<path d="M151.638 18.3113C154.561 25.4559 163.084 28.3909 170.674 24.8668C171.723 24.3794 172.7 23.794 173.596 23.1282" stroke="black" stroke-width="1.5"/>
<path d="M57.3911 58.8606C59.0939 60.1845 60.4703 61.9457 61.3452 64.084C64.2241 71.1205 60.5984 79.6158 53.2376 83.2379" stroke="black" stroke-width="1.5"/>
<path d="M62.9067 101.205C64.5376 98.4369 67.0392 96.0785 70.2019 94.61C76.7671 91.5617 84.0302 93.3462 87.7634 98.5078" stroke="black" stroke-width="1.5"/>
<path d="M181.802 43.1737C180.734 43.42 179.666 43.7838 178.617 44.2711C171.027 47.7952 167.244 56.4439 170.167 63.5885C170.337 64.0042 170.526 64.4057 170.733 64.7925" stroke="black" stroke-width="1.5"/>
</svg>
