<svg width="182" height="152" viewBox="0 0 182 152" fill="none" xmlns="http://www.w3.org/2000/svg">
<rect x="1" y="1" width="150" height="150" rx="38" fill="#D0E0D4" stroke="black" stroke-width="1.5"/>
<path d="M165.064 129H62.8882C59.0222 129 55.8882 125.866 55.8882 122V34.2244C55.8882 30.3584 59.0222 27.2244 62.8882 27.2244H171.418C175.284 27.2244 178.418 30.3584 178.418 34.2244V122C178.418 125.866 175.284 129 171.418 129H165.064Z" fill="white" stroke="black" stroke-width="2"/>
<path d="M55 77.4581V63.6063L56.7813 33.8249L170 33L164.26 76.5346L99.5352 86L55 77.4581Z" fill="black"/>
<path d="M162.627 36.882C162.627 31.5482 166.951 27.2244 172.285 27.2244C176.638 27.2244 180.166 30.753 180.166 35.1057V129L162.627 129V36.882Z" fill="#D0E0D4" stroke="black" stroke-width="2" stroke-linejoin="round"/>
<path d="M93.4052 26.1347C93.5368 20.337 97.0786 15.3813 102.103 13.1951C101.448 14.2405 101.07 15.4765 101.07 16.8011V18.7143V26.1347H93.4052Z" fill="black" stroke="black" stroke-width="2" stroke-linejoin="round"/>
<path d="M137.004 26.1347C136.629 20.4713 133.099 15.6095 128.171 13.3499C128.928 14.5088 129.368 15.8936 129.368 17.3812V18.7143V26.1347H137.004Z" fill="black" stroke="black" stroke-width="2" stroke-linejoin="round"/>
<path d="M174 27C165.814 28.1293 159.191 34.2241 157.387 42.2879L151.714 67.6383C150.975 70.9426 148.236 73.4236 144.874 73.8328L95.4562 79.8497C94.6384 79.9493 93.8101 79.922 93.0006 79.7687L53.2476 72.2396C49.1533 71.4641 46.3399 67.6756 46.7813 63.5319L49.9108 34.1526C50.344 30.0854 53.7755 27 57.8658 27H174Z" fill="white" stroke="black" stroke-width="2" stroke-linejoin="round"/>
<path d="M103.334 62.2238L101.529 68.7655C101.171 70.0665 99.987 70.9677 98.6374 70.9677H98.1012C96.1503 70.9677 94.7184 69.135 95.1903 67.2421L96.8209 60.7004C97.1541 59.3639 98.3545 58.426 99.7319 58.426H100.442C102.424 58.426 103.861 60.3134 103.334 62.2238Z" fill="black" stroke="black" stroke-width="2"/>
<path d="M126.435 11.4551H102.07" stroke="black" stroke-width="2" stroke-linejoin="round"/>
</svg>
