<svg width="197" height="159" viewBox="0 0 197 159" fill="none" xmlns="http://www.w3.org/2000/svg">
<rect x="0.935303" y="8" width="150" height="150" rx="38" fill="#D0E0D4" stroke="black" stroke-width="1.5"/>
<path d="M57.5237 8H189.786" stroke="black" stroke-width="1.5"/>
<path d="M109.526 47H189.786" stroke="black" stroke-width="1.5"/>
<path d="M163.691 9C163.691 13.6017 160.2 17.25 155.992 17.25C151.785 17.25 148.294 13.6017 148.294 9C148.294 4.39825 151.785 0.75 155.992 0.75C160.2 0.75 163.691 4.39825 163.691 9Z" fill="#379C60" stroke="black" stroke-width="1.5"/>
<path d="M195.606 47C195.606 51.6017 192.116 55.25 187.908 55.25C183.7 55.25 180.21 51.6017 180.21 47C180.21 42.3983 183.7 38.75 187.908 38.75C192.116 38.75 195.606 42.3983 195.606 47Z" fill="#379C60" stroke="black" stroke-width="1.5"/>
<ellipse cx="12.7135" cy="36.8471" rx="12.7135" ry="36.8471" transform="matrix(0.695813 -0.718223 0.672857 0.739773 52.3608 81.2622)" fill="black" stroke="black" stroke-width="1.5"/>
<path d="M158.806 10.4998C157.867 14.4998 147.072 19.4998 138.155 30.395C139.093 34.728 140.22 45.6933 137.217 52.8933C139.937 51.398 142.536 47.165 146.603 38.4998C152.235 26.4998 157.867 30.4998 157.867 33.4998C157.867 36.4998 155.521 45.4998 154.113 49.4998C152.489 54.1107 148.95 64.4998 141.909 73.4998C134.869 82.4998 117.503 97.4998 111.871 103.5C107.365 108.3 99.7084 117.666 95.7971 122.5C81.9043 113.7 70.6086 98.4998 66.6973 91.9998C70.2957 87.8332 77.2327 79.6998 81.363 74.4998C86.5259 67.9998 89.342 58.4998 92.1581 49.4998C94.9742 40.4998 101.076 30.9998 104.361 25.9998C106.99 21.9998 110.463 23.3332 111.871 24.4998C115.25 20.0998 119.85 20.9998 121.727 21.9998C125.107 17.9998 129.393 19.3331 131.114 20.4998C137.216 13.9998 150.358 5.9998 154.113 4.9998C157.867 3.9998 159.745 6.4998 158.806 10.4998Z" fill="white"/>
<path d="M138.155 30.395C129.475 40.9998 129.706 52.4998 133.93 53.4998C138.155 53.9998 140.971 50.4998 146.603 38.4998C152.235 26.4998 157.867 30.4998 157.867 33.4998C157.867 36.4998 155.521 45.4998 154.113 49.4998C152.489 54.1107 148.95 64.4998 141.909 73.4998C134.869 82.4998 117.503 97.4998 111.871 103.5C107.365 108.3 99.7084 117.666 95.7971 122.5C81.9043 113.7 70.6086 98.4998 66.6973 91.9998C70.2957 87.8332 77.2327 79.6998 81.363 74.4998C86.5259 67.9998 89.342 58.4998 92.1581 49.4998C94.9742 40.4998 101.076 30.9998 104.361 25.9998C106.99 21.9998 110.463 23.3332 111.871 24.4998M138.155 30.395C147.072 19.4998 157.867 14.4998 158.806 10.4998C159.745 6.4998 157.867 3.9998 154.113 4.9998C150.358 5.9998 137.216 13.9998 131.114 20.4998M138.155 30.395C139.093 34.7283 140.22 45.695 137.216 52.895M131.114 20.4998C126.233 25.6998 120.006 36.3332 117.503 40.9998M131.114 20.4998C129.393 19.3332 125.107 17.9998 121.727 21.9998M121.727 21.9998C118.348 25.9998 113.123 34.6665 110.932 38.4998M121.727 21.9998C119.85 20.9998 115.25 20.0998 111.871 24.4998M111.871 24.4998C108.492 28.8998 104.831 34.6665 103.423 36.9998" stroke="black" stroke-width="1.5"/>
<path fill-rule="evenodd" clip-rule="evenodd" d="M65.4536 92.3543C69.3575 87.8169 76.4699 79.4642 80.2913 74.667L110.367 104.109C106.022 108.831 98.4142 118.034 94.3697 123.009C88.8769 119.754 82.8512 114.785 77.1536 108.521C72.281 103.164 68.3049 97.581 65.4536 92.3543Z" fill="#F6F6F6"/>
<path d="M65.4536 92.3543L64.8851 91.8652L64.5469 92.2583L64.7952 92.7135L65.4536 92.3543ZM80.2913 74.667L80.8159 74.131L80.2223 73.5499L79.7047 74.1997L80.2913 74.667ZM110.367 104.109L110.919 104.616L111.411 104.081L110.891 103.573L110.367 104.109ZM94.3697 123.009L93.9873 123.654L94.5437 123.984L94.9516 123.482L94.3697 123.009ZM77.1536 108.521L76.5987 109.025L77.1536 108.521ZM66.0221 92.8435C69.9251 88.3071 77.0464 79.9442 80.8779 75.1343L79.7047 74.1997C75.8934 78.9842 68.7899 87.3266 64.8851 91.8652L66.0221 92.8435ZM79.7666 75.2029L109.842 104.644L110.891 103.573L80.8159 74.131L79.7666 75.2029ZM109.815 103.601C105.452 108.342 97.8305 117.564 93.7878 122.536L94.9516 123.482C98.998 118.505 106.591 109.319 110.919 104.616L109.815 103.601ZM94.7521 122.364C89.3343 119.153 83.3652 114.235 77.7084 108.016L76.5987 109.025C82.3373 115.335 88.4194 120.355 93.9873 123.654L94.7521 122.364ZM77.7084 108.016C72.872 102.699 68.932 97.1643 66.112 91.9951L64.7952 92.7135C67.6778 97.9976 71.69 103.628 76.5987 109.025L77.7084 108.016Z" fill="black"/>
<path d="M146.231 8.49976C146.075 9.33309 146.451 11.4998 149.079 11.4998C151.707 11.4998 155.493 7.83309 157.058 5.99976" stroke="black" stroke-width="1.5"/>
<path d="M155.149 42.9998C154.054 43.4998 151.863 43.7998 151.863 40.9998C151.863 38.1998 154.366 33.1664 155.618 30.9998" stroke="black" stroke-width="1.5"/>
</svg>
