<svg width="680" height="656" viewBox="0 0 680 656" fill="none" xmlns="http://www.w3.org/2000/svg">
<path d="M38.8675 281.201L86.3244 298.27L74.3513 305.32L41.1912 324.559L30.5195 330.775L38.8675 281.201Z" fill="#DEDDE1"/>
<path d="M245.503 545.78L275.061 532.172L210.719 420.812L181.722 447.001L130.711 356.157L102.647 375.464L56.9822 291.849L40.2122 299.038L95.9662 411.782L127.626 383.939L175.687 485.333L204.406 453.697L245.503 545.78Z" fill="#DEDDE1"/>
<path d="M671.605 418.272C668.242 440.999 647.334 456.648 624.907 453.228C602.478 449.804 587.022 428.608 590.383 405.88C593.745 383.153 614.652 367.503 637.081 370.926C659.509 374.347 674.967 395.546 671.605 418.272Z" fill="#F4F4F4"/>
<path d="M661.941 416.799C659.38 434.118 643.448 446.043 626.355 443.434C609.264 440.827 597.485 424.673 600.046 407.355C602.609 390.035 618.54 378.108 635.631 380.718C652.723 383.325 664.502 399.479 661.941 416.799Z" fill="#EBECEC"/>
<path d="M662.08 415.812C661.891 415.792 661.963 414.391 661.821 411.908C661.665 409.436 661.241 405.833 659.676 401.729C658.894 399.685 657.834 397.528 656.423 395.393C654.997 393.273 653.244 391.161 651.101 389.273C650.032 388.327 648.882 387.42 647.633 386.611C646.389 385.794 645.071 385.029 643.665 384.394C642.262 383.754 640.797 383.18 639.263 382.752C637.731 382.323 636.147 382 634.526 381.792C632.903 381.609 631.287 381.548 629.7 381.603C628.109 381.655 626.553 381.865 625.041 382.155C623.527 382.441 622.069 382.872 620.673 383.37C619.272 383.862 617.945 384.473 616.69 385.14C614.171 386.466 611.981 388.106 610.108 389.829C608.248 391.571 606.722 393.418 605.49 395.22C603.029 398.84 601.79 402.243 601.071 404.609C600.363 406.99 600.112 408.369 599.924 408.344C599.783 408.33 599.718 406.909 600.165 404.384C600.623 401.879 601.657 398.228 604.071 394.281C605.276 392.316 606.816 390.288 608.737 388.369C610.672 386.466 612.967 384.649 615.64 383.167C616.973 382.423 618.387 381.743 619.886 381.19C621.382 380.628 622.947 380.147 624.576 379.82C626.204 379.491 627.883 379.252 629.599 379.187C631.313 379.118 633.058 379.18 634.807 379.38C636.555 379.601 638.264 379.954 639.915 380.427C641.568 380.898 643.145 381.527 644.653 382.234C646.163 382.934 647.574 383.777 648.898 384.676C650.229 385.569 651.449 386.566 652.573 387.605C654.832 389.679 656.648 391.988 658.092 394.297C659.519 396.618 660.552 398.956 661.275 401.152C662.714 405.563 662.883 409.358 662.755 411.903C662.609 414.465 662.22 415.83 662.08 415.812Z" fill="#E0E0E0"/>
<path d="M636.51 421.991C636.737 420.275 635.463 419.153 633.487 418.132L632.585 424.892C635.068 424.685 636.3 423.558 636.51 421.991ZM629.788 409.042L630.714 402.087C628.082 402.323 626.879 403.605 626.662 405.221C626.434 406.936 627.757 408.066 629.788 409.042ZM631.721 431.358L630.991 436.845L626.167 436.18L626.879 430.842C622.144 429.889 617.764 427.742 615.394 425.271L618.843 419.658C621.012 421.803 624.308 423.602 627.736 424.424L628.827 416.242C623.648 414.185 617.911 411.55 618.846 404.544C619.539 399.35 623.846 395.404 631.583 395.573L632.31 390.134L637.133 390.798L636.42 396.138C639.998 396.93 643.388 398.393 645.813 400.473L642.598 406.166C640.327 404.409 637.93 403.229 635.558 402.603L634.447 410.931C639.63 412.94 645.273 415.564 644.352 422.47C643.672 427.565 639.419 431.469 631.721 431.358Z" fill="#E0E0E0"/>
<path d="M641.814 90.6588C638.884 110.456 620.673 124.087 601.138 121.106C581.6 118.126 568.137 99.6617 571.066 79.8658C573.994 60.0682 592.205 46.438 611.741 49.4175C631.278 52.3976 644.741 70.8629 641.814 90.6588Z" fill="#F4F4F4"/>
<path d="M633.396 89.3758C631.165 104.461 617.287 114.85 602.399 112.578C587.511 110.308 577.251 96.2363 579.482 81.1496C581.715 66.0645 595.593 55.6749 610.479 57.9471C625.368 60.2192 635.628 74.2891 633.396 89.3758Z" fill="#EBECEC"/>
<path d="M633.517 88.5159C633.353 88.4972 633.415 87.2775 633.292 85.1159C633.156 82.963 632.785 79.8235 631.423 76.2482C630.743 74.4685 629.819 72.5888 628.591 70.7299C627.348 68.8826 625.821 67.043 623.954 65.4002C623.023 64.5741 622.021 63.7854 620.933 63.0791C619.85 62.3679 618.702 61.7012 617.476 61.1483C616.255 60.5926 614.978 60.0913 613.642 59.7187C612.309 59.3444 610.929 59.063 609.516 58.8838C608.102 58.7228 606.696 58.6706 605.313 58.7173C603.927 58.7629 602.571 58.9465 601.254 59.1982C599.935 59.4472 598.666 59.8231 597.448 60.2568C596.229 60.6866 595.073 61.217 593.98 61.7985C591.786 62.9538 589.879 64.3817 588.248 65.8833C586.626 67.4008 585.296 69.009 584.225 70.581C582.08 73.732 581.001 76.6972 580.375 78.7578C579.758 80.8315 579.539 82.0324 579.375 82.0105C579.253 81.9984 579.197 80.7612 579.585 78.561C579.984 76.3801 580.887 73.1999 582.987 69.7604C584.038 68.0494 585.378 66.2823 587.053 64.6098C588.737 62.9538 590.737 61.3703 593.065 60.0814C594.226 59.4323 595.458 58.8404 596.764 58.3573C598.066 57.8686 599.429 57.4487 600.849 57.1651C602.267 56.8788 603.731 56.6699 605.225 56.6133C606.717 56.5539 608.236 56.6078 609.761 56.782C611.284 56.9744 612.772 57.2811 614.211 57.6928C615.651 58.1028 617.024 58.653 618.337 59.2669C619.653 59.8781 620.882 60.6102 622.036 61.3945C623.195 62.1728 624.258 63.0401 625.237 63.9464C627.204 65.7519 628.786 67.7647 630.044 69.7758C631.286 71.7968 632.187 73.8331 632.815 75.7458C634.07 79.5883 634.217 82.8943 634.105 85.1115C633.978 87.343 633.639 88.5323 633.517 88.5159Z" fill="#E0E0E0"/>
<path d="M222.011 44.6088C230.643 76.8587 211.841 110.124 180.018 118.914C148.193 127.702 115.396 108.684 106.764 76.4339C98.1302 44.1867 116.931 10.92 148.756 2.13201C153.656 0.779373 158.577 0.0879403 163.431 0H165.487C191.361 0.441351 214.896 18.0294 222.011 44.6088Z" fill="#F4F4F4"/>
<path d="M208.3 48.3971C214.878 72.9709 200.551 98.3219 176.297 105.02C152.047 111.716 127.052 97.2232 120.474 72.6494C113.896 48.0734 128.224 22.7224 152.476 16.0263C176.727 9.32962 201.721 23.8211 208.3 48.3971Z" fill="#EBECEC"/>
<path d="M207.915 47.0014C207.652 47.0849 206.941 45.1799 205.319 41.958C203.687 38.763 201.043 34.2198 196.594 29.6876C194.375 27.4335 191.719 25.1911 188.611 23.1893C185.49 21.2167 181.939 19.4475 177.998 18.2113C176.031 17.5864 173.976 17.0654 171.846 16.7296C169.72 16.3822 167.525 16.1497 165.287 16.1404C163.052 16.1228 160.769 16.2299 158.482 16.5746C156.196 16.9142 153.901 17.4259 151.624 18.1163C149.357 18.8374 147.171 19.7168 145.09 20.7336C143.004 21.7493 141.054 22.9552 139.209 24.2386C137.357 25.5208 135.666 26.9609 134.095 28.4558C132.514 29.9437 131.099 31.5464 129.814 33.1804C127.227 36.4436 125.258 39.9293 123.76 43.337C122.287 46.7628 121.322 50.1287 120.723 53.2594C119.534 59.5422 119.847 64.8087 120.255 68.3852C120.686 71.9748 121.147 73.9595 120.882 74.0386C120.688 74.1024 119.782 72.249 118.918 68.6237C118.083 65.0176 117.357 59.5433 118.29 52.8543C118.762 49.5209 119.641 45.9071 121.093 42.207C122.569 38.5261 124.576 34.7425 127.28 31.1798C128.624 29.3968 130.114 27.6512 131.79 26.0215C133.458 24.3848 135.262 22.8117 137.244 21.4096C139.22 20.0015 141.318 18.6851 143.563 17.5776C145.805 16.4657 148.162 15.5116 150.606 14.7366C153.06 13.9897 155.538 13.4439 158.008 13.091C160.478 12.7343 162.943 12.6343 165.356 12.6777C167.77 12.7134 170.134 12.9921 172.415 13.4021C174.702 13.8006 176.9 14.4008 178.996 15.1137C183.197 16.5317 186.948 18.5246 190.2 20.7385C193.438 22.9788 196.161 25.4758 198.389 27.9689C202.848 32.9837 205.263 37.9331 206.56 41.3974C207.843 44.8935 208.112 46.9431 207.915 47.0014Z" fill="#E0E0E0"/>
<path d="M89.1594 146.86C85.3275 167.394 65.7943 180.878 45.5301 176.978C25.2653 173.079 11.9441 153.27 15.7755 132.736C19.6058 112.203 39.139 98.718 59.4038 102.618C79.668 106.518 92.9903 126.326 89.1594 146.86Z" fill="#F4F4F4"/>
<path d="M80.429 145.181C77.5095 160.827 62.6238 171.103 47.1802 168.131C31.7387 165.16 21.586 150.064 24.5056 134.417C27.4251 118.77 42.3114 108.492 57.7533 111.465C73.1953 114.437 83.3475 129.532 80.429 145.181Z" fill="#EBECEC"/>
<path d="M80.5879 144.289C80.4174 144.262 80.5305 142.993 80.4862 140.732C80.4288 138.481 80.1664 135.191 78.8849 131.407C78.2436 129.521 77.3545 127.523 76.1455 125.533C74.9214 123.556 73.4019 121.575 71.5175 119.785C70.5797 118.887 69.5645 118.022 68.4573 117.243C67.3549 116.457 66.1839 115.717 64.9268 115.089C63.6745 114.458 62.3622 113.886 60.9833 113.443C59.6055 112.999 58.1774 112.649 56.712 112.404C55.2427 112.179 53.7762 112.067 52.3324 112.061C50.8853 112.052 49.4637 112.189 48.0805 112.398C46.694 112.604 45.3552 112.943 44.0683 113.349C42.7782 113.747 41.5519 114.254 40.3884 114.816C38.0544 115.933 36.0083 117.346 34.2484 118.846C32.4972 120.362 31.0469 121.988 29.8672 123.582C27.5072 126.784 26.2642 129.834 25.5304 131.959C24.8063 134.096 24.5308 135.341 24.3598 135.311C24.2332 135.295 24.2229 134.001 24.7143 131.721C25.2159 129.461 26.282 126.18 28.6085 122.678C29.7714 120.934 31.2396 119.146 33.0519 117.469C34.874 115.809 37.0224 114.239 39.502 112.987C40.7386 112.358 42.0471 111.79 43.4276 111.339C44.8065 110.883 46.2449 110.499 47.7368 110.26C49.2272 110.019 50.7619 109.861 52.3232 109.862C53.8833 109.859 55.4662 109.977 57.0491 110.22C58.6309 110.484 60.1705 110.864 61.6544 111.351C63.1404 111.837 64.5534 112.466 65.8987 113.16C67.2467 113.851 68.5006 114.666 69.6727 115.53C70.8525 116.389 71.9272 117.336 72.9132 118.321C74.8944 120.286 76.4664 122.447 77.6997 124.597C78.9163 126.757 79.7756 128.917 80.3568 130.939C81.5144 134.997 81.5387 138.453 81.3353 140.76C81.115 143.083 80.714 144.311 80.5879 144.289Z" fill="#E0E0E0"/>
<path d="M672.38 481.113L636.726 479.798L642.807 487.614L659.722 509.071L665.158 515.992L672.38 481.113Z" fill="#DEDDE1"/>
<path d="M458.768 606.404L442.015 588.808L516.404 529.748L529.386 555.88L589.049 507.292L603.24 528.412L657.268 483.334L666.915 492.953L598.085 555.35L583.709 527.336L523.245 584.028L511.919 554.21L458.768 606.404Z" fill="#DEDDE1"/>
<path d="M604.598 158.73L556.974 184.491L570.769 190.03L608.928 205.061L621.213 209.924L604.598 158.73Z" fill="#DEDDE1"/>
<path d="M427.039 472.548L393.582 462.903L444.329 334.476L479.164 357.546L518.998 253.02L551.767 268.948L587.066 172.946L605.967 177.855L564.538 306.36L526.62 281.967L491.568 397.2L456.171 368.311L427.039 472.548Z" fill="#DEDDE1"/>
<path d="M674.158 655.108C674.158 655.322 523.268 655.497 337.178 655.497C151.026 655.497 0.167969 655.322 0.167969 655.108C0.167969 654.894 151.026 654.72 337.178 654.72C523.268 654.72 674.158 654.894 674.158 655.108Z" fill="#29383E"/>
<path d="M392.305 654.748H428.51V594.564H392.305V654.748Z" fill="#ED7068"/>
<path d="M538.312 654.749H574.518V552.647H538.312V654.749Z" fill="#379C60"/>
<path d="M611.314 654.748H647.521V617.652H611.314V654.748Z" fill="#379C60"/>
<path d="M465.309 654.748H501.515V565.965H465.309V654.748Z" fill="#ED7068"/>
<path d="M319.302 654.749H355.507V544.133H319.302V654.749Z" fill="#ED7068"/>
<path d="M246.299 654.748H282.504V512.456H246.299V654.748Z" fill="#ED7068"/>
<path d="M173.294 654.748H209.5V477.181H173.294V654.748Z" fill="#ED7068"/>
<path d="M100.291 654.748H136.496V429.338H100.291V654.748Z" fill="#379C60"/>
<path d="M27.2876 654.748H63.4933V358.446H27.2876V654.748Z" fill="#379C60"/>
<path d="M584.224 614.866C572.698 591.989 548.285 576.413 522.989 575.801C538.339 558.552 541.361 531.872 532.509 510.43C523.658 488.987 504.172 473.007 482.31 466.109C460.45 459.211 436.521 460.834 414.733 467.968C417.261 451.202 400.754 434.472 384.251 437.075C390.703 432.542 392.905 422.78 389.039 415.849C385.173 408.917 375.798 405.815 368.654 409.103L369.62 286.223H297.697L298.663 409.103C291.517 405.815 282.142 408.917 278.276 415.849C274.411 422.78 276.613 432.542 283.064 437.075C266.563 434.472 250.055 451.202 252.582 467.968C230.794 460.834 206.865 459.211 185.006 466.109C163.144 473.007 143.659 488.987 134.806 510.43C125.954 531.872 128.977 558.552 144.327 575.801C119.031 576.413 94.6176 591.989 83.092 614.866C76.3951 628.159 75.7798 647.795 88.7893 654.748H578.527C591.536 647.795 590.921 628.159 584.224 614.866Z" fill="#FAFAFA"/>
<path d="M88.7894 654.748C88.7894 654.748 88.1962 654.398 87.043 653.678C85.9082 652.942 84.334 651.613 82.6932 649.484C81.1011 647.321 79.654 644.217 78.8948 640.31C78.1069 636.408 78.1269 631.724 79.0479 626.611C79.9365 621.488 82.0151 615.967 85.3016 610.536C88.5464 605.081 92.8827 599.604 98.3787 594.589C103.883 589.611 110.482 584.942 118.265 581.573C119.238 581.156 120.218 580.735 121.205 580.31C122.218 579.952 123.238 579.59 124.266 579.227C125.286 578.836 126.34 578.529 127.409 578.244C128.477 577.958 129.539 577.618 130.633 577.371C135.004 576.351 139.59 575.758 144.321 575.565L144.155 575.958C139.678 570.884 136.018 564.718 133.475 557.841C130.98 550.948 129.645 543.342 129.63 535.486C129.686 527.636 130.998 519.503 134.024 511.724C135.523 507.84 137.368 504.021 139.64 500.401C141.866 496.758 144.436 493.255 147.362 490.004C158.957 476.922 175.511 467.119 194.197 463.409C203.515 461.469 213.292 460.987 223.147 461.686C233.002 462.461 242.937 464.469 252.688 467.637L252.243 468.02C251.656 464.06 252.114 459.892 253.5 456.014C254.878 452.127 257.139 448.516 260.032 445.465C262.925 442.416 266.465 439.905 270.434 438.3C274.391 436.694 278.812 436.037 283.119 436.715L282.86 437.373C276.628 432.99 274.033 423.54 277.71 416.178C281.414 408.854 291.141 405.291 298.814 408.763L298.294 409.106C297.983 369.97 297.655 328.714 297.315 286.227L297.313 285.836H297.697C309.102 285.836 321.322 285.836 333.631 285.836C345.722 285.836 357.729 285.836 369.62 285.836H370.004L370.001 286.227C369.662 328.612 369.335 369.745 369.021 409.106L368.502 408.763C376.037 405.352 385.598 408.699 389.465 415.889C393.284 423.111 390.933 432.793 384.455 437.374L384.197 436.715C388.454 436.041 392.817 436.672 396.741 438.237C400.674 439.801 404.202 442.257 407.109 445.267C410.016 448.28 412.319 451.871 413.745 455.782C415.178 459.688 415.688 463.935 415.074 468.021L414.629 467.636C424.378 464.471 434.308 462.462 444.156 461.686C454.002 460.987 463.769 461.465 473.079 463.402C491.748 467.096 508.287 476.872 519.887 489.928C522.817 493.171 525.382 496.673 527.618 500.308C529.898 503.918 531.737 507.739 533.252 511.615C534.827 515.478 535.794 519.497 536.591 523.462C537.3 527.454 537.654 531.444 537.683 535.377C537.693 543.238 536.349 550.855 533.869 557.773C531.325 564.667 527.658 570.86 523.161 575.958L522.995 575.567C527.735 575.758 532.326 576.354 536.703 577.375C537.796 577.624 538.862 577.963 539.93 578.25C541 578.534 542.054 578.845 543.076 579.235C544.105 579.6 545.127 579.962 546.139 580.321C547.129 580.747 548.109 581.168 549.082 581.588C556.873 584.961 563.469 589.642 568.976 594.623C574.471 599.643 578.802 605.124 582.044 610.581C585.324 616.015 587.395 621.535 588.276 626.655C589.195 631.766 589.205 636.446 588.414 640.341C587.653 644.242 586.202 647.337 584.614 649.499C582.971 651.62 581.402 652.947 580.269 653.681C579.118 654.398 578.527 654.748 578.527 654.748C578.527 654.748 579.098 654.359 580.232 653.627C581.351 652.879 582.898 651.541 584.511 649.422C586.071 647.262 587.492 644.185 588.229 640.304C588.995 636.432 588.964 631.779 588.032 626.702C587.134 621.609 585.065 616.145 581.782 610.741C578.54 605.319 574.214 599.876 568.733 594.896C563.244 589.953 556.671 585.31 548.918 581.972C547.949 581.556 546.973 581.139 545.989 580.719C544.981 580.364 543.964 580.006 542.941 579.645C541.925 579.259 540.877 578.953 539.813 578.671C538.749 578.39 537.691 578.053 536.603 577.808C532.252 576.802 527.689 576.218 522.983 576.035L522.49 576.017L522.817 575.643C527.265 570.581 530.888 564.439 533.402 557.598C535.85 550.736 537.174 543.177 537.153 535.379C537.118 531.477 536.763 527.52 536.055 523.564C535.258 519.632 534.296 515.649 532.729 511.824C531.225 507.983 529.396 504.197 527.129 500.619C524.907 497.016 522.361 493.543 519.449 490.331C507.922 477.387 491.496 467.694 472.951 464.043C463.704 462.126 453.996 461.659 444.205 462.361C434.414 463.141 424.537 465.144 414.838 468.3L414.31 468.472L414.394 467.915C414.986 463.955 414.491 459.831 413.094 456.029C411.702 452.216 409.451 448.71 406.609 445.767C403.766 442.826 400.315 440.428 396.482 438.908C392.66 437.384 388.427 436.779 384.307 437.434L382.764 437.678L384.049 436.776C390.21 432.442 392.477 423.088 388.826 416.241C385.177 409.409 375.943 406.182 368.805 409.443L368.281 409.683L368.286 409.1C368.591 369.739 368.91 328.605 369.238 286.221L369.62 286.611C357.729 286.611 345.722 286.611 333.631 286.611C321.322 286.611 309.102 286.611 297.697 286.611L298.077 286.221C298.407 328.708 298.728 369.964 299.03 409.1L299.034 409.683L298.51 409.443C291.24 406.123 281.847 409.558 278.354 416.517C274.839 423.499 277.34 432.629 283.267 436.776L284.557 437.678L283.009 437.434C278.84 436.773 274.552 437.407 270.695 438.969C266.828 440.53 263.365 442.981 260.536 445.959C254.859 451.875 251.738 460.186 252.921 467.915L253.006 468.472L252.477 468.3C242.777 465.143 232.895 463.139 223.097 462.36C213.299 461.658 203.581 462.13 194.323 464.049C175.763 467.717 159.32 477.434 147.801 490.406C144.894 493.627 142.34 497.099 140.129 500.712C137.87 504.298 136.036 508.085 134.546 511.931C131.539 519.635 130.226 527.7 130.16 535.489C130.165 543.281 131.479 550.827 133.941 557.667C136.454 564.489 140.071 570.607 144.499 575.643L144.827 576.017L144.333 576.036C139.634 576.218 135.078 576.799 130.732 577.804C129.645 578.047 128.588 578.384 127.527 578.666C126.463 578.948 125.416 579.25 124.401 579.636C123.379 579.997 122.364 580.353 121.356 580.708C120.374 581.128 119.397 581.545 118.43 581.959C110.683 585.292 104.109 589.921 98.6201 594.862C93.1387 599.838 88.8088 605.276 85.563 610.696C82.2733 616.099 80.1968 621.563 79.2915 626.657C78.3574 631.737 78.3174 636.395 79.0804 640.274C79.8148 644.158 81.2315 647.246 82.7966 649.408C84.4092 651.533 85.9602 652.873 87.0793 653.624C88.2163 654.359 88.7894 654.748 88.7894 654.748Z" fill="#29383E"/>
<path d="M240.352 117.768L330.934 10.6755L417.977 117.768H384.009V292.423H278.565V117.952L240.352 117.768Z" fill="#379C60"/>
<path d="M670.563 291.786L606.44 311.801L622.009 321.783L665.145 349.044L679.026 357.852L670.563 291.786Z" fill="#379C60"/>
<path d="M381.169 630.741L342.53 611.128L434.192 467.232L471.41 503.469L544.219 386.006L580.564 413.083L645.865 304.897L667.817 315.322L587.517 461.514L546.841 422.942L477.396 554.531L440.838 511.101L381.169 630.741Z" fill="#379C60"/>
<path d="M207.054 625.192C210.615 609.133 224.409 595.938 240.404 593.292C244.277 592.653 248.465 592.492 251.622 590.126C251.622 590.126 255.92 582.813 258.297 579.22C266.578 566.694 276.327 559.978 285.765 555.177C296.639 549.649 306.658 547.251 317.529 547.251C322.468 547.251 327.585 547.746 333.033 548.666C347.005 551.027 360.425 558.916 368.324 570.635L342.53 611.128L365.099 622.585L207.054 625.192ZM385.403 622.25L402.375 588.219C408.304 588.67 414.059 590.33 418.997 593.654C427.788 599.574 432.945 611.692 428.783 621.534L385.403 622.25Z" fill="#A7A6A6"/>
<path d="M365.099 622.585L342.53 611.128L368.324 570.635C370.286 573.547 371.908 576.697 373.113 580.056C374.296 583.359 375.313 587.128 378.281 588.933C379.59 589.73 381.053 590.004 382.569 590.004C384.518 590.004 386.558 589.551 388.481 589.165C391.899 588.481 395.425 588.091 398.937 588.091C400.086 588.091 401.235 588.133 402.375 588.219L385.403 622.25L365.099 622.585Z" fill="#253E3C"/>
<path d="M194.903 639.889C201.833 614.959 229.161 597.847 254.203 602.756C259.484 575.627 285.094 554.084 312.322 553.868C339.55 553.651 365.491 574.787 371.189 601.827C386.236 598.309 402.418 595.69 416.784 601.438C431.149 607.188 442.152 624.287 436.207 638.761L194.903 639.889Z" fill="#FAFAFA"/>
<path d="M436.209 638.76C436.2 638.757 436.238 638.613 436.322 638.333C436.417 638.028 436.544 637.622 436.708 637.094C436.888 636.551 437.119 635.88 437.235 635.041C437.371 634.211 437.624 633.263 437.633 632.153C438.007 627.813 436.985 621.029 432.29 614.295C429.97 610.956 426.807 607.665 422.778 604.946C418.786 602.156 413.761 600.362 408.297 599.291C402.806 598.284 396.828 598.146 390.611 598.746C384.387 599.323 377.931 600.609 371.265 602.167L370.931 602.244L370.854 601.9C368.473 591.185 362.765 580.349 353.899 571.793C345.115 563.254 333.372 556.756 320.351 554.864C312.246 553.711 304.016 554.353 296.515 556.808C288.996 559.19 282.142 563.011 276.29 567.711C270.438 572.417 265.556 577.996 261.904 584.021C258.241 590.043 255.776 596.472 254.518 602.819L254.455 603.137L254.141 603.076C248.546 602.006 243.025 602.073 237.916 602.868C235.34 603.185 232.911 603.911 230.543 604.544C229.385 604.954 228.244 605.36 227.12 605.758C225.982 606.122 224.952 606.706 223.888 607.156C221.742 608.034 219.86 609.279 217.958 610.304C217.063 610.914 216.184 611.51 215.322 612.096C214.89 612.391 214.464 612.682 214.042 612.97C213.634 613.279 213.249 613.61 212.858 613.925C212.081 614.559 211.319 615.181 210.573 615.789C209.835 616.405 209.193 617.101 208.523 617.732C207.871 618.382 207.194 618.98 206.607 619.631C206.034 620.298 205.474 620.946 204.93 621.576C200.622 626.692 198.218 631.439 196.807 634.725C196.095 636.37 195.735 637.706 195.396 638.569C195.087 639.444 194.903 639.888 194.903 639.888C194.903 639.888 195.381 638.028 196.626 634.649C197.986 631.325 200.35 626.52 204.646 621.332C205.191 620.693 205.749 620.034 206.323 619.36C206.908 618.698 207.585 618.091 208.237 617.431C208.907 616.791 209.55 616.084 210.29 615.458C211.037 614.84 211.801 614.208 212.581 613.563C212.973 613.245 213.359 612.908 213.769 612.594C214.193 612.301 214.62 612.004 215.053 611.705C215.921 611.108 216.803 610.5 217.703 609.881C219.615 608.836 221.509 607.572 223.669 606.673C224.74 606.213 225.78 605.621 226.926 605.246C228.061 604.839 229.21 604.425 230.379 604.005C232.769 603.353 235.222 602.609 237.827 602.278C242.992 601.454 248.582 601.366 254.263 602.435L253.887 602.693C255.142 596.263 257.62 589.75 261.313 583.651C264.996 577.548 269.923 571.896 275.835 567.129C281.746 562.367 288.677 558.493 296.294 556.075C303.888 553.583 312.24 552.925 320.46 554.095C333.662 556.015 345.537 562.601 354.416 571.249C363.373 579.914 369.139 590.893 371.524 601.755L371.113 601.488C377.795 599.944 384.285 598.668 390.554 598.107C396.814 597.523 402.851 597.683 408.401 598.724C413.917 599.829 419.01 601.674 423.051 604.531C427.123 607.31 430.303 610.662 432.625 614.059C437.327 620.907 438.294 627.796 437.848 632.171C437.822 633.289 437.55 634.244 437.395 635.077C437.26 635.918 437.012 636.588 436.814 637.129C436.625 637.65 436.482 638.054 436.373 638.354C436.272 638.627 436.216 638.764 436.209 638.76Z" fill="#29383E"/>
<path d="M140.832 258.719C141.282 287.348 164.478 310.269 192.537 309.808C220.597 309.349 243.059 285.681 242.608 257.051C242.158 228.42 218.962 205.503 190.903 205.962C162.843 206.421 140.381 230.089 140.832 258.719ZM298.15 256.14C299.095 316.018 252.116 365.517 193.429 366.48C134.745 367.442 86.2312 319.509 85.2896 259.63C84.3464 199.75 131.325 150.251 190.011 149.29C248.697 148.328 297.208 196.261 298.15 256.14Z" fill="#DEDDE1"/>
<path d="M298.15 256.14C299.093 316.019 252.116 365.518 193.429 366.479L192.537 309.809C220.597 309.348 243.059 285.681 242.608 257.05C242.158 228.421 218.962 205.503 190.903 205.962L190.011 149.292C248.697 148.331 297.208 196.262 298.15 256.14Z" fill="#253E3C"/>
<path d="M193.282 310.537L194.152 365.718C252.089 364.365 298.348 315.37 297.416 256.152C296.963 227.39 285.53 200.5 265.223 180.435C245.091 160.544 218.669 149.767 190.755 150.027L191.625 205.21C205.079 205.193 217.878 210.438 227.62 220.063C237.537 229.862 243.12 242.993 243.342 257.037C243.796 285.828 221.405 309.672 193.282 310.537ZM192.707 367.236L191.791 309.076L192.525 309.063C220.182 308.609 242.319 285.282 241.874 257.062C241.659 243.413 236.233 230.654 226.598 221.132C216.961 211.612 204.309 206.506 190.914 206.707L190.179 206.719L189.265 148.558L189.997 148.545C218.598 148.078 245.657 159.023 266.246 179.366C286.833 199.708 298.425 226.968 298.885 256.128C299.833 316.419 252.532 366.257 193.441 367.224L192.707 367.236Z" fill="#191919"/>
<path d="M202.986 375.196C134.328 376.322 79.5572 322.204 78.4548 252.15L143.435 251.086C143.962 284.581 169.056 305.669 201.882 305.131L202.986 375.196Z" fill="#379C60"/>
<path d="M115.784 253.291C116.197 253.578 110.054 263.361 102.066 275.137C94.0742 286.915 87.2643 296.227 86.8514 295.939C86.439 295.649 92.5807 285.87 100.572 274.09C108.56 262.316 115.372 253.002 115.784 253.291Z" fill="#253E3C"/>
<path d="M144.033 258.814C144.445 259.102 135.36 273.222 123.742 290.348C112.12 307.479 102.368 321.127 101.955 320.838C101.543 320.55 110.626 306.432 122.249 289.302C133.866 272.177 143.621 258.526 144.033 258.814Z" fill="#253E3C"/>
<path d="M157.779 288.158C158.192 288.446 150.013 301.229 139.514 316.707C129.01 332.188 120.164 344.501 119.751 344.211C119.339 343.923 127.516 331.144 138.019 315.66C148.519 300.184 157.367 287.869 157.779 288.158Z" fill="#253E3C"/>
<path d="M181.701 304.388C182.114 304.677 173.935 317.461 163.436 332.937C152.932 348.418 144.087 360.732 143.674 360.443C143.261 360.153 151.438 347.373 161.942 331.891C172.441 316.415 181.289 304.1 181.701 304.388Z" fill="#253E3C"/>
<path d="M202.195 324.989C202.608 325.278 195.925 335.855 187.27 348.611C178.614 361.373 171.264 371.48 170.85 371.191C170.438 370.903 177.119 360.328 185.776 347.567C194.431 334.81 201.782 324.701 202.195 324.989Z" fill="#253E3C"/>
<path d="M541.084 49.363C541.084 49.363 547.492 34.362 547.807 32.0162C548.121 29.6676 547.474 24.455 545.814 23.0292C544.154 21.6057 542.009 21.3089 540.531 22.3004C540.531 22.3004 540.296 19.0236 537.017 18.4003C533.736 17.7775 533.829 20.8632 533.829 20.8632C533.829 20.8632 533.978 18.5767 531.595 17.965C530.431 17.6671 529.101 18.3437 529.101 18.3437C529.101 18.3437 525.969 15.5098 523.883 17.2702C521.797 19.0323 524.2 46.3499 524.2 46.3499L541.084 49.363Z" fill="#F7BAA1"/>
<path d="M523.776 43.2161C523.776 43.2161 518.051 33.2036 518.081 30.4752C518.108 27.7458 521.327 21.5592 523.113 20.7809C524.9 20.0032 531.973 18.3867 531.973 18.3867C531.973 18.3867 534.859 21.142 530.589 23.8698L525.66 26.6888C525.66 26.6888 533.532 29.3617 533.281 37.5253L523.776 43.2161Z" fill="#F7BAA1"/>
<path d="M533.281 37.5256C533.151 37.5377 533.322 36.0724 532.55 33.7497C532.129 32.6109 531.41 31.2929 530.24 30.0732C529.081 28.8646 527.465 27.7285 525.558 26.9997L524.906 26.7519L525.502 26.4045C527.056 25.4982 528.731 24.522 530.499 23.4898C531.316 22.9638 532.095 22.2378 532.421 21.3391C532.751 20.4504 532.401 19.3759 531.714 18.6674L532.056 18.763C530.845 19.0549 529.569 19.3632 528.275 19.6782C527.267 19.9315 526.271 20.191 525.301 20.4669C524.818 20.607 524.336 20.7472 523.875 20.9049C523.645 20.983 523.412 21.066 523.218 21.1616C523.048 21.2484 522.876 21.3776 522.709 21.5315C521.392 22.8446 520.468 24.5874 519.704 26.1929C519.33 27.0113 518.995 27.8269 518.754 28.636C518.528 29.4412 518.318 30.2579 518.448 30.9708C518.757 32.49 519.384 33.9003 519.919 35.1556C521.032 37.6735 522.056 39.6637 522.745 41.0444C523.439 42.4228 523.822 43.189 523.776 43.2165C523.73 43.2429 523.26 42.5272 522.484 41.1906C521.712 39.8489 520.615 37.8972 519.428 35.3849C518.854 34.1163 518.195 32.751 517.822 31.0785C517.655 30.1672 517.887 29.295 518.11 28.4425C518.352 27.5851 518.687 26.7414 519.064 25.8933C519.854 24.2148 520.724 22.4719 522.208 20.9665C522.405 20.784 522.623 20.6103 522.898 20.468C523.149 20.346 523.39 20.263 523.632 20.1789C524.116 20.0107 524.604 19.8678 525.094 19.7232C526.077 19.4413 527.077 19.1802 528.09 18.9241C529.392 18.6108 530.673 18.3035 531.89 18.0117L532.091 17.9639L532.233 18.1068C533.119 19.006 533.559 20.3789 533.122 21.5865C532.677 22.761 531.778 23.5316 530.878 24.1103C529.088 25.1244 527.393 26.0824 525.817 26.9745L525.762 26.3792C527.809 27.1993 529.425 28.4024 530.619 29.7067C531.812 31.0159 532.52 32.4262 532.904 33.6271C533.07 34.2389 533.224 34.7797 533.258 35.2705C533.325 35.7564 533.372 36.1664 533.347 36.5028C533.337 37.1739 533.315 37.5273 533.281 37.5256Z" fill="#F29573"/>
<path d="M533.244 20.9932C532.449 23.8957 532.161 26.9418 532.399 29.9455C532.479 30.9656 532.654 32.0533 533.352 32.7915C534.013 33.495 535.06 33.7396 536.001 33.5604C536.943 33.3818 537.783 32.8244 538.458 32.1341L533.244 20.9932Z" fill="#F7BAA1"/>
<path d="M538.458 32.1323C538.512 32.1559 537.984 33.1579 536.35 33.7592C535.546 34.0225 534.388 34.0433 533.394 33.3101C532.37 32.5396 532.089 31.1276 532.013 29.9052C531.609 24.8376 533.079 20.9023 533.245 20.993C533.477 21.0436 532.38 24.9542 532.775 29.8453C532.849 31.0457 533.102 32.1713 533.826 32.7462C534.546 33.3277 535.505 33.3981 536.209 33.2293C537.67 32.8452 538.373 32.013 538.458 32.1323Z" fill="#F29573"/>
<path d="M526.944 26.394C526.447 27.6972 526.626 28.2666 526.702 29.6605C526.78 31.056 527.611 32.5092 528.948 32.8357C530.064 33.1072 531.506 31.5908 532.163 30.0183L526.944 26.394Z" fill="#F7BAA1"/>
<path d="M532.163 30.0181C532.246 30.0461 532.126 30.759 531.475 31.7011C531.142 32.1573 530.704 32.7058 529.952 33.0653C529.598 33.2455 529.026 33.2977 528.61 33.1296C528.18 32.9889 527.785 32.7223 527.46 32.3898C526.806 31.7148 526.497 30.8607 526.396 30.0868C526.34 29.3014 526.322 28.7166 526.338 28.1203C526.413 26.938 526.878 26.3554 526.944 26.3939C527.069 26.4356 526.806 27.0914 526.878 28.1159C526.953 28.7644 527.022 29.38 527.092 29.9796C527.211 30.6216 527.496 31.3251 528.004 31.8445C528.257 32.1007 528.545 32.3002 528.852 32.4095C529.165 32.5283 529.386 32.5079 529.685 32.4035C530.247 32.1798 530.71 31.7313 531.056 31.3565C531.755 30.5815 532.053 29.9686 532.163 30.0181Z" fill="#F29573"/>
<path d="M541.058 22.4724C539.451 24.2417 538.267 26.4066 537.64 28.7294C537.31 29.9457 537.205 31.4379 538.125 32.2877C539.087 33.1791 540.654 32.8472 541.759 32.1464C543.438 31.0829 544.648 29.2856 545.011 27.3113L541.058 22.4724Z" fill="#F7BAA1"/>
<path d="M545.012 27.311C545.087 27.3022 545.107 28.5889 544.065 30.2763C543.54 31.1024 542.746 31.9949 541.592 32.6528C541.009 32.9656 540.33 33.2041 539.568 33.2041C538.819 33.2206 537.935 32.8557 537.48 32.1098C537.017 31.3722 536.983 30.5357 537.055 29.8217C537.131 29.0929 537.337 28.4367 537.541 27.8343C537.959 26.6212 538.498 25.5956 539.017 24.786C540.066 23.1652 540.999 22.4094 541.058 22.4721C541.15 22.5556 540.374 23.435 539.48 25.0691C539.038 25.8858 538.573 26.8922 538.209 28.0607C538.03 28.6499 537.855 29.2638 537.801 29.8959C537.742 30.5252 537.802 31.1903 538.121 31.6849C538.778 32.7375 540.29 32.538 541.269 32.0175C542.297 31.475 543.085 30.6896 543.622 29.9635C544.702 28.4801 544.883 27.2742 545.012 27.311Z" fill="#F29573"/>
<path d="M461.392 145.416C461.392 145.416 469.348 136.701 472.482 134.746C475.615 132.792 496.323 107.735 498.51 101.141C500.699 94.5472 521.001 41.6098 520.585 42.3238C520.236 42.9202 546.361 47.9278 546.361 47.9278C546.361 47.9278 526.908 108.975 524.541 115.961C520.253 128.615 499.015 154.245 486.91 169.614C481.755 176.159 474.621 197.113 474.621 197.113L461.392 145.416Z" fill="#191919"/>
<path d="M480.358 178.288C480.261 178.3 479.935 176.479 479.605 173.506C479.273 170.534 478.964 166.407 478.884 161.84C478.809 157.273 478.978 153.137 479.209 150.155C479.439 147.171 479.702 145.34 479.8 145.348C479.913 145.359 479.84 147.204 479.749 150.184C479.656 153.164 479.574 157.281 479.649 161.827C479.728 166.371 479.95 170.481 480.142 173.457C480.334 176.432 480.469 178.275 480.358 178.288Z" fill="#35AA75"/>
<path d="M349.193 489.442L338.011 512.59L336.584 518.259C336.584 518.259 344.048 552.661 339.383 556.052L306.096 501.479L314.674 495.99L325.333 472.857L349.193 489.442Z" fill="#379C60"/>
<path d="M306.096 501.48L310.31 499.024L340.648 552.265C340.648 552.265 341.146 555.318 339.383 556.053L306.096 501.48Z" fill="#253E3C"/>
<path d="M337.382 518.98C337.128 519.13 336.204 517.868 334.605 517.061C333.024 516.213 331.536 516.218 331.486 515.909C331.383 515.633 333.111 515.092 335.033 516.103C336.96 517.096 337.647 518.896 337.382 518.98Z" fill="#253E3C"/>
<path d="M338.666 526.1C338.464 526.313 337.337 525.426 335.734 525.185C334.137 524.896 332.861 525.384 332.71 525.113C332.518 524.886 333.861 523.783 335.85 524.122C337.84 524.442 338.9 525.943 338.666 526.1Z" fill="#253E3C"/>
<path d="M334.263 533.388C334.063 533.18 335.078 532.023 336.855 531.848C338.633 531.659 339.935 532.576 339.797 532.821C339.685 533.099 338.461 532.752 337.005 532.919C335.544 533.051 334.45 533.637 334.263 533.388Z" fill="#253E3C"/>
<path d="M463.229 319.117C462.131 321.754 405.975 409.067 394.454 418.77C382.934 428.473 343.611 508.115 343.611 508.115C343.611 508.115 311.485 492.286 310.768 494.007C310.052 495.729 333.299 437.786 347.165 413.996C361.032 390.206 367.505 380.999 367.505 380.999L395.101 306.28C395.101 306.28 395.672 281.663 399.22 272.086C402.767 262.51 413.15 254.19 413.15 254.19L463.229 319.117Z" fill="#191919"/>
<path d="M412.64 424.634L382.782 426.81C382.782 426.81 375.106 460.051 369.63 461.028L363.063 399.168L409.437 393.73L412.64 424.634Z" fill="#379C60"/>
<path d="M383.252 407.403C382.82 406.239 381.475 405.553 380.376 405.957C379.277 406.36 378.625 407.811 379.039 408.983C379.452 410.153 381.043 411.031 382.092 410.497C383.14 409.963 383.818 408.215 383.155 407.182L383.252 407.403Z" fill="#E0E0E0"/>
<path d="M363.062 399.169L367.759 398.816L372.3 458.259C372.3 458.259 371.474 461.138 369.631 461.029L363.062 399.169Z" fill="#253E3C"/>
<path d="M383.181 427.78C382.898 427.802 382.61 426.306 381.546 424.921C380.515 423.507 379.212 422.876 379.296 422.585C379.32 422.302 381.053 422.563 382.315 424.266C383.589 425.953 383.447 427.817 383.181 427.78Z" fill="#253E3C"/>
<path d="M381.365 434.549C381.1 434.649 380.482 433.394 379.181 432.501C377.904 431.567 376.586 431.453 376.567 431.15C376.492 430.872 378.121 430.478 379.72 431.621C381.327 432.748 381.634 434.512 381.365 434.549Z" fill="#253E3C"/>
<path d="M374.51 439.044C374.421 438.776 375.784 438.197 377.411 438.801C379.042 439.393 379.802 440.748 379.581 440.903C379.366 441.1 378.44 440.275 377.098 439.801C375.767 439.294 374.569 439.34 374.51 439.044Z" fill="#253E3C"/>
<path d="M389.927 426.475C389.657 426.378 389.899 424.949 389.61 423.254C389.351 421.552 388.676 420.284 388.901 420.099C389.086 419.901 390.267 421.082 390.581 423.083C390.912 425.082 390.165 426.599 389.927 426.475Z" fill="#253E3C"/>
<path d="M386.492 296.231C386.492 296.231 386.412 325.321 399.412 335.153C412.412 344.984 457.513 381.939 457.513 381.939L385.524 394.44L390.903 428.343C390.903 428.343 488.087 418.383 499.981 414.338C511.876 410.296 520.431 389.863 511.12 375.659C506.442 368.525 458.063 298.674 458.063 298.674L456.613 279.925L395.622 283.841L386.492 296.231Z" fill="#191919"/>
<path d="M390.903 428.344C390.89 428.345 390.843 428.144 390.766 427.751C390.687 427.315 390.581 426.735 390.448 425.999C390.177 424.408 389.792 422.145 389.3 419.256C388.333 413.351 386.947 404.895 385.243 394.487L385.196 394.203L385.477 394.156C402.776 391.125 425.881 387.078 451.205 382.643C453.344 382.271 455.466 381.903 457.449 381.559L457.27 382.239C447.128 373.726 437.474 365.716 428.684 358.511C424.273 354.935 420.088 351.543 416.174 348.371C412.26 345.221 408.496 342.406 405.382 339.449C399.132 333.564 395.032 327.896 392.558 323.816C391.315 321.772 390.488 320.107 389.961 318.967C389.693 318.397 389.516 317.951 389.398 317.651C389.283 317.351 389.236 317.192 389.247 317.188C389.259 317.184 389.33 317.332 389.468 317.622C389.607 317.91 389.807 318.343 390.094 318.9C390.662 320.015 391.527 321.65 392.801 323.661C395.339 327.676 399.48 333.26 405.737 339.056C408.847 341.966 412.609 344.738 416.554 347.877C420.506 351.001 424.709 354.377 429.118 357.964C437.937 365.141 447.607 373.131 457.756 381.642L458.398 382.18L457.577 382.322C455.595 382.668 453.473 383.036 451.335 383.407C425.997 387.767 402.881 391.747 385.572 394.726L385.806 394.394C387.405 404.821 388.706 413.29 389.614 419.205C390.041 422.105 390.376 424.377 390.611 425.972C390.711 426.714 390.79 427.299 390.849 427.737C390.898 428.135 390.917 428.341 390.903 428.344Z" fill="#35AA75"/>
<path d="M477.271 384.266C477.204 384.494 472.996 383.23 467.648 382.669C462.304 382.076 457.927 382.411 457.91 382.174C457.901 382.076 458.986 381.864 460.766 381.738C462.543 381.611 465.018 381.606 467.729 381.897C470.44 382.192 472.858 382.726 474.569 383.23C476.284 383.732 477.301 384.17 477.271 384.266Z" fill="#35AA75"/>
<path d="M432.485 52.1457C433.296 49.4487 435.951 47.4541 438.716 47.4618C441.402 44.3416 446.322 43.5325 449.842 45.6316C451.955 43.7601 455.053 43.1269 457.714 44.0195C460.375 44.9126 462.503 47.3024 463.123 50.0918C465.797 49.136 469.025 50.1143 470.761 52.4068C472.496 54.6993 472.61 58.1345 471.03 60.5347C474.205 60.9755 476.8 64.1128 476.696 67.3836C476.591 70.6522 473.803 73.5993 470.605 73.8159L435.059 59.6102C432.77 58.0229 431.673 54.8444 432.485 52.1457Z" fill="#191919"/>
<path d="M471.705 74.5649C467.973 60.2905 454.137 51.3173 439.912 53.9429L438.498 54.204C423.421 57.926 421.176 73.1469 425.267 88.4441L436.94 145.958L464.975 162.87L468.346 150.314L468.31 129.823C468.31 129.823 482.546 124.794 480.051 109.797C478.846 102.552 475.177 87.84 471.705 74.5649Z" fill="#F7BAA1"/>
<path d="M468.427 129.78C468.427 129.78 459.176 132.082 448.208 127.583C448.208 127.583 453.943 138.346 468.319 134.302L468.427 129.78Z" fill="#F29573"/>
<path d="M469.895 88.6593C470.136 89.78 469.405 90.9117 468.263 91.1887C467.124 91.4629 466.002 90.782 465.763 89.6591C465.523 88.5367 466.252 87.405 467.391 87.1291C468.533 86.8532 469.654 87.5392 469.895 88.6593Z" fill="#191919"/>
<path d="M470.163 83.1957C469.956 83.5238 468.156 82.6175 465.906 83.0391C463.653 83.4271 462.211 84.9144 461.917 84.6791C461.775 84.5747 461.95 84.0234 462.574 83.3551C463.186 82.6917 464.302 81.9508 465.705 81.6991C467.108 81.4484 468.382 81.759 469.157 82.1717C469.946 82.5873 470.269 83.0484 470.163 83.1957Z" fill="#191919"/>
<path d="M450.237 93.1689C450.478 94.2901 449.747 95.4202 448.604 95.6972C447.466 95.9714 446.345 95.2905 446.103 94.1676C445.864 93.0463 446.595 91.9136 447.734 91.6382C448.875 91.3623 449.996 92.0477 450.237 93.1689Z" fill="#191919"/>
<path d="M448.572 86.85C448.362 87.1765 446.561 86.2718 444.313 86.6933C442.059 87.0808 440.619 88.5692 440.324 88.3318C440.182 88.2306 440.354 87.6788 440.981 87.011C441.593 86.346 442.708 85.6056 444.111 85.3533C445.515 85.1027 446.789 85.4116 447.563 85.826C448.35 86.2421 448.676 86.7027 448.572 86.85Z" fill="#191919"/>
<path d="M459.033 102.526C458.999 102.398 460.354 101.892 462.569 101.176C463.133 101.011 463.655 100.793 463.68 100.374C463.741 99.9259 463.387 99.3368 462.986 98.7047C462.192 97.3839 461.36 95.9989 460.486 94.5467C456.987 88.6163 454.344 83.6966 454.578 83.5553C454.813 83.4152 457.84 88.1062 461.338 94.0372C462.188 95.5025 462.999 96.8992 463.771 98.2347C464.108 98.8624 464.617 99.55 464.482 100.484C464.405 100.953 464.04 101.349 463.689 101.518C463.341 101.701 463.02 101.767 462.738 101.836C460.479 102.382 459.066 102.654 459.033 102.526Z" fill="#191919"/>
<path d="M452.692 105.339C453.055 105.249 453.506 107.745 455.914 109.131C458.32 110.522 460.874 109.762 460.956 110.107C461.018 110.258 460.463 110.7 459.368 110.932C458.296 111.169 456.658 111.107 455.185 110.26C453.715 109.407 452.906 108.059 452.641 107.05C452.361 106.023 452.524 105.355 452.692 105.339Z" fill="#191919"/>
<path d="M447.426 80.2763C447.265 80.9233 445.23 80.7457 442.882 81.2201C440.523 81.6389 438.661 82.5567 438.312 82.0071C438.156 81.7433 438.453 81.1261 439.188 80.4654C439.918 79.8053 441.104 79.1474 442.514 78.8792C443.926 78.6126 445.245 78.794 446.131 79.1474C447.025 79.4997 447.494 79.9708 447.426 80.2763Z" fill="#191919"/>
<path d="M468.525 76.9839C468.273 77.6028 466.61 77.4863 464.774 77.9601C462.92 78.369 461.483 79.2259 460.985 78.7878C460.761 78.5701 460.869 77.9886 461.419 77.3192C461.959 76.6525 462.971 75.9539 464.239 75.6494C465.508 75.3471 466.72 75.5153 467.495 75.866C468.281 76.2177 468.633 76.6871 468.525 76.9839Z" fill="#191919"/>
<path d="M469.069 67.96C469.069 67.96 463.529 59.3018 458.715 57.9315C452.886 56.2722 451.655 62.7017 446.291 62.1862C440.927 61.6701 435.36 60.074 430.866 65.0662C425.946 70.5301 429.174 73.1315 430.009 79.8375C433.392 107.021 429.941 115.522 426.304 103.093C425.906 101.732 421.935 101.324 420.327 95.559C418.24 88.0808 416.302 78.8921 416.998 73.1853C417.587 68.3728 419.566 64.7595 423.501 60.451C429.714 53.6499 439.573 51.7103 446.404 51.1618C453.237 50.6133 467.582 56.1145 469.069 67.96Z" fill="#191919"/>
<path d="M429.022 102.173C428.517 99.8809 426.244 98.4167 424.029 99.052C421.346 99.8215 418.589 101.966 419.8 107.7C421.949 117.873 431.502 113.59 431.457 113.295C431.427 113.093 429.959 106.423 429.022 102.173Z" fill="#F7BAA1"/>
<path d="M428.482 109.942C428.432 109.918 428.335 110.103 428.071 110.304C427.813 110.501 427.342 110.7 426.78 110.614C425.645 110.45 424.399 108.938 423.963 107.115C423.743 106.195 423.745 105.271 423.913 104.472C424.06 103.661 424.421 103.039 424.93 102.826C425.431 102.587 425.874 102.829 426.056 103.088C426.249 103.344 426.229 103.561 426.287 103.567C426.319 103.587 426.464 103.35 426.295 102.947C426.21 102.754 426.043 102.54 425.768 102.396C425.488 102.249 425.115 102.224 424.754 102.346C423.998 102.568 423.459 103.44 423.276 104.319C423.051 105.21 423.025 106.252 423.273 107.285C423.771 109.321 425.203 111.015 426.731 111.125C427.471 111.158 428.01 110.815 428.26 110.51C428.516 110.191 428.521 109.952 428.482 109.942Z" fill="#F29573"/>
<path d="M423.817 82.6564C425.279 83.3237 426.822 84.0052 428.416 83.8738C430.011 83.7441 431.639 82.4937 431.62 80.858C431.611 80.1248 431.294 79.3301 431.654 78.6947C432.083 77.9379 433.129 77.9571 433.985 77.8928C436.953 77.6707 439.558 75.0172 439.783 71.9865C440.728 72.9852 442.453 72.6175 443.443 71.6688C444.436 70.7207 444.942 69.3763 445.638 68.1853C446.334 66.9937 447.402 65.8461 448.761 65.7939C449.52 65.7653 450.294 66.0874 451.026 65.8834C452.321 65.5207 452.682 63.8289 452.642 62.4587C452.602 61.0885 452.48 59.5039 453.464 58.574C454.376 57.7105 455.783 57.8529 457.026 57.8122C458.268 57.7704 459.78 57.1922 459.874 55.9248C459.924 55.2614 459.538 54.6425 459.095 54.1522C457.087 51.9328 453.486 51.4448 450.989 53.0568C449.406 49.8563 445.841 47.7974 442.341 48.0607C438.843 48.3234 435.621 50.8935 434.527 54.2951C432.059 52.7259 428.836 52.4693 426.166 53.6334C423.495 54.7964 421.45 57.3472 420.858 60.2514C418.305 60.0464 415.7 61.5211 414.522 63.8394C413.341 66.1577 413.656 69.1856 415.286 71.2055C413.673 72.5889 412.458 74.7017 412.8 76.826C413.142 78.9503 415.537 80.6871 417.438 79.761C416.926 81.5588 417.983 83.676 419.712 84.308C421.439 84.9396 423.569 83.9904 424.285 82.2667L423.817 82.6564Z" fill="#191919"/>
<path d="M416.7 79.8748C416.66 79.8545 416.669 80.7696 417.676 81.7265C418.169 82.1766 418.952 82.5971 419.901 82.5779C420.831 82.5658 421.896 82.1365 422.605 81.2033L422.169 81.2164C422.822 82.0068 423.637 82.7834 424.625 83.399C425.26 83.7909 425.943 84.0982 426.658 84.2218C427.362 84.368 428.115 84.2548 428.707 84.0415C429.951 83.6645 430.933 82.7642 431.294 81.8144C431.679 80.8812 431.708 80.0732 431.725 79.5362C431.732 78.9938 431.689 78.697 431.654 78.6953C431.608 78.6942 431.575 78.991 431.497 79.517C431.415 80.037 431.315 80.8141 430.92 81.6342C430.233 83.2754 427.274 84.5961 424.927 82.8879C424.01 82.3152 423.226 81.5847 422.593 80.8488L422.363 80.58L422.159 80.8614C421.589 81.6441 420.683 82.0513 419.883 82.0931C419.073 82.1437 418.376 81.8249 417.896 81.4522C416.926 80.6679 416.782 79.8319 416.7 79.8748Z" fill="#253E3C"/>
<path d="M431.446 53.0149C431.447 53.0517 431.72 53.0385 432.202 53.1507C432.673 53.2655 433.386 53.531 433.998 54.2131L434.154 54.3862L434.258 54.1713C434.964 52.7165 436.239 50.7774 438.384 49.273C439.451 48.5321 440.734 47.9221 442.169 47.6615C443.594 47.39 445.162 47.5362 446.631 48.1172C447.772 48.5679 448.789 49.2593 449.594 50.0958C450.386 50.9456 450.956 51.9459 451.246 52.9775L451.336 53.2947L451.623 53.1534C453.053 52.4537 454.64 52.4702 455.879 52.9028C457.135 53.3353 458.035 54.179 458.601 54.9765C459.73 56.6271 459.667 57.9242 459.767 57.8912C459.791 57.8912 459.823 57.5883 459.739 57.0321C459.651 56.4825 459.435 55.6652 458.871 54.7858C458.315 53.9185 457.379 52.9715 456.029 52.4675C454.7 51.964 452.981 51.9041 451.39 52.6555L451.767 52.833C451.468 51.7062 450.856 50.6114 450.008 49.6902C449.146 48.7828 448.06 48.0402 446.842 47.5582C445.277 46.9382 443.587 46.7893 442.065 47.0916C440.542 47.3845 439.194 48.0474 438.092 48.8421C435.876 50.458 434.622 52.5065 433.97 54.0345L434.228 53.9927C433.518 53.2743 432.734 53.049 432.231 52.9803C431.714 52.9193 431.443 52.9924 431.446 53.0149Z" fill="#253E3C"/>
<path d="M448.173 301.525C449.574 301.658 454.338 303.36 460.533 291.726C466.729 280.092 472.677 237.032 472.677 237.032L448.173 301.525Z" fill="#E0E0E0"/>
<path d="M474.909 220.353L475.611 178.679L467.368 146.782C467.368 146.782 461.591 137.611 455.298 132.942C447.815 127.389 441.629 126.148 441.629 126.148L432.187 123.824L431.171 131.778L458.596 163.743L474.909 220.353Z" fill="#E0E0E0"/>
<path d="M431.296 126.591C431.296 126.591 453.878 128.562 464.8 156.265C470.664 171.14 474.234 211.059 474.918 217.286C475.602 223.514 473.313 237.821 469.122 257.073C468.305 260.818 465.358 270.663 457.305 294.526C448.694 320.048 441.826 338.892 441.826 338.892L369.645 310.528L405.54 246.565C405.54 246.565 403.644 226.866 403.733 224.974C404.422 210.328 401.618 202.075 406.389 173.919C407.809 165.526 410.677 157.438 414.983 150.077C419.523 142.312 422.891 139.995 430.606 134.147L431.296 126.591Z" fill="#191919"/>
<path d="M439.069 301.343L440.974 285.876L406.558 271.699L400.275 286.474L439.069 301.343Z" fill="#191919"/>
<path d="M439.068 301.345C439.056 301.324 438.788 301.206 438.284 300.997C437.716 300.766 436.99 300.472 436.085 300.106C434.11 299.322 431.369 298.232 427.972 296.883C421.039 294.174 411.441 290.423 400.409 286.113L400.624 286.627C402.312 282.668 404.109 278.452 405.96 274.11C406.285 273.349 406.606 272.592 406.919 271.857L406.411 272.069C419.94 277.589 432.077 282.543 440.871 286.132L440.703 285.842C440.19 290.55 439.773 294.369 439.473 297.105C439.341 298.394 439.237 299.428 439.156 300.213C439.087 300.931 439.055 301.321 439.068 301.345C439.083 301.367 439.141 301.023 439.243 300.343C439.354 299.578 439.5 298.575 439.681 297.321C440.06 294.55 440.59 290.68 441.242 285.911L441.271 285.702L441.074 285.62C432.304 281.974 420.199 276.941 406.706 271.331L406.35 271.183L406.198 271.542C405.885 272.275 405.563 273.033 405.239 273.794C403.397 278.139 401.606 282.359 399.926 286.321L399.767 286.695L400.14 286.836C411.335 291.045 421.079 294.708 428.114 297.354C431.503 298.605 434.236 299.614 436.207 300.341C437.088 300.659 437.798 300.915 438.352 301.115C438.835 301.285 439.081 301.364 439.068 301.345Z" fill="#35AA75"/>
<path d="M467.595 262.243C467.607 262.248 467.574 262.385 467.5 262.647C467.409 262.95 467.294 263.33 467.152 263.804C466.811 264.87 466.338 266.351 465.74 268.227C464.463 272.117 462.648 277.645 460.413 284.452C455.831 298.176 449.529 317.043 442.569 337.884C442.438 338.272 442.308 338.659 442.187 339.017L442.058 339.4L441.688 339.254C421.734 331.365 403.727 324.245 390.644 319.072C384.179 316.477 378.935 314.371 375.246 312.89C373.477 312.162 372.084 311.588 371.079 311.175C370.639 310.986 370.285 310.832 370.001 310.71C369.761 310.603 369.641 310.54 369.645 310.528C369.649 310.516 369.78 310.554 370.029 310.637C370.32 310.74 370.683 310.87 371.133 311.031C372.152 311.413 373.563 311.94 375.353 312.611C379.062 314.037 384.337 316.065 390.837 318.563C403.942 323.681 421.979 330.725 441.964 338.53L441.463 338.766C441.584 338.409 441.715 338.021 441.845 337.634C448.888 316.82 455.264 297.98 459.902 284.274C462.233 277.5 464.127 271.999 465.458 268.131C466.116 266.273 466.632 264.809 467.005 263.753C467.178 263.29 467.316 262.917 467.426 262.621C467.526 262.367 467.582 262.24 467.595 262.243Z" fill="#35AA75"/>
<path d="M361.49 343.949C361.49 343.949 370.025 315.718 377.278 313.806C384.531 311.895 394.143 311.587 395.843 316.391C397.541 321.196 398.929 328.209 398.63 335.302C398.33 342.397 395.766 352.826 395.766 352.826L388.353 350.493C388.353 350.493 394.15 321.83 392.651 317.134C391.151 312.438 378.841 313.579 376.596 318.448C374.354 323.317 367.216 345.738 367.216 345.738L361.49 343.949Z" fill="#253E3C"/>
<path d="M327.428 379.457C330.028 367.631 336.099 341.632 338.777 330.198C339.508 327.081 342.533 325.107 345.628 325.73L415.18 339.715C418.286 340.338 420.343 343.348 419.835 346.52L411.977 395.626C411.447 398.933 408.342 401.149 405.1 400.531L332.075 386.619C328.81 385.998 326.704 382.75 327.428 379.457Z" fill="#253E3C"/>
<path d="M412.687 357.809C412.687 357.809 412.666 357.982 412.602 358.335C412.531 358.711 412.434 359.234 412.308 359.909C412.037 361.325 411.643 363.375 411.138 366.005C410.098 371.348 408.598 379.042 406.747 388.541C406.629 389.137 406.51 389.74 406.39 390.349C406.299 390.959 406.067 391.637 405.628 392.143C405.197 392.653 404.605 393.042 403.941 393.2C403.28 393.389 402.559 393.246 401.947 393.111C399.393 392.611 396.736 392.089 393.987 391.551C388.485 390.469 382.608 389.314 376.425 388.099C370.24 386.879 363.75 385.598 357.021 384.272C353.657 383.607 350.232 382.93 346.759 382.244C345.022 381.9 343.271 381.554 341.51 381.205L340.187 380.943C339.762 380.85 339.286 380.803 338.824 380.586C337.922 380.182 337.217 379.346 336.983 378.366C336.879 377.949 336.857 377.511 336.917 377.085C336.983 376.658 337.075 376.3 337.153 375.907C337.314 375.135 337.477 374.366 337.639 373.599C337.962 372.065 338.282 370.54 338.602 369.026C339.24 365.995 339.87 363.004 340.491 360.063C341.733 354.179 342.933 348.487 344.081 343.052L344.136 342.793L344.386 342.859C364.16 347.993 381.258 351.674 393.394 354.094C399.462 355.306 404.289 356.212 407.598 356.829C409.244 357.139 410.519 357.381 411.406 357.548C411.818 357.628 412.137 357.691 412.373 357.737C412.587 357.781 412.693 357.804 412.687 357.809C412.681 357.814 412.563 357.797 412.339 357.764C412.097 357.727 411.771 357.676 411.35 357.612C410.469 357.467 409.203 357.261 407.568 356.995C404.252 356.43 399.414 355.571 393.335 354.402C381.179 352.069 364.057 348.453 344.264 343.351L344.57 343.157C343.43 348.594 342.236 354.288 341.002 360.173C340.384 363.116 339.756 366.106 339.119 369.138C338.8 370.652 338.48 372.177 338.157 373.711C337.996 374.479 337.834 375.248 337.673 376.019C337.51 376.81 337.291 377.53 337.498 378.234C337.692 379.056 338.286 379.756 339.038 380.093C339.4 380.269 339.836 380.318 340.289 380.415L341.612 380.676C343.373 381.027 345.123 381.372 346.86 381.716C350.334 382.407 353.757 383.087 357.121 383.753C363.846 385.091 370.336 386.381 376.519 387.611C382.699 388.844 388.572 390.016 394.071 391.111C396.818 391.661 399.474 392.192 402.025 392.703C402.675 392.845 403.259 392.965 403.846 392.803C404.427 392.669 404.949 392.329 405.329 391.885C405.719 391.426 405.915 390.886 406.013 390.275C406.135 389.671 406.255 389.074 406.375 388.483C408.303 379.045 409.864 371.399 410.949 366.088C411.495 363.447 411.922 361.388 412.217 359.967C412.362 359.28 412.476 358.746 412.556 358.365C412.635 358.003 412.687 357.809 412.687 357.809Z" fill="#35AA75"/>
<path d="M386.754 385.29C386.76 385.254 387.185 385.364 388.003 385.358C388.807 385.328 390.056 385.14 391.339 384.25C392.625 383.378 393.771 381.702 394.006 379.439C394.435 377.217 394.921 374.694 395.458 371.908C395.729 370.513 396.012 369.052 396.307 367.53C396.688 366.039 396.633 364.414 395.885 362.965C395.17 361.525 393.808 360.361 392.17 359.928C390.488 359.548 388.691 359.214 386.884 358.84C379.622 357.362 371.644 355.739 363.268 354.035C361.259 353.621 359.096 354.35 357.773 355.876C357.093 356.617 356.64 357.544 356.412 358.512C356.207 359.528 356.003 360.537 355.802 361.535C355.401 363.54 355.009 365.511 354.624 367.44C354.432 368.405 354.241 369.359 354.054 370.302C353.883 371.243 353.628 372.188 353.574 373.074C353.465 374.883 354.234 376.65 355.489 377.794C356.112 378.372 356.847 378.803 357.626 379.06C358.397 379.296 359.257 379.424 360.051 379.604C363.274 380.275 366.277 380.9 369.024 381.472C374.48 382.622 378.906 383.557 382.008 384.212C383.511 384.541 384.691 384.8 385.532 384.984C385.911 385.074 386.212 385.143 386.447 385.198C386.651 385.249 386.755 385.28 386.754 385.29C386.752 385.298 386.645 385.286 386.435 385.252C386.198 385.21 385.894 385.158 385.51 385.091C384.665 384.93 383.479 384.705 381.967 384.419C378.857 383.803 374.42 382.927 368.949 381.846C366.2 381.294 363.192 380.69 359.965 380.042C359.153 379.863 358.348 379.755 357.487 379.498C356.647 379.227 355.85 378.766 355.175 378.145C353.816 376.917 352.974 375.012 353.085 373.049C353.147 372.056 353.397 371.154 353.564 370.203C353.75 369.257 353.937 368.303 354.127 367.339C354.507 365.408 354.896 363.437 355.291 361.431C355.494 360.426 355.696 359.413 355.902 358.391C356.147 357.337 356.641 356.325 357.382 355.515C358.821 353.851 361.183 353.053 363.374 353.506C371.747 355.225 379.721 356.862 386.981 358.352C388.8 358.737 390.552 359.068 392.291 359.471C394.057 359.946 395.519 361.21 396.276 362.76C397.077 364.301 397.109 366.112 396.71 367.612C396.403 369.131 396.108 370.59 395.826 371.982C395.261 374.763 394.749 377.281 394.296 379.499C394.185 380.051 394.081 380.586 393.929 381.106C393.754 381.61 393.555 382.088 393.287 382.501C392.773 383.342 392.117 383.979 391.455 384.424C390.11 385.316 388.822 385.471 388.004 385.466C387.17 385.437 386.754 385.29 386.754 385.29Z" fill="#35AA75"/>
<path d="M391.133 393.428C373.293 393.426 355.448 389.096 339.571 380.821C339.782 380.866 339.991 380.899 340.187 380.942L341.51 381.205C343.271 381.554 345.022 381.9 346.759 382.244C350.233 382.93 353.658 383.606 357.022 384.271C363.75 385.598 370.24 386.879 376.425 388.098C382.609 389.314 388.486 390.469 393.987 391.551C396.469 392.037 398.875 392.508 401.199 392.964C397.852 393.274 394.492 393.428 391.133 393.428Z" fill="#191919"/>
<path d="M401.198 392.964C398.875 392.508 396.469 392.037 393.987 391.551C388.485 390.468 382.608 389.313 376.425 388.098C370.24 386.878 363.75 385.598 357.021 384.271C353.658 383.606 350.233 382.929 346.759 382.243C345.022 381.899 343.271 381.554 341.51 381.205L340.187 380.942C339.991 380.899 339.782 380.866 339.571 380.821C339.233 380.646 338.897 380.468 338.561 380.289L402.289 392.856C401.925 392.895 401.563 392.929 401.198 392.964Z" fill="#242C2F"/>
<path d="M382.255 365.562L374.05 363.885C372.764 363.623 371.933 362.351 372.192 361.047C372.45 359.741 373.702 358.896 374.987 359.158L383.191 360.836C384.475 361.097 385.309 362.37 385.05 363.673C384.791 364.98 383.539 365.825 382.255 365.562Z" fill="#DEDDE1"/>
<path d="M395.287 307.465C395.287 307.465 397.401 310.775 397.908 312.793C398.414 314.813 398.089 322.881 398.089 322.881C398.089 322.881 396.366 323.765 394.975 319.072C393.585 314.379 393.406 312.167 393.406 312.167L395.287 307.465Z" fill="#F7BAA1"/>
<path d="M395.069 322.447L395.4 307.668L389.798 296.749L372.006 296.406L371.371 314.304C371.371 314.304 373.982 321.984 375.228 323.435C376.476 324.887 378.969 323.812 378.969 323.812C380.316 325.95 384.001 325.164 384.001 325.164C385.816 327.35 388.626 325.291 388.626 325.291C388.626 325.291 391.096 327.589 392.232 327.441C392.632 327.391 393.045 327.079 393.425 326.67C394.479 325.534 395.034 324.008 395.069 322.447Z" fill="#F7BAA1"/>
<path d="M377.604 319.969C377.775 319.911 378.191 320.701 378.535 321.733C378.881 322.766 379.024 323.65 378.856 323.708C378.686 323.766 378.27 322.976 377.925 321.943C377.58 320.912 377.437 320.027 377.604 319.969Z" fill="#F29573"/>
<path d="M382.22 319.755C382.402 319.731 382.701 320.986 383.144 322.499C383.58 324.014 383.998 325.233 383.834 325.314C383.678 325.391 382.979 324.255 382.525 322.684C382.067 321.114 382.048 319.774 382.22 319.755Z" fill="#F29573"/>
<path d="M387.474 320.233C387.658 320.233 387.8 321.358 388.053 322.716C388.299 324.076 388.567 325.178 388.395 325.243C388.235 325.311 387.678 324.262 387.418 322.836C387.154 321.41 387.301 320.23 387.474 320.233Z" fill="#F29573"/>
<path d="M395.187 312.308C395.366 312.312 395.478 314.829 395.437 317.925C395.396 321.023 395.219 323.529 395.041 323.526C394.864 323.522 394.752 321.007 394.793 317.907C394.833 314.809 395.01 312.302 395.187 312.308Z" fill="#F29573"/>
<path d="M377.348 317.003C377.399 317.07 377.283 317.281 376.967 317.475C376.659 317.669 376.132 317.817 375.561 317.696C374.991 317.574 374.566 317.222 374.361 316.919C374.15 316.612 374.127 316.372 374.2 316.332C374.355 316.241 374.847 316.882 375.693 317.054C376.538 317.243 377.244 316.857 377.348 317.003Z" fill="#F29573"/>
<path d="M382.722 317.894C382.764 317.966 382.613 318.172 382.255 318.344C381.903 318.52 381.341 318.625 380.744 318.503C380.148 318.378 379.671 318.061 379.414 317.761C379.151 317.461 379.089 317.21 379.156 317.162C379.305 317.054 379.899 317.678 380.872 317.86C381.84 318.077 382.626 317.736 382.722 317.894Z" fill="#F29573"/>
<path d="M393.002 316.806C393.065 316.723 393.414 317.206 392.998 317.837C392.581 318.401 391.776 318.802 390.824 318.899C389.87 318.987 389.019 318.693 388.506 318.356C387.985 318.016 387.784 317.675 387.84 317.618C387.942 317.475 389.103 318.413 390.766 318.247C391.56 318.179 392.3 317.861 392.647 317.542C393 317.205 392.923 316.835 393.002 316.806Z" fill="#F29573"/>
<path d="M448.388 177.854C441.397 185.243 398.014 228.504 398.014 228.504C398.014 228.504 395.494 298.41 394.24 298.716C392.983 299.022 368.037 296.937 368.037 296.937C368.037 296.937 364.543 222.825 367.449 214.371C370.354 205.919 407.469 156.492 408.273 155.466C409.079 154.441 413.331 146.873 427.531 143.172C444.163 138.837 451.139 146.932 453.932 155.241C456.337 162.393 451.745 173.512 449.516 176.507C449.164 176.981 448.792 177.426 448.388 177.854Z" fill="#191919"/>
<path d="M448.389 177.854C448.389 177.854 448.595 177.566 449.024 177.032C449.485 176.524 450.043 175.668 450.647 174.472C451.824 172.086 453.404 168.382 454.179 163.341C454.536 160.843 454.663 157.922 453.654 155.012C452.631 152.113 451.022 149.071 448.409 146.63C447.115 145.404 445.535 144.427 443.81 143.667C442.08 142.887 440.14 142.537 438.154 142.303C434.138 142 429.871 142.728 425.583 144.02C421.309 145.338 416.954 147.337 413.174 150.468C411.272 152.038 409.668 153.917 408.2 156.075C406.657 158.144 405.088 160.25 403.49 162.394C397.128 170.996 390.373 180.221 383.442 190.056C379.981 194.974 376.454 200.033 373.035 205.318C371.355 207.966 369.594 210.655 368.249 213.508C368.095 213.87 367.903 214.217 367.781 214.588L367.549 215.742C367.361 216.497 367.28 217.3 367.22 218.111L367.004 220.536L366.896 222.99C366.43 236.122 366.808 249.763 367.175 263.711C367.503 275.041 367.931 286.15 368.413 296.918L368.068 296.555C372.59 296.915 377.059 297.271 381.467 297.621C383.672 297.78 385.863 297.936 388.038 298.091C389.124 298.157 390.208 298.224 391.287 298.288L392.898 298.358L393.693 298.374L394.037 298.359C394.051 298.385 394.268 298.294 394.012 298.42V298.379C394.413 296.356 394.517 294.118 394.7 292.005C394.843 289.862 394.982 287.738 395.122 285.63C395.351 281.411 395.575 277.265 395.797 273.196C396.597 256.917 397.203 241.884 397.722 228.494L397.725 228.376L397.809 228.294C413.324 212.771 425.943 200.144 434.703 191.381C439.074 187.034 442.479 183.647 444.813 181.327C445.964 180.196 446.847 179.326 447.464 178.721C448.064 178.137 448.389 177.854 448.389 177.854C448.389 177.854 448.107 178.178 447.526 178.783C446.924 179.401 446.061 180.29 444.935 181.447C442.627 183.793 439.26 187.217 434.937 191.614C426.218 200.421 413.659 213.112 398.217 228.716L398.304 228.516C397.83 241.911 397.26 256.946 396.488 273.231C396.274 277.302 396.057 281.452 395.833 285.675C395.697 287.783 395.559 289.913 395.422 292.06C395.231 294.221 395.159 296.333 394.711 298.592C394.655 298.708 394.699 298.714 394.549 298.921L394.278 299.081L394.16 299.09L393.698 299.117L392.878 299.102L391.25 299.033C390.166 298.968 389.08 298.904 387.989 298.838C385.813 298.686 383.62 298.531 381.412 298.376C377.002 298.027 372.531 297.675 368.006 297.319L367.676 297.292L367.661 296.955C367.17 286.181 366.74 275.069 366.41 263.733C366.043 249.775 365.67 236.142 366.147 222.955L366.258 220.488L366.479 218.03C366.54 217.213 366.623 216.396 366.825 215.573L367.078 214.345C367.208 213.953 367.408 213.588 367.569 213.207C368.977 210.235 370.73 207.58 372.426 204.911C375.861 199.613 379.397 194.556 382.869 189.638C389.823 179.808 396.599 170.595 402.985 162.007C404.589 159.866 406.167 157.759 407.716 155.693C408.473 154.691 409.204 153.581 410.07 152.641C410.916 151.677 411.848 150.819 412.8 150.006C416.672 146.82 421.101 144.811 425.428 143.495C429.764 142.206 434.094 141.483 438.194 141.811C440.226 142.06 442.21 142.428 443.988 143.238C445.757 144.028 447.377 145.043 448.698 146.31C451.366 148.833 452.98 151.944 453.997 154.888C455.016 157.898 454.854 160.865 454.474 163.386C453.643 168.47 452.013 172.165 450.783 174.545C450.154 175.735 449.566 176.591 449.085 177.083C448.633 177.602 448.389 177.854 448.389 177.854Z" fill="#35AA75"/>
<path d="M472.999 209.854C472.976 209.86 472.874 209.574 472.701 209.021C472.515 208.392 472.277 207.585 471.981 206.588C471.36 204.371 470.5 201.311 469.443 197.546C467.334 189.78 464.442 179.13 461.194 167.164L461.149 166.999L461.241 166.853C462.056 165.568 462.921 164.204 463.797 162.825L464.463 161.773L464.749 162.37C463.084 162.212 461.451 162.057 459.886 161.909L459.637 161.886L459.559 161.639C458.653 158.775 457.646 156.015 456.541 153.434C455.436 150.858 454.241 148.421 452.767 146.378C451.309 144.352 449.168 143.127 447.27 141.973C445.33 140.855 443.466 139.92 441.762 139.09C438.335 137.457 435.526 136.268 433.592 135.448C432.68 135.062 431.944 134.752 431.366 134.509C430.86 134.291 430.599 134.169 430.606 134.145C430.615 134.123 430.893 134.2 431.416 134.373C431.941 134.548 432.706 134.819 433.693 135.187C435.662 135.928 438.506 137.046 441.973 138.624C443.701 139.427 445.588 140.336 447.565 141.443C449.491 142.586 451.708 143.802 453.304 145.966C454.854 148.078 456.074 150.538 457.207 153.138C458.339 155.745 459.36 158.508 460.282 161.411L459.956 161.143C461.521 161.289 463.155 161.441 464.819 161.598L465.448 161.656L465.106 162.194L464.439 163.245C463.563 164.624 462.695 165.988 461.881 167.272L461.928 166.961C465.083 178.954 467.891 189.626 469.939 197.409C470.902 201.2 471.686 204.282 472.253 206.512C472.495 207.526 472.69 208.344 472.843 208.983C472.969 209.549 473.024 209.847 472.999 209.854Z" fill="#35AA75"/>
<path d="M467.939 165.308C459.427 170.409 452.518 170.374 438.306 169.15C428.459 168.302 419.825 165.435 409.948 165.127C395.709 164.687 385.046 169.099 372.069 175.068L362.507 186.553L380.461 192.067C380.461 192.067 397.684 182.121 419.764 183.342C441.842 184.563 462.452 178.463 469.756 172.795L472.261 165.715L471.308 162.029L468.285 161.743L467.939 165.308Z" fill="#379C60"/>
<path d="M467.938 165.308C467.938 165.308 467.941 164.986 467.984 164.384C468.034 163.752 468.104 162.872 468.194 161.735L468.201 161.644L468.293 161.651C469.15 161.723 470.163 161.808 471.32 161.903L471.405 161.911L471.427 161.997C471.715 163.074 472.045 164.312 472.41 165.676L472.423 165.721L472.406 165.769C471.687 167.838 470.862 170.212 469.942 172.864L469.923 172.919L469.876 172.954C467.933 174.469 465.548 175.706 462.918 176.85C460.279 177.977 457.38 179.033 454.234 179.907C447.95 181.689 440.738 183.016 432.836 183.569C428.886 183.813 424.763 183.94 420.509 183.718C416.278 183.543 411.918 183.584 407.463 184.129C403.011 184.654 398.486 185.607 393.978 186.976C389.484 188.353 384.937 190.077 380.649 192.403L380.501 192.484L380.351 192.437C377.001 191.409 373.439 190.316 369.839 189.21C367.337 188.442 364.855 187.679 362.397 186.925L361.842 186.753L362.216 186.303C365.472 182.395 368.667 178.559 371.78 174.821L371.836 174.755L371.912 174.72C378.31 171.781 384.596 169.015 390.93 167.207C397.25 165.378 403.585 164.603 409.553 164.79C415.536 164.939 421.089 166.056 426.222 167.025C431.359 168.035 436.132 168.782 440.53 169.084C444.919 169.448 448.88 169.712 452.341 169.595C455.806 169.514 458.749 169 461.062 168.291C463.382 167.592 465.076 166.758 466.215 166.199C466.75 165.918 467.169 165.696 467.483 165.529C467.774 165.378 467.928 165.302 467.938 165.308C467.947 165.314 467.812 165.403 467.536 165.575C467.259 165.742 466.842 166.006 466.28 166.323C465.155 166.924 463.471 167.802 461.139 168.549C458.816 169.305 455.844 169.865 452.356 169.985C448.869 170.14 444.889 169.912 440.491 169.581C436.084 169.312 431.255 168.588 426.116 167.607C420.975 166.665 415.451 165.583 409.537 165.457C403.628 165.296 397.379 166.08 391.125 167.906C384.859 169.709 378.61 172.47 372.222 175.416L372.354 175.314C369.243 179.055 366.052 182.893 362.799 186.804L362.619 186.182C365.075 186.938 367.559 187.7 370.061 188.467C373.66 189.573 377.223 190.668 380.571 191.697L380.273 191.731C384.663 189.353 389.218 187.637 393.766 186.249C398.316 184.873 402.884 183.92 407.378 183.4C411.872 182.859 416.295 182.831 420.543 183.018C424.767 183.251 428.865 183.141 432.793 182.914C440.653 182.395 447.832 181.113 454.09 179.383C457.224 178.533 460.111 177.507 462.735 176.411C465.349 175.3 467.721 174.095 469.635 172.635L469.569 172.726C470.52 170.087 471.373 167.723 472.116 165.663L472.111 165.755C471.769 164.385 471.458 163.142 471.188 162.061L471.297 162.154C470.143 162.033 469.13 161.927 468.276 161.836L468.376 161.755C468.244 162.9 468.141 163.788 468.068 164.426C467.994 165.02 467.938 165.308 467.938 165.308Z" fill="#29383E"/>
<path d="M434.306 258.339C434.236 258.54 427.753 256.367 419.827 253.483C411.899 250.601 405.532 248.1 405.604 247.897C405.676 247.696 412.157 249.87 420.085 252.753C428.01 255.636 434.378 258.136 434.306 258.339Z" fill="#35AA75"/>
</svg>
