<svg width="2117" height="545" viewBox="0 0 2117 545" fill="none" xmlns="http://www.w3.org/2000/svg">
<path d="M196.672 230.824L101.1 263.48L130.163 330.018L228.73 298.492L196.672 230.824Z" fill="#F6F6F6" stroke="black" stroke-width="1.5"/>
<path d="M132.521 318.557L140.183 292.114L168.151 304.206L178.603 260.29L193.095 267.299L205.925 139.443M205.925 139.443L215.011 152.132M205.925 139.443L193.084 146.95M238.385 136.946L248.611 117.645M171.464 153.39L149.967 142.195" stroke="black" stroke-width="1.5"/>
<path d="M234.23 154.105L357.917 113.326L367.092 134.155M182.098 171.293L54.3232 213.42L63.5981 234.208M63.5981 234.208L140.447 406.456L443.558 307.725L367.092 134.155M63.5981 234.208L179.517 195.993M367.092 134.155L224.494 181.165" stroke="black" stroke-width="1.5"/>
<path d="M285.914 74.5937C291.801 67.5511 292.689 57.851 291.546 44.2976C299.591 52.7352 308.627 60.7741 320.58 62.9665C314.719 72.3344 312.79 77.7824 314.467 94.6246C310.913 87.8811 297.868 76.786 285.914 74.5937Z" stroke="black" stroke-width="1.5"/>
<path d="M243.617 503.253C249.504 496.211 250.392 486.511 249.249 472.957C257.294 481.395 266.329 489.434 278.283 491.626C272.421 500.994 270.493 506.442 272.169 523.284C268.616 516.541 255.57 505.446 243.617 503.253Z" stroke="black" stroke-width="1.5"/>
<path d="M223.445 224.711L296.254 201.224" stroke="black" stroke-width="1.5"/>
<path d="M232.127 245.739L305.925 221.854" stroke="black" stroke-width="1.5"/>
<path d="M242.812 268.295L315.621 244.808" stroke="black" stroke-width="1.5"/>
<path d="M251.494 289.323L325.293 265.438" stroke="black" stroke-width="1.5"/>
<path d="M152.55 377.057L141.864 354.501L335.496 289.355L345.7 313.273L152.55 377.057Z" stroke="black" stroke-width="1.5"/>
<ellipse cx="2.14123" cy="2.18397" rx="2.14123" ry="2.18397" transform="matrix(0.924444 -0.37235 0.464882 0.882206 458.168 237.678)" stroke="black" stroke-width="1.5"/>
<ellipse cx="4.28246" cy="4.36793" rx="4.28246" ry="4.36793" transform="matrix(0.924444 -0.37235 0.464882 0.882206 251.654 394.363)" stroke="black" stroke-width="1.5"/>
<mask id="path-13-inside-1_15_140" fill="white">
<path d="M345.884 243.446C322.86 226.737 317.605 196.33 334.147 175.53C350.689 154.729 382.764 151.412 405.788 168.121C428.812 184.829 434.066 215.236 417.524 236.037C400.982 256.837 368.908 260.154 345.884 243.446ZM387.574 191.024C378.551 184.476 365.981 185.776 359.499 193.927C353.016 202.079 355.075 213.995 364.098 220.543C373.121 227.09 385.69 225.791 392.173 217.639C398.656 209.488 396.596 197.571 387.574 191.024Z"/>
</mask>
<path d="M345.884 243.446C322.86 226.737 317.605 196.33 334.147 175.53C350.689 154.729 382.764 151.412 405.788 168.121C428.812 184.829 434.066 215.236 417.524 236.037C400.982 256.837 368.908 260.154 345.884 243.446ZM387.574 191.024C378.551 184.476 365.981 185.776 359.499 193.927C353.016 202.079 355.075 213.995 364.098 220.543C373.121 227.09 385.69 225.791 392.173 217.639C398.656 209.488 396.596 197.571 387.574 191.024Z" fill="white" stroke="black" stroke-width="3" mask="url(#path-13-inside-1_15_140)"/>
<mask id="path-14-inside-2_15_140" fill="white">
<path d="M342.568 167.365C335.034 173.009 329.514 180.671 326.67 189.431C323.826 198.191 323.78 207.674 326.538 216.741L356.527 210.075C355.447 206.524 355.465 202.809 356.579 199.378C357.693 195.948 359.855 192.946 362.805 190.736L342.568 167.365Z"/>
</mask>
<path d="M342.568 167.365C335.034 173.009 329.514 180.671 326.67 189.431C323.826 198.191 323.78 207.674 326.538 216.741L356.527 210.075C355.447 206.524 355.465 202.809 356.579 199.378C357.693 195.948 359.855 192.946 362.805 190.736L342.568 167.365Z" fill="#379C60" stroke="black" stroke-width="3" mask="url(#path-14-inside-2_15_140)"/>
<path d="M325.178 211.022C326.82 220.52 331.395 229.498 338.326 236.82C345.257 244.142 354.233 249.479 364.117 252.156C374.002 254.834 384.352 254.731 393.858 251.862C403.364 248.993 411.6 243.485 417.524 236.037L392.766 218.07C390.36 221.095 387.016 223.331 383.155 224.497C379.294 225.662 375.091 225.703 371.077 224.616C367.062 223.529 363.417 221.361 360.603 218.388C357.788 215.414 355.929 211.768 355.263 207.911L325.178 211.022Z" fill="black"/>
<path d="M2074.24 13.6856C1934.34 -8.50256 1918.96 97.0498 1909.38 161.518C1899.81 225.986 1817.91 138.606 1789.08 125.863C1771.49 119.764 1694.27 279.973 1357.57 287.636" stroke="black" stroke-width="1.5"/>
<path d="M1357.94 287.218C1358.29 290.167 1355.96 292.787 1352.75 293.069C1349.54 293.352 1346.66 291.19 1346.32 288.241C1345.98 285.291 1348.3 282.671 1351.51 282.389C1354.72 282.107 1357.6 284.269 1357.94 287.218Z" stroke="black" stroke-width="1.5"/>
<rect width="126.687" height="117.811" rx="10" transform="matrix(0.954896 -0.281237 0.340529 0.9458 1498.41 213.714)" fill="#F6F6F6" stroke="black" stroke-width="1.5"/>
<path d="M1731.27 76.2071C1732.91 70.9695 1738.58 67.9065 1743.94 69.3656L1847.07 97.4484C1852.43 98.9075 1855.45 104.336 1853.81 109.574L1824.7 202.731C1823.06 207.969 1817.39 211.032 1812.03 209.573L1708.9 181.49C1703.54 180.031 1700.52 174.602 1702.16 169.364L1731.27 76.2071Z" fill="#D0E0D4" stroke="black" stroke-width="1.5"/>
<path d="M1645.91 211.78L1561.07 201.494C1559.55 247.516 1537.63 293.795 1526.86 311.182C1548.36 315.261 1596.1 324.215 1615.06 327.404C1637.71 280.506 1645.06 230.78 1645.91 211.78Z" fill="white" stroke="black" stroke-width="1.5"/>
<path d="M1610.97 280.068L1597.71 309.163L1588.59 307.615L1582.51 306.583L1574.01 305.138L1567.93 304.106L1559.72 302.712L1566.94 287.973L1574.85 289.302L1567.93 304.106L1574.01 305.138L1585.27 282.793L1593.18 284.122L1582.51 306.583L1588.59 307.615L1601.87 278.789L1610.97 280.068Z" fill="#379C60"/>
<path d="M1562.61 276.001C1560.69 284.035 1554.42 296.227 1551.52 301.319L1559.72 302.712M1603.79 310.196L1597.71 309.163M1597.71 309.163L1610.97 280.068L1601.87 278.789L1588.59 307.615M1597.71 309.163L1588.59 307.615M1588.59 307.615L1582.51 306.583M1582.51 306.583L1593.18 284.122L1585.27 282.793L1574.01 305.138M1582.51 306.583L1574.01 305.138M1574.01 305.138L1567.93 304.106M1567.93 304.106L1574.85 289.302L1566.94 287.973L1559.72 302.712M1567.93 304.106L1559.72 302.712" stroke="black" stroke-width="1.5"/>
<path d="M1568.88 221.055L1629.52 229.032" stroke="black" stroke-width="1.5"/>
<path d="M1566.29 237.734L1625.69 245.21" stroke="black" stroke-width="1.5"/>
<path d="M1563.63 253.311L1622.46 261.363" stroke="black" stroke-width="1.5"/>
<path d="M1765.03 177.652L1739.29 142.484C1739.29 142.484 1750.02 121.232 1777.4 108.174C1804.06 95.4557 1804.12 111.535 1852.2 81.8012L1874.76 121.027C1830.53 144.686 1831.37 134.966 1805.77 146.336C1785.3 155.433 1770.08 171.004 1765.03 177.652Z" fill="white" stroke="black" stroke-width="1.5"/>
<path d="M1769.29 159.519L1743.55 124.35C1743.55 124.35 1754.28 103.098 1781.66 90.041C1808.32 77.3224 1808.38 93.4017 1856.46 63.6679L1879.02 102.894C1834.79 126.553 1835.63 116.832 1810.03 128.203C1789.56 137.3 1774.34 152.871 1769.29 159.519Z" fill="white" stroke="black" stroke-width="1.5"/>
<ellipse cx="16.8793" cy="9.89418" rx="16.8793" ry="9.89418" transform="matrix(0.896125 -0.427824 0.502436 0.873551 1787.48 103.36)" fill="black" stroke="black" stroke-width="1.5"/>
<path d="M1841.37 72.5493C1844.75 78.4243 1853.29 80.4157 1860.45 76.9972C1861.44 76.5244 1862.35 75.973 1863.18 75.3581" stroke="black" stroke-width="1.5"/>
<path d="M1752.22 112.283C1753.98 113.304 1755.45 114.715 1756.47 116.473C1759.79 122.259 1756.87 129.654 1749.94 133.142" stroke="black" stroke-width="1.5"/>
<path d="M1760.7 147.783C1762.09 145.347 1764.37 143.208 1767.35 141.784C1773.54 138.827 1780.77 139.918 1784.8 144.068" stroke="black" stroke-width="1.5"/>
<path d="M1872.66 91.8414C1871.64 92.1113 1870.62 92.4806 1869.63 92.9533C1862.47 96.3718 1859.41 103.906 1862.79 109.781C1862.98 110.123 1863.2 110.451 1863.43 110.766" stroke="black" stroke-width="1.5"/>
<path d="M544.608 273.875C708.341 310.823 741.269 199.223 761.608 131.079C781.947 62.9345 867.502 164.239 900.108 180.603C920.246 188.793 1097.41 4.49774 1477.91 68.467" stroke="black" stroke-width="1.5"/>
</svg>
