<svg width="144" height="144" viewBox="0 0 144 144" fill="none" xmlns="http://www.w3.org/2000/svg">
<ellipse cx="70.7396" cy="72" rx="70.7396" ry="72" fill="#D0E0D4"/>
<path d="M44.614 84.5029L29.7737 87.2919L35.8713 126.12L75.8124 119.382C82.856 118.194 89.4484 115.059 94.8123 110.31C101.529 104.364 108.961 97.6548 110.407 95.5161C112.525 92.3847 111.261 90.3119 110.364 89.6669C111.205 88.864 111.868 88.2146 112.273 87.7871C115.091 84.8169 118.288 81.2876 117.481 79.4866C116.836 78.0459 115.438 77.9181 114.82 78.0343L117.356 75.6619C120.26 73.1637 124.591 67.9568 121.758 65.5604C119.083 63.2974 114.09 66.3506 112.136 67.8568C112.73 66.5283 112.909 65.0745 111.883 63.9994C109.988 62.0126 106.38 62.7445 103.828 64.537C99.7163 67.425 90.0941 73.9518 82.988 79.1922C75.8819 84.4326 66.9136 88.3959 63.3177 89.7225C66.7375 85.663 74.536 76.4852 78.3716 72.2499C83.166 66.9559 82.5666 63.6517 80.8328 62.0251C79.4457 60.7238 75.9264 62.2964 74.3402 63.2453L44.614 84.5029Z" fill="white"/>
<path d="M78.9431 96.5482V96.5482C86.6482 91.5274 93.9083 85.8487 100.642 79.5761L110.214 70.6586C110.832 70.0199 111.633 68.9834 112.136 67.8568M112.136 67.8568C112.73 66.5283 112.909 65.0745 111.883 63.9994C109.988 62.0126 106.38 62.7445 103.828 64.537C99.7163 67.425 90.0941 73.9518 82.988 79.1922C75.8819 84.4326 66.9136 88.3959 63.3177 89.7225C66.7375 85.663 74.536 76.4852 78.3716 72.2499C83.166 66.9559 82.5666 63.6517 80.8328 62.0251C79.4457 60.7238 75.9264 62.2964 74.3402 63.2453L44.614 84.5029L29.7737 87.2919L35.8713 126.12L75.8124 119.382C82.856 118.194 89.4484 115.059 94.8123 110.31C101.529 104.364 108.961 97.6548 110.407 95.5161C112.525 92.3847 111.261 90.3119 110.364 89.6669M112.136 67.8568C114.09 66.3506 119.083 63.2974 121.758 65.5604C124.591 67.9568 120.26 73.1637 117.356 75.6619L110.284 82.2775C103.255 88.8529 95.7526 94.8993 87.8374 100.367L82.2538 104.224M114.82 78.0343C115.438 77.9181 116.836 78.0459 117.481 79.4866C118.288 81.2876 115.091 84.8169 112.273 87.7871C111.868 88.2146 111.205 88.864 110.364 89.6669M84.8335 111.004L95.0217 103.72C98.9674 100.177 106.528 93.3272 110.364 89.6669" stroke="black" stroke-width="1.5"/>
<ellipse cx="10.6459" cy="31.6609" rx="10.6459" ry="31.6609" transform="matrix(0.939623 -0.345211 0.333911 0.941544 1.4903 82.1846)" fill="black"/>
<mask id="path-5-inside-1_197_1049" fill="white">
<path fill-rule="evenodd" clip-rule="evenodd" d="M7.54931 90.9297L32.0102 86.3326L39.2032 125.982L20.6253 129.474C17.5255 124.913 14.4997 118.87 12.062 111.996C9.31458 104.249 7.80359 96.8277 7.54931 90.9297Z"/>
</mask>
<path fill-rule="evenodd" clip-rule="evenodd" d="M7.54931 90.9297L32.0102 86.3326L39.2032 125.982L20.6253 129.474C17.5255 124.913 14.4997 118.87 12.062 111.996C9.31458 104.249 7.80359 96.8277 7.54931 90.9297Z" fill="#F6F6F6"/>
<path d="M7.54931 90.9297L7.28156 89.4538L5.99601 89.6954L6.0524 91.0033L7.54931 90.9297ZM32.0102 86.3326L33.4844 86.0556L33.2166 84.5797L31.7424 84.8567L32.0102 86.3326ZM39.2032 125.982L39.4709 127.458L40.9451 127.181L40.6774 125.705L39.2032 125.982ZM20.6253 129.474L19.3855 130.324L19.9332 131.13L20.8931 130.95L20.6253 129.474ZM12.062 111.996L10.6499 112.506L12.062 111.996ZM7.81706 92.4056L32.2779 87.8085L31.7424 84.8567L7.28156 89.4538L7.81706 92.4056ZM30.536 86.6097L37.729 126.259L40.6774 125.705L33.4844 86.0556L30.536 86.6097ZM38.9354 124.506L20.3576 127.998L20.8931 130.95L39.4709 127.458L38.9354 124.506ZM21.8652 128.623C18.8489 124.186 15.8769 118.261 13.4741 111.485L10.6499 112.506C13.1226 119.478 16.202 125.641 19.3855 130.324L21.8652 128.623ZM13.4741 111.485C10.7647 103.846 9.29271 96.5733 9.04623 90.8561L6.0524 91.0033C6.31447 97.0821 7.86449 104.652 10.6499 112.506L13.4741 111.485Z" fill="black" mask="url(#path-5-inside-1_197_1049)"/>
<path d="M69.2032 66.6514C69.5576 67.7237 71.2353 69.3934 75.1109 67.4936C78.9864 65.5938 80.9636 63.6277 81.4678 62.8821" stroke="black" stroke-width="1.5"/>
<path d="M106.09 74.3621C105.484 73.6626 104.742 71.6869 106.625 69.3804C108.509 67.074 111.339 65.4032 112.518 64.8561M116.514 76.308C115.879 75.4511 115.08 73.1607 116.963 70.8543C118.847 68.5478 121.425 67.2498 122.478 66.8891M111.905 87.9126C111.58 86.9976 111.23 84.7203 112.44 82.9309C113.953 80.6942 117.028 79.1401 117.577 79.5249M106.747 99.1324C106.324 98.5611 105.948 96.842 107.832 94.5356C109.715 92.2291 111.171 91.7929 111.663 91.8631" stroke="black" stroke-width="1.5"/>
<path d="M9.43198 68.5212C23.1098 70.316 55.741 69.1195 76.8439 49.9755C103.223 26.0455 98.533 18.2682 96.1882 15.2769C93.8722 12.3223 83.292 11.6875 76.8439 23.0543C74.4992 19.2653 68.1683 12.4053 61.603 15.2769C53.3963 18.8665 59.2582 36.2158 76.8439 44.5913C94.4296 52.9668 117.877 41.6 134.877 27.2421" stroke="black" stroke-width="1.5"/>
<path d="M110.042 112.518C114.339 112.518 119.492 111.268 123.287 105.785C126.492 101.154 127.052 96.6794 127.014 93.0319C126.995 92.3399 126.978 91.6933 126.945 91.1063C126.979 91.7173 127.007 92.3606 127.014 93.0319C127.121 96.9743 127.301 102.389 131.036 106.643C135.427 111.644 139.722 112.706 142.92 112.518C140.362 112.669 135.487 112.693 131.632 117.127C127.777 121.562 126.759 129.247 126.732 132.536C126.561 125.753 124.104 112.518 110.042 112.518Z" fill="#D0E0D4" stroke="black" stroke-width="1.5"/>
<path d="M2.98868 39.0995C5.53062 39.0995 8.57906 38.3598 10.8243 35.1162C13.0695 31.8727 13.1203 28.7583 12.9881 26.4326C13.1203 28.7583 12.8108 32.6657 15.4085 35.6242C18.0061 38.5826 20.5473 39.2109 22.439 39.0995C20.9256 39.1886 18.0414 39.2028 15.7609 41.8262C13.4805 44.4495 12.8784 48.9964 12.8624 50.942C12.7609 46.9291 11.3078 39.0995 2.98868 39.0995Z" stroke="black" stroke-width="1.5"/>
</svg>
