<svg width="968" height="771" viewBox="0 0 968 771" fill="none" xmlns="http://www.w3.org/2000/svg">
<path d="M769.188 647.292L705.979 757.987L580.918 759.791C576.94 759.849 573.685 762.979 573.468 766.957L700.651 767.318L705.431 767.153L864.675 767.468L896.854 711.899L937.963 652.908C940.659 649.039 937.882 643.737 933.173 643.755L774.214 644.361C772.136 644.37 770.22 645.487 769.188 647.292Z" fill="#EBECEC"/>
<path d="M937.984 647.95C937.984 647.976 937.727 648.003 937.222 648.03C936.626 648.05 935.891 648.077 934.987 648.108C932.894 648.144 930.022 648.194 926.388 648.256C918.787 648.316 908.018 648.402 894.764 648.508C867.948 648.567 831.117 648.648 790.433 648.738C787.886 648.738 785.355 648.738 782.839 648.737C780.45 648.553 778.285 649.606 777.048 651.475C774.651 655.803 772.289 660.067 769.968 664.257C765.312 672.669 760.824 680.783 756.542 688.519C747.97 703.941 740.246 717.837 733.732 729.556C727.238 741.122 721.96 750.519 718.236 757.153C716.424 760.308 714.994 762.801 713.951 764.617C713.488 765.395 713.11 766.026 712.804 766.538C712.537 766.968 712.388 767.181 712.365 767.167C712.341 767.153 712.442 766.914 712.663 766.46C712.933 765.926 713.266 765.269 713.676 764.461C714.655 762.609 715.998 760.068 717.701 756.851C721.32 750.159 726.45 740.677 732.761 729.006C739.19 717.242 746.814 703.288 755.277 687.804C759.531 680.056 763.995 671.926 768.622 663.499C770.954 659.272 773.329 654.974 775.739 650.611C777.21 648.256 780.195 646.93 782.839 647.159C785.355 647.159 787.886 647.159 790.433 647.159C831.117 647.249 867.948 647.332 894.764 647.39C908.018 647.496 918.787 647.581 926.388 647.642C930.022 647.704 932.894 647.753 934.987 647.791C935.891 647.821 936.626 647.847 937.222 647.868C937.727 647.896 937.984 647.921 937.984 647.95Z" fill="#E0E0E0"/>
<path d="M825.922 703.595C823.109 706.718 823.043 711.248 825.775 713.715C828.504 716.182 833 715.648 835.813 712.527C838.625 709.406 838.691 704.874 835.96 702.407C833.229 699.94 828.735 700.472 825.922 703.595Z" fill="#FEFEFE"/>
<path d="M21.1095 649.378C21.1095 650.575 21.1095 715.575 21.1095 715.575H10.0712V722.76H21.1095V767.065H227.441V726.75H212.157V717.97H227.441V704.798H234.234V698.811H226.167V649.378H21.1095Z" fill="#F4F4F4"/>
<path d="M172.649 649.571V766.327H227.441V726.013H212.157V717.97L227.441 718.241V705.07L234.367 705.08L234.234 698.272L226.167 698.074V649.378L172.649 649.571Z" fill="#E0E0E0"/>
<path d="M176.553 721.808C176.553 722.213 139.216 722.543 93.171 722.543C47.1084 722.543 9.78027 722.213 9.78027 721.808C9.78027 721.404 47.1084 721.075 93.171 721.075C139.216 721.075 176.553 721.404 176.553 721.808Z" fill="#E0E0E0"/>
<path d="M176.553 715.085C176.553 715.49 139.216 715.819 93.171 715.819C47.1084 715.819 9.78027 715.49 9.78027 715.085C9.78027 714.679 47.1084 714.352 93.171 714.352C139.216 714.352 176.553 714.679 176.553 715.085Z" fill="#E0E0E0"/>
<path d="M187.264 696.988C187.264 697.393 149.927 697.721 103.881 697.721C57.8186 697.721 20.4905 697.393 20.4905 696.988C20.4905 696.583 57.8186 696.254 103.881 696.254C149.927 696.254 187.264 696.583 187.264 696.988Z" fill="#E0E0E0"/>
<path d="M188.293 746.303C188.293 746.709 150.956 747.036 104.911 747.036C58.8485 747.036 21.52 746.709 21.52 746.303C21.52 745.898 58.8485 745.569 104.911 745.569C150.956 745.569 188.293 745.898 188.293 746.303Z" fill="#E0E0E0"/>
<path d="M396.2 315.97L394.446 457.419C394.146 481.474 398.617 516.868 436.62 515.607C469.51 512.023 478.237 480.847 478.492 458.398C478.613 447.75 478.737 438.871 478.82 437.778C478.82 437.778 514.825 434.838 517.864 399.231C519.332 382.024 519.475 346.334 519.23 314.046C518.969 279.369 492.112 250.724 457.571 248.199L454.138 247.948C416.948 247.406 395.712 278.729 396.2 315.97Z" fill="#F7B8A0"/>
<path d="M478.82 437.778C478.82 437.778 456.289 437.455 433.476 420.671C433.476 420.671 442.884 447.529 478.634 446.916L478.82 437.778Z" fill="#F39772"/>
<path d="M456.872 323.298C456.166 324.02 452.06 320.709 446.1 320.549C440.152 320.3 435.694 323.315 435.068 322.547C434.76 322.206 435.495 320.89 437.437 319.524C439.35 318.163 442.585 316.882 446.296 317.009C450.006 317.14 453.088 318.633 454.844 320.122C456.636 321.619 457.219 322.977 456.872 323.298Z" fill="#191919"/>
<path d="M450.633 336.708C450.536 339.258 448.303 341.277 445.642 341.226C442.988 341.175 440.908 339.072 441.003 336.523C441.1 333.975 443.334 331.951 445.99 332.001C448.649 332.052 450.73 334.158 450.633 336.708Z" fill="#191919"/>
<path d="M473.356 370.138C473.353 369.824 476.796 369.484 482.358 369.182C483.765 369.139 485.107 368.96 485.411 368.022C485.814 367.036 485.34 365.484 484.78 363.808C483.715 360.329 482.599 356.679 481.428 352.856C476.796 337.275 473.555 324.503 474.182 324.322C474.811 324.141 479.075 336.623 483.704 352.206C484.812 356.045 485.873 359.707 486.88 363.208C487.292 364.835 488.069 366.706 487.204 368.751C486.752 369.768 485.672 370.451 484.76 370.627C483.844 370.835 483.055 370.792 482.361 370.784C476.795 370.676 473.355 370.451 473.356 370.138Z" fill="#191919"/>
<path d="M457.18 306.208C456.604 307.532 451.835 306.535 446.123 306.83C440.407 307.002 435.717 308.385 435.055 307.111C434.762 306.504 435.65 305.285 437.593 304.105C439.517 302.925 442.527 301.892 445.955 301.748C449.38 301.613 452.45 302.399 454.448 303.417C456.463 304.436 457.431 305.58 457.18 306.208Z" fill="#191919"/>
<path d="M512.856 306.629C512.231 307.709 507.581 306.51 501.948 306.337C496.314 306.06 491.638 306.884 491.043 305.758C490.781 305.22 491.711 304.253 493.674 303.396C495.62 302.539 498.63 301.885 502.008 302.017C505.385 302.157 508.372 303.049 510.293 304.062C512.231 305.072 513.133 306.114 512.856 306.629Z" fill="#191919"/>
<path d="M397.183 342.57C396.595 342.264 373.254 333.54 372.254 357.963C371.255 382.385 395.948 378.352 396.02 377.654C396.09 376.955 397.183 342.57 397.183 342.57Z" fill="#F7B8A0"/>
<path d="M388.947 368.095C388.844 368.013 388.51 368.375 387.779 368.676C387.066 368.968 385.852 369.139 384.599 368.611C382.063 367.557 380.06 363.372 380.122 358.966C380.151 356.741 380.702 354.643 381.561 352.924C382.379 351.167 383.583 349.967 384.891 349.788C386.193 349.543 387.081 350.359 387.35 351.058C387.649 351.754 387.474 352.235 387.602 352.283C387.669 352.347 388.142 351.895 387.986 350.878C387.906 350.389 387.644 349.801 387.091 349.308C386.524 348.808 385.674 348.529 384.766 348.591C382.879 348.644 381.117 350.306 380.171 352.195C379.125 354.088 378.453 356.443 378.42 358.942C378.376 363.87 380.702 368.577 384.187 369.742C385.885 370.26 387.336 369.802 388.099 369.255C388.88 368.683 389.03 368.142 388.947 368.095Z" fill="#F39772"/>
<path d="M467.601 387.048C467.868 386.43 463.089 384.996 459.729 380.509C458.05 378.299 457.082 375.89 456.354 374.131C455.643 372.359 455.104 371.244 454.84 371.327C454.594 371.404 454.653 372.604 455.044 374.534C455.453 376.44 456.283 379.168 458.184 381.678C460.057 384.212 462.569 385.726 464.415 386.454C466.277 387.209 467.537 387.256 467.601 387.048Z" fill="#191919"/>
<path d="M566.455 282.083C566.069 280.649 565.027 279.47 563.75 278.714C560.966 277.068 557.759 277.287 554.66 277.238C545.221 277.087 535.856 274.202 527.916 269.097C524.197 263.73 520.01 258.686 515.468 253.996C504.689 242.867 495.82 235.292 486.645 231.594C474.778 226.811 454.931 224.871 442.558 228.123C430.185 231.374 419.072 241.425 417.352 254.118C410.412 248.244 399.995 248.294 391.543 251.695L391.331 251.603C381.919 254.962 376.573 264.919 373.794 274.529C371.018 284.141 369.833 294.418 364.751 303.033C363.687 304.834 362.425 306.993 363.354 308.866C364.071 310.314 365.911 310.913 367.508 310.678C369.107 310.443 370.525 309.558 371.891 308.693C370.84 311.209 369.792 313.726 368.74 316.243C372.147 316.837 375.672 316.563 378.98 315.559C380.978 324.546 383.362 334.811 385.674 340.902C389.609 340.891 393.211 341.173 395.636 343.356C398.933 346.325 400.408 351.908 405.885 349.789C408.673 348.71 411.216 342.853 412.15 340.01C418.343 321.136 420.398 300.921 418.16 281.184C422.059 277.022 426.764 273.622 431.937 271.228L431.515 271.608C441.453 268.151 452.696 264.751 462.126 269.423C469.44 273.047 473.739 280.647 479.209 286.711C489.574 298.204 503.553 304.45 519.005 305.117C519.531 315.143 518.688 329.314 519.213 339.341L527.639 323.28L527.645 323.36C528.335 322.184 528.906 320.999 529.457 319.811L529.647 319.451L529.646 319.405C530.523 317.499 531.355 315.588 532.462 313.703L532.558 313.788C537.984 318.58 545.979 311.252 541.699 305.41C540.851 304.252 539.835 303.219 538.675 302.367C541.154 304.698 544.851 305.815 548.104 304.815C551.355 303.813 553.877 300.519 553.595 297.126C553.401 294.808 551.748 292.736 549.659 291.822C554.04 292.159 558.522 291.203 562.343 289.022C564.848 287.591 567.306 285.236 566.455 282.083Z" fill="#191919"/>
<path d="M428.547 258.208C428.618 258.299 427.056 259.148 424.979 261.476C422.919 263.791 420.61 267.819 419.518 273.301C418.959 276.026 418.607 279.075 418.609 282.354C418.595 285.634 418.858 289.146 419.108 292.849C419.348 296.551 419.613 300.461 419.376 304.53C419.257 306.56 419.013 308.628 418.574 310.691C418.126 312.721 417.593 314.924 416.064 316.669C414.846 318.091 412.808 318.72 411.043 318.358C409.266 318.044 407.684 317.096 406.525 315.803C404.237 313.129 403.665 309.736 403.097 306.746L403.845 306.836C402.624 309.525 401.373 312.179 399.516 314.299C397.691 316.432 395.164 317.843 392.596 318.073C391.317 318.187 390.026 317.983 388.928 317.43C387.808 316.884 386.993 315.953 386.435 314.972C385.904 313.972 385.626 312.874 385.681 311.815C385.741 310.756 386.153 309.754 386.823 309.044L387.201 309.381C384.456 312.509 381.561 314.19 379.559 315.121C378.548 315.588 377.738 315.867 377.191 316.042C376.639 316.207 376.348 316.276 376.342 316.252C376.334 316.229 376.61 316.117 377.144 315.911C377.673 315.693 378.46 315.375 379.44 314.877C381.383 313.881 384.187 312.157 386.816 309.052L387.193 309.389C385.997 310.658 385.928 312.889 386.958 314.682C387.476 315.564 388.224 316.393 389.211 316.856C390.192 317.338 391.365 317.517 392.535 317.398C394.894 317.164 397.25 315.841 398.958 313.813C400.708 311.787 401.922 309.203 403.126 306.511L403.638 305.368L403.872 306.602C404.442 309.588 405.049 312.845 407.138 315.255C408.173 316.414 409.623 317.27 411.179 317.541C412.739 317.842 414.384 317.328 415.447 316.108C416.784 314.599 417.331 312.513 417.765 310.517C418.196 308.503 418.44 306.479 418.562 304.482C418.807 300.482 418.562 296.597 418.344 292.898C418.115 289.197 417.875 285.669 417.919 282.348C417.948 279.025 418.338 275.938 418.944 273.176C420.126 267.623 422.567 263.545 424.738 261.257C426.929 258.959 428.547 258.208 428.547 258.208Z" fill="#379C60"/>
<path d="M538.597 292.866C538.605 292.877 538.51 292.96 538.311 293.109C538.071 293.284 537.779 293.497 537.423 293.758C537.034 294.049 536.541 294.389 535.917 294.725C535.301 295.078 534.602 295.507 533.751 295.866C530.449 297.438 525.149 299 518.525 298.609C511.963 298.239 504.087 295.912 497.056 290.67C489.948 285.554 483.711 278.015 478.612 269.384C476.024 265.071 473.913 260.648 471.589 256.566C469.28 252.48 466.729 248.702 463.64 245.722C460.589 242.725 457.042 240.509 453.391 239.493C451.57 238.95 449.735 238.828 447.985 238.87C446.23 238.962 444.568 239.317 443.036 239.82C439.969 240.85 437.496 242.546 435.618 244.292C433.735 246.053 432.47 247.912 431.604 249.506C429.986 252.781 429.897 254.882 429.768 254.847C429.753 254.844 429.763 254.719 429.797 254.473C429.843 254.179 429.898 253.82 429.966 253.382C430.138 252.429 430.549 251.046 431.316 249.36C432.153 247.715 433.402 245.788 435.298 243.954C437.187 242.138 439.697 240.361 442.845 239.263C444.417 238.728 446.131 238.341 447.95 238.228C449.763 238.164 451.688 238.281 453.574 238.827C457.369 239.852 461.037 242.118 464.173 245.171C467.353 248.208 469.962 252.051 472.298 256.162C474.651 260.274 476.76 264.686 479.325 268.959C484.387 277.525 490.534 284.979 497.505 290.05C504.408 295.244 512.098 297.576 518.562 298.022C525.076 298.48 530.311 297.034 533.619 295.57C536.95 294.084 538.532 292.764 538.597 292.866Z" fill="#379C60"/>
<path d="M541.834 277.214C541.863 277.262 541.409 277.576 540.558 278.103C539.718 278.646 538.426 279.313 536.781 280.025C535.14 280.75 533.107 281.425 530.8 281.99C528.484 282.515 525.892 282.903 523.151 283.007C520.408 283.078 517.795 282.858 515.452 282.483C513.113 282.066 511.04 281.522 509.356 280.903C507.669 280.299 506.338 279.715 505.465 279.229C504.58 278.757 504.107 278.474 504.133 278.422C504.203 278.281 506.167 279.294 509.541 280.344C511.221 280.882 513.272 281.358 515.572 281.725C517.878 282.051 520.437 282.244 523.124 282.172C525.811 282.071 528.35 281.715 530.632 281.241C532.901 280.728 534.918 280.123 536.56 279.478C539.86 278.213 541.757 277.077 541.834 277.214Z" fill="#379C60"/>
<path d="M512.873 323.3C512.165 324.021 508.061 320.71 502.1 320.55C496.152 320.301 491.694 323.316 491.067 322.549C490.76 322.208 491.496 320.891 493.437 319.525C495.352 318.165 498.585 316.883 502.296 317.009C506.005 317.141 509.089 318.634 510.843 320.123C512.636 321.619 513.219 322.978 512.873 323.3Z" fill="#191919"/>
<path d="M506.674 342.71C506.579 345.26 504.344 347.281 501.684 347.229C499.03 347.177 496.951 345.075 497.046 342.526C497.14 339.978 499.375 337.955 502.031 338.004C504.691 338.054 506.771 340.163 506.674 342.71Z" fill="#191919"/>
<path d="M728.906 472.939C728.906 462.591 719.032 462.591 719.032 462.591C715.269 457.642 711.038 459.442 711.038 459.442L695.049 470.239C692.699 474.289 677.182 489.585 677.182 489.585C672.948 486.435 672.948 480.137 667.878 472.489C662.807 464.841 651.319 465.741 651.319 465.741C651.319 465.741 660.252 485.984 661.195 498.581C662.135 511.179 654.326 546.315 654.326 546.315L699.526 559.034C699.526 559.034 702.378 539.758 707.443 538.203C713.539 536.33 716.931 527.325 716.931 527.325C723.522 513.958 736.899 494.534 738.781 484.636C740.661 474.739 728.906 472.939 728.906 472.939Z" fill="#F7B8A0"/>
<path d="M392.782 450.565C421.572 468.68 450.586 475.495 479.97 463.764L524.143 475.061L567.603 765.791L312.793 768.008L325.347 700.482L356.937 457.868L392.782 450.565Z" fill="#379C60"/>
<path d="M524.143 475.061C524.143 475.061 558.5 489.346 571.613 514.368C584.726 539.391 605.8 609.627 605.8 609.627L644.619 538.242L716.669 556.685C716.669 556.685 663.04 704.799 649.576 718.285C634.837 733.046 594.668 747.931 574.999 736.443C555.33 724.956 551.329 681.351 551.329 681.351L524.143 475.061Z" fill="#379C60"/>
<path d="M526.512 596.663C526.314 596.663 526.154 583.749 526.154 567.823C526.154 551.893 526.314 538.981 526.512 538.981C526.712 538.981 526.871 551.893 526.871 567.823C526.871 583.749 526.712 596.663 526.512 596.663Z" fill="#191919"/>
<path d="M539.962 491.673C540.062 491.717 539.366 493.516 538.287 496.436C537.205 499.356 535.769 503.408 534.365 507.944C532.965 512.481 531.863 516.637 531.107 519.658C530.351 522.679 529.908 524.556 529.803 524.535C529.755 524.525 529.804 524.045 529.938 523.181C530.067 522.317 530.295 521.072 530.613 519.544C531.243 516.485 532.271 512.288 533.679 507.73C535.089 503.175 536.609 499.132 537.815 496.251C538.415 494.809 538.928 493.654 539.31 492.868C539.686 492.079 539.917 491.654 539.962 491.673Z" fill="#191919"/>
<path d="M352.276 566.739L360.247 457.194C360.247 457.194 300.271 462.764 280.424 505.133C263.698 540.836 217.531 648.257 212.589 662.953C198.088 706.075 220.741 765.36 314.128 761.925L324.776 703.303L352.276 566.739Z" fill="#379C60"/>
<path d="M285.118 715.524C285.097 715.511 285.265 715.149 285.606 714.473C285.985 713.741 286.492 712.759 287.131 711.523C288.514 708.914 290.46 705.249 292.85 700.745C293.459 699.608 294.098 698.419 294.761 697.18C295.441 695.953 296.219 694.616 297.505 693.651C298.786 692.686 300.469 692.289 302.116 692.322C303.776 692.342 305.435 692.7 307.088 693.129C310.401 694.005 313.791 695.238 317.124 696.929C318.787 697.778 320.431 698.763 321.944 700.003L322.499 700.486C322.716 700.68 322.893 700.985 322.969 701.228C323.148 701.739 323.225 702.239 323.272 702.736C323.373 703.731 323.362 704.718 323.338 705.71C323.192 709.671 322.701 713.488 322.209 717.167C321.702 720.845 321.141 724.381 320.58 727.743C319.451 734.466 318.322 740.499 317.355 745.562C316.375 750.566 315.578 754.64 315.011 757.537C314.742 758.9 314.53 759.984 314.37 760.792C314.224 761.535 314.154 761.927 314.128 761.925C314.105 761.922 314.127 761.521 314.227 760.769C314.327 760.014 314.498 758.91 314.735 757.487C315.248 754.579 315.968 750.492 316.855 745.468C317.759 740.396 318.836 734.356 319.927 727.636C320.469 724.275 321.017 720.742 321.512 717.073C321.994 713.403 322.476 709.592 322.62 705.69C322.645 704.717 322.654 703.746 322.559 702.809C322.518 702.341 322.438 701.877 322.298 701.481C322.221 701.266 322.149 701.143 322.013 701.014L321.486 700.553C320.039 699.362 318.433 698.393 316.803 697.556C313.534 695.886 310.179 694.648 306.919 693.77C305.289 693.336 303.678 692.984 302.108 692.955C300.545 692.915 299.022 693.271 297.858 694.13C296.692 694.986 295.928 696.242 295.245 697.45C294.568 698.678 293.919 699.86 293.296 700.988C290.822 705.446 288.808 709.076 287.376 711.658C286.688 712.865 286.141 713.825 285.733 714.542C285.351 715.196 285.14 715.534 285.118 715.524Z" fill="#191919"/>
<path d="M241.749 663.482C241.751 663.458 241.994 663.451 242.454 663.46C242.998 663.481 243.661 663.506 244.467 663.538C246.215 663.622 248.742 663.772 251.859 664.061C254.975 664.353 258.687 664.795 262.751 665.648C266.81 666.495 271.226 667.81 275.561 669.898C279.875 672.01 283.715 674.569 286.831 677.344C289.907 680.153 292.286 683.149 293.671 686.002C295.072 688.839 295.651 691.385 295.746 693.143C295.874 694.018 295.77 694.709 295.786 695.17C295.771 695.632 295.752 695.873 295.727 695.873C295.648 695.873 295.676 694.896 295.467 693.175C295.289 691.45 294.645 688.98 293.221 686.234C291.809 683.475 289.438 680.576 286.391 677.838C283.304 675.137 279.507 672.63 275.247 670.546C270.979 668.489 266.628 667.171 262.611 666.296C258.592 665.413 254.906 664.922 251.806 664.567C248.706 664.214 246.187 663.988 244.446 663.817C243.644 663.731 242.984 663.662 242.444 663.605C241.986 663.549 241.748 663.507 241.749 663.482Z" fill="#191919"/>
<path d="M305.922 657.952C306.01 657.987 305.461 659.642 304.431 662.263C303.404 664.884 301.873 668.461 300.118 672.376C298.404 676.192 296.854 679.641 295.616 682.395C294.469 684.961 293.753 686.547 293.658 686.51C293.569 686.474 294.118 684.819 295.147 682.199C296.175 679.576 297.706 675.998 299.462 672.082C301.175 668.269 302.725 664.821 303.963 662.066C305.11 659.5 305.826 657.915 305.922 657.952Z" fill="#191919"/>
<path d="M339.113 571.735C338.915 571.735 338.755 564.792 338.755 556.228C338.755 547.661 338.915 540.719 339.113 540.719C339.311 540.719 339.472 547.661 339.472 556.228C339.472 564.792 339.311 571.735 339.113 571.735Z" fill="#191919"/>
<path d="M267.906 737.994C266.928 737.994 265.984 737.664 265.355 736.92C264.223 735.582 264.525 733.579 264.976 731.885C269.26 715.806 279.833 701.539 295.47 695.964C295.214 696.37 294.982 696.781 294.761 697.18C294.098 698.418 293.459 699.607 292.85 700.744C290.46 705.248 288.514 708.914 287.131 711.523C286.819 712.127 286.537 712.67 286.288 713.153C282.229 719.991 278.054 726.493 273.82 733.274C272.864 734.807 271.853 736.394 270.308 737.325C269.598 737.753 268.739 737.994 267.906 737.994Z" fill="#2D6344"/>
<path d="M286.287 713.153C286.537 712.67 286.818 712.127 287.131 711.523C288.514 708.914 290.46 705.248 292.849 700.744C293.459 699.607 294.098 698.418 294.761 697.18C294.982 696.781 295.214 696.37 295.47 695.964C295.556 695.934 295.641 695.903 295.727 695.873C292.675 702.051 289.52 707.708 286.287 713.153Z" fill="#191919"/>
<path d="M293.128 684.963C291.702 682.43 289.536 679.815 286.831 677.344C283.715 674.569 279.875 672.011 275.561 669.898C271.226 667.811 266.81 666.495 262.751 665.649C258.687 664.795 254.975 664.353 251.859 664.062C248.742 663.773 246.215 663.623 244.467 663.538C243.661 663.507 242.998 663.482 242.454 663.461C242.322 663.458 242.207 663.457 242.112 663.457C241.875 663.457 241.751 663.465 241.749 663.483C241.748 663.507 241.986 663.549 242.444 663.606C242.958 663.66 243.581 663.726 244.33 663.805C243.025 663.744 241.724 663.711 240.437 663.711C235.367 663.711 230.502 664.222 226.354 665.522C227.429 661.98 233.093 659.489 238.017 658.453C240.986 657.827 243.989 657.427 247.012 657.427C247.671 657.427 248.333 657.446 248.995 657.486C258.416 658.056 267.906 660.027 276.154 664.619C283.774 668.86 290.084 676.694 293.128 684.963Z" fill="#2D6344"/>
<path d="M293.65 686.498C287.128 676.037 277.632 669.404 265.94 666.846C259.672 665.475 251.92 664.161 244.33 663.805C243.581 663.726 242.958 663.66 242.444 663.606C241.986 663.549 241.748 663.508 241.749 663.483C241.751 663.465 241.875 663.457 242.112 663.457C242.207 663.457 242.322 663.458 242.454 663.461C242.998 663.482 243.661 663.507 244.467 663.538C246.215 663.623 248.742 663.773 251.859 664.062C254.975 664.353 258.687 664.795 262.751 665.649C266.81 666.496 271.226 667.811 275.561 669.898C279.875 672.011 283.715 674.569 286.831 677.345C289.536 679.815 291.702 682.43 293.128 684.963C293.314 685.469 293.487 685.974 293.648 686.481C293.648 686.488 293.648 686.494 293.65 686.498Z" fill="#191919"/>
<path d="M293.658 686.51C293.655 686.506 293.652 686.502 293.65 686.498C293.648 686.494 293.648 686.488 293.648 686.481C293.651 686.491 293.653 686.501 293.658 686.51Z" fill="#191919"/>
<path d="M330.289 525.086C330.241 525.096 330.048 524.479 329.74 523.357C329.445 522.231 328.965 520.617 328.314 518.647C327.02 514.704 324.848 509.37 321.647 503.907C318.43 498.45 314.829 493.958 312.015 490.912C310.61 489.384 309.434 488.18 308.595 487.376C307.765 486.561 307.319 486.091 307.353 486.054C307.385 486.018 307.893 486.416 308.784 487.17C309.685 487.913 310.921 489.069 312.383 490.562C315.312 493.54 319.017 498.03 322.265 503.541C325.5 509.06 327.62 514.483 328.798 518.492C329.391 520.497 329.799 522.142 330.012 523.291C330.237 524.438 330.338 525.075 330.289 525.086Z" fill="#191919"/>
<path d="M352.318 767.962L285.486 606.511C282.436 599.144 286.261 593.172 294.032 593.172H307.478C312.964 593.172 316.704 590.146 317.057 585.421L317.502 579.484C317.858 574.759 321.603 571.734 327.096 571.734H390.987C395.968 571.734 401.594 574.226 405.782 578.288L410.968 583.32C415.155 587.381 420.776 589.873 425.752 589.873H507.127C514.897 589.873 523.598 595.846 526.56 603.213L592.814 767.962H352.318Z" fill="#379C60"/>
<path d="M592.814 767.963H425.316C426.998 767.962 429.491 767.942 432.192 767.916L592.814 767.963Z" fill="#191919"/>
<path d="M424.827 767.962H352.318L352.194 767.664L325.049 702.087L325.029 702.041L285.486 606.511C284.777 604.798 284.439 603.162 284.436 601.658C284.428 596.69 288.067 593.172 294.032 593.172H307.478C312.964 593.172 316.704 590.146 317.057 585.421L317.502 579.484C317.858 574.759 321.603 571.734 327.096 571.734H390.987C395.968 571.734 401.594 574.226 405.782 578.288L410.968 583.32C415.155 587.381 420.776 589.873 425.751 589.873H507.127C513.653 589.873 520.835 594.086 524.722 599.799H353.578C350.907 599.799 348.511 600.909 346.803 602.68H324.459C318.61 602.68 314.408 609.126 316.067 615.553L341.272 713.131L353.225 759.917C353.321 760.293 353.436 760.659 353.565 761.013L352.668 766.861L352.318 767.893L416.276 767.911C419.125 767.951 421.976 767.96 424.827 767.962Z" fill="#2D6344"/>
<path d="M341.272 713.13L316.067 615.552C314.408 609.126 318.61 602.68 324.459 602.68H522.027C525.934 602.68 529.367 605.646 530.442 609.947L567.133 756.82C568.744 763.27 566.167 767.138 560.311 767.065L361.529 767.125C357.678 767.077 354.306 764.151 353.225 759.916L341.272 713.13Z" fill="#E0E0E0"/>
<path d="M354.927 763.548L344.19 609.88C343.809 604.43 348.122 599.799 353.578 599.799H558.282V763.548H354.927Z" fill="#EBECEC"/>
<path d="M352.636 767.065L376.989 608.647C378.112 603.485 382.751 599.799 388.12 599.799H595.201C603.382 599.799 608.891 608.027 605.655 615.413L560.94 760.39L352.636 767.065Z" fill="#FAFAFA"/>
<path d="M352.318 767.893L402.541 619.523C404.632 613.341 410.23 609.209 416.508 609.209H629.992C636.873 609.209 641.723 616.258 639.526 623.068L592.814 767.962L352.318 767.893Z" fill="#8FB198"/>
<path d="M425.066 767.964C424.984 767.964 424.904 767.963 424.827 767.963H425.316C425.23 767.963 425.147 767.964 425.066 767.964Z" fill="#B5B6B5"/>
<path d="M425.316 767.963H424.827C421.976 767.96 419.125 767.952 416.276 767.912L432.192 767.916C429.491 767.942 426.999 767.962 425.316 767.963Z" fill="#191919"/>
<path d="M356.676 740.786C356.619 736.984 357.326 733.071 358.42 729.438L356.676 740.786Z" fill="#A7A6A6"/>
<path d="M358.509 749.602C357.266 746.874 356.72 743.865 356.676 740.787L358.42 729.439C358.436 729.384 358.453 729.328 358.469 729.274C361.44 719.538 366.913 710.599 374.135 703.44L358.509 749.602Z" fill="#B2B2B2"/>
<path d="M432.192 767.915L416.276 767.911C401.918 767.711 387.666 766.726 374.189 761.722C368.854 759.74 363.452 757.102 360.151 752.46C359.505 751.55 358.961 750.595 358.509 749.602L374.135 703.44C377.29 700.312 380.778 697.525 384.539 695.157C391.198 690.967 399.24 687.432 402.129 680.106L403.234 679.296C407.233 683.986 405.311 691.496 401.253 696.135C397.195 700.774 391.512 703.633 386.839 707.651C382.165 711.669 378.331 717.836 380.032 723.764C381.552 729.055 386.866 732.219 391.89 734.46C405.85 740.691 421.132 743.924 436.414 743.924C438.864 743.924 441.317 743.84 443.761 743.672C447.477 743.42 455.537 743.051 455.537 743.051C459.385 746.245 460.02 755.062 457.118 759.137C453.956 763.571 452.223 766.308 446.972 767.74C446.972 767.74 438.933 767.85 432.192 767.915Z" fill="#191919"/>
<path d="M455.537 743.051L399.857 734.67L378.24 722.215C375.391 720.575 373.443 717.639 373.27 714.353L373.262 714.168C373.093 710.063 375.599 706.328 379.38 704.733C386.238 701.84 397.102 697.99 401.736 689.863C408.394 678.182 401.736 675.76 401.736 675.76L355.239 694.371L322.325 716.8L315.702 754.202L361.627 769.222C361.627 769.222 412.802 772.109 426.923 770.523C441.043 768.936 441.043 762.352 441.043 762.352C443.664 761.53 448.967 756.869 448.964 752.526C455.817 746.089 455.537 743.051 455.537 743.051Z" fill="#F7B8A0"/>
<path d="M384.319 759.152C384.337 759.088 385.155 759.246 386.613 759.589C388.069 759.944 390.186 760.412 392.808 760.936C398.049 761.989 405.371 763.082 413.519 763.409C421.671 763.72 429.056 763.201 434.364 762.557C437.018 762.241 439.166 761.938 440.643 761.7C442.125 761.471 442.951 761.377 442.964 761.441C442.977 761.505 442.176 761.723 440.711 762.062C439.25 762.413 437.111 762.818 434.453 763.223C429.139 764.04 421.699 764.67 413.481 764.357C405.269 764.03 397.9 762.82 392.667 761.591C390.048 760.981 387.947 760.411 386.518 759.946C385.084 759.494 384.301 759.212 384.319 759.152Z" fill="#F39772"/>
<path d="M389.404 750.531C389.422 750.467 390.252 750.63 391.732 750.976C393.21 751.333 395.36 751.8 398.025 752.314C403.352 753.354 410.796 754.382 419.072 754.644C427.353 754.889 434.847 754.333 440.235 753.672C442.93 753.346 445.109 753.037 446.609 752.793C448.112 752.561 448.95 752.463 448.964 752.527C448.978 752.591 448.164 752.811 446.677 753.156C445.193 753.511 443.021 753.923 440.325 754.336C434.933 755.173 427.384 755.839 419.043 755.592C410.705 755.329 403.212 754.187 397.89 752.972C395.226 752.371 393.09 751.802 391.637 751.332C390.181 750.875 389.386 750.593 389.404 750.531Z" fill="#F39772"/>
<path d="M717.796 544.315L618.865 563.88C612.028 565.232 605.393 560.777 604.041 553.932L576.997 416.825C575.646 409.978 580.094 403.333 586.93 401.981L649.671 389.574L708.125 430.091L727.729 529.471C729.079 536.318 724.632 542.963 717.796 544.315Z" fill="#EBECEC"/>
<path d="M649.671 389.574L657.284 428.161C658.539 434.527 664.71 438.669 671.068 437.414L708.125 430.091L649.671 389.574Z" fill="#F4F4F4"/>
<path d="M658.458 431.447C658.458 431.447 659.817 440.903 671.062 441.877C671.486 441.913 671.914 441.918 672.336 441.91C677.344 441.819 710.315 441.193 710.172 440.461C710.016 439.668 708.125 430.091 708.125 430.091L671.069 437.42C671.069 437.42 661.754 438.932 658.458 431.447Z" fill="#E0E0E0"/>
<path d="M717.796 544.315C717.796 544.315 717.973 544.254 718.329 544.156C718.688 544.072 719.215 543.92 719.887 543.648C721.218 543.12 723.192 542.087 724.995 539.922C726.734 537.79 728.296 534.357 727.714 530.286C726.989 526.274 726.005 521.651 724.988 516.469C720.865 495.724 714.962 466.027 707.832 430.149L707.955 430.338C690.264 418.091 670.534 404.434 649.476 389.857L649.738 389.912C638.107 392.216 625.996 394.614 613.536 397.082C607.306 398.315 600.988 399.567 594.599 400.83C593 401.147 591.399 401.463 589.793 401.781C588.189 402.123 586.548 402.336 585.066 402.899C582.066 404.009 579.541 406.372 578.217 409.321C577.29 411.366 576.925 413.671 577.224 415.888C577.572 418.112 578.086 420.388 578.507 422.626C579.391 427.114 580.271 431.573 581.143 436C582.887 444.852 584.607 453.575 586.295 462.147C589.669 479.29 592.925 495.827 596.025 511.58C597.575 519.457 599.084 527.139 600.551 534.601C601.284 538.332 602.007 542.01 602.717 545.63C603.073 547.439 603.426 549.235 603.775 551.015C604.156 552.796 604.363 554.595 605.036 556.196C606.348 559.438 609.087 561.954 612.246 563.088C613.825 563.663 615.507 563.902 617.153 563.801C618.783 563.686 620.43 563.258 622.054 562.965C628.548 561.691 634.783 560.465 640.732 559.296C664.524 554.64 683.779 550.872 697.106 548.264C703.753 546.978 708.918 545.981 712.44 545.3C714.183 544.971 715.516 544.72 716.431 544.547C717.331 544.38 717.796 544.315 717.796 544.315C717.796 544.315 717.34 544.43 716.445 544.619C715.534 544.808 714.205 545.083 712.468 545.442C708.951 546.154 703.796 547.195 697.16 548.538C683.844 551.199 664.604 555.044 640.83 559.796C634.883 560.978 628.653 562.218 622.16 563.511C620.531 563.807 618.924 564.236 617.187 564.366C615.465 564.475 613.704 564.229 612.05 563.63C608.741 562.449 605.869 559.822 604.485 556.424C603.769 554.717 603.564 552.892 603.18 551.134C602.829 549.354 602.474 547.558 602.114 545.749C601.397 542.13 600.67 538.454 599.932 534.723C598.455 527.263 596.934 519.584 595.376 511.709C592.263 495.958 588.993 479.424 585.606 462.284C583.913 453.713 582.191 444.99 580.442 436.138C579.568 431.711 578.688 427.253 577.803 422.765C577.377 420.506 576.875 418.301 576.511 415.977C576.197 413.631 576.581 411.188 577.562 409.024C578.963 405.904 581.636 403.401 584.814 402.227C586.418 401.623 588.062 401.419 589.655 401.076C591.261 400.76 592.862 400.442 594.46 400.128C600.849 398.864 607.168 397.615 613.399 396.384C625.861 393.923 637.972 391.532 649.606 389.236L649.748 389.207L649.868 389.291C670.907 403.892 690.62 417.576 708.296 429.844L708.398 429.913L708.42 430.033C715.448 465.932 721.264 495.643 725.327 516.404C726.32 521.596 727.275 526.199 727.977 530.252C728.543 534.412 726.92 537.895 725.134 540.038C723.283 542.216 721.272 543.231 719.92 543.735C719.238 543.995 718.703 544.133 718.341 544.202C717.981 544.285 717.796 544.315 717.796 544.315Z" fill="#191919"/>
<path d="M708.125 430.091C708.13 430.114 707.807 430.204 707.188 430.351C706.497 430.504 705.595 430.705 704.472 430.956C702.026 431.468 698.625 432.179 694.456 433.051C690.198 433.916 685.163 434.937 679.583 436.069C676.776 436.624 673.834 437.207 670.783 437.81C667.633 438.371 664.133 437.566 661.44 435.482C660.09 434.45 658.976 433.145 658.182 431.69C657.364 430.255 656.969 428.595 656.713 427.088C656.118 424.036 655.544 421.09 654.997 418.28C653.924 412.682 652.951 407.63 652.133 403.358C651.354 399.166 650.718 395.746 650.261 393.285C650.067 392.151 649.908 391.238 649.788 390.54C649.689 389.911 649.647 389.578 649.671 389.574C649.696 389.568 649.786 389.891 649.93 390.513C650.085 391.205 650.286 392.107 650.536 393.231C651.047 395.681 651.758 399.086 652.63 403.26C653.493 407.522 654.515 412.565 655.646 418.152C656.206 420.959 656.796 423.902 657.404 426.952C657.675 428.502 658.032 429.971 658.809 431.348C659.559 432.714 660.607 433.94 661.876 434.911C664.413 436.873 667.698 437.635 670.667 437.116C673.712 436.527 676.652 435.96 679.455 435.418C685.046 434.343 690.09 433.373 694.358 432.552C698.545 431.773 701.962 431.138 704.418 430.681C705.551 430.485 706.461 430.328 707.16 430.208C707.788 430.108 708.122 430.066 708.125 430.091Z" fill="#191919"/>
<path d="M654.595 424.377C654.633 424.572 642.979 427.04 628.569 429.891C614.151 432.742 602.437 434.894 602.399 434.699C602.361 434.506 614.012 432.036 628.428 429.185C642.84 426.336 654.555 424.183 654.595 424.377Z" fill="#191919"/>
<path d="M683.156 438.729C683.195 438.924 665.996 442.489 644.748 446.692C623.491 450.895 606.235 454.143 606.196 453.948C606.159 453.754 623.352 450.19 644.609 445.986C665.857 441.783 683.119 438.534 683.156 438.729Z" fill="#191919"/>
<path d="M686.953 457.979C686.992 458.174 669.792 461.738 648.544 465.941C627.289 470.144 610.031 473.393 609.994 473.198C609.955 473.004 627.149 469.439 648.406 465.236C669.655 461.033 686.915 457.784 686.953 457.979Z" fill="#191919"/>
<path d="M613.791 492.448C613.751 492.253 630.95 488.688 652.199 484.485C673.456 480.282 690.711 477.033 690.751 477.228C690.788 477.423 673.594 480.988 652.337 485.191C631.09 489.394 613.828 492.642 613.791 492.448Z" fill="#191919"/>
<path d="M694.547 496.478C694.586 496.672 677.387 500.238 656.139 504.439C634.882 508.644 617.626 511.892 617.587 511.698C617.549 511.503 634.743 507.938 656 503.735C677.25 499.532 694.509 496.282 694.547 496.478Z" fill="#191919"/>
<path d="M698.345 515.726C698.383 515.922 681.185 519.487 659.936 523.689C638.68 527.893 621.423 531.142 621.385 530.947C621.345 530.752 638.54 527.187 659.796 522.983C681.045 518.781 698.306 515.533 698.345 515.726Z" fill="#191919"/>
<path d="M657.346 528.502L584.744 542.86C581.589 543.484 578.525 541.429 577.903 538.27L572.703 511.906C572.079 508.747 574.132 505.679 577.288 505.057L649.89 490.698C653.045 490.074 656.107 492.129 656.731 495.287L661.931 521.651C662.553 524.81 660.501 527.878 657.346 528.502Z" fill="#379C60"/>
<path d="M603.194 524.734C606.028 524.173 607.548 522.112 607.009 519.377C606.469 516.642 604.28 515.315 601.448 515.877L598.431 516.473L600.179 525.329L603.194 524.734ZM594.594 514.412L601.074 513.13C605.744 512.206 609.497 514.391 610.351 518.716C611.205 523.043 608.56 526.492 603.892 527.416L597.412 528.698L594.594 514.412Z" fill="#FEFEFE"/>
<path d="M624.205 515.978C623.67 513.264 621.389 511.786 618.841 512.288C616.293 512.793 614.743 515.029 615.278 517.743C615.815 520.457 618.097 521.934 620.644 521.431C623.191 520.928 624.741 518.692 624.205 515.978ZM611.936 518.404C611.1 514.161 613.781 510.364 618.285 509.474C622.769 508.587 626.706 511.052 627.548 515.316C628.389 519.583 625.684 523.362 621.2 524.247C616.696 525.139 612.773 522.649 611.936 518.404Z" fill="#FEFEFE"/>
<path d="M629.134 515.002C628.286 510.696 630.98 506.964 635.422 506.084C637.888 505.597 640.124 506.087 641.792 507.453L640.058 509.831C638.882 508.92 637.566 508.584 636.14 508.867C633.471 509.395 631.945 511.648 632.476 514.341C633.007 517.036 635.274 518.537 637.944 518.011C639.371 517.728 640.461 516.92 641.197 515.608L643.704 517.148C642.684 519.066 640.803 520.371 638.315 520.862C633.893 521.737 629.984 519.308 629.134 515.002Z" fill="#FEFEFE"/>
<path d="M702.235 442.284C702.235 442.284 709.541 433.021 715.168 438.201C720.794 443.381 719.171 446.046 713.82 454.232C713.82 454.232 725.766 453.604 721.934 465.888C721.934 465.888 733.836 464.571 732.692 474.623C732.692 474.623 741.679 483.428 737.004 489.103C732.331 494.779 715.382 505.024 711.1 503.263C706.818 501.501 706.785 495.429 706.785 495.429C706.785 495.429 701.693 493.132 700.287 490.446C698.88 487.76 701.294 483.994 701.294 483.994C701.294 483.994 697.001 479.602 695.938 478.376C694.876 477.149 696.518 471.452 696.518 471.452L703.374 464.792C703.374 464.792 693.936 468.899 691.969 467.333C690.003 465.767 687.784 464.412 689.89 461.556C691.996 458.698 699.483 452.305 699.483 452.305L702.235 442.284Z" fill="#F7B8A0"/>
<path d="M707.738 496.13C707.634 496.01 708.9 494.667 710.831 492.369C712.772 490.124 715.521 486.792 719.552 484.373C723.494 481.957 727.118 480.011 729.35 478.065C731.63 476.179 732.524 474.524 732.692 474.623C732.808 474.657 732.131 476.528 729.888 478.663C727.703 480.846 724.025 482.966 720.159 485.336C716.275 487.663 713.544 490.778 711.424 492.914C709.33 495.084 707.839 496.249 707.738 496.13Z" fill="#F39772"/>
<path d="M701.128 485.765C700.906 485.543 705.292 480.799 710.923 475.173C713.751 472.402 716.173 469.711 718.26 468.063C720.312 466.373 721.878 465.759 721.934 465.889C722.017 466.043 720.648 466.877 718.791 468.669C716.903 470.414 714.584 473.177 711.726 475.98C706.095 481.605 701.349 485.988 701.128 485.765Z" fill="#F39772"/>
<path d="M703.374 464.792C703.151 464.509 705.86 462.355 708.867 459.487C711.924 456.637 713.416 453.592 713.705 453.704C714.03 453.776 712.869 457.31 709.662 460.301C706.533 463.281 703.533 465.004 703.374 464.792Z" fill="#F39772"/>
<path d="M702.237 442.252C702.258 442.262 702.215 442.494 702.116 442.937C701.992 443.448 701.837 444.091 701.644 444.889C701.182 446.682 700.539 449.171 699.724 452.338L699.705 452.408L699.646 452.461C698.266 453.675 696.719 455.07 695.044 456.647C693.418 458.242 691.46 459.956 689.95 462.097C689.616 462.637 689.369 463.242 689.431 463.829C689.492 464.414 689.853 464.963 690.351 465.444C690.838 465.93 691.432 466.367 692.031 466.835C692.524 467.26 693.179 467.255 693.935 467.212C696.914 466.862 700.048 465.64 703.193 464.338L705.402 463.423L703.697 465.092C701.539 467.202 699.244 469.448 696.866 471.775L696.971 471.629C696.105 473.75 695.554 476.438 696.619 478.58C697.806 480.71 699.916 482.507 702.025 484.097L702.49 484.446L702.115 484.888C700.624 486.653 699.565 489.441 701.516 491.163C703.255 492.967 705.635 494.358 707.989 495.597L707.187 496.041L707.199 495.909L707.202 495.87L707.203 495.881C707.344 496.047 706.883 495.485 707.529 496.367C709.068 495.638 707.974 496.066 708.31 495.947V495.956L708.297 496.217L708.303 496.776C708.318 497.15 708.352 497.529 708.409 497.902C708.515 498.649 708.711 499.381 708.999 500.068C709.296 500.748 709.694 501.378 710.213 501.887C710.732 502.385 711.372 502.834 711.984 502.905C713.383 503.06 715.004 502.551 716.499 502.015C718.018 501.454 719.51 500.752 720.984 499.996C723.771 498.55 726.434 496.912 728.962 495.163C731.47 493.4 733.916 491.553 735.94 489.428C736.978 488.377 737.655 487.214 737.753 485.832C737.879 484.481 737.541 483.095 737.019 481.807C735.947 479.221 734.183 476.927 732.321 474.973L732.151 474.794L732.165 474.529C732.231 473.179 732.291 471.789 731.761 470.603C731.296 469.408 730.44 468.42 729.356 467.756C727.166 466.437 724.423 466.191 721.992 466.344L721.305 466.388L721.469 465.71C721.65 464.963 721.862 464.227 722.017 463.491C722.062 462.753 722.273 462.012 722.188 461.295C722.233 459.84 721.766 458.465 720.956 457.405C719.267 455.266 716.316 454.616 713.846 454.619L713.046 454.621L713.473 453.97C714.899 451.801 716.284 449.744 717.32 447.689C717.818 446.658 718.204 445.611 718.298 444.578C718.401 443.545 718.146 442.551 717.685 441.682C716.706 439.997 715.302 438.522 713.929 437.596C712.471 436.706 710.805 436.738 709.464 437.139C706.743 437.999 705.035 439.639 703.909 440.621C703.345 441.135 702.945 441.56 702.666 441.838C702.392 442.123 702.257 442.261 702.237 442.252C702.218 442.244 702.333 442.066 702.575 441.758C702.824 441.45 703.198 440.995 703.741 440.448C704.276 439.894 704.976 439.239 705.882 438.558C706.78 437.874 707.9 437.15 709.33 436.693C710.728 436.232 712.584 436.146 714.219 437.106C714.593 437.379 714.972 437.658 715.362 437.943C715.7 438.268 716.045 438.598 716.397 438.933C717.052 439.656 717.765 440.4 718.272 441.366C718.794 442.307 719.109 443.462 719.007 444.635C718.916 445.806 718.506 446.937 718.001 448.017C716.95 450.165 715.579 452.241 714.173 454.43L713.802 453.782C715.197 453.747 716.578 453.933 717.964 454.376C719.331 454.824 720.704 455.601 721.676 456.841C722.639 458.067 723.173 459.686 723.135 461.271C723.229 462.077 723.017 462.853 722.967 463.656C722.811 464.438 722.595 465.213 722.406 466.003L721.883 465.369C724.529 465.194 727.354 465.397 729.893 466.879C731.137 467.626 732.187 468.81 732.736 470.219C733.355 471.629 733.297 473.169 733.224 474.651L733.067 474.209C735.051 476.278 736.854 478.59 738.033 481.388C738.6 482.782 739 484.327 738.858 485.939C738.794 486.75 738.531 487.526 738.193 488.275C737.76 488.974 737.305 489.658 736.758 490.194C734.625 492.437 732.158 494.297 729.607 496.094C727.042 497.874 724.346 499.533 721.505 501.007C720.003 501.782 718.476 502.499 716.891 503.081C715.3 503.63 713.69 504.214 711.819 504.027C709.835 503.605 708.671 502.071 707.966 500.512C707.631 499.717 707.416 498.892 707.299 498.063C707.238 497.649 707.2 497.235 707.185 496.818L707.18 496.19L707.197 495.86L707.203 495.794L707.205 495.776C707.541 495.653 706.449 496.077 707.991 495.347C708.639 496.225 708.177 495.666 708.319 495.836L708.318 495.882L708.312 495.992L708.297 496.153L708.222 496.988L707.493 496.599C705.033 495.287 702.662 493.927 700.709 491.903C700.243 491.378 699.786 490.78 699.546 490.04C699.306 489.309 699.316 488.536 699.452 487.833C699.753 486.413 700.443 485.238 701.316 484.178L701.406 484.968C699.194 483.268 697.08 481.516 695.7 479.05C695.048 477.759 694.925 476.311 695.068 474.995C695.211 473.658 695.554 472.417 696.073 471.212L696.109 471.133L696.178 471.064C698.572 468.754 700.883 466.526 703.057 464.43L703.56 465.183C700.321 466.485 697.225 467.689 693.997 468.042C693.231 468.097 692.22 468.074 691.532 467.469C690.947 467 690.34 466.549 689.795 465.995C689.254 465.459 688.755 464.748 688.678 463.901C688.606 463.057 688.951 462.313 689.33 461.708C691.01 459.403 692.947 457.795 694.624 456.194C696.335 454.637 697.91 453.273 699.325 452.084L699.247 452.207C700.167 449.05 700.888 446.57 701.41 444.785C701.65 444.005 701.844 443.378 701.997 442.879C702.137 442.455 702.217 442.243 702.237 442.252Z" fill="#F39772"/>
<path d="M264.849 443.17H179.735C173.854 443.17 169.086 438.396 169.086 432.507V314.547C169.086 308.657 173.854 303.884 179.735 303.884H233.714L275.5 347.006V432.507C275.5 438.396 270.731 443.17 264.849 443.17Z" fill="#EBECEC"/>
<path d="M233.714 302V335.198C233.714 340.676 238.148 345.115 243.619 345.117L275.5 345.122L233.714 302Z" fill="#F4F4F4"/>
<path d="M234.15 338.112C234.15 338.112 233.731 346.163 242.885 348.811C243.228 348.911 243.581 348.985 243.933 349.047C248.096 349.792 275.5 354.673 275.5 354.043C275.5 353.361 275.5 345.122 275.5 345.122H243.619C243.619 345.122 235.658 344.85 234.15 338.112Z" fill="#E0E0E0"/>
<path d="M264.849 443.17C264.847 443.12 265.488 443.184 266.689 442.954C267.876 442.734 269.677 442.199 271.519 440.7C273.303 439.222 275.152 436.636 275.333 433.179C275.386 429.739 275.325 425.748 275.326 421.293C275.296 403.432 275.253 377.879 275.199 347.006L275.284 347.215C262.633 334.179 248.525 319.639 233.468 304.123L233.714 304.228C223.707 304.232 213.287 304.236 202.567 304.239C197.207 304.24 191.771 304.242 186.274 304.242C184.9 304.242 183.521 304.242 182.139 304.243C180.754 304.263 179.36 304.171 178.051 304.394C175.4 304.818 172.937 306.354 171.367 308.566C170.272 310.101 169.597 311.939 169.483 313.813C169.408 315.704 169.462 317.678 169.445 319.598C169.444 323.46 169.444 327.295 169.444 331.105C169.442 338.721 169.44 346.224 169.438 353.6C169.431 368.347 169.424 382.573 169.417 396.125C169.412 402.901 169.406 409.508 169.402 415.929C169.4 419.139 169.397 422.302 169.393 425.415C169.392 426.971 169.39 428.517 169.389 430.047C169.413 431.587 169.29 433.108 169.585 434.535C170.14 437.421 171.987 439.942 174.407 441.393C175.615 442.126 176.963 442.595 178.336 442.782C179.697 442.953 181.134 442.87 182.524 442.893C188.111 442.901 193.472 442.909 198.591 442.917C219.047 442.964 235.606 443.003 247.073 443.031C252.782 443.06 257.22 443.083 260.254 443.098C261.747 443.113 262.889 443.126 263.681 443.134C264.453 443.147 264.849 443.17 264.849 443.17C264.849 443.17 264.453 443.196 263.681 443.207C262.889 443.217 261.747 443.227 260.254 443.243C257.22 443.259 252.782 443.281 247.073 443.311C235.606 443.337 219.047 443.377 198.591 443.425C193.472 443.432 188.111 443.441 182.524 443.449C181.126 443.427 179.729 443.519 178.261 443.343C176.812 443.151 175.388 442.656 174.111 441.887C171.552 440.362 169.594 437.703 169 434.651C168.686 433.111 168.813 431.567 168.783 430.047C168.782 428.517 168.781 426.971 168.779 425.415C168.776 422.302 168.773 419.139 168.77 415.929C168.766 409.508 168.761 402.901 168.756 396.125C168.749 382.573 168.742 368.347 168.735 353.6C168.733 346.224 168.73 338.721 168.729 331.105C168.729 327.295 168.728 323.46 168.728 319.598C168.745 317.656 168.688 315.754 168.766 313.762C168.889 311.758 169.611 309.789 170.783 308.149C172.461 305.782 175.096 304.14 177.935 303.684C179.371 303.446 180.766 303.547 182.139 303.525C183.521 303.525 184.9 303.525 186.274 303.525C191.771 303.526 197.207 303.526 202.567 303.528C213.287 303.532 223.707 303.536 233.714 303.539H233.861L233.962 303.644C248.996 319.182 263.082 333.741 275.715 346.796L275.799 346.884V347.006C275.746 377.879 275.702 403.432 275.672 421.293C275.643 425.756 275.68 429.723 275.597 433.197C275.384 436.738 273.466 439.361 271.633 440.843C269.74 442.343 267.907 442.852 266.705 443.046C266.096 443.149 265.631 443.173 265.318 443.17C265.006 443.178 264.849 443.17 264.849 443.17Z" fill="#191919"/>
<path d="M275.5 345.122C275.5 345.147 275.217 345.17 274.68 345.194C274.065 345.212 273.289 345.234 272.333 345.262C270.197 345.289 267.27 345.328 263.696 345.374C260.021 345.395 255.687 345.422 250.888 345.449C248.473 345.451 245.94 345.452 243.315 345.455C240.601 345.402 237.818 344.157 235.917 341.977C234.964 340.896 234.251 339.626 233.831 338.285C233.384 336.958 233.328 335.502 233.363 334.216C233.37 331.591 233.377 329.059 233.384 326.642C233.413 321.837 233.439 317.497 233.461 313.816C233.508 310.238 233.546 307.308 233.575 305.17C233.603 304.213 233.625 303.435 233.643 302.819C233.666 302.282 233.69 302 233.714 302C233.739 302 233.764 302.282 233.788 302.819C233.804 303.435 233.827 304.213 233.854 305.17C233.883 307.308 233.921 310.238 233.968 313.816C233.99 317.497 234.017 321.837 234.046 326.642C234.053 329.059 234.059 331.591 234.066 334.216C234.039 335.549 234.094 336.808 234.512 338.07C234.906 339.317 235.57 340.496 236.458 341.502C238.227 343.529 240.806 344.693 243.336 344.749C245.953 344.763 248.478 344.774 250.888 344.787C255.687 344.817 260.021 344.843 263.697 344.865C267.27 344.914 270.197 344.952 272.333 344.981C273.289 345.009 274.065 345.031 274.68 345.049C275.217 345.072 275.5 345.097 275.5 345.122Z" fill="#191919"/>
<path d="M232.106 331.624C232.106 331.823 222.053 331.984 209.655 331.984C197.252 331.984 187.2 331.823 187.2 331.624C187.2 331.425 197.252 331.265 209.655 331.265C222.053 331.265 232.106 331.425 232.106 331.624Z" fill="#191919"/>
<path d="M253.412 348.185C253.412 348.384 238.589 348.545 220.308 348.545C202.021 348.545 187.2 348.384 187.2 348.185C187.2 347.987 202.021 347.825 220.308 347.825C238.589 347.825 253.412 347.987 253.412 348.185Z" fill="#191919"/>
<path d="M253.412 364.746C253.412 364.945 238.589 365.106 220.308 365.106C202.021 365.106 187.2 364.945 187.2 364.746C187.2 364.547 202.021 364.387 220.308 364.387C238.589 364.387 253.412 364.547 253.412 364.746Z" fill="#191919"/>
<path d="M253.412 381.308C253.412 381.507 238.589 381.667 220.308 381.667C202.021 381.667 187.2 381.507 187.2 381.308C187.2 381.109 202.021 380.947 220.308 380.947C238.589 380.947 253.412 381.109 253.412 381.308Z" fill="#191919"/>
<path d="M253.412 397.868C253.412 398.067 238.589 398.229 220.308 398.229C202.021 398.229 187.2 398.067 187.2 397.868C187.2 397.669 202.021 397.509 220.308 397.509C238.589 397.509 253.412 397.669 253.412 397.868Z" fill="#191919"/>
<path d="M253.412 414.43C253.412 414.629 238.589 414.789 220.308 414.789C202.021 414.789 187.2 414.629 187.2 414.43C187.2 414.229 202.021 414.069 220.308 414.069C238.589 414.069 253.412 414.229 253.412 414.43Z" fill="#191919"/>
<path d="M216.469 418.295H155.824C152.607 418.295 150 415.683 150 412.463V391.601C150 388.38 152.607 385.771 155.824 385.771H216.469C219.686 385.771 222.293 388.38 222.293 391.601V412.463C222.293 415.683 219.686 418.295 216.469 418.295Z" fill="#379C60"/>
<path d="M175.43 400.819C175.43 399.468 174.553 398.677 172.817 398.677H170.503V402.943H172.817C174.553 402.943 175.43 402.153 175.43 400.819ZM178.305 400.819C178.305 403.556 176.254 405.259 172.975 405.259H170.503V408.647H167.663V396.36H172.975C176.254 396.36 178.305 398.063 178.305 400.819Z" fill="#FEFEFE"/>
<path d="M185.755 406.313C188.192 406.313 189.787 404.857 189.787 402.505C189.787 400.152 188.192 398.695 185.755 398.695H183.16V406.313H185.755ZM180.32 396.36H185.896C189.911 396.36 192.663 398.782 192.663 402.505C192.663 406.226 189.911 408.647 185.896 408.647H180.32V396.36Z" fill="#FEFEFE"/>
<path d="M197.64 398.642V401.889H203.321V404.172H197.64V408.647H194.8V396.36H204.075V398.642H197.64Z" fill="#FEFEFE"/>
<path d="M145.65 711.134H61.4437C55.625 711.134 50.9078 706.41 50.9078 700.583V583.882C50.9078 578.057 55.6254 573.333 61.4437 573.333H114.847L156.186 615.995V700.583C156.186 706.41 151.468 711.134 145.65 711.134Z" fill="#EBECEC"/>
<path d="M114.847 573.333L114.848 606.177C114.847 611.596 119.234 615.988 124.646 615.989L156.186 615.995L114.847 573.333Z" fill="#F4F4F4"/>
<path d="M115.278 609.06C115.278 609.06 114.862 617.025 123.919 619.645C124.259 619.743 124.608 619.816 124.956 619.878C129.075 620.614 156.186 625.443 156.186 624.82C156.186 624.145 156.186 615.995 156.186 615.995H124.644C124.644 615.995 116.769 615.725 115.278 609.06Z" fill="#E0E0E0"/>
<path d="M145.65 711.134C145.646 711.084 146.282 711.146 147.47 710.918C148.643 710.699 150.424 710.171 152.248 708.687C154.012 707.226 155.841 704.666 156.019 701.247C156.071 697.845 156.011 693.896 156.014 689.488C155.982 671.818 155.938 646.537 155.885 615.995L155.969 616.203C143.454 603.306 129.496 588.922 114.6 573.573L114.847 573.676C104.946 573.681 94.6381 573.685 84.0319 573.687C78.7278 573.689 73.3506 573.69 67.9123 573.692C66.5524 573.692 65.1893 573.692 63.8223 573.692C62.4518 573.712 61.072 573.62 59.7785 573.839C57.1559 574.26 54.7203 575.778 53.168 577.968C52.0853 579.484 51.4174 581.303 51.304 583.157C51.2305 585.026 51.2837 586.98 51.2673 588.879C51.2665 592.699 51.2661 596.495 51.2661 600.262C51.2638 607.797 51.2622 615.221 51.2602 622.518C51.2528 637.108 51.2466 651.182 51.2395 664.59C51.234 671.293 51.2297 677.831 51.2243 684.181C51.2215 687.356 51.2192 690.486 51.2153 693.567C51.2141 695.106 51.2125 696.635 51.2114 698.15C51.2356 699.672 51.114 701.178 51.4053 702.588C51.9527 705.443 53.7799 707.936 56.1741 709.371C57.3687 710.095 58.7016 710.562 60.0596 710.746C61.4055 710.916 62.8272 710.831 64.2032 710.856C69.7306 710.864 75.0343 710.871 80.0975 710.878C100.337 710.926 116.718 710.967 128.062 710.993C133.711 711.022 138.102 711.044 141.102 711.06C142.58 711.076 143.71 711.088 144.494 711.095C145.258 711.107 145.65 711.134 145.65 711.134C145.65 711.134 145.258 711.157 144.494 711.17C143.71 711.178 142.58 711.19 141.102 711.205C138.102 711.221 133.711 711.244 128.062 711.271C116.718 711.3 100.337 711.338 80.0975 711.386C75.0343 711.394 69.7306 711.401 64.2032 711.41C62.8202 711.387 61.4379 711.481 59.9842 711.306C58.5503 711.116 57.1411 710.627 55.8777 709.865C53.3459 708.356 51.408 705.726 50.8207 702.704C50.5087 701.181 50.635 699.652 50.6057 698.15C50.6049 696.635 50.6029 695.106 50.601 693.567C50.5983 690.486 50.5955 687.356 50.5924 684.181C50.5877 677.831 50.583 671.293 50.5779 664.59C50.5709 651.182 50.5642 637.108 50.5568 622.518C50.5545 615.221 50.5525 607.797 50.5513 600.262C50.5509 596.495 50.5498 592.699 50.5498 588.879C50.567 586.958 50.5111 585.077 50.5885 583.104C50.7097 581.122 51.4245 579.174 52.5834 577.549C54.2452 575.207 56.8525 573.581 59.6608 573.132C61.0833 572.896 62.4632 572.995 63.8223 572.973C65.1893 572.975 66.5524 572.975 67.9123 572.975C73.3506 572.975 78.7278 572.976 84.0319 572.976C94.6381 572.98 104.946 572.983 114.847 572.987H114.993L115.095 573.092C129.968 588.465 143.903 602.869 156.401 615.786L156.485 615.873V615.995C156.433 646.537 156.389 671.818 156.358 689.488C156.331 693.903 156.367 697.829 156.284 701.263C156.073 704.769 154.175 707.362 152.362 708.829C150.489 710.315 148.675 710.817 147.484 711.009C146.883 711.111 146.424 711.136 146.114 711.132C145.806 711.14 145.65 711.134 145.65 711.134Z" fill="#191919"/>
<path d="M156.186 615.995C156.186 616.02 155.906 616.043 155.376 616.067C154.767 616.083 153.997 616.107 153.053 616.135C150.937 616.162 148.043 616.2 144.509 616.248C140.872 616.268 136.584 616.295 131.837 616.322C129.447 616.324 126.942 616.325 124.345 616.326C121.658 616.277 118.904 615.043 117.024 612.886C116.08 611.817 115.375 610.559 114.957 609.233C114.516 607.918 114.46 606.477 114.495 605.205C114.503 602.61 114.509 600.103 114.516 597.712C114.545 592.958 114.571 588.665 114.593 585.023C114.64 581.485 114.679 578.587 114.707 576.469C114.735 575.524 114.757 574.754 114.775 574.143C114.798 573.612 114.823 573.333 114.848 573.333C114.872 573.333 114.896 573.612 114.92 574.143C114.937 574.754 114.959 575.524 114.987 576.469C115.015 578.587 115.053 581.485 115.101 585.023C115.123 588.665 115.149 592.958 115.178 597.712C115.185 600.103 115.192 602.61 115.199 605.205C115.172 606.524 115.226 607.769 115.639 609.017C116.03 610.249 116.685 611.418 117.563 612.411C119.313 614.415 121.864 615.565 124.366 615.622C126.955 615.636 129.454 615.648 131.838 615.659C136.584 615.688 140.872 615.716 144.509 615.738C148.043 615.786 150.937 615.825 153.053 615.854C153.997 615.882 154.767 615.905 155.376 615.922C155.906 615.945 156.186 615.969 156.186 615.995Z" fill="#191919"/>
<path d="M113.256 602.642C113.256 602.841 103.31 603.001 91.0439 603.001C78.7731 603.001 68.8292 602.841 68.8292 602.642C68.8292 602.442 78.7731 602.281 91.0439 602.281C103.31 602.281 113.256 602.442 113.256 602.642Z" fill="#191919"/>
<path d="M134.334 619.025C134.334 619.224 119.67 619.384 101.584 619.384C83.4911 619.384 68.8292 619.224 68.8292 619.025C68.8292 618.828 83.4911 618.666 101.584 618.666C119.67 618.666 134.334 618.827 134.334 619.025Z" fill="#191919"/>
<path d="M134.334 635.41C134.334 635.608 119.67 635.77 101.584 635.77C83.4911 635.77 68.8292 635.608 68.8292 635.41C68.8292 635.212 83.4911 635.05 101.584 635.05C119.67 635.05 134.334 635.212 134.334 635.41Z" fill="#191919"/>
<path d="M134.334 651.794C134.334 651.992 119.67 652.154 101.584 652.154C83.4911 652.154 68.8292 651.992 68.8292 651.794C68.8292 651.595 83.4911 651.434 101.584 651.434C119.67 651.434 134.334 651.595 134.334 651.794Z" fill="#191919"/>
<path d="M134.334 668.178C134.334 668.376 119.67 668.538 101.584 668.538C83.4911 668.538 68.8292 668.378 68.8292 668.178C68.8292 667.98 83.4911 667.818 101.584 667.818C119.67 667.818 134.334 667.98 134.334 668.178Z" fill="#191919"/>
<path d="M134.334 684.563C134.334 684.761 119.67 684.922 101.584 684.922C83.4911 684.922 68.8292 684.761 68.8292 684.563C68.8292 684.363 83.4911 684.203 101.584 684.203C119.67 684.203 134.334 684.363 134.334 684.563Z" fill="#191919"/>
<path d="M97.724 688.385H37.8496C34.6335 688.385 32.0262 685.775 32.0262 682.554V662.039C32.0262 658.818 34.6335 656.208 37.8496 656.208H97.724C100.94 656.208 103.547 658.818 103.547 662.039V682.554C103.547 685.775 100.94 688.385 97.724 688.385Z" fill="#379C60"/>
<path d="M57.179 671.103C57.179 669.766 56.3121 668.985 54.5952 668.985H52.3058V673.205H54.5952C56.3121 673.205 57.179 672.422 57.179 671.103ZM60.024 671.103C60.024 673.812 57.9946 675.497 54.7516 675.497H52.3058V678.849H49.496V666.693H54.7516C57.9946 666.693 60.024 668.376 60.024 671.103Z" fill="#FEFEFE"/>
<path d="M69.7016 671.103C69.7016 669.766 68.834 668.985 67.1174 668.985H64.8276V673.205H67.1174C68.834 673.205 69.7016 672.422 69.7016 671.103ZM72.5447 671.103C72.5447 673.812 70.5161 675.497 67.2727 675.497H64.8276V678.849H62.0178V666.693H67.2727C70.5161 666.693 72.5447 668.376 72.5447 671.103Z" fill="#FEFEFE"/>
<path d="M76.7249 668.985H72.8402V666.693H83.4199V668.985H79.5351V678.849H76.7249V668.985Z" fill="#FEFEFE"/>
<path d="M828.747 727.504H743.745C737.87 727.504 733.11 722.736 733.11 716.855L733.109 599.049C733.109 593.17 737.87 588.4 743.744 588.4H797.652L839.383 631.466V716.855C839.383 722.736 834.621 727.504 828.747 727.504Z" fill="#EBECEC"/>
<path d="M797.652 588.4V621.556C797.652 627.025 802.08 631.46 807.543 631.46L839.383 631.466L797.652 588.4Z" fill="#F4F4F4"/>
<path d="M798.087 624.466C798.087 624.466 797.669 632.507 806.81 635.149C807.154 635.249 807.506 635.323 807.858 635.387C812.015 636.13 839.383 641.004 839.383 640.374C839.383 639.694 839.383 631.466 839.383 631.466H807.543C807.543 631.466 799.593 631.194 798.087 624.466Z" fill="#E0E0E0"/>
<path d="M828.747 727.503C828.743 727.454 829.384 727.518 830.583 727.288C831.768 727.067 833.567 726.533 835.407 725.037C837.189 723.56 839.036 720.977 839.216 717.526C839.269 714.09 839.207 710.104 839.21 705.655C839.178 687.818 839.134 662.298 839.081 631.465L839.167 631.675C826.532 618.656 812.441 604.136 797.406 588.64L797.652 588.745C787.658 588.748 777.252 588.752 766.545 588.756C761.192 588.756 755.764 588.758 750.274 588.759C748.901 588.759 747.525 588.759 746.145 588.759C744.762 588.78 743.369 588.687 742.062 588.911C739.414 589.334 736.954 590.868 735.387 593.078C734.293 594.61 733.62 596.447 733.506 598.317C733.43 600.205 733.484 602.177 733.469 604.094C733.467 607.951 733.467 611.781 733.467 615.585C733.464 623.191 733.463 630.687 733.462 638.051C733.453 652.78 733.446 666.987 733.44 680.521C733.434 687.288 733.43 693.887 733.425 700.297C733.422 703.503 733.419 706.663 733.416 709.772C733.414 711.326 733.412 712.87 733.412 714.399C733.435 715.935 733.313 717.455 733.608 718.88C734.161 721.762 736.005 724.28 738.423 725.729C739.629 726.459 740.975 726.929 742.346 727.115C743.705 727.287 745.14 727.204 746.529 727.226C752.109 727.234 757.463 727.243 762.574 727.251C783.006 727.298 799.541 727.337 810.993 727.364C816.694 727.393 821.126 727.417 824.156 727.431C825.647 727.447 826.788 727.459 827.58 727.468C828.351 727.48 828.747 727.503 828.747 727.503C828.747 727.503 828.351 727.529 827.58 727.541C826.788 727.549 825.647 727.56 824.156 727.577C821.126 727.592 816.694 727.614 810.993 727.645C799.541 727.671 783.006 727.711 762.574 727.759C757.463 727.766 752.109 727.774 746.529 727.783C745.133 727.761 743.738 727.853 742.27 727.676C740.825 727.484 739.402 726.99 738.125 726.223C735.571 724.7 733.616 722.045 733.023 718.995C732.709 717.458 732.837 715.915 732.806 714.399C732.805 712.87 732.804 711.326 732.802 709.772C732.798 706.663 732.795 703.503 732.793 700.297C732.787 693.887 732.783 687.288 732.779 680.521C732.772 666.987 732.765 652.78 732.757 638.051C732.755 630.687 732.754 623.191 732.751 615.585C732.751 611.781 732.75 607.951 732.75 604.094C732.768 602.154 732.711 600.255 732.788 598.266C732.911 596.266 733.633 594.298 734.802 592.658C736.478 590.296 739.11 588.654 741.945 588.201C743.38 587.962 744.774 588.063 746.145 588.042C747.525 588.042 748.901 588.042 750.274 588.042C755.764 588.044 761.192 588.044 766.545 588.045C777.252 588.049 787.658 588.052 797.652 588.055H797.797L797.9 588.161C812.913 603.678 826.982 618.218 839.596 631.257L839.683 631.344L839.682 631.465C839.628 662.298 839.585 687.818 839.555 705.655C839.526 710.113 839.563 714.074 839.48 717.541C839.268 721.081 837.352 723.699 835.521 725.179C833.632 726.678 831.8 727.186 830.6 727.379C829.991 727.483 829.528 727.506 829.216 727.503C828.903 727.512 828.747 727.503 828.747 727.503Z" fill="#191919"/>
<path d="M839.383 631.466C839.383 631.491 839.101 631.514 838.565 631.539C837.951 631.557 837.173 631.578 836.219 631.606C834.087 631.633 831.164 631.673 827.596 631.719C823.925 631.739 819.595 631.766 814.803 631.793C812.39 631.795 809.86 631.796 807.241 631.797C804.529 631.748 801.751 630.503 799.853 628.327C798.899 627.246 798.188 625.978 797.767 624.639C797.322 623.313 797.266 621.858 797.301 620.574C797.308 617.954 797.315 615.425 797.322 613.01C797.351 608.212 797.377 603.878 797.399 600.201C797.446 596.63 797.484 593.702 797.512 591.566C797.541 590.612 797.561 589.835 797.579 589.219C797.605 588.683 797.628 588.4 797.653 588.4C797.676 588.4 797.701 588.683 797.726 589.219C797.742 589.835 797.764 590.612 797.792 591.566C797.821 593.702 797.859 596.63 797.906 600.201C797.929 603.878 797.955 608.212 797.984 613.01C797.99 615.425 797.997 617.954 798.004 620.574C797.977 621.905 798.032 623.162 798.449 624.425C798.843 625.668 799.507 626.846 800.392 627.851C802.158 629.876 804.736 631.038 807.262 631.094C809.874 631.107 812.397 631.119 814.803 631.132C819.595 631.159 823.925 631.187 827.596 631.211C831.164 631.259 834.087 631.297 836.219 631.326C837.174 631.353 837.951 631.376 838.565 631.393C839.101 631.418 839.383 631.442 839.383 631.466Z" fill="#191919"/>
<path d="M796.047 617.985C796.047 618.184 786.006 618.345 773.625 618.345C761.236 618.345 751.2 618.185 751.2 617.985C751.2 617.787 761.236 617.627 773.625 617.627C786.006 617.627 796.047 617.787 796.047 617.985Z" fill="#191919"/>
<path d="M817.324 634.525C817.324 634.726 802.521 634.885 784.264 634.885C766.001 634.885 751.2 634.726 751.2 634.525C751.2 634.327 766.001 634.166 784.264 634.166C802.521 634.166 817.324 634.327 817.324 634.525Z" fill="#191919"/>
<path d="M817.324 651.065C817.324 651.264 802.521 651.424 784.264 651.424C766.001 651.424 751.2 651.264 751.2 651.065C751.2 650.866 766.001 650.706 784.264 650.706C802.521 650.706 817.324 650.866 817.324 651.065Z" fill="#191919"/>
<path d="M817.324 667.603C817.324 667.803 802.521 667.963 784.264 667.963C766.001 667.963 751.2 667.803 751.2 667.603C751.2 667.405 766.001 667.243 784.264 667.243C802.521 667.243 817.324 667.405 817.324 667.603Z" fill="#191919"/>
<path d="M817.324 684.143C817.324 684.341 802.521 684.503 784.264 684.503C766.001 684.503 751.2 684.341 751.2 684.143C751.2 683.943 766.001 683.783 784.264 683.783C802.521 683.783 817.324 683.943 817.324 684.143Z" fill="#191919"/>
<path d="M817.324 704.541C817.324 704.741 802.521 704.902 784.264 704.902C766.001 704.902 751.2 704.741 751.2 704.541C751.2 704.344 766.001 704.183 784.264 704.183C802.521 704.183 817.324 704.344 817.324 704.541Z" fill="#191919"/>
<path d="M780.422 704.541H719.872C716.655 704.541 714.048 701.932 714.048 698.711V677.89C714.048 674.67 716.655 672.06 719.872 672.06H780.422C783.639 672.06 786.245 674.67 786.245 677.89V698.711C786.245 701.932 783.639 704.541 780.422 704.541Z" fill="#379C60"/>
<path d="M727.841 692.594C730.275 692.594 731.868 691.138 731.868 688.789C731.868 686.44 730.275 684.984 727.841 684.984H725.25V692.594H727.841ZM722.413 682.652H727.981C731.991 682.652 734.74 685.072 734.74 688.789C734.74 692.507 731.991 694.926 727.981 694.926H722.413V682.652Z" fill="#FEFEFE"/>
<path d="M746.645 688.789C746.645 686.458 744.999 684.861 742.81 684.861C740.621 684.861 738.975 686.458 738.975 688.789C738.975 691.122 740.621 692.717 742.81 692.717C744.999 692.717 746.645 691.122 746.645 688.789ZM736.104 688.789C736.104 685.142 738.94 682.441 742.81 682.441C746.663 682.441 749.517 685.125 749.517 688.789C749.517 692.453 746.663 695.137 742.81 695.137C738.94 695.137 736.104 692.437 736.104 688.789Z" fill="#FEFEFE"/>
<path d="M750.879 688.789C750.879 685.089 753.715 682.441 757.534 682.441C759.653 682.441 761.421 683.213 762.577 684.617L760.756 686.299C759.933 685.353 758.899 684.861 757.673 684.861C755.379 684.861 753.751 686.474 753.751 688.789C753.751 691.104 755.379 692.717 757.673 692.717C758.899 692.717 759.933 692.226 760.756 691.261L762.577 692.945C761.421 694.365 759.653 695.137 757.516 695.137C753.715 695.137 750.879 692.49 750.879 688.789Z" fill="#FEFEFE"/>
<path d="M771.961 694.926L769.001 690.664L766.095 694.926H762.838L767.373 688.684L763.065 682.652H766.288L769.106 686.633L771.873 682.652H774.938L770.664 688.579L775.236 694.926H771.961Z" fill="#FEFEFE"/>
<path d="M921.065 767.962C921.065 768.163 714.86 768.323 460.555 768.323C206.161 768.323 0.000610352 768.163 0.000610352 767.962C0.000610352 767.765 206.161 767.604 460.555 767.604C714.86 767.604 921.065 767.765 921.065 767.962Z" fill="#191919"/>
<path d="M956.639 443.033H873.162C867.395 443.033 862.719 437.734 862.719 431.197L862.717 300.248C862.717 293.71 867.395 288.41 873.162 288.41H926.103L967.082 336.281V431.197C967.082 437.734 962.407 443.033 956.639 443.033Z" fill="#EBECEC"/>
<path d="M926.103 288.41V325.264C926.103 331.343 930.452 336.273 935.815 336.274L967.082 336.281L926.103 288.41Z" fill="#F4F4F4"/>
<path d="M926.529 328.498C926.529 328.498 926.118 337.436 935.096 340.375C935.433 340.486 935.779 340.567 936.124 340.637C940.207 341.464 967.082 346.883 967.082 346.183C967.082 345.426 967.082 336.28 967.082 336.28H935.815C935.815 336.28 928.009 335.977 926.529 328.498Z" fill="#E0E0E0"/>
<path d="M956.639 443.033C956.634 442.978 957.265 443.049 958.443 442.793C959.606 442.546 961.371 441.953 963.177 440.291C964.929 438.648 966.74 435.778 966.916 431.941C966.969 428.123 966.907 423.693 966.91 418.747C966.879 398.92 966.837 370.551 966.783 336.281L966.867 336.517C954.459 322.045 940.623 305.906 925.856 288.681L926.102 288.8C916.287 288.804 906.068 288.808 895.554 288.812C890.296 288.814 884.966 288.815 879.575 288.815C878.226 288.815 876.876 288.817 875.52 288.817C874.162 288.839 872.794 288.737 871.511 288.984C868.912 289.455 866.498 291.157 864.96 293.613C863.889 295.314 863.225 297.354 863.113 299.432C863.041 301.532 863.094 303.723 863.077 305.854C863.076 310.141 863.076 314.4 863.076 318.627C863.073 327.082 863.072 335.413 863.071 343.6C863.062 359.972 863.055 375.763 863.048 390.808C863.044 398.331 863.04 405.664 863.035 412.791C863.032 416.354 863.029 419.866 863.026 423.323C863.024 425.051 863.022 426.766 863.021 428.466C863.046 430.173 862.924 431.863 863.214 433.447C863.756 436.648 865.567 439.446 867.94 441.054C869.125 441.867 870.445 442.391 871.79 442.597C873.124 442.786 874.535 442.693 875.897 442.721C881.378 442.729 886.635 442.737 891.654 442.746C911.718 442.8 927.957 442.844 939.203 442.876C944.803 442.908 949.154 442.933 952.132 442.952C953.594 442.969 954.716 442.983 955.492 442.991C956.251 443.005 956.639 443.033 956.639 443.033C956.639 443.033 956.251 443.061 955.492 443.076C954.716 443.085 953.594 443.099 952.132 443.116C949.154 443.134 944.803 443.158 939.203 443.191C927.957 443.223 911.718 443.266 891.654 443.321C886.635 443.329 881.378 443.338 875.897 443.348C874.527 443.322 873.157 443.427 871.715 443.23C870.293 443.018 868.897 442.467 867.643 441.614C865.133 439.921 863.213 436.969 862.629 433.578C862.319 431.866 862.444 430.151 862.415 428.466C862.414 426.766 862.414 425.051 862.413 423.323C862.408 419.866 862.406 416.354 862.403 412.791C862.397 405.664 862.393 398.331 862.388 390.808C862.381 375.763 862.374 359.972 862.366 343.6C862.364 335.413 862.363 327.082 862.36 318.627C862.36 314.4 862.359 310.141 862.359 305.854C862.377 303.699 862.32 301.588 862.397 299.376C862.518 297.15 863.226 294.961 864.375 293.14C866.024 290.51 868.61 288.685 871.394 288.181C872.806 287.916 874.174 288.027 875.52 288.004C876.876 288.004 878.226 288.004 879.575 288.004C884.966 288.006 890.296 288.006 895.554 288.007C906.068 288.012 916.287 288.016 926.102 288.02H926.249L926.35 288.138C941.094 305.387 954.909 321.55 967.298 336.043L967.383 336.143V336.281C967.329 370.551 967.286 398.92 967.255 418.747C967.228 423.702 967.263 428.105 967.183 431.96C966.972 435.893 965.092 438.806 963.291 440.449C961.436 442.116 959.637 442.68 958.458 442.896C957.862 443.01 957.405 443.037 957.098 443.033C956.792 443.043 956.639 443.033 956.639 443.033Z" fill="#E0E0E0"/>
<path d="M967.082 336.281C967.082 336.309 966.806 336.336 966.279 336.362C965.675 336.382 964.912 336.407 963.976 336.438C961.879 336.47 959.01 336.514 955.507 336.565C951.902 336.59 947.65 336.618 942.945 336.651C940.577 336.653 938.093 336.654 935.519 336.656C932.855 336.6 930.122 335.214 928.259 332.794C927.322 331.594 926.623 330.182 926.21 328.692C925.77 327.218 925.717 325.601 925.751 324.174C925.758 321.26 925.765 318.447 925.772 315.765C925.801 310.432 925.827 305.614 925.849 301.527C925.896 297.558 925.934 294.307 925.963 291.93C925.989 290.87 926.013 290.005 926.031 289.32C926.053 288.723 926.078 288.41 926.103 288.41C926.128 288.41 926.152 288.723 926.174 289.32C926.194 290.005 926.214 290.87 926.242 291.93C926.269 294.307 926.31 297.558 926.356 301.527C926.38 305.614 926.405 310.432 926.434 315.765C926.441 318.447 926.446 321.26 926.454 324.174C926.289 327.054 927.019 330.01 928.798 332.257C930.531 334.504 933.059 335.796 935.539 335.86C938.106 335.874 940.582 335.888 942.945 335.901C947.65 335.934 951.902 335.965 955.507 335.99C959.01 336.044 961.879 336.088 963.976 336.121C964.912 336.152 965.675 336.177 966.279 336.198C966.806 336.224 967.082 336.253 967.082 336.281Z" fill="#E0E0E0"/>
<path d="M924.526 321.295C924.526 321.52 914.664 321.703 902.506 321.703C890.341 321.703 880.484 321.52 880.484 321.295C880.484 321.072 890.341 320.889 902.506 320.889C914.664 320.889 924.526 321.072 924.526 321.295Z" fill="#E0E0E0"/>
<path d="M945.421 339.681C945.421 339.904 930.882 340.087 912.954 340.087C895.017 340.087 880.484 339.906 880.484 339.681C880.484 339.456 895.017 339.274 912.954 339.274C930.882 339.274 945.421 339.456 945.421 339.681Z" fill="#E0E0E0"/>
<path d="M945.421 358.066C945.421 358.289 930.884 358.472 912.954 358.472C895.017 358.472 880.484 358.289 880.484 358.066C880.484 357.841 895.017 357.658 912.954 357.658C930.884 357.658 945.421 357.841 945.421 358.066Z" fill="#E0E0E0"/>
<path d="M945.421 376.45C945.421 376.675 930.884 376.858 912.954 376.858C895.019 376.858 880.484 376.675 880.484 376.45C880.484 376.225 895.019 376.044 912.954 376.044C930.884 376.044 945.421 376.225 945.421 376.45Z" fill="#E0E0E0"/>
<path d="M945.421 394.834C945.421 395.059 930.884 395.241 912.954 395.241C895.019 395.241 880.484 395.059 880.484 394.834C880.484 394.609 895.019 394.427 912.954 394.427C930.884 394.427 945.421 394.609 945.421 394.834Z" fill="#E0E0E0"/>
<path d="M945.421 417.509C945.421 417.733 930.884 417.916 912.954 417.916C895.019 417.916 880.484 417.734 880.484 417.509C880.484 417.284 895.019 417.102 912.954 417.102C930.884 417.102 945.421 417.284 945.421 417.509Z" fill="#E0E0E0"/>
<path d="M909.078 417.51H849.824C846.607 417.51 844 414.555 844 410.909V388.003C844 384.359 846.607 381.404 849.824 381.404L909.078 381.402C912.293 381.402 914.9 384.359 914.9 388.003V410.909C914.9 414.555 912.293 417.51 909.078 417.51Z" fill="#E0E0E0"/>
<path d="M857.545 404.229C859.935 404.229 861.499 402.611 861.499 399.999C861.499 397.388 859.935 395.77 857.545 395.77H855V404.229H857.545ZM852.215 393.178H857.683C861.619 393.178 864.32 395.868 864.32 399.999C864.32 404.131 861.619 406.821 857.683 406.821H852.215V393.178Z" fill="#FEFEFE"/>
<path d="M876.011 399.999C876.011 397.407 874.394 395.633 872.243 395.633C870.094 395.633 868.477 397.407 868.477 399.999C868.477 402.592 870.094 404.365 872.243 404.365C874.394 404.365 876.011 402.592 876.011 399.999ZM865.658 399.999C865.658 395.946 868.445 392.944 872.243 392.944C876.028 392.944 878.83 395.926 878.83 399.999C878.83 404.072 876.028 407.054 872.243 407.054C868.445 407.054 865.658 404.052 865.658 399.999Z" fill="#FEFEFE"/>
<path d="M880.17 399.999C880.17 395.887 882.954 392.944 886.704 392.944C888.784 392.944 890.521 393.803 891.656 395.361L889.868 397.231C889.06 396.179 888.046 395.633 886.842 395.633C884.589 395.633 882.989 397.426 882.989 399.999C882.989 402.572 884.589 404.365 886.842 404.365C888.046 404.365 889.06 403.819 889.868 402.747L891.656 404.618C890.521 406.196 888.784 407.054 886.686 407.054C882.954 407.054 880.17 404.111 880.17 399.999Z" fill="#FEFEFE"/>
<path d="M900.87 406.821L897.966 402.084L895.112 406.821H891.911L896.367 399.881L892.135 393.178H895.299L898.068 397.602L900.785 393.178H903.795L899.6 399.766L904.086 406.821H900.87Z" fill="#FEFEFE"/>
<path d="M751.845 151.458H665.251C659.268 151.458 654.417 146.281 654.417 139.894V11.9734C654.417 5.58704 659.268 0.40918 665.251 0.40918H720.168L762.681 47.1726V139.894C762.681 146.281 757.829 151.458 751.845 151.458Z" fill="#EBECEC"/>
<path d="M720.168 0.40918V36.4118C720.168 42.351 724.679 47.1664 730.245 47.1677L762.681 47.1726L720.168 0.40918Z" fill="#F4F4F4"/>
<path d="M720.611 39.5693C720.611 39.5693 720.185 48.3027 729.498 51.173C729.85 51.2807 730.207 51.3605 730.566 51.4291C734.801 52.2375 762.681 57.5297 762.681 56.8463C762.681 56.1067 762.681 47.1722 762.681 47.1722H730.245C730.245 47.1722 722.146 46.8766 720.611 39.5693Z" fill="#E0E0E0"/>
<path d="M751.845 151.458C751.841 151.404 752.496 151.471 753.717 151.221C754.924 150.981 756.755 150.4 758.627 148.775C760.442 147.173 762.323 144.369 762.505 140.621C762.559 136.892 762.496 132.563 762.498 127.731C762.464 108.362 762.418 80.6503 762.361 47.1724L762.452 47.4086C749.579 33.2727 735.227 17.506 719.908 0.68107L720.169 0.799836C709.987 0.802938 699.387 0.807814 688.479 0.812246C683.026 0.812246 677.494 0.814016 671.903 0.815345C670.504 0.815345 669.102 0.815345 667.696 0.815345C666.287 0.837503 664.867 0.739124 663.539 0.977986C660.846 1.43931 658.345 3.10116 656.749 5.49776C655.639 7.15827 654.952 9.14983 654.837 11.1773C654.761 13.2256 654.814 15.3687 654.797 17.4497C654.797 21.638 654.795 25.798 654.795 29.9286C654.794 38.1878 654.791 46.3268 654.79 54.3232C654.784 70.3163 654.775 85.7435 654.769 100.439C654.763 107.787 654.758 114.953 654.751 121.915C654.748 125.395 654.746 128.825 654.743 132.202C654.741 133.89 654.74 135.567 654.738 137.227C654.763 138.896 654.637 140.546 654.937 142.091C655.5 145.217 657.378 147.947 659.837 149.518C661.065 150.311 662.433 150.822 663.829 151.022C665.212 151.21 666.674 151.117 668.09 151.144C673.772 151.152 679.227 151.161 684.434 151.171C705.247 151.224 722.092 151.269 733.759 151.299C739.567 151.333 744.08 151.358 747.17 151.375C748.687 151.393 749.85 151.407 750.658 151.416C751.442 151.43 751.845 151.458 751.845 151.458C751.845 151.458 751.442 151.485 750.658 151.499C749.85 151.508 748.687 151.522 747.17 151.539C744.08 151.557 739.567 151.583 733.759 151.616C722.092 151.646 705.247 151.691 684.434 151.746C679.227 151.754 673.772 151.763 668.09 151.771C666.666 151.748 665.245 151.85 663.748 151.658C662.274 151.449 660.823 150.913 659.522 150.078C656.916 148.422 654.922 145.536 654.317 142.222C653.994 140.549 654.125 138.873 654.095 137.227C654.094 135.567 654.092 133.89 654.091 132.202C654.088 128.825 654.085 125.395 654.081 121.915C654.076 114.953 654.07 107.787 654.065 100.439C654.057 85.7435 654.051 70.3163 654.044 54.3232C654.041 46.3268 654.04 38.1878 654.038 29.9286C654.037 25.798 654.037 21.638 654.035 17.4497C654.054 15.3439 653.994 13.2832 654.075 11.121C654.201 8.94509 654.936 6.80463 656.13 5.02402C657.839 2.4537 660.524 0.66999 663.416 0.176312C664.881 -0.0820496 666.3 0.0274113 667.696 0.00259443C669.102 0.00259443 670.504 0.00259443 671.903 0.00259443C677.494 0.0039239 683.026 0.00569686 688.479 0.00569686C699.387 0.0105716 709.987 0.0150018 720.169 0.0181039H720.324L720.432 0.13687C735.727 16.9871 750.058 32.7768 762.909 46.9348L763 47.035V47.1724C762.941 80.6503 762.896 108.362 762.864 127.731C762.834 132.573 762.873 136.873 762.786 140.64C762.569 144.484 760.617 147.329 758.749 148.935C756.824 150.563 754.957 151.114 753.733 151.324C753.114 151.436 752.641 151.461 752.323 151.458C752.007 151.467 751.845 151.458 751.845 151.458Z" fill="#E0E0E0"/>
<path d="M762.681 47.1726C762.681 47.2009 762.392 47.2275 761.847 47.2555C761.217 47.2741 760.426 47.2993 759.459 47.3303C757.277 47.3618 754.302 47.4057 750.672 47.4589C746.931 47.4823 742.52 47.512 737.641 47.5448C735.182 47.5448 732.606 47.5479 729.936 47.5493C727.17 47.4948 724.334 46.1409 722.399 43.774C721.427 42.5996 720.702 41.2192 720.271 39.7621C719.815 38.3223 719.76 36.7389 719.795 35.3456C719.802 32.5005 719.81 29.7538 719.817 27.1316C719.849 21.9241 719.876 17.2186 719.899 13.224C719.949 9.35034 719.99 6.17511 720.021 3.8472C720.048 2.81376 720.073 1.97087 720.092 1.29727C720.117 0.715847 720.143 0.40918 720.168 0.40918C720.195 0.40918 720.22 0.715847 720.246 1.29727C720.265 1.97087 720.287 2.81376 720.318 3.8472C720.347 6.17511 720.39 9.35034 720.439 13.224C720.462 17.2186 720.489 21.9241 720.522 27.1316C720.528 29.7538 720.535 32.5005 720.542 35.3456C720.371 38.1596 721.13 41.0428 722.971 43.236C724.768 45.431 727.389 46.6909 729.958 46.752C732.62 46.7662 735.189 46.7804 737.642 46.7941C742.52 46.8269 746.931 46.8566 750.672 46.8832C754.302 46.9364 757.277 46.982 759.459 47.013C760.426 47.0445 761.217 47.0693 761.847 47.0897C762.392 47.1181 762.681 47.1447 762.681 47.1726Z" fill="#E0E0E0"/>
<path d="M718.533 32.5342C718.533 32.7592 708.305 32.9408 695.69 32.9408C683.072 32.9408 672.846 32.7592 672.846 32.5342C672.846 32.3109 683.072 32.1279 695.69 32.1279C708.305 32.1279 718.533 32.3091 718.533 32.5342Z" fill="#E0E0E0"/>
<path d="M740.209 50.4946C740.209 50.7196 725.128 50.9008 706.53 50.9008C687.924 50.9008 672.846 50.7196 672.846 50.4946C672.846 50.2695 687.924 50.0879 706.53 50.0879C725.128 50.0866 740.209 50.2695 740.209 50.4946Z" fill="#E0E0E0"/>
<path d="M740.209 68.4549C740.209 68.6782 725.128 68.8611 706.53 68.8611C687.924 68.8611 672.846 68.6782 672.846 68.4549C672.846 68.2298 687.924 68.0469 706.53 68.0469C725.128 68.0469 740.209 68.2298 740.209 68.4549Z" fill="#E0E0E0"/>
<path d="M740.209 86.4131C740.209 86.6381 725.128 86.8211 706.53 86.8211C687.924 86.8211 672.846 86.6381 672.846 86.4148C672.846 86.1898 687.924 86.0068 706.53 86.0068C725.128 86.0068 740.209 86.1898 740.209 86.4131Z" fill="#E0E0E0"/>
<path d="M740.209 104.372C740.209 104.597 725.128 104.78 706.53 104.78C687.924 104.78 672.846 104.597 672.846 104.372C672.846 104.147 687.924 103.966 706.53 103.966C725.128 103.966 740.209 104.147 740.209 104.372Z" fill="#E0E0E0"/>
<path d="M740.21 126.522C740.21 126.749 725.128 126.93 706.53 126.93C687.924 126.93 672.846 126.749 672.846 126.522C672.846 126.299 687.924 126.116 706.53 126.116C725.128 126.116 740.21 126.299 740.21 126.522Z" fill="#E0E0E0"/>
<path d="M702.365 126.523L641.181 126.524C637.767 126.524 635 123.57 635 119.924V97.8524C635 94.2083 637.767 91.2533 641.181 91.2533L702.365 91.252C705.78 91.252 708.548 94.2083 708.548 97.8524V119.924C708.548 123.57 705.78 126.523 702.365 126.523Z" fill="#E0E0E0"/>
<path d="M660.831 107.591C660.831 106.127 659.937 105.269 658.172 105.269H655.818V109.894H658.172C659.937 109.894 660.831 109.037 660.831 107.591ZM663.754 107.591C663.754 110.562 661.669 112.408 658.331 112.408H655.818V116.082H652.928V102.756H658.331C661.669 102.756 663.754 104.602 663.754 107.591Z" fill="#FEFEFE"/>
<path d="M671.333 113.549C673.813 113.549 675.436 111.97 675.436 109.419C675.436 106.867 673.813 105.289 671.333 105.289H668.695V113.549H671.333ZM665.805 102.756H671.477C675.561 102.756 678.362 105.384 678.362 109.419C678.362 113.454 675.561 116.082 671.477 116.082H665.805V102.756Z" fill="#FEFEFE"/>
<path d="M683.427 105.23V108.753H689.207V111.228H683.427V116.082H680.538V102.756H689.973V105.23H683.427Z" fill="#FEFEFE"/>
<path d="M112.5 217.049H30.9545C25.3196 217.049 20.7522 211.871 20.7522 205.485V77.5642C20.7522 71.1779 25.3196 66 30.9545 66H82.6696L122.703 112.763V205.485C122.703 211.871 118.135 217.049 112.5 217.049Z" fill="#EBECEC"/>
<path d="M82.6696 66V102.003C82.6696 107.942 86.9167 112.757 92.1587 112.759L122.703 112.763L82.6696 66Z" fill="#F4F4F4"/>
<path d="M83.0863 105.16C83.0863 105.16 82.6848 113.893 91.4552 116.764C91.7864 116.872 92.1226 116.951 92.4609 117.02C96.4484 117.828 122.703 123.12 122.703 122.437C122.703 121.697 122.703 112.763 122.703 112.763H92.1586C92.1586 112.763 84.5319 112.467 83.0863 105.16Z" fill="#E0E0E0"/>
<path d="M122.703 112.763C122.703 112.792 122.431 112.818 121.918 112.846C121.325 112.865 120.58 112.89 119.67 112.921C117.614 112.953 114.813 112.996 111.395 113.05C107.872 113.073 103.718 113.103 99.1234 113.136C96.8074 113.136 94.3823 113.139 91.8677 113.14C89.2632 113.086 86.5926 111.732 84.7705 109.365C83.8547 108.19 83.172 106.81 82.7661 105.353C82.3372 103.913 82.2848 102.33 82.318 100.936C82.3247 98.0913 82.3317 95.3446 82.3387 92.7224C82.3689 87.5149 82.3939 82.8094 82.4158 78.8148C82.4627 74.9412 82.5014 71.7659 82.5303 69.438C82.5565 68.4046 82.58 67.5617 82.598 66.8881C82.6214 66.3067 82.6461 66 82.6695 66C82.6946 66 82.718 66.3067 82.7427 66.8881C82.7606 67.5617 82.7814 68.4046 82.8103 69.438C82.8381 71.7659 82.8779 74.9412 82.9249 78.8148C82.9456 82.8094 82.9718 87.5149 83.0023 92.7224C83.0078 95.3446 83.0144 98.0913 83.0215 100.936C82.86 103.75 83.5747 106.634 85.3085 108.827C87.0012 111.022 89.4689 112.282 91.8885 112.343C94.3949 112.357 96.8141 112.371 99.1246 112.385C103.718 112.418 107.872 112.447 111.395 112.474C114.813 112.527 117.614 112.573 119.67 112.604C120.58 112.635 121.325 112.66 121.918 112.681C122.431 112.709 122.703 112.735 122.703 112.763Z" fill="#E0E0E0"/>
<path d="M81.129 98.125C81.129 98.35 71.498 98.5317 59.6186 98.5317C47.7361 98.5317 38.1066 98.35 38.1066 98.125C38.1066 97.9017 47.7361 97.7188 59.6186 97.7188C71.498 97.7188 81.129 97.8999 81.129 98.125Z" fill="#E0E0E0"/>
<path d="M101.541 116.085C101.541 116.31 87.3403 116.492 69.826 116.492C52.3047 116.492 38.1066 116.31 38.1066 116.085C38.1066 115.86 52.3047 115.679 69.826 115.679C87.3403 115.677 101.541 115.86 101.541 116.085Z" fill="#E0E0E0"/>
<path d="M101.541 134.046C101.541 134.269 87.3403 134.452 69.826 134.452C52.3047 134.452 38.1066 134.269 38.1066 134.046C38.1066 133.821 52.3047 133.638 69.826 133.638C87.3403 133.638 101.541 133.821 101.541 134.046Z" fill="#E0E0E0"/>
<path d="M101.541 152.004C101.541 152.229 87.3403 152.412 69.826 152.412C52.3047 152.412 38.1066 152.229 38.1066 152.006C38.1066 151.781 52.3047 151.598 69.826 151.598C87.3403 151.598 101.541 151.781 101.541 152.004Z" fill="#E0E0E0"/>
<path d="M101.541 169.963C101.541 170.188 87.3403 170.371 69.826 170.371C52.3047 170.371 38.1066 170.188 38.1066 169.963C38.1066 169.738 52.3047 169.557 69.826 169.557C87.3403 169.557 101.541 169.738 101.541 169.963Z" fill="#E0E0E0"/>
<path d="M101.543 192.113C101.543 192.34 87.3403 192.521 69.826 192.521C52.3047 192.521 38.1066 192.34 38.1066 192.113C38.1066 191.89 52.3047 191.707 69.826 191.707C87.3403 191.707 101.543 191.89 101.543 192.113Z" fill="#E0E0E0"/>
<path d="M67.2418 192.664H7.82377C4.6073 192.664 2 189.711 2 186.065V163.075C2 159.431 4.6073 156.476 7.82377 156.476H67.2418C70.4575 156.476 73.0644 159.431 73.0644 163.075V186.065C73.0644 189.711 70.4575 192.664 67.2418 192.664Z" fill="#E0E0E0"/>
<path d="M26.9744 181.919L24.0609 177.173L21.1987 181.919H17.9928L22.4582 174.965L18.2176 168.243H21.3891L24.1646 172.678L26.8872 168.243H29.9042L25.6981 174.848L30.1979 181.919H26.9744Z" fill="#FEFEFE"/>
<path d="M31.2975 168.243H34.0893V179.342H40.1407V181.919H31.2975V168.243Z" fill="#FEFEFE"/>
<path d="M40.6885 180.572L41.6359 178.189C42.6541 179.029 44.1712 179.615 45.6184 179.615C47.2735 179.615 47.9469 178.99 47.9469 178.149C47.9469 175.591 40.9297 177.348 40.9297 172.269C40.9297 169.944 42.5849 168.009 46.0156 168.009C47.5316 168.009 49.0835 168.42 50.2034 169.22L49.3428 171.623C48.2213 170.901 47.0667 170.549 45.9977 170.549C44.3425 170.549 43.7051 171.253 43.7051 172.112C43.7051 174.633 50.7207 172.894 50.7207 177.914C50.7207 180.201 49.0491 182.154 45.6019 182.154C43.6887 182.154 41.7575 181.51 40.6885 180.572Z" fill="#FEFEFE"/>
</svg>
