<svg width="869" height="358" viewBox="0 0 869 358" fill="none" xmlns="http://www.w3.org/2000/svg">
<path d="M27.3263 13.5696C180.667 -15.6146 205.338 102.739 220.617 175.021C235.897 247.302 320.27 146.478 351.273 131.267C370.322 123.873 467.446 301.892 840.912 300.39" stroke="black" stroke-width="1.5"/>
<path d="M840.472 299.931C840.307 303.261 843.071 306.14 846.646 306.362C850.222 306.583 853.254 304.063 853.42 300.733C853.585 297.403 850.821 294.523 847.245 294.302C843.67 294.081 840.637 296.601 840.472 299.931Z" stroke="black" stroke-width="1.5"/>
<rect width="140.705" height="132.44" rx="10" transform="matrix(-0.970576 -0.25918 -0.27455 0.956163 679.577 221.415)" fill="#F6F6F6" stroke="black" stroke-width="1.5"/>
<path d="M411.27 72.4691C409.318 67.2651 403.484 64.3623 398.238 65.9855L283.932 101.353C278.686 102.976 276.015 108.51 277.966 113.714L317.83 220.029C319.781 225.233 325.616 228.136 330.862 226.513L445.168 191.146C450.414 189.522 453.085 183.988 451.133 178.784L411.27 72.4691Z" fill="#D0E0D4" stroke="black" stroke-width="1.5"/>
<path d="M516.073 223.674L609.287 209.544C614.31 261.303 641.94 312.739 655.127 331.987C631.609 337.224 579.38 348.74 558.611 352.901C530.134 300.79 518.387 245.037 516.073 223.674Z" fill="white" stroke="black" stroke-width="1.5"/>
<path d="M559.711 299.494L576.509 331.846L586.494 329.829L593.151 328.484L602.47 326.601L609.127 325.257L618.113 323.441L609.047 307.067L600.394 308.801L609.127 325.257L602.47 326.601L588.37 301.787L579.716 303.521L593.151 328.484L586.494 329.829L569.698 297.78L559.711 299.494Z" fill="#379C60"/>
<path d="M612.985 293.46C615.69 302.446 623.522 315.982 627.1 321.626L618.113 323.441M569.852 333.19L576.509 331.846M576.509 331.846L559.711 299.494L569.698 297.78L586.494 329.829M576.509 331.846L586.494 329.829M586.494 329.829L593.151 328.484M593.151 328.484L579.716 303.521L588.37 301.787L602.47 326.601M593.151 328.484L602.47 326.601M602.47 326.601L609.127 325.257M609.127 325.257L600.394 308.801L609.047 307.067L618.113 323.441M609.127 325.257L618.113 323.441" stroke="black" stroke-width="1.5"/>
<path d="M602.055 231.798L535.477 242.601" stroke="black" stroke-width="1.5"/>
<path d="M606.134 250.495L540.885 260.697" stroke="black" stroke-width="1.5"/>
<path d="M610.21 267.949L545.63 278.782" stroke="black" stroke-width="1.5"/>
<path d="M381.667 188.842L407.623 148.48C407.623 148.48 394.202 124.88 362.935 111.005C332.48 97.4902 333.584 115.592 278.178 83.5676L256.031 128.402C306.733 153.703 305.103 142.786 334.271 154.816C357.606 164.44 375.591 181.51 381.667 188.842Z" fill="white" stroke="black" stroke-width="1.5"/>
<path d="M375.636 168.558L401.593 128.196C401.593 128.196 388.171 104.596 356.904 90.721C326.449 77.2063 327.553 95.3078 272.147 63.2837L250 108.118C300.702 133.419 299.072 122.502 328.241 134.532C351.576 144.156 369.56 161.226 375.636 168.558Z" fill="white" stroke="black" stroke-width="1.5"/>
<ellipse cx="18.772" cy="11.104" rx="18.772" ry="11.104" transform="matrix(-0.920299 -0.408793 -0.439459 0.889649 351.418 105.89)" fill="black" stroke="black" stroke-width="1.5"/>
<path d="M289.503 72.8276C286.186 79.5425 276.868 82.0411 268.689 78.4084C267.558 77.906 266.508 77.3127 265.548 76.6454" stroke="black" stroke-width="1.5"/>
<path d="M391.119 114.872C389.243 116.075 387.713 117.707 386.72 119.717C383.453 126.33 387.226 134.567 395.153 138.285" stroke="black" stroke-width="1.5"/>
<path d="M384.296 155.089C382.578 152.389 379.906 150.05 376.498 148.536C369.424 145.394 361.496 146.839 357.338 151.633" stroke="black" stroke-width="1.5"/>
<path d="M256.239 95.4851C257.395 95.758 258.548 96.1432 259.679 96.6455C267.857 100.278 271.798 108.667 268.481 115.382C268.288 115.772 268.074 116.149 267.842 116.51" stroke="black" stroke-width="1.5"/>
</svg>
