<svg width="208" height="172" viewBox="0 0 208 172" fill="none" xmlns="http://www.w3.org/2000/svg">
<circle cx="101" cy="77.0605" r="75" fill="#D0E0D4"/>
<path fill-rule="evenodd" clip-rule="evenodd" d="M190.729 83.043C198.484 83.043 204.769 89.3289 204.769 97.083V138.809C204.769 146.563 198.484 152.849 190.729 152.849H177.955L185.166 170.062L156.788 152.849H109.32C101.566 152.849 95.2798 146.563 95.2798 138.809V97.083C95.2798 89.3289 101.566 83.043 109.32 83.043H190.729Z" fill="#F6F6F6"/>
<mask id="mask0_163_241" style="mask-type:alpha" maskUnits="userSpaceOnUse" x="95" y="83" width="110" height="88">
<path fill-rule="evenodd" clip-rule="evenodd" d="M190.73 83.043C198.484 83.043 204.77 89.3289 204.77 97.083V138.809C204.77 146.563 198.484 152.849 190.73 152.849H177.955L185.166 170.062L156.788 152.849H109.32C101.566 152.849 95.2798 146.563 95.2798 138.809V97.083C95.2798 89.3289 101.566 83.043 109.32 83.043H190.73Z" fill="#F6F6F6"/>
</mask>
<g mask="url(#mask0_163_241)">
<path d="M138.071 125.834L124.684 153.087V168.387H188.035V153.087L187.597 138.351C187.12 128.823 182.159 120.084 174.221 114.792L163.89 107.904L154.805 108.382L148.185 114.04C143.869 117.728 140.799 120.855 138.071 125.834Z" fill="#379C60" stroke="black" stroke-width="1.5"/>
<path fill-rule="evenodd" clip-rule="evenodd" d="M138.593 124.911H183.666C183.375 124.402 183.07 123.902 182.75 123.411H139.517C139.204 123.893 138.896 124.392 138.593 124.911ZM143.708 118.182H178.432C177.894 117.663 177.335 117.162 176.757 116.682H145.227C144.702 117.179 144.196 117.677 143.708 118.182ZM186.322 131.061H135.503L134.767 132.561H186.738C186.612 132.056 186.474 131.556 186.322 131.061ZM187.607 138.711H131.746L131.009 140.211H187.652L187.607 138.711ZM187.835 146.361H127.988L127.251 147.861H187.879L187.835 146.361ZM188.035 154.011H124.684V155.511H188.035V154.011ZM188.035 161.661H124.684V163.161H188.035V161.661Z" fill="black"/>
<path d="M136.875 154.521L137.282 147.35L129.942 142.568L123.727 154.521H136.875Z" fill="white" stroke="black" stroke-width="1.5"/>
<path d="M173.451 173.167V147.109H188.034V173.167H173.451Z" fill="white" stroke="black" stroke-width="1.5"/>
</g>
<path d="M27.8143 70.8057L28.5061 71.0955L28.9417 70.0557H27.8143V70.8057ZM20.6035 88.0186L19.9118 87.7288L19.0207 89.8559L20.9925 88.6599L20.6035 88.0186ZM48.9816 70.8057V70.0557H48.7719L48.5926 70.1644L48.9816 70.8057ZM1.75 15.04C1.75 7.70013 7.70013 1.75 15.04 1.75V0.25C6.87171 0.25 0.25 6.87171 0.25 15.04H1.75ZM1.75 56.7657V15.04H0.25V56.7657H1.75ZM15.04 70.0557C7.70013 70.0557 1.75 64.1055 1.75 56.7657H0.25C0.25 64.934 6.8717 71.5557 15.04 71.5557V70.0557ZM27.8143 70.0557H15.04V71.5557H27.8143V70.0557ZM21.2953 88.3084L28.5061 71.0955L27.1226 70.5159L19.9118 87.7288L21.2953 88.3084ZM48.5926 70.1644L20.2146 87.3773L20.9925 88.6599L49.3706 71.4469L48.5926 70.1644ZM96.4497 70.0557H48.9816V71.5557H96.4497V70.0557ZM109.74 56.7657C109.74 64.1055 103.79 70.0557 96.4497 70.0557V71.5557C104.618 71.5557 111.24 64.934 111.24 56.7657H109.74ZM109.74 15.04V56.7657H111.24V15.04H109.74ZM96.4497 1.75C103.79 1.75 109.74 7.70013 109.74 15.04H111.24C111.24 6.87171 104.618 0.25 96.4497 0.25V1.75ZM15.04 1.75H96.4497V0.25H15.04V1.75Z" fill="black"/>
<path d="M31.3316 38.9824C22.2407 45.691 24.4851 55.9473 26.7436 60.2368L86.6099 55.7439C86.075 43.3243 79.1075 42.6673 76.9499 37.0175C74.7923 31.3676 80.2158 23.9556 80.1026 21.3283C79.9894 18.7011 80.731 8.14074 67.0863 8.01061C53.4416 7.88049 52.1195 16.073 47.7336 25.3547C43.3478 34.6363 42.6952 30.5966 31.3316 38.9824Z" fill="black"/>
<path fill-rule="evenodd" clip-rule="evenodd" d="M91.9265 70.792L88.9351 59.7663C87.728 55.3174 84.9475 51.4223 80.76 49.4951C75.8301 47.226 68.4185 44.543 60.0199 43.9539C53.7344 43.5131 48.2363 44.1956 43.7697 45.2522C35.0887 47.3057 29.2038 54.5816 25.6479 62.7628L23.0424 68.7571L22.1939 70.792H27.8136L20.603 88.0044L48.9802 70.792H91.9265Z" fill="#379C60"/>
<path d="M91.9265 70.792V71.542H92.9071L92.6504 70.5956L91.9265 70.792ZM88.9351 59.7663L88.2112 59.9627V59.9627L88.9351 59.7663ZM80.76 49.4951L81.0736 48.8138H81.0736L80.76 49.4951ZM60.0199 43.9539L59.9675 44.7021L60.0199 43.9539ZM43.7697 45.2522L43.5971 44.5223L43.7697 45.2522ZM25.6479 62.7628L26.3357 63.0618L25.6479 62.7628ZM23.0424 68.7571L22.3545 68.4581L22.3502 68.4684L23.0424 68.7571ZM22.1939 70.792L21.5017 70.5034L21.0686 71.542H22.1939V70.792ZM27.8136 70.792L28.5054 71.0818L28.9409 70.042H27.8136V70.792ZM20.603 88.0044L19.9113 87.7146L19.0202 89.8416L20.992 88.6456L20.603 88.0044ZM48.9802 70.792V70.042H48.7705L48.5912 70.1507L48.9802 70.792ZM92.6504 70.5956L89.6589 59.5699L88.2112 59.9627L91.2027 70.9884L92.6504 70.5956ZM89.6589 59.5699C88.407 54.9556 85.5048 50.8532 81.0736 48.8138L80.4465 50.1764C84.3901 51.9914 87.0491 55.6793 88.2112 59.9627L89.6589 59.5699ZM81.0736 48.8138C76.0952 46.5224 68.5922 43.8034 60.0724 43.2058L59.9675 44.7021C68.2448 45.2827 75.565 47.9296 80.4465 50.1764L81.0736 48.8138ZM60.0724 43.2058C53.7019 42.7589 48.1275 43.4506 43.5971 44.5223L43.9424 45.982C48.3452 44.9405 53.7669 44.2672 59.9675 44.7021L60.0724 43.2058ZM43.5971 44.5223C34.5841 46.6544 28.5587 54.1844 24.96 62.4638L26.3357 63.0618C29.849 54.9788 35.5934 47.9571 43.9424 45.982L43.5971 44.5223ZM24.96 62.4638L22.3546 68.4581L23.7303 69.056L26.3357 63.0618L24.96 62.4638ZM22.3502 68.4684L21.5017 70.5034L22.8861 71.0807L23.7347 69.0457L22.3502 68.4684ZM22.1939 71.542H27.8136V70.042H22.1939V71.542ZM27.1219 70.5022L19.9113 87.7146L21.2948 88.2941L28.5054 71.0818L27.1219 70.5022ZM20.992 88.6456L49.3691 71.4333L48.5912 70.1507L20.2141 87.3631L20.992 88.6456ZM48.9802 71.542H91.9265V70.042H48.9802V71.542Z" fill="black"/>
<path d="M80.103 21.3275C80.5692 18.8189 79.8279 16.793 79.399 16.0936C79.1704 16.3427 78.0482 18.0661 74.9639 18.6775C73.5375 18.9602 70.2077 19.3609 68.9084 22.5275C68.6419 23.1771 68.3519 23.6735 68.0586 24.049C67.0406 25.352 65.446 24.2693 64.1564 23.2345C62.7528 22.1081 60.9797 21.5266 59.3857 23.6556C57.5284 26.1362 60.0849 29.422 61.1237 30.6821C61.287 30.8803 61.3738 31.1286 61.3688 31.3853L61.3022 34.8193C60.3652 40.8417 54.7154 42.9993 51.8905 44.0781C52.9872 45.4666 56.4785 48.379 61.6704 48.9211C66.8622 49.4631 68.244 47.8403 68.2859 46.9611L67.9258 38.6018C75.6407 39.9444 76.5392 34.8808 76.8165 33.9117C77.2325 32.4581 77.1913 31.5028 78.614 31.2022C80.0368 30.9016 81.2104 30.3725 81.1693 29.4172C81.1281 28.4618 79.5202 24.4633 80.103 21.3275Z" fill="white" stroke="black" stroke-width="1.5"/>
<path d="M166.683 98.9812C165.722 100.118 165.162 101.508 165.002 102.061C159.432 101.682 158.04 94.9543 158.04 91.6381C153.718 87.6902 145.507 79.3681 147.236 77.6626C149.396 75.5307 153.718 74.5832 159.72 75.2939C165.722 76.0045 171.485 78.6101 171.965 85.9532C172.445 93.2962 167.883 97.56 166.683 98.9812Z" fill="black" stroke="black" stroke-width="1.5"/>
<path d="M149.793 112.867V103.985C148.129 103.985 144.803 104.225 143.14 102.065C141.477 99.9046 142.901 95.233 142.664 94.7526C142.601 94.6236 139.575 93.5523 140.051 92.3521C140.346 91.6068 142.044 89.2412 143.456 87.2842C144.179 86.2819 144.519 85.0683 144.734 83.8512C145.257 80.8886 146.865 78.592 147.654 78.0605C148.842 80.461 153.595 82.6214 160.01 83.3415L158.584 89.1026C161.198 87.4223 163.574 87.6624 163.812 90.7829C164.013 93.4265 159.556 94.3836 159.773 96.784C160.061 99.9899 163.574 102.145 165 102.785V109.266C164.129 109.986 161.841 112.767 157.872 114.067C153.04 115.65 150.022 115.036 148.2 114.316L149.793 112.867Z" fill="white" stroke="black" stroke-width="1.5" stroke-linejoin="round"/>
<path d="M171.376 83.0605H192.511C199.408 83.0605 205 88.625 205 95.4891V140.423C205 147.287 199.408 152.852 192.511 152.852H178.061L185.306 170.061L156.796 152.852H107.489C100.592 152.852 95 147.287 95 140.423V95.4891C95 88.625 100.592 83.0605 107.489 83.0605H144.956" stroke="black" stroke-width="1.5"/>
<circle cx="30" cy="106.061" r="5" fill="black"/>
<circle cx="50" cy="106.061" r="5" fill="black"/>
<circle cx="71" cy="106.061" r="5" fill="black"/>
<path d="M134.024 42.5241C134.174 42.0634 134.826 42.0634 134.976 42.5241L136.072 45.8974C136.139 46.1034 136.331 46.2429 136.547 46.2429H140.094C140.578 46.2429 140.78 46.8627 140.388 47.1474L137.518 49.2323C137.343 49.3596 137.27 49.5853 137.337 49.7913L138.433 53.1646C138.583 53.6253 138.055 54.0084 137.663 53.7237L134.794 51.6388C134.619 51.5115 134.381 51.5115 134.206 51.6388L131.337 53.7237C130.945 54.0084 130.417 53.6253 130.567 53.1646L131.663 49.7913C131.73 49.5853 131.657 49.3596 131.482 49.2323L128.612 47.1474C128.22 46.8627 128.422 46.2429 128.906 46.2429H132.453C132.669 46.2429 132.861 46.1034 132.928 45.8974L134.024 42.5241Z" fill="black" stroke="black" stroke-width="0.5"/>
<path d="M151.024 42.5241C151.174 42.0634 151.826 42.0634 151.976 42.5241L153.072 45.8974C153.139 46.1034 153.331 46.2429 153.547 46.2429H157.094C157.578 46.2429 157.78 46.8627 157.388 47.1474L154.518 49.2323C154.343 49.3596 154.27 49.5853 154.337 49.7913L155.433 53.1646C155.583 53.6253 155.055 54.0084 154.663 53.7237L151.794 51.6388C151.619 51.5115 151.381 51.5115 151.206 51.6388L148.337 53.7237C147.945 54.0084 147.417 53.6253 147.567 53.1646L148.663 49.7913C148.73 49.5853 148.657 49.3596 148.482 49.2323L145.612 47.1474C145.22 46.8627 145.422 46.2429 145.906 46.2429H149.453C149.669 46.2429 149.861 46.1034 149.928 45.8974L151.024 42.5241Z" fill="black" stroke="black" stroke-width="0.5"/>
<path d="M167.528 42.4237C167.683 41.9753 168.317 41.9753 168.472 42.4237L169.68 45.9067C169.749 46.1079 169.939 46.2429 170.152 46.2429H173.986C174.478 46.2429 174.674 46.8791 174.268 47.1562L171.222 49.2304C171.036 49.3575 170.958 49.594 171.031 49.8074L172.208 53.2007C172.365 53.6557 171.852 54.0488 171.454 53.7777L168.281 51.617C168.112 51.5013 167.888 51.5013 167.719 51.617L164.546 53.7777C164.148 54.0488 163.635 53.6557 163.792 53.2007L164.969 49.8074C165.042 49.594 164.964 49.3575 164.778 49.2304L161.732 47.1562C161.326 46.8791 161.522 46.2429 162.014 46.2429H165.848C166.061 46.2429 166.251 46.1079 166.32 45.9067L167.528 42.4237Z" fill="black" stroke="black" stroke-width="0.5"/>
<path d="M184.024 42.5241C184.174 42.0634 184.826 42.0634 184.976 42.5241L186.072 45.8974C186.139 46.1034 186.331 46.2429 186.547 46.2429H190.094C190.578 46.2429 190.78 46.8627 190.388 47.1474L187.518 49.2323C187.343 49.3596 187.27 49.5853 187.337 49.7913L188.433 53.1646C188.583 53.6253 188.055 54.0084 187.663 53.7237L184.794 51.6388C184.619 51.5115 184.381 51.5115 184.206 51.6388L181.337 53.7237C180.945 54.0084 180.417 53.6253 180.567 53.1646L181.663 49.7913C181.73 49.5853 181.657 49.3596 181.482 49.2323L178.612 47.1474C178.22 46.8627 178.422 46.2429 178.906 46.2429H182.453C182.669 46.2429 182.861 46.1034 182.928 45.8974L184.024 42.5241Z" fill="black" stroke="black" stroke-width="0.5"/>
<path d="M200.024 42.5241C200.174 42.0634 200.826 42.0634 200.976 42.5241L202.072 45.8974C202.139 46.1034 202.331 46.2429 202.547 46.2429H206.094C206.578 46.2429 206.78 46.8627 206.388 47.1474L203.518 49.2323C203.343 49.3596 203.27 49.5853 203.337 49.7913L204.433 53.1646C204.583 53.6253 204.055 54.0084 203.663 53.7237L200.794 51.6388C200.619 51.5115 200.381 51.5115 200.206 51.6388L197.337 53.7237C196.945 54.0084 196.417 53.6253 196.567 53.1646L197.663 49.7913C197.73 49.5853 197.657 49.3596 197.482 49.2323L194.612 47.1474C194.22 46.8627 194.422 46.2429 194.906 46.2429H198.453C198.669 46.2429 198.861 46.1034 198.928 45.8974L200.024 42.5241Z" fill="black" stroke="black" stroke-width="0.5"/>
</svg>
