<svg width="356" height="375" viewBox="0 0 356 375" fill="none" xmlns="http://www.w3.org/2000/svg">
<rect x="61.6505" y="62.7803" width="239.184" height="316.061" transform="rotate(-10.5594 61.6505 62.7803)" fill="white" stroke="black" stroke-width="2"/>
<path d="M193.384 67.7306C183.088 65.0622 172.301 64.9523 161.961 67.4035L177.983 130.65L178.127 131.219L177.701 131.622L131.389 175.472L138.986 183.921C147.87 190.293 158.213 194.33 169.066 195.662C179.953 196.998 191.002 195.567 201.191 191.503C211.38 187.438 220.38 180.871 227.358 172.407C234.337 163.944 239.069 153.858 241.117 143.081C243.166 132.304 242.464 121.185 239.078 110.752C235.692 100.318 229.729 90.9062 221.743 83.3868C213.756 75.8673 204.002 70.4826 193.384 67.7306Z" fill="black" stroke="black" stroke-width="2"/>
<mask id="path-3-inside-1_55_812" fill="white">
<path d="M129.702 174.775C138.733 181.246 149.26 185.341 160.311 186.681C171.362 188.022 182.579 186.564 192.925 182.443C203.271 178.322 212.413 171.67 219.505 163.104C226.598 154.537 231.411 144.331 233.502 133.43C235.592 122.529 234.891 111.284 231.464 100.735C228.037 90.1862 221.995 80.6736 213.895 73.0767C205.796 65.4798 195.901 60.0437 185.125 57.2711C174.349 54.4985 163.04 54.4788 152.243 57.2138L168.444 121.171L129.702 174.775Z"/>
</mask>
<path d="M129.702 174.775C138.733 181.246 149.26 185.341 160.311 186.681C171.362 188.022 182.579 186.564 192.925 182.443C203.271 178.322 212.413 171.67 219.505 163.104C226.598 154.537 231.411 144.331 233.502 133.43C235.592 122.529 234.891 111.284 231.464 100.735C228.037 90.1862 221.995 80.6736 213.895 73.0767C205.796 65.4798 195.901 60.0437 185.125 57.2711C174.349 54.4985 163.04 54.4788 152.243 57.2138L168.444 121.171L129.702 174.775Z" fill="white" stroke="black" stroke-width="4" mask="url(#path-3-inside-1_55_812)"/>
<path d="M146.177 97.1019L105.157 144.768C97.0232 137.543 90.8793 128.343 87.3227 118.05C83.6571 107.441 82.8706 96.0502 85.0436 85.0384C87.2165 74.0267 92.2711 63.7882 99.6919 55.3673C106.892 47.1965 116.07 41.0205 126.339 37.4263L146.177 97.1019Z" fill="white" stroke="black" stroke-width="2"/>
<path d="M132.714 235.587L295.719 205.201" stroke="black" stroke-width="2"/>
<path d="M138.791 268.188L301.797 237.802" stroke="black" stroke-width="2"/>
<path d="M144.868 300.789L242.672 282.557" stroke="black" stroke-width="2"/>
<path d="M150.945 333.39L248.749 315.158" stroke="black" stroke-width="2"/>
<rect x="247.863" y="66.4023" width="23.6258" height="23.6258" rx="3" transform="rotate(-10.5594 247.863 66.4023)" fill="white" stroke="black" stroke-width="2"/>
<rect x="255.321" y="106.413" width="23.6258" height="23.6258" rx="3" transform="rotate(-10.5594 255.321 106.413)" fill="white" stroke="black" stroke-width="2"/>
<rect x="262.779" y="146.423" width="23.6258" height="23.6258" rx="3" transform="rotate(-10.5594 262.779 146.423)" fill="white" stroke="black" stroke-width="2"/>
<circle cx="6.28208" cy="108.466" r="4.48574" transform="rotate(-37.0021 6.28208 108.466)" stroke="black" stroke-width="1.5"/>
</svg>
