<svg  viewBox="0 0 645 735" fill="none" xmlns="http://www.w3.org/2000/svg">
<path d="M502.773 363.396C502.773 363.396 501.409 364.535 498.393 365.593C495.438 366.622 490.536 367.376 485.068 365.428C482.379 364.452 479.576 362.836 477.274 360.384C475 357.941 473.07 354.782 472.305 351.103C471.871 349.284 471.742 347.349 471.903 345.4C472.033 343.447 472.489 341.47 473.279 339.584C474.772 335.776 477.671 332.37 481.41 330.051C485.193 327.792 489.605 326.749 493.775 327.113C495.859 327.249 497.88 327.719 499.739 328.459C501.606 329.175 503.334 330.138 504.821 331.317C507.875 333.604 509.94 336.682 511.194 339.745C512.443 342.839 512.701 346.001 512.421 348.785C511.813 354.43 508.967 358.39 506.721 360.526C504.423 362.702 502.773 363.396 502.773 363.396C502.69 363.285 504.253 362.446 506.402 360.227C508.504 358.045 511.138 354.141 511.618 348.712C511.838 346.034 511.541 343.014 510.313 340.082C509.08 337.174 507.087 334.268 504.173 332.124C502.755 331.015 501.11 330.115 499.341 329.449C497.578 328.755 495.663 328.319 493.69 328.198C489.746 327.868 485.59 328.862 482.017 330.994C478.483 333.189 475.744 336.391 474.316 339.987C473.562 341.767 473.123 343.637 472.989 345.484C472.825 347.328 472.933 349.162 473.333 350.89C474.03 354.382 475.834 357.404 477.971 359.76C480.135 362.124 482.788 363.708 485.353 364.693C490.568 366.657 495.322 366.065 498.258 365.182C501.248 364.275 502.707 363.273 502.773 363.396Z" fill="#E0E0E0"/>
<path d="M506.37 389.075C506.373 389.061 506.548 389.212 506.89 389.53C507.263 389.883 507.765 390.355 508.414 390.966C509.799 392.298 511.794 394.214 514.382 396.701L514.158 396.674C518.169 394.203 523.44 390.953 529.82 387.021L529.701 387.351C528.571 384.236 527.315 380.769 525.973 377.062L525.905 376.879L526.044 376.732C528.61 374.044 531.003 370.855 532.974 367.196L533.08 367.001L533.308 367.003C536.8 367.008 540.58 367.014 544.51 367.021L544.114 367.327C545.416 361.783 546.797 355.899 548.248 349.72L548.49 350.213C545.365 348.749 541.922 347.137 538.393 345.483L538.136 345.362L538.127 345.083C538.007 341.46 537.387 337.487 536.143 333.593L536.056 333.316L536.268 333.111C538.729 330.727 541.443 328.097 544.209 325.419L544.136 326.033C541.046 321.224 537.715 316.037 534.301 310.722L534.927 310.935C531.635 312.057 528.02 313.289 524.357 314.536L524.049 314.642L523.808 314.423C521.079 311.929 517.75 309.555 514.086 307.674L513.791 307.523L513.792 307.196C513.806 303.775 513.821 300.046 513.835 296.276L514.269 296.81C508.551 295.523 502.424 294.143 496.212 292.746L496.85 292.448C495.31 295.553 493.649 298.904 491.978 302.281L491.827 302.584L491.483 302.596C487.692 302.709 483.639 303.322 479.725 304.502L479.718 304.503L479.717 304.505C479.627 304.482 479.671 304.494 479.717 304.505C479.8 304.525 479.881 304.546 479.142 304.365L479.133 304.358L479.119 304.343L479.086 304.312L479.025 304.251L478.901 304.128L478.652 303.884L478.157 303.396L477.167 302.422L475.189 300.477C473.874 299.184 472.566 297.895 471.261 296.613L471.965 296.693C466.652 299.924 461.411 303.114 456.243 306.256L456.475 305.607C457.716 309.078 458.945 312.513 460.158 315.914L460.27 316.228L460.038 316.468C457.274 319.337 454.943 322.537 453.099 325.933L452.943 326.221L452.607 326.22C448.82 326.2 445.09 326.182 441.407 326.164L441.937 325.752C440.507 331.758 439.107 337.626 437.746 343.345L437.463 342.77C440.881 344.386 444.243 345.972 447.543 347.532L447.821 347.664L447.831 347.964C447.955 351.941 448.631 355.815 449.773 359.456L449.863 359.736L449.65 359.94C446.919 362.569 444.271 365.118 441.685 367.608L441.754 367.036C445.193 372.432 448.443 377.528 451.534 382.379L451.021 382.202C454.741 380.946 458.235 379.772 461.602 378.635L461.838 378.556L462.018 378.721C465.133 381.576 468.422 383.795 471.75 385.527L471.951 385.632L471.949 385.853C471.918 389.821 471.889 393.395 471.862 396.77L471.601 396.448C478.588 398.055 484.541 399.425 489.639 400.598L489.351 400.732C491.322 396.818 492.939 393.608 494.288 390.932L494.337 390.834L494.448 390.831C498.517 390.722 501.504 390.163 503.458 389.752C504.397 389.53 505.118 389.36 505.643 389.238C506.141 389.111 506.373 389.061 506.37 389.075C506.367 389.089 506.125 389.177 505.67 389.327C505.195 389.473 504.477 389.691 503.502 389.93C501.553 390.401 498.562 391.022 494.461 391.189L494.617 391.087C493.307 393.778 491.731 397.009 489.81 400.948L489.724 401.127L489.524 401.084C484.417 399.954 478.451 398.635 471.448 397.089L471.186 397.031L471.188 396.768C471.191 393.392 471.194 389.818 471.2 385.85L471.399 386.175C468.004 384.434 464.645 382.195 461.459 379.303L461.872 379.388C458.511 380.54 455.023 381.735 451.309 383.007L450.978 383.119L450.794 382.83C447.682 377.991 444.41 372.908 440.948 367.523L440.748 367.213L441.017 366.952C443.595 364.454 446.234 361.895 448.956 359.257L448.832 359.739C447.65 356.021 446.946 352.063 446.809 347.998L447.097 348.429C443.792 346.877 440.429 345.3 437.005 343.692L436.627 343.514L436.72 343.115C438.073 337.393 439.46 331.521 440.878 325.514L440.976 325.101L441.412 325.103C445.095 325.116 448.824 325.129 452.612 325.143L452.123 325.429C454.007 321.948 456.391 318.665 459.221 315.721L459.1 316.275C457.884 312.873 456.653 309.44 455.411 305.971L455.262 305.556L455.645 305.323C460.809 302.175 466.052 298.985 471.364 295.751L471.749 295.514L472.071 295.83C473.374 297.114 474.684 298.402 475.999 299.696L477.976 301.64L478.968 302.613L479.463 303.103L479.711 303.345L479.835 303.469L479.898 303.529L479.927 303.56L479.944 303.575L479.951 303.583C479.213 303.401 479.296 303.423 479.379 303.443C479.425 303.453 479.473 303.464 479.381 303.441H479.383L479.39 303.439C483.403 302.23 487.561 301.601 491.446 301.485L490.951 301.799C492.627 298.424 494.288 295.072 495.827 291.967L496.024 291.569L496.466 291.669C502.677 293.073 508.806 294.457 514.521 295.749L514.955 295.847V296.281C514.935 300.051 514.913 303.781 514.894 307.201L514.601 306.724C518.354 308.655 521.759 311.093 524.55 313.653L524 313.539C527.664 312.298 531.283 311.072 534.578 309.959L534.978 309.821L535.203 310.173C538.603 315.496 541.922 320.69 544.998 325.508L545.214 325.843L544.924 326.123C542.151 328.792 539.429 331.414 536.961 333.792L537.083 333.311C538.341 337.294 538.96 341.356 539.07 345.055L538.803 344.655C542.326 346.322 545.761 347.948 548.88 349.425L549.205 349.579L549.124 349.917C547.644 356.089 546.234 361.968 544.905 367.507L544.831 367.814L544.507 367.812C540.576 367.786 536.796 367.758 533.305 367.731L533.637 367.538C531.612 371.246 529.156 374.47 526.534 377.178L526.605 376.847C527.917 380.565 529.144 384.041 530.247 387.166L530.324 387.381L530.129 387.498C523.703 391.358 518.391 394.55 514.35 396.977L514.225 397.051L514.125 396.95C511.618 394.429 509.685 392.485 508.345 391.135C507.714 390.489 507.228 389.99 506.865 389.62C506.533 389.273 506.367 389.089 506.37 389.075Z" fill="#D6D5DA"/>
<path fill-rule="evenodd" clip-rule="evenodd" d="M538.186 222.068C551.353 214.057 555.366 197.155 547.144 184.317C538.922 171.481 521.58 167.574 508.412 175.585C495.242 183.6 491.232 200.5 499.452 213.337C507.676 226.174 525.015 230.084 538.186 222.068ZM543.273 258.375C537.742 260.032 532.074 260.935 526.421 261.111L519.533 275.01L494.002 269.254L494.073 253.817C489.076 251.242 484.387 248.007 480.166 244.148L465.214 249.226L451.339 227.559L462.583 216.699C460.878 211.306 459.956 205.782 459.78 200.272L445.517 193.555L451.42 168.675L467.26 168.742C469.902 163.87 473.223 159.306 477.184 155.187L471.97 140.618L494.2 127.089L505.346 138.05C510.876 136.39 516.543 135.491 522.196 135.316L529.087 121.414L554.617 127.171L554.544 142.61C559.543 145.186 564.226 148.423 568.451 152.279L583.4 147.203L597.278 168.868L586.032 179.729C587.737 185.119 588.661 190.646 588.839 196.155L603.1 202.871L597.197 227.753L581.357 227.683C578.715 232.555 575.396 237.122 571.435 241.24L576.645 255.81L554.419 269.334L543.273 258.375Z" fill="#D6D5DA"/>
<path fill-rule="evenodd" clip-rule="evenodd" d="M600.712 321.357C607.718 317.095 609.853 308.103 605.478 301.273C601.106 294.445 591.878 292.366 584.873 296.628C577.867 300.891 575.733 309.884 580.106 316.712C584.481 323.54 593.705 325.622 600.712 321.357ZM603.419 340.673C600.477 341.554 597.461 342.035 594.455 342.127L590.79 349.522L577.208 346.459L577.244 338.248C574.586 336.877 572.091 335.157 569.845 333.102L561.892 335.805L554.511 324.279L560.494 318.499C559.587 315.631 559.094 312.692 559.001 309.762L551.412 306.188L554.555 292.952L562.979 292.988C564.387 290.396 566.153 287.968 568.26 285.777L565.487 278.025L577.313 270.829L583.242 276.659C586.185 275.775 589.198 275.298 592.207 275.205L595.873 267.809L609.453 270.872L609.416 279.086C612.074 280.456 614.567 282.177 616.813 284.229L624.767 281.529L632.149 293.054L626.167 298.833C627.074 301.701 627.566 304.64 627.66 307.571L635.247 311.144L632.107 324.381L623.679 324.345C622.274 326.937 620.508 329.365 618.401 331.556L621.172 339.307L609.348 346.502L603.419 340.673Z" fill="#EBECEC"/>
<path d="M83.2862 194.487C83.4577 194.656 75.5099 202.591 65.5368 212.209C55.5595 221.83 47.3354 229.491 47.1639 229.323C46.9923 229.154 54.9383 221.219 64.9156 211.598C74.8886 201.979 83.1156 194.319 83.2862 194.487Z" fill="#E0E0E0" stroke="#D6D5DA" stroke-width="0.755905" stroke-miterlimit="10"/>
<path d="M83.3715 229.236C83.2014 229.406 74.9384 221.784 64.9173 212.212C54.8934 202.638 46.9071 194.741 47.0776 194.571C47.2477 194.401 55.5103 202.024 65.5347 211.597C75.5553 221.169 83.5421 229.066 83.3715 229.236Z" fill="#E0E0E0" stroke="#D6D5DA" stroke-width="0.755905" stroke-miterlimit="10"/>
<path d="M119.232 414.351C119.206 414.589 109.065 413.738 96.583 412.455C84.0972 411.169 73.9997 409.937 74.0257 409.702C74.0511 409.464 84.1899 410.315 96.6758 411.599C109.156 412.884 119.257 414.117 119.232 414.351Z" fill="#D6D5DA"/>
<path d="M117.433 430.946C117.408 431.184 107.266 430.333 94.7845 429.049C82.2986 427.764 72.2012 426.531 72.2271 426.297C72.2521 426.06 82.3913 426.91 94.8772 428.193C107.359 429.477 117.459 430.711 117.433 430.946Z" fill="#D6D5DA"/>
<path d="M151.07 218.131C151.07 218.131 155.685 191.186 156.783 189.135C157.88 187.084 170.626 174.489 172.13 174.228C173.633 173.967 193.72 167.821 192.609 170.876C191.496 173.931 177.406 178.051 177.406 178.051L176.069 179.693C176.069 179.693 188.108 175.873 191.103 175.971C193.859 176.06 194.349 178.849 192.196 179.653C190.046 180.458 179.429 183.473 179.035 184.119C178.642 184.765 190.853 181.366 192.385 181.429C194.449 181.517 195.946 184.064 193.837 184.928C192.595 185.437 180.791 188.077 180.791 188.077C180.791 188.077 190.645 186.954 191.754 187.246C193.571 187.725 193.417 189.873 191.422 190.388C190.051 190.742 182.84 191.042 181.006 191.522C181.006 191.522 179.645 192.657 179.694 196.215C179.744 199.774 175 209.259 175 209.259L151.07 218.131Z" fill="#F7B8A0"/>
<path d="M192.593 170.937C192.671 171.014 191.659 172.101 189.637 173.44C188.629 174.104 187.362 174.817 185.878 175.45C184.381 175.997 182.725 176.552 180.986 177.142C179.698 177.566 178.456 177.978 177.279 178.364L177.479 178.245C173.65 181.971 170.781 184.578 170.625 184.444C170.469 184.312 173.079 181.475 176.832 177.667L176.906 177.59L177.032 177.547C178.193 177.15 179.42 176.732 180.691 176.296C182.393 175.736 184.015 175.199 185.561 174.69C187.006 174.122 188.262 173.489 189.288 172.911C191.341 171.746 192.498 170.834 192.593 170.937Z" fill="#F39772"/>
<path d="M460.203 514.114L186.598 486.642C178.23 485.801 172.143 478.507 173.006 470.351L220.393 22.0071C221.618 10.4208 232.246 1.99693 244.134 3.18969L504.996 29.3819C516.884 30.5761 525.529 40.9364 524.303 52.5222L476.917 500.865C476.054 509.023 468.571 514.955 460.203 514.114Z" fill="#EA5563"/>
<path d="M461.782 514.194C461.26 514.194 460.733 514.167 460.203 514.115L432.644 511.347C433.157 511.397 433.668 511.422 434.173 511.422C441.885 511.422 448.501 505.734 449.309 498.095L496.695 49.7509C497.921 38.1646 489.276 27.8048 477.389 26.612L389.661 17.8032L504.996 29.3825C516.13 30.5008 524.418 39.6585 524.418 50.3339C524.418 51.0575 524.381 51.7875 524.303 52.5228L506.516 220.816L501.224 270.884L498.968 292.233L498.851 293.34L495.265 327.267L495.151 328.348L491.175 365.96L491.105 366.618L487.564 400.12L487.51 400.637L476.917 500.865C476.11 508.506 469.493 514.194 461.782 514.194Z" fill="#253E3C"/>
<path d="M417.282 509.805L186.598 486.643C186.533 486.636 186.466 486.63 186.401 486.621L417.282 509.805Z" fill="#A3353D"/>
<path d="M432.596 511.342L158.99 483.869C150.622 483.029 144.537 475.736 145.4 467.579L192.784 19.2351C194.01 7.64928 204.637 -0.774559 216.526 0.41821L477.389 26.6118C489.276 27.8046 497.92 38.1644 496.695 49.7507L449.308 498.095C448.446 506.251 440.964 512.182 432.596 511.342Z" fill="#379C60"/>
<path d="M288.793 433.449L194.451 423.974C192.196 423.75 190.557 421.785 190.789 419.588L194.615 383.403C194.847 381.207 196.861 379.61 199.115 379.836L293.459 389.309C295.712 389.535 297.351 391.498 297.119 393.695L293.295 429.881C293.063 432.078 291.047 433.673 288.793 433.449Z" fill="#EA5563"/>
<path d="M289.218 433.47C289.078 433.47 288.935 433.462 288.793 433.449L194.451 423.974C192.337 423.762 190.766 422.024 190.767 419.997C190.767 419.862 190.775 419.724 190.789 419.588L194.049 388.749L285.04 388.462L293.459 389.309C295.571 389.52 297.144 391.26 297.141 393.286C297.141 393.42 297.134 393.558 297.119 393.695L293.295 429.88C293.078 431.938 291.295 433.47 289.218 433.47Z" fill="#2D6344"/>
<path d="M461.168 175.969L201.343 149.882L211.841 50.5391L471.667 76.6287L461.168 175.969Z" fill="#FEFEFE"/>
<path d="M461.168 175.969C461.168 175.969 461.211 175.359 461.324 174.196C461.44 173.021 461.611 171.303 461.835 169.055C462.294 164.532 462.972 157.885 463.843 149.316C465.615 132.187 468.181 107.383 471.364 76.5987L471.637 76.9255C406.244 70.3932 313.97 61.1746 211.812 50.9698L211.797 50.9684L212.28 50.5835C208.602 85.3264 205.048 118.895 201.763 149.922L201.385 149.47C276.569 157.097 341.461 163.683 387.579 168.361C410.653 170.727 429.027 172.61 441.653 173.906C447.956 174.561 452.821 175.068 456.131 175.412C457.77 175.589 459.018 175.723 459.88 175.813C460.724 175.908 461.168 175.969 461.168 175.969C461.168 175.969 460.757 175.946 459.928 175.872C459.077 175.791 457.841 175.675 456.222 175.524C452.931 175.206 448.09 174.738 441.82 174.132C429.212 172.891 410.862 171.089 387.82 168.825C341.62 164.234 276.615 157.775 201.298 150.291L200.876 150.249L200.921 149.838C204.195 118.809 207.736 85.2403 211.402 50.4959L211.446 50.0679L211.887 50.1124L211.904 50.1142C314.05 60.4216 406.314 69.7324 471.699 76.3308L472.004 76.3622L471.972 76.6596C468.641 107.505 465.957 132.361 464.104 149.524C463.17 158.057 462.445 164.675 461.95 169.18C461.703 171.402 461.511 173.099 461.38 174.262C461.25 175.402 461.168 175.969 461.168 175.969Z" fill="#29383E"/>
<path d="M247.781 238.08L210.636 234.35C208.699 234.155 207.289 232.467 207.489 230.577L211.316 194.373C211.514 192.483 213.248 191.108 215.187 191.304L252.331 195.034C254.27 195.229 255.68 196.917 255.48 198.807L251.653 235.012C251.455 236.9 249.721 238.275 247.781 238.08Z" fill="#EA5563"/>
<path d="M209.662 210.02L211.316 194.373C211.502 192.603 213.035 191.285 214.821 191.285C214.941 191.285 215.063 191.292 215.187 191.303L252.331 195.033C254.149 195.217 255.5 196.712 255.498 198.455C255.498 198.571 255.492 198.688 255.48 198.807L254.402 209.009C252.244 208.713 250.061 208.531 247.863 208.468C245.644 208.405 243.334 208.374 240.962 208.374C231.162 208.374 220.318 208.908 210.428 209.932C210.171 209.958 209.916 209.988 209.662 210.02Z" fill="#A3353D"/>
<path d="M240.962 237.395L203.819 233.666C201.878 233.471 200.469 231.781 200.67 229.893L204.495 193.687C204.695 191.799 206.429 190.425 208.368 190.619L245.512 194.348C247.451 194.543 248.859 196.233 248.661 198.122L244.833 234.327C244.634 236.215 242.902 237.59 240.962 237.395Z" fill="#253E3C"/>
<path d="M228.749 205.152L226.852 223.092L222.593 222.664L224.137 208.056L220.455 207.686L220.808 204.354L228.749 205.152Z" fill="#FEFEFE"/>
<path d="M309.365 244.264L272.221 240.534C270.283 240.34 268.874 238.65 269.074 236.76L272.899 200.555C273.1 198.667 274.832 197.292 276.771 197.487L313.916 201.218C315.853 201.412 317.263 203.101 317.064 204.991L313.238 241.194C313.038 243.084 311.304 244.459 309.365 244.264Z" fill="#EA5563"/>
<path d="M309.733 244.282C309.611 244.282 309.489 244.275 309.365 244.264L304.399 243.765C298.732 236.947 292.936 230.327 287.839 225.321C283.049 220.615 277.504 216.81 271.478 214.013L272.899 200.555C273.088 198.786 274.62 197.469 276.405 197.469C276.527 197.469 276.649 197.476 276.771 197.487L313.916 201.218C315.733 201.399 317.086 202.896 317.082 204.639C317.082 204.756 317.076 204.874 317.064 204.991L313.238 241.194C313.05 242.964 311.518 244.282 309.733 244.282Z" fill="#2D6344"/>
<path d="M302.546 243.578L265.402 239.85C263.463 239.654 262.053 237.964 262.253 236.076L266.08 199.871C266.28 197.981 268.013 196.608 269.952 196.803L307.095 200.532C309.034 200.727 310.443 202.417 310.244 204.307L306.417 240.51C306.217 242.4 304.485 243.773 302.546 243.578Z" fill="#253E3C"/>
<path d="M295.447 226.56L295.09 229.944L281.181 228.548L281.466 225.856L289.257 220.033C291.046 218.685 291.43 217.791 291.524 216.92C291.673 215.511 290.761 214.591 288.815 214.394C287.238 214.236 285.834 214.692 284.812 215.807L281.916 213.547C283.548 211.665 286.264 210.616 289.578 210.95C293.678 211.361 296.197 213.687 295.853 216.942C295.67 218.683 295.002 220.223 292.179 222.296L287.533 225.765L295.447 226.56Z" fill="#FEFEFE"/>
<path d="M373.208 250.674L336.064 246.944C334.125 246.748 332.717 245.06 332.917 243.171L336.742 206.966C336.942 205.076 338.674 203.703 340.614 203.897L377.759 207.627C379.698 207.822 381.107 209.51 380.908 211.4L377.081 247.604C376.881 249.494 375.147 250.868 373.208 250.674Z" fill="#EA5563"/>
<path d="M373.574 250.691C373.454 250.691 373.332 250.685 373.208 250.674L336.064 246.945C334.245 246.761 332.895 245.265 332.898 243.522C332.898 243.406 332.905 243.289 332.917 243.171L336.742 206.966C336.93 205.197 338.462 203.878 340.249 203.878C340.369 203.878 340.491 203.885 340.614 203.897L377.759 207.627C379.576 207.81 380.928 209.306 380.927 211.049C380.925 211.166 380.92 211.283 380.908 211.4L377.081 247.604C376.893 249.375 375.361 250.691 373.574 250.691Z" fill="#2D6344"/>
<path d="M366.389 249.988L329.245 246.26C327.306 246.065 325.896 244.375 326.098 242.487L329.922 206.282C330.123 204.393 331.855 203.019 333.795 203.214L370.94 206.944C372.877 207.137 374.286 208.827 374.087 210.716L370.26 246.921C370.06 248.811 368.328 250.184 366.389 249.988Z" fill="#253E3C"/>
<path d="M359.355 230.854C359.035 233.877 356.35 236.405 351.119 235.879C348.543 235.622 345.958 234.663 344.3 233.252L346.294 230.241C347.577 231.405 349.461 232.19 351.382 232.383C353.509 232.598 354.916 231.884 355.068 230.424C355.213 229.064 354.277 228.116 351.858 227.873L349.911 227.678L350.2 224.936L354.429 221.139L346.594 220.352L346.946 217.021L359.831 218.314L359.546 221.004L354.904 225.2C358.165 226.046 359.635 228.213 359.355 230.854Z" fill="#FEFEFE"/>
<path d="M437.052 257.084L399.907 253.355C397.97 253.16 396.56 251.47 396.76 249.582L400.585 213.376C400.785 211.488 402.519 210.114 404.456 210.308L441.602 214.038C443.541 214.232 444.949 215.922 444.749 217.811L440.924 254.016C440.722 255.904 438.99 257.279 437.052 257.084Z" fill="#EA5563"/>
<path d="M437.417 257.102C437.297 257.102 437.174 257.097 437.052 257.084L399.907 253.355C399.131 253.276 398.439 252.959 397.902 252.485L396.754 249.625C396.756 249.612 396.758 249.597 396.76 249.582L400.585 213.377C400.773 211.607 402.304 210.291 404.09 210.291C404.211 210.291 404.333 210.296 404.456 210.309L441.602 214.038C443.419 214.221 444.772 215.718 444.77 217.461C444.768 217.576 444.763 217.693 444.749 217.811L440.924 254.016C440.736 255.785 439.203 257.102 437.417 257.102Z" fill="#2D6344"/>
<path d="M430.388 256.4L393.243 252.67C391.303 252.475 389.895 250.786 390.093 248.896L393.92 212.693C394.12 210.803 395.854 209.43 397.792 209.623L434.935 213.354C436.875 213.548 438.285 215.237 438.085 217.127L434.257 253.33C434.059 255.22 432.325 256.593 430.388 256.4Z" fill="#253E3C"/>
<path d="M423.671 234.113L403.95 232.132L404.122 230.488L423.844 232.469L423.671 234.113Z" fill="#FEFEFE"/>
<path d="M417.979 224.241C417.798 225.962 416.219 227.213 414.453 227.036C412.687 226.86 411.404 225.32 411.585 223.6C411.768 221.878 413.345 220.626 415.111 220.805C416.877 220.982 418.16 222.519 417.979 224.241Z" fill="#FEFEFE"/>
<path d="M416.208 241.002C416.025 242.723 414.446 243.974 412.682 243.797C410.916 243.62 409.631 242.081 409.812 240.361C409.995 238.639 411.574 237.389 413.34 237.565C415.104 237.742 416.389 239.282 416.208 241.002Z" fill="#FEFEFE"/>
<path d="M241.117 301.137L203.973 297.407C202.034 297.214 200.624 295.524 200.824 293.634L204.651 257.43C204.849 255.54 206.583 254.168 208.523 254.361L245.666 258.091C247.605 258.286 249.016 259.974 248.815 261.865L244.988 298.068C244.788 299.958 243.056 301.332 241.117 301.137Z" fill="#EA5563"/>
<path d="M234.296 300.453L197.153 296.724C195.214 296.529 193.805 294.839 194.005 292.95L197.831 256.745C198.031 254.857 199.765 253.483 201.702 253.678L238.847 257.408C240.786 257.601 242.195 259.291 241.995 261.181L238.169 297.385C237.969 299.275 236.235 300.647 234.296 300.453Z" fill="#29383E"/>
<path d="M225.961 282.922L222.96 282.621L222.564 286.388L218.409 285.972L218.807 282.203L208.896 281.208L209.189 278.415L219.07 267.908L223.538 268.357L214.353 278.337L219.296 278.833L219.65 275.478L223.672 275.881L223.318 279.238L226.318 279.538L225.961 282.922Z" fill="#FEFEFE"/>
<path d="M302.7 307.321L265.557 303.591C263.618 303.398 262.209 301.708 262.407 299.818L266.235 263.614C266.434 261.724 268.167 260.35 270.106 260.547L307.251 264.275C309.189 264.47 310.599 266.158 310.399 268.048L306.573 304.253C306.372 306.142 304.64 307.516 302.7 307.321Z" fill="#EA5563"/>
<path d="M302.766 307.328C302.745 307.325 302.722 307.323 302.7 307.321L278.638 304.905L295.882 306.636C296.004 306.649 296.126 306.656 296.248 306.656C297.895 306.656 299.326 305.534 299.685 303.971C300.714 305.101 301.743 306.223 302.766 307.328Z" fill="#2D6344"/>
<path d="M295.882 306.636L258.736 302.907C256.799 302.712 255.389 301.024 255.588 299.134L259.416 262.929C259.614 261.04 261.348 259.666 263.285 259.861L300.431 263.59C302.37 263.785 303.78 265.475 303.578 267.363L299.753 303.568C299.553 305.458 297.82 306.831 295.882 306.636Z" fill="#253E3C"/>
<path d="M286.986 287.16C286.65 290.337 283.965 292.864 278.708 292.338C276.157 292.08 273.548 291.118 271.89 289.709L273.911 286.701C275.194 287.867 277.052 288.648 278.969 288.842C281.099 289.055 282.506 288.314 282.66 286.854C282.809 285.445 281.96 284.428 278.621 284.092L273.916 283.619L275.93 273.618L287.157 274.744L286.805 278.077L279.126 277.307L278.477 280.684L279.977 280.834C285.42 281.381 287.321 283.983 286.986 287.16Z" fill="#FEFEFE"/>
<path d="M366.543 313.732L329.399 310.004C327.461 309.809 326.052 308.119 326.25 306.229L330.077 270.025C330.278 268.135 332.012 266.762 333.949 266.956L371.094 270.686C373.031 270.881 374.442 272.569 374.242 274.459L370.415 310.663C370.216 312.553 368.482 313.927 366.543 313.732Z" fill="#EA5563"/>
<path d="M366.911 313.75C366.789 313.75 366.667 313.743 366.543 313.732L346.505 311.719L372.145 294.285L370.415 310.663C370.228 312.433 368.698 313.75 366.911 313.75ZM331.235 276.674C330.922 276.484 330.347 275.905 329.552 275.003L330.077 270.025C330.266 268.255 331.798 266.937 333.584 266.937C333.705 266.937 333.827 266.944 333.949 266.955L345.569 268.123L331.235 276.674Z" fill="#2D6344"/>
<path d="M359.724 313.048L322.579 309.317C320.641 309.122 319.233 307.432 319.431 305.544L323.258 269.341C323.459 267.45 325.191 266.076 327.13 266.271L364.273 270.001C366.212 270.195 367.623 271.885 367.421 273.774L363.595 309.978C363.395 311.868 361.663 313.243 359.724 313.048Z" fill="#253E3C"/>
<path d="M347.973 293.464C348.146 291.823 347.02 290.649 345.127 290.459C343.263 290.272 341.827 291.267 341.661 292.831C341.5 294.369 342.565 295.615 344.614 295.82C346.429 296.001 347.8 295.105 347.973 293.464ZM352.123 293.674C351.736 297.338 348.416 299.335 344.524 298.946C339.451 298.435 336.624 295.018 337.235 289.226C337.892 283.024 342.093 279.95 347.644 280.507C349.587 280.701 351.434 281.328 352.639 282.253L350.739 285.144C349.785 284.374 348.626 284.024 347.388 283.9C344.314 283.591 342.152 285.162 341.661 288.582C342.848 287.639 344.458 287.257 346.375 287.45C349.926 287.807 352.48 290.29 352.123 293.674Z" fill="#FEFEFE"/>
<path d="M430.388 320.141L393.243 316.412C391.303 316.218 389.895 314.528 390.093 312.639L393.92 276.434C394.12 274.546 395.854 273.171 397.792 273.366L434.935 277.097C436.875 277.29 438.285 278.98 438.085 280.868L434.257 317.073C434.059 318.961 432.325 320.336 430.388 320.141Z" fill="#EA5563"/>
<path d="M430.754 320.16C430.632 320.16 430.51 320.155 430.388 320.142L393.242 316.413C391.425 316.23 390.073 314.735 390.074 312.992C390.074 312.874 390.081 312.757 390.093 312.64L393.574 279.716L402.253 273.814L434.935 277.097C436.754 277.279 438.106 278.776 438.103 280.519C438.103 280.634 438.096 280.751 438.085 280.869L434.257 317.074C434.071 318.843 432.539 320.16 430.754 320.16Z" fill="#2D6344"/>
<path d="M423.567 319.459L386.422 315.728C384.485 315.535 383.076 313.845 383.274 311.955L387.102 275.751C387.302 273.861 389.034 272.488 390.973 272.682L428.117 276.412C430.055 276.607 431.466 278.295 431.264 280.185L427.44 316.389C427.238 318.279 425.506 319.654 423.567 319.459Z" fill="#253E3C"/>
<path d="M400.009 302.697L398.96 301.4L414.532 289.441L415.582 290.738L400.009 302.697Z" fill="#FEFEFE"/>
<path d="M412.869 304.087L400.358 289.095L401.671 288.052L414.182 303.045L412.869 304.087Z" fill="#FEFEFE"/>
<path d="M234.506 363.684L197.361 359.953C195.423 359.758 194.013 358.07 194.213 356.18L198.041 319.976C198.239 318.086 199.973 316.712 201.912 316.907L239.055 320.637C240.995 320.832 242.403 322.521 242.203 324.411L238.378 360.614C238.178 362.504 236.446 363.877 234.506 363.684Z" fill="#EA5563"/>
<path d="M227.687 362.998L190.542 359.268C188.603 359.075 187.195 357.385 187.394 355.496L191.22 319.291C191.42 317.403 193.154 316.028 195.093 316.223L232.237 319.952C234.176 320.147 235.584 321.837 235.384 323.725L231.559 359.93C231.359 361.818 229.625 363.193 227.687 362.998Z" fill="#29383E"/>
<path d="M218.403 331.049L218.12 333.74L209.669 348.303L205.041 347.837L213.179 333.943L207.08 333.332L206.772 336.253L202.985 335.873L203.651 329.569L218.403 331.049Z" fill="#FEFEFE"/>
<path d="M296.09 369.865L258.946 366.137C257.007 365.942 255.597 364.252 255.797 362.363L259.624 326.158C259.824 324.27 261.557 322.895 263.495 323.09L300.641 326.821C302.578 327.014 303.989 328.704 303.789 330.594L299.961 366.797C299.763 368.687 298.029 370.062 296.09 369.865Z" fill="#EA5563"/>
<path d="M296.458 369.886C296.336 369.886 296.214 369.879 296.09 369.866L289.334 369.189C289.434 369.197 289.536 369.2 289.635 369.2C291.422 369.2 292.956 367.884 293.142 366.113L296.969 329.909C297.168 328.024 295.764 326.337 293.832 326.137L300.641 326.821C302.458 327.003 303.809 328.5 303.807 330.243C303.807 330.358 303.8 330.476 303.789 330.595L299.961 366.798C299.775 368.567 298.243 369.886 296.458 369.886Z" fill="#2D6344"/>
<path d="M289.271 369.182L252.128 365.453C250.189 365.258 248.778 363.568 248.978 361.678L252.804 325.475C253.006 323.585 254.738 322.212 256.677 322.405L293.821 326.136C295.76 326.331 297.168 328.021 296.97 329.909L293.143 366.113C292.942 368.003 291.21 369.377 289.271 369.182Z" fill="#253E3C"/>
<path d="M272.025 341.483C271.881 342.843 272.898 343.8 274.632 343.973C276.395 344.15 277.613 343.418 277.757 342.06C277.905 340.651 276.84 339.688 275.103 339.514C273.394 339.342 272.174 340.074 272.025 341.483ZM277.532 349.729C277.699 348.141 276.46 347.031 274.331 346.818C272.226 346.607 270.81 347.449 270.641 349.038C270.474 350.626 271.682 351.758 273.786 351.969C275.916 352.184 277.364 351.318 277.532 349.729ZM281.829 350.29C281.471 353.672 278.143 355.488 273.464 355.019C268.809 354.551 265.96 352.114 266.318 348.733C266.52 346.809 267.698 345.478 269.552 344.784C268.27 343.826 267.64 342.495 267.811 340.88C268.143 337.727 271.247 336.043 275.426 336.464C279.661 336.889 282.342 339.154 282.01 342.306C281.839 343.92 280.917 345.096 279.462 345.779C281.159 346.831 282.032 348.368 281.829 350.29Z" fill="#FEFEFE"/>
<path d="M359.934 376.278L322.789 372.548C320.85 372.352 319.442 370.664 319.64 368.774L323.467 332.571C323.667 330.681 325.399 329.308 327.339 329.501L364.484 333.232C366.423 333.426 367.831 335.115 367.629 337.005L363.806 373.208C363.604 375.098 361.872 376.471 359.934 376.278Z" fill="#EA5563"/>
<path d="M360.297 376.295C360.177 376.295 360.057 376.291 359.935 376.277L322.789 372.547C320.971 372.365 319.62 370.868 319.622 369.126C319.622 369.01 319.628 368.892 319.64 368.774L323.467 332.57C323.656 330.801 325.188 329.482 326.974 329.482C327.095 329.482 327.217 329.489 327.339 329.501L364.484 333.231C366.301 333.413 367.654 334.91 367.65 336.653C367.65 336.768 367.644 336.885 367.63 337.004L363.806 373.208C363.618 374.979 362.086 376.295 360.297 376.295Z" fill="#2D6344"/>
<path d="M353.114 375.591L315.971 371.861C314.031 371.668 312.621 369.98 312.821 368.088L316.648 331.884C316.848 329.996 318.581 328.621 320.52 328.816L357.665 332.547C359.603 332.74 361.011 334.43 360.813 336.32L356.985 372.523C356.786 374.412 355.053 375.787 353.114 375.591Z" fill="#253E3C"/>
<path d="M340.974 348.873C341.137 347.336 340.073 346.089 338.047 345.885C336.233 345.702 334.862 346.601 334.69 348.241C334.515 349.882 335.64 351.056 337.535 351.247C339.401 351.435 340.808 350.437 340.974 348.873ZM345.401 352.477C344.747 358.679 340.571 361.755 334.996 361.195C333.05 361 331.228 360.378 330.025 359.454L331.925 356.563C332.852 357.329 334.013 357.68 335.274 357.807C338.323 358.112 340.51 356.543 341.005 353.097C339.817 354.04 338.181 354.445 336.261 354.252C332.71 353.895 330.155 351.412 330.513 348.03C330.901 344.364 334.222 342.367 338.111 342.757C343.213 343.27 346.015 346.685 345.401 352.477Z" fill="#FEFEFE"/>
<path d="M423.778 382.687L386.632 378.957C384.693 378.762 383.284 377.074 383.484 375.183L387.31 338.98C387.51 337.092 389.244 335.717 391.181 335.912L428.327 339.641C430.266 339.836 431.674 341.526 431.474 343.414L427.649 379.619C427.447 381.507 425.715 382.88 423.778 382.687Z" fill="#EA5563"/>
<path d="M424.14 382.706C424.019 382.706 423.899 382.701 423.777 382.687L386.632 378.957C384.813 378.775 383.462 377.278 383.465 375.535C383.465 375.42 383.473 375.303 383.484 375.184L387.31 338.98C387.496 337.211 389.029 335.894 390.815 335.894C390.935 335.894 391.057 335.899 391.181 335.912L428.326 339.641C430.143 339.823 431.496 341.32 431.493 343.062C431.493 343.18 431.487 343.297 431.474 343.415L427.648 379.62C427.46 381.389 425.926 382.706 424.14 382.706Z" fill="#2D6344"/>
<path d="M416.957 382.002L379.813 378.273C377.874 378.079 376.464 376.39 376.666 374.5L380.49 338.297C380.691 336.407 382.424 335.032 384.363 335.227L421.508 338.956C423.445 339.152 424.854 340.841 424.656 342.731L420.828 378.934C420.628 380.822 418.896 382.197 416.957 382.002Z" fill="#253E3C"/>
<path d="M410.432 360.427L390.713 358.448L390.885 356.804L410.605 358.782L410.432 360.427Z" fill="#FEFEFE"/>
<path d="M353.265 439.368L316.121 435.639C314.182 435.444 312.773 433.754 312.972 431.866L316.799 395.661C316.999 393.771 318.732 392.398 320.67 392.591L357.814 396.321C359.753 396.516 361.163 398.206 360.964 400.095L357.136 436.298C356.938 438.19 355.202 439.563 353.265 439.368Z" fill="#EA5563"/>
<path d="M353.633 439.386C353.511 439.386 353.389 439.379 353.265 439.368L316.121 435.639C314.304 435.456 312.952 433.961 312.953 432.217C312.953 432.1 312.96 431.983 312.972 431.866L316.799 395.661C316.986 393.89 318.52 392.573 320.306 392.573C320.426 392.573 320.548 392.58 320.67 392.591L357.814 396.322C359.633 396.505 360.986 398 360.982 399.743C360.982 399.86 360.975 399.978 360.964 400.095L357.136 436.298C356.95 438.069 355.418 439.386 353.633 439.386Z" fill="#2D6344"/>
<path d="M346.444 438.684L309.3 434.954C307.363 434.761 305.953 433.069 306.153 431.181L309.98 394.977C310.178 393.087 311.912 391.712 313.851 391.908L350.995 395.638C352.934 395.831 354.345 397.523 354.143 399.411L350.317 435.615C350.117 437.504 348.383 438.879 346.444 438.684Z" fill="#253E3C"/>
<path d="M417.108 445.78L379.964 442.05C378.025 441.855 376.615 440.165 376.815 438.277L380.642 402.073C380.84 400.183 382.576 398.809 384.513 399.004L421.657 402.734C423.596 402.927 425.006 404.617 424.806 406.506L420.979 442.711C420.78 444.601 419.045 445.974 417.108 445.78Z" fill="#EA5563"/>
<path d="M417.472 445.798C417.352 445.798 417.23 445.792 417.108 445.78L379.964 442.05C378.147 441.867 376.793 440.37 376.796 438.627C376.796 438.511 376.803 438.394 376.814 438.277L380.642 402.073C380.828 400.304 382.362 398.985 384.147 398.985C384.269 398.985 384.391 398.992 384.513 399.004L421.657 402.734C423.476 402.915 424.828 404.411 424.825 406.154C424.825 406.271 424.818 406.388 424.806 406.505L420.979 442.71C420.792 444.48 419.259 445.798 417.472 445.798Z" fill="#2D6344"/>
<path d="M410.287 445.094L373.143 441.365C371.206 441.17 369.796 439.48 369.996 437.592L373.823 401.387C374.022 399.497 375.756 398.124 377.694 398.317L414.838 402.047C416.777 402.242 418.188 403.932 417.986 405.821L414.16 442.024C413.96 443.914 412.228 445.289 410.287 445.094Z" fill="#253E3C"/>
<path d="M404.015 421.145L384.296 419.167L384.467 417.525L404.188 419.503L404.015 421.145Z" fill="#FEFEFE"/>
<path d="M403.243 428.462L383.522 426.485L383.695 424.842L403.415 426.82L403.243 428.462Z" fill="#FEFEFE"/>
<path d="M280.376 432.603L182.205 422.745C179.877 422.512 178.183 420.482 178.423 418.214L182.22 382.291C182.459 380.022 184.542 378.372 186.87 378.605L285.041 388.463C287.369 388.697 289.062 390.725 288.822 392.994L285.025 428.917C284.786 431.187 282.705 432.837 280.376 432.603Z" fill="#253E3C"/>
<path d="M241.152 405.498C241.585 401.422 240.289 399.583 238.159 399.368C236.058 399.159 234.407 400.7 233.976 404.776C233.545 408.85 234.839 410.69 236.941 410.9C239.071 411.115 240.722 409.572 241.152 405.498ZM229.662 404.345C230.288 398.423 234.01 395.402 238.53 395.858C243.081 396.314 246.065 400.008 245.439 405.927C244.814 411.846 241.12 414.87 236.569 414.411C232.049 413.958 229.037 410.262 229.662 404.345Z" fill="#FEFEFE"/>
<path d="M329.822 424.988L328.14 424.793L330.476 405.604L332.157 405.797L329.822 424.988Z" fill="#FEFEFE"/>
<path d="M339.924 417.108L320.201 415.129L320.374 413.487L340.095 415.466L339.924 417.108Z" fill="#FEFEFE"/>
<path d="M311.15 111.196L308.314 138.018L307.017 137.887L309.726 112.254L302.807 111.56L302.934 110.372L311.15 111.196Z" fill="#1D302E"/>
<path d="M333.754 139.373L333.629 140.559L314.996 138.688L315.092 137.77L328.11 127.383C331.839 124.428 332.752 122.543 332.983 120.358C333.361 116.795 331.049 114.24 326.252 113.759C322.596 113.39 319.815 114.159 317.655 116.147L316.842 115.216C319.128 113.121 322.367 112.168 326.416 112.574C331.685 113.104 334.746 116.083 334.288 120.411C334.02 122.943 332.961 125.082 328.972 128.242L317.126 137.702L333.754 139.373Z" fill="#1D302E"/>
<path d="M355.562 135.249C355.092 139.695 351.534 142.513 345.483 141.905C341.356 141.49 337.861 139.59 336.323 137.228L337.127 136.38C338.534 138.497 341.637 140.319 345.569 140.714C350.836 141.242 353.856 138.989 354.265 135.118C354.677 131.211 352.268 128.452 346.448 127.867L344.915 127.714L345.013 126.795L354.734 116.774L339.559 115.249L339.685 114.062L356.588 115.759L356.49 116.678L346.729 126.734C353.175 127.382 356.036 130.766 355.562 135.249Z" fill="#1D302E"/>
<path d="M382.637 137.659L376.662 137.059L375.844 144.797L374.547 144.669L375.364 136.927L359.56 135.341L359.657 134.421L376.793 117.788L378.325 117.941L361.414 134.366L375.486 135.779L376.206 128.957L377.504 129.088L376.784 135.909L382.759 136.507L382.637 137.659Z" fill="#1D302E"/>
<path d="M388.386 144.895C388.332 145.394 388.181 145.688 388 146.289L386.04 151.282L385.018 151.18L386.798 146.013C386.14 145.832 385.72 145.286 385.789 144.635C385.862 143.945 386.474 143.426 387.22 143.501C388.008 143.58 388.451 144.284 388.386 144.895Z" fill="#1D302E"/>
<path d="M415.655 140.973L409.679 140.373L408.862 148.113L407.563 147.982L408.38 140.243L392.578 138.656L392.676 137.736L409.809 121.103L411.343 121.257L394.431 137.68L408.504 139.092L409.224 132.273L410.521 132.403L409.801 139.225L415.777 139.823L415.655 140.973Z" fill="#1D302E"/>
<path d="M436.079 143.18C435.619 147.547 432.155 150.606 425.905 149.98C421.857 149.574 418.323 147.669 416.785 145.308L417.63 144.463C418.996 146.576 422.14 148.402 426.032 148.793C431.415 149.333 434.342 146.84 434.744 143.045C435.181 138.907 432.923 136.202 425.06 135.414L419.714 134.876L422.506 122.377L436.698 123.803L436.571 124.991L423.483 123.676L421.216 133.827L425.462 134.253C433.875 135.098 436.581 138.429 436.079 143.18Z" fill="#1D302E"/>
<path d="M135.422 692.617L124.645 731.454L159.67 734.568L167.03 697.595L135.422 692.617Z" fill="#379C60"/>
<path d="M160.687 731.405C160.675 731.531 158.714 731.486 155.558 731.236C152.402 730.988 148.054 730.519 143.27 729.921C138.657 729.318 134.488 728.771 131.028 728.318C127.898 727.89 125.962 727.6 125.976 727.466C125.989 727.339 127.949 727.395 131.105 727.651C134.259 727.904 138.607 728.378 143.393 728.978C148.002 729.575 152.173 730.118 155.633 730.567C158.763 730.988 160.701 731.271 160.687 731.405Z" fill="#29383E"/>
<path d="M124.645 731.455L124.682 731.068L125.659 727.438L125.755 727.45L124.645 731.455Z" fill="#FEFEFE"/>
<path d="M159.67 734.568L124.645 731.454L125.755 727.45L125.979 727.477C126.062 727.616 127.979 727.902 131.028 728.318C134.488 728.771 138.657 729.318 143.27 729.92C148.054 730.519 152.402 730.988 155.558 731.236C156.214 731.287 156.819 731.33 157.365 731.365L160.236 731.722L159.67 734.568Z" fill="#8FB198"/>
<path d="M157.365 731.365C156.819 731.33 156.214 731.287 155.558 731.236C152.402 730.988 148.054 730.519 143.27 729.92C138.657 729.317 134.488 728.771 131.028 728.318C127.979 727.902 126.062 727.616 125.979 727.477L157.365 731.365Z" fill="#AAB1B2"/>
<path d="M142.045 729.726C141.825 729.672 143.315 723.01 145.377 714.845C147.436 706.678 149.285 700.104 149.505 700.156C149.726 700.208 148.236 706.871 146.175 715.037C144.115 723.2 142.266 729.779 142.045 729.726Z" fill="#1D302E"/>
<path d="M158.75 731.153C158.536 731.145 159.867 728.366 158.831 723.934C158.297 721.772 157.133 719.26 154.999 717.175C152.895 715.078 149.743 713.618 146.281 713.273C142.814 712.948 139.436 713.764 136.902 715.35C134.335 716.917 132.571 719.057 131.447 720.998C129.218 724.981 129.435 727.975 129.237 727.925C129.208 727.925 129.191 727.746 129.184 727.408C129.167 727.069 129.198 726.572 129.268 725.931C129.415 724.653 129.856 722.802 130.935 720.729C132.032 718.685 133.818 716.41 136.495 714.729C139.145 713.016 142.713 712.13 146.363 712.475C150.007 712.835 153.337 714.406 155.538 716.656C157.763 718.89 158.916 721.548 159.399 723.813C159.86 726.099 159.699 728.008 159.411 729.264C159.26 729.893 159.117 730.372 158.98 730.686C158.855 731.002 158.777 731.164 158.75 731.153Z" fill="#1D302E"/>
<path d="M279.905 688.195L277.827 718.78C277.827 718.78 309.058 728.881 309.238 734.569L248.217 735L249.449 687.215L279.905 688.195Z" fill="#379C60"/>
<path d="M259.551 720.184C258.492 720.184 257.45 719.396 257.239 718.367C257.017 717.269 257.755 716.086 258.826 715.712C259.043 715.608 259.278 715.562 259.521 715.562C260.505 715.562 261.592 716.338 261.889 717.248C262.26 718.383 261.185 719.878 259.99 720.137C259.844 720.169 259.699 720.184 259.551 720.184Z" fill="#8FB198"/>
<path d="M309.55 734.999H248.217L249.141 734.993C268.799 734.997 288.966 734.999 309.55 734.999ZM309.168 734.14C308.96 733.404 308.293 732.607 307.289 731.774C307.418 731.83 308.79 732.476 309.353 734.14C309.288 734.14 309.233 734.14 309.168 734.14Z" fill="#FEFEFE"/>
<path d="M309.55 735C288.966 735 268.799 734.998 249.141 734.994L309.238 734.569C309.234 734.429 309.211 734.287 309.168 734.141C309.233 734.141 309.289 734.141 309.353 734.141C309.441 734.402 309.509 734.688 309.55 735Z" fill="#AAB1B2"/>
<path d="M248.217 734.999L248.534 730.188L307.278 731.769C307.278 731.769 307.282 731.771 307.289 731.775C308.293 732.607 308.96 733.404 309.168 734.14C309.211 734.286 309.234 734.428 309.238 734.568L249.141 734.993L248.217 734.999Z" fill="#8FB198"/>
<path d="M278.823 718.507C278.806 718.795 277.311 718.884 275.818 719.773C274.299 720.627 273.506 721.861 273.235 721.738C272.962 721.674 273.46 719.951 275.289 718.904C277.108 717.841 278.896 718.241 278.823 718.507Z" fill="#1D302E"/>
<path d="M285.142 721.273C285.202 721.556 283.895 722.013 282.847 723.209C281.761 724.377 281.464 725.697 281.168 725.675C280.886 725.714 280.732 724.007 282.067 722.542C283.388 721.064 285.144 720.995 285.142 721.273Z" fill="#1D302E"/>
<path d="M288.542 728.841C288.269 728.897 287.9 727.434 288.715 725.868C289.517 724.295 290.941 723.708 291.06 723.955C291.22 724.197 290.29 725.023 289.641 726.32C288.963 727.602 288.839 728.823 288.542 728.841Z" fill="#1D302E"/>
<path d="M278.505 711.484C278.371 711.745 277.018 711.304 275.33 711.364C273.643 711.395 272.316 711.907 272.169 711.652C272.002 711.438 273.315 710.4 275.303 710.356C277.289 710.296 278.659 711.261 278.505 711.484Z" fill="#29383E"/>
<path d="M249.158 698.552L249.271 693.636H249.285L249.158 698.552Z" fill="#B5B6B5"/>
<path d="M279.123 699.703L249.158 698.552L249.285 693.636L279.486 694.251L279.123 699.703Z" fill="#BE3E45"/>
<path d="M278.808 705.305C278.806 705.428 277.623 705.572 275.752 705.202C274.823 705.016 273.73 704.685 272.587 704.149C272.018 703.882 271.436 703.564 270.862 703.191C270.586 703.007 270.258 702.821 269.96 702.464C269.641 702.152 269.477 701.375 269.872 700.916C270.199 700.468 270.757 700.286 271.198 700.29C271.648 700.289 272.009 700.389 272.338 700.48C273.013 700.66 273.642 700.897 274.218 701.169C275.367 701.721 276.293 702.404 276.979 703.054C278.354 704.374 278.803 705.472 278.699 705.525C278.562 705.618 277.901 704.688 276.492 703.591C275.792 703.046 274.892 702.478 273.816 702.015C273.277 701.788 272.696 701.587 272.079 701.436C271.438 701.252 270.889 701.231 270.714 701.508C270.652 701.612 270.641 701.653 270.771 701.841C270.906 702.015 271.162 702.19 271.433 702.373C271.962 702.732 272.496 703.046 273.02 703.319C274.067 703.865 275.074 704.246 275.937 704.509C277.669 705.035 278.818 705.151 278.808 705.305Z" fill="#29383E"/>
<path d="M278.406 705.712C278.3 705.753 277.74 704.694 277.691 702.812C277.667 701.877 277.803 700.752 278.208 699.564C278.413 698.973 278.688 698.37 279.042 697.78C279.418 697.204 279.877 696.429 281.037 696.335C281.642 696.331 282.128 696.804 282.286 697.202C282.476 697.61 282.505 697.957 282.566 698.303C282.657 699.001 282.623 699.681 282.507 700.308C282.276 701.569 281.711 702.606 281.106 703.346C279.867 704.85 278.613 705.162 278.591 705.06C278.496 704.912 279.552 704.384 280.51 702.93C280.981 702.213 281.412 701.263 281.562 700.161C281.64 699.613 281.649 699.029 281.56 698.44C281.485 697.803 281.257 697.288 281.011 697.346C280.71 697.331 280.179 697.793 279.913 698.288C279.584 698.813 279.318 699.35 279.106 699.88C278.691 700.944 278.493 701.967 278.423 702.832C278.286 704.575 278.571 705.672 278.406 705.712Z" fill="#29383E"/>
<path d="M147.597 211.817C147.597 211.817 140.983 247.011 135.667 268.306C131.54 284.841 120.852 315.839 140.193 324.845C159.533 333.85 185.541 297.515 185.541 297.515L196.578 214.691C188.888 216.094 180.186 224.777 170.915 237.549L172.599 206.132L147.597 211.817Z" fill="#8FB198"/>
<path d="M413.746 263.803L403.57 268.531L394.208 254.214L399.683 243.16C400.202 242.134 400.756 240.983 401.341 239.661C402.023 238.121 402.422 236.473 402.548 234.799C402.7 232.774 402.794 230.071 402.383 228.579C401.88 226.733 403.882 225.222 405.245 226.299C406.606 227.375 408.123 232.423 407.112 238.513C406.102 244.601 413.379 238.141 416.072 235.835C418.763 233.527 427.43 226.778 428.791 227.041C430.786 227.426 430.732 229.636 427.989 231.878C425.211 234.148 417.491 241.419 418.769 242.777L418.833 242.782C422.082 243.114 424.752 245.46 425.471 248.568C426.162 251.569 426.723 255.708 424.991 257.074C421.73 259.651 413.746 263.803 413.746 263.803Z" fill="#F7B8A0"/>
<path d="M216.546 130.277L216.277 216.37L254.172 218.131L255.267 197.191C255.267 197.191 268.726 199.796 272.199 187.612C274.416 179.829 273.864 119.681 273.864 119.681L216.546 130.277Z" fill="#F7B8A0"/>
<path d="M282.42 128.171C279.867 133.316 267.712 142.729 267.712 142.729L262.223 157.073C257.453 153.433 251.049 153.641 249.836 161.809C248.959 167.714 256.49 168.907 256.49 168.907C252.107 176.177 249.134 182.058 242.751 188.974C235.844 196.46 231.974 197.215 224.482 197.335H216.221C216.221 197.335 199.317 183.569 202.658 147.306C205.999 111.043 239.446 121.623 247.429 112.563C260.431 97.8065 290.939 110.998 282.42 128.171Z" fill="#141414"/>
<path d="M204.536 177.624C204.536 177.624 204.902 177.612 205.593 177.624C206.283 177.591 207.309 177.565 208.592 177.289C211.153 176.792 214.782 175.331 218.299 172.278C221.851 169.258 224.982 164.659 228.14 159.443C229.742 156.843 231.423 154.097 233.452 151.435C235.484 148.789 237.881 146.193 240.891 144.213C243.891 142.213 247.273 141.037 250.551 140.2C253.844 139.365 257.078 138.851 260.132 138.274C266.226 137.178 271.702 135.519 275.433 132.697C279.176 129.907 281.042 126.44 281.628 123.975C281.962 122.734 281.962 121.731 281.991 121.059C281.955 120.388 281.954 120.031 281.954 120.031C281.954 120.031 282.003 120.382 282.062 121.059C282.055 121.733 282.077 122.747 281.762 124.006C281.209 126.507 279.355 130.039 275.586 132.891C271.825 135.776 266.297 137.469 260.193 138.584C257.136 139.174 253.908 139.693 250.639 140.525C247.381 141.363 244.042 142.529 241.088 144.497C238.125 146.446 235.75 149.012 233.73 151.637C231.71 154.277 230.028 157.011 228.418 159.607C225.245 164.816 222.072 169.435 218.463 172.461C214.894 175.518 211.209 176.96 208.621 177.419C207.321 177.677 206.287 177.682 205.593 177.693C204.899 177.66 204.536 177.624 204.536 177.624Z" fill="#1D302E"/>
<path d="M202.585 148.13C202.585 148.13 203.183 147.904 204.341 147.527C205.499 147.167 207.218 146.589 209.533 146.324C211.798 146.073 214.876 146.172 217.662 148.038C219.015 148.951 220.238 150.411 220.562 152.258C220.891 154.049 220.481 156.224 218.893 157.654C218.11 158.361 217.028 158.763 215.921 158.817C214.802 158.867 213.684 158.515 212.684 157.973C210.696 156.853 209.092 154.922 208.352 152.625C207.56 150.354 207.424 147.78 208.023 145.289C208.611 142.799 210.023 140.403 212.106 138.617C214.165 136.817 216.855 135.573 219.75 135.283C222.656 134.981 225.599 135.602 228.463 136.382C231.335 137.167 234.224 138.071 237.268 138.439C240.304 138.835 243.438 138.852 246.554 138.46C249.663 138.043 252.731 137.326 255.491 136.052C258.213 134.798 260.689 132.723 261.479 129.936C262.267 127.203 261.52 124.091 259.489 122.191C257.463 120.255 254.241 119.997 251.834 121.086C250.623 121.624 249.58 122.526 249.009 123.666C248.4 124.79 248.248 126.092 248.402 127.316C248.734 129.78 250.246 131.976 252.258 133.23C254.282 134.51 256.65 134.996 258.88 135.045C261.128 135.104 263.277 134.705 265.238 134.115C269.186 132.931 272.335 130.775 274.645 128.531C276.986 126.286 278.503 123.911 279.505 121.888C280.535 119.866 280.956 118.148 281.284 117.01C281.515 115.845 281.654 115.234 281.654 115.234C281.654 115.234 281.563 115.852 281.354 117.025C281.047 118.173 280.645 119.903 279.629 121.947C278.64 123.988 277.132 126.39 274.784 128.667C272.469 130.942 269.303 133.134 265.313 134.347C263.33 134.951 261.159 135.363 258.876 135.31C256.609 135.269 254.187 134.783 252.097 133.47C250.012 132.174 248.446 129.916 248.093 127.354C247.931 126.08 248.087 124.712 248.726 123.524C249.328 122.32 250.431 121.362 251.699 120.798C254.213 119.657 257.573 119.914 259.723 121.953C261.857 123.952 262.628 127.177 261.811 130.027C260.984 132.949 258.413 135.082 255.643 136.36C252.829 137.658 249.743 138.378 246.6 138.803C243.451 139.199 240.286 139.181 237.222 138.779C234.144 138.406 231.227 137.489 228.369 136.707C225.516 135.928 222.62 135.317 219.786 135.609C216.967 135.888 214.336 137.098 212.323 138.854C208.163 142.361 207.07 148.122 208.629 152.536C209.345 154.778 210.897 156.65 212.82 157.742C213.782 158.269 214.853 158.608 215.913 158.563C216.96 158.513 217.982 158.14 218.725 157.473C220.235 156.129 220.654 154.03 220.342 152.296C220.039 150.517 218.865 149.098 217.548 148.193C214.833 146.354 211.799 146.227 209.547 146.457C207.248 146.698 205.526 147.255 204.361 147.593C203.199 147.948 202.585 148.13 202.585 148.13Z" fill="#1D302E"/>
<path d="M177.606 382.493L127.158 705.431L169.056 710.614L228.174 439.744L243.059 712.434L288.469 711.661L280.94 383.251L177.606 382.493Z" fill="#141414"/>
<path d="M228.679 433.457L243.863 711.593L287.603 710.85L280.111 384.07L178.333 383.323L128.128 704.717L168.389 709.7L228.679 433.457ZM242.256 713.275L242.212 712.477L227.669 446.028L169.723 711.528L126.191 706.143L176.877 381.661L281.771 382.431L289.335 712.472L242.256 713.275Z" fill="#2D6344"/>
<path d="M274.974 711.144C274.732 711.144 274.533 646.439 274.533 566.641C274.533 486.812 274.732 422.122 274.974 422.122C275.22 422.122 275.416 486.812 275.416 566.641C275.416 646.439 275.22 711.144 274.974 711.144Z" fill="#379C60"/>
<path d="M159.839 709.968C159.824 709.965 159.86 709.724 159.941 709.264C160.035 708.763 160.161 708.086 160.324 707.219C160.688 705.38 161.213 702.744 161.88 699.37C163.292 692.52 165.321 682.682 167.821 670.543C172.91 646.217 180.115 612.648 188.386 575.638C196.665 538.615 204.443 505.164 210.199 480.979C213.106 468.927 215.46 459.16 217.101 452.36C217.933 449.022 218.582 446.411 219.035 444.593C219.257 443.736 219.431 443.069 219.56 442.577C219.682 442.126 219.752 441.895 219.767 441.898C219.782 441.901 219.741 442.137 219.647 442.599C219.54 443.095 219.394 443.77 219.208 444.632C218.792 446.459 218.197 449.081 217.435 452.436C215.862 459.251 213.599 469.038 210.807 481.115C205.205 505.332 197.527 538.802 189.249 575.82C180.978 612.827 173.675 646.375 168.433 670.668C165.816 682.783 163.694 692.599 162.218 699.437C161.478 702.798 160.9 705.423 160.499 707.254C160.299 708.114 160.143 708.786 160.029 709.282C159.919 709.738 159.855 709.971 159.839 709.968Z" fill="#379C60"/>
<path d="M243.059 439.456C243.061 439.517 242.379 439.601 241.144 439.704C239.719 439.801 237.969 439.923 235.908 440.065C231.488 440.351 225.376 440.647 218.662 441.288C211.948 441.94 205.895 442.818 201.502 443.378C199.451 443.632 197.712 443.849 196.295 444.024C195.063 444.158 194.376 444.204 194.366 444.146C194.357 444.086 195.025 443.928 196.242 443.692C197.458 443.454 199.222 443.141 201.407 442.777C205.778 442.061 211.828 441.088 218.575 440.432C225.323 439.789 231.45 439.589 235.879 439.456C238.095 439.398 239.89 439.368 241.129 439.37C242.369 439.37 243.056 439.396 243.059 439.456Z" fill="#379C60"/>
<path d="M281.82 418.484C281.828 418.537 281.371 418.673 280.516 418.805C279.665 418.941 278.411 419.036 276.86 418.965C273.782 418.843 269.424 417.83 265.526 415.103C261.629 412.37 259.255 408.666 258.156 405.863C257.592 404.452 257.285 403.262 257.145 402.433C257.002 401.602 256.987 401.136 257.041 401.126C257.197 401.095 257.487 402.939 258.729 405.625C259.946 408.293 262.311 411.787 266.041 414.402C269.774 417.014 273.925 418.086 276.908 418.359C279.916 418.651 281.801 418.331 281.82 418.484Z" fill="#379C60"/>
<path d="M168.98 388.828L285.041 388.463L278.693 313.806C277.989 296.723 278.096 294.685 277.662 278.914C277.662 278.914 294.139 298.33 307.095 311.947C314.927 320.176 327.337 322.474 337.746 317.677L405.555 271.567L392.858 239.909L331.235 276.674C328.413 274.965 304.419 241.609 287.839 225.321C277.23 214.896 262.921 208.896 247.863 208.468C236.466 208.144 222.709 208.66 210.428 209.932C191.753 211.868 177.14 226.487 175.572 244.729C174.371 258.689 175.337 274.894 175.337 302.436L168.98 388.828Z" fill="#8FB198"/>
<path d="M174.437 252.28C174.437 252.28 174.454 252.581 174.454 253.152C174.451 253.821 174.445 254.648 174.439 255.652C174.406 257.821 174.408 260.962 174.433 264.843C174.476 272.604 174.798 283.321 175.142 295.161C175.484 307.005 175.55 317.738 175.245 325.498C175.106 329.379 174.93 332.518 174.742 334.682C174.659 335.683 174.589 336.506 174.533 337.173C174.481 337.743 174.437 338.039 174.437 338.039C174.437 338.039 174.433 337.738 174.462 337.167C174.501 336.5 174.547 335.675 174.606 334.672C174.75 332.508 174.888 329.369 174.996 325.492C175.237 317.735 175.132 307.011 174.789 295.169C174.445 283.333 174.162 272.609 174.182 264.844C174.191 260.962 174.227 257.819 174.301 255.649C174.335 254.644 174.362 253.82 174.382 253.149C174.406 252.579 174.437 252.28 174.437 252.28Z" fill="#1D302E"/>
<path d="M328.694 287.361C328.647 287.353 328.743 286.758 328.938 285.805C329.135 284.852 329.428 283.538 329.776 282.093C330.123 280.647 330.455 279.341 330.713 278.402C330.971 277.464 331.154 276.889 331.2 276.902C331.247 276.915 331.149 277.511 330.954 278.465C330.759 279.418 330.465 280.728 330.12 282.171C329.774 283.612 329.442 284.914 329.184 285.853C328.926 286.793 328.742 287.37 328.694 287.361Z" fill="#1D302E"/>
<path d="M334.873 288.289C334.778 288.308 334.075 285.645 333.3 282.338C332.527 279.032 331.976 276.334 332.071 276.313C332.166 276.291 332.871 278.954 333.644 282.262C334.419 285.569 334.968 288.267 334.873 288.289Z" fill="#1D302E"/>
<path d="M280.523 281.716C280.523 281.716 280.298 281.529 279.889 281.149C279.411 280.697 278.827 280.143 278.118 279.473C276.589 278.007 274.381 275.883 271.748 273.162C269.13 270.434 266.074 267.109 263.092 263.097C260.123 259.094 257.229 254.369 255.219 248.985C253.182 243.617 252.312 238.114 252.624 233.158C252.856 228.217 253.821 223.756 255.543 220.383C257.231 216.986 259.538 214.794 261.245 213.548C262.114 212.929 262.807 212.48 263.309 212.223C263.799 211.948 264.063 211.817 264.063 211.817C264.099 211.873 263.016 212.374 261.328 213.654C259.658 214.925 257.408 217.119 255.767 220.488C254.094 223.837 253.161 228.259 252.948 233.173C252.658 238.09 253.529 243.537 255.55 248.868C257.546 254.212 260.412 258.914 263.357 262.912C266.311 266.917 269.34 270.251 271.932 272.997C274.535 275.734 276.716 277.885 278.215 279.379C278.904 280.067 279.474 280.635 279.938 281.1C280.332 281.496 280.523 281.716 280.523 281.716Z" fill="#1D302E"/>
<path d="M205.08 250.999C204.888 251.146 203.107 249.264 201.098 246.794C199.088 244.324 197.616 242.203 197.807 242.056C197.998 241.909 199.781 243.791 201.79 246.261C203.797 248.729 205.272 250.85 205.08 250.999Z" fill="#FAFAFA"/>
<path d="M231.457 280.178C231.63 280.345 229.169 283.011 225.961 286.132C222.75 289.253 220.01 291.647 219.838 291.478C219.666 291.309 222.127 288.645 225.337 285.522C228.544 282.403 231.286 280.009 231.457 280.178Z" fill="#FAFAFA"/>
<path d="M256.985 322.051C256.736 322.124 255.806 319.572 254.084 316.725C252.382 313.865 250.555 311.825 250.742 311.65C250.895 311.486 253.076 313.323 254.845 316.291C256.631 319.246 257.207 322.002 256.985 322.051Z" fill="#FAFAFA"/>
<path d="M190.81 317.309C190.603 317.398 188.933 313.803 188.09 309.04C187.22 304.279 187.533 300.347 187.757 300.362C188.02 300.363 188.105 304.226 188.957 308.892C189.784 313.559 191.056 317.221 190.81 317.309Z" fill="#FAFAFA"/>
<path d="M225.951 335.747C225.745 335.834 224.388 332.8 224.032 328.775C223.649 324.751 224.432 321.531 224.65 321.581C224.911 321.617 224.538 324.802 224.909 328.697C225.254 332.597 226.201 335.666 225.951 335.747Z" fill="#FAFAFA"/>
<path d="M212.053 362.54C211.924 362.742 208.355 360.794 204.082 358.19C199.807 355.587 196.448 353.312 196.578 353.112C196.707 352.911 200.275 354.856 204.55 357.462C208.823 360.064 212.182 362.339 212.053 362.54Z" fill="#FAFAFA"/>
<path d="M266.696 354.614C266.804 354.845 262.87 356.748 258.312 359.564C253.742 362.363 250.285 365.003 250.119 364.808C249.966 364.643 253.21 361.674 257.841 358.838C262.461 355.985 266.607 354.408 266.696 354.614Z" fill="#FAFAFA"/>
<path d="M197.966 384.896C197.919 385.131 194.09 384.583 189.417 383.672C184.741 382.763 180.991 381.838 181.039 381.604C181.086 381.371 184.913 381.919 189.59 382.828C194.263 383.738 198.015 384.663 197.966 384.896Z" fill="#FAFAFA"/>
<path d="M234.601 379.084C234.43 379.231 232.332 377.089 230.567 373.897C228.787 370.712 228.093 367.829 228.315 367.771C228.559 367.693 229.61 370.388 231.344 373.487C233.059 376.596 234.801 378.926 234.601 379.084Z" fill="#FAFAFA"/>
<path d="M275.826 381.882C276.013 382.035 274.831 383.712 273.187 385.63C271.543 387.551 270.059 388.982 269.87 388.829C269.684 388.676 270.865 387 272.509 385.078C274.155 383.16 275.64 381.73 275.826 381.882Z" fill="#FAFAFA"/>
<path d="M200.422 268.315C200.558 268.513 199.044 269.729 197.042 271.032C195.041 272.336 193.307 273.231 193.171 273.035C193.037 272.837 194.549 271.62 196.553 270.317C198.554 269.013 200.288 268.118 200.422 268.315Z" fill="#FAFAFA"/>
<path d="M229.028 237.17C228.804 237.246 227.296 233.479 225.977 228.672C224.652 223.862 224.025 219.868 224.259 219.823C224.503 219.775 225.511 223.669 226.83 228.448C228.14 233.228 229.265 237.094 229.028 237.17Z" fill="#FAFAFA"/>
<path d="M256.499 265.525C256.394 265.755 253.919 264.829 250.741 264.249C247.565 263.646 244.915 263.616 244.903 263.365C244.88 263.144 247.607 262.781 250.905 263.405C254.207 264.009 256.604 265.327 256.499 265.525Z" fill="#FAFAFA"/>
<path d="M275.381 241.437C275.42 241.653 272.496 242.191 268.913 241.643C265.325 241.116 262.702 239.747 262.806 239.553C262.906 239.316 265.592 240.289 269.047 240.793C272.496 241.323 275.357 241.182 275.381 241.437Z" fill="#FAFAFA"/>
<path d="M294.7 268.306C294.471 268.308 294.329 264.191 295.169 259.197C295.99 254.198 297.457 250.335 297.675 250.406C297.922 250.481 296.849 254.404 296.041 259.334C295.212 264.259 294.959 268.313 294.7 268.306Z" fill="#FAFAFA"/>
<path d="M317.397 299.945C317.223 300.11 314.523 297.673 311.37 294.501C308.214 291.329 305.799 288.623 305.975 288.458C306.15 288.293 308.848 290.729 312.004 293.901C315.158 297.073 317.574 299.779 317.397 299.945Z" fill="#FAFAFA"/>
<path d="M336.291 297.515C336.495 297.645 335.134 300.061 333.245 302.916C331.359 305.768 329.662 307.977 329.459 307.847C329.254 307.72 330.616 305.301 332.505 302.448C334.389 299.597 336.086 297.388 336.291 297.515Z" fill="#FAFAFA"/>
<path d="M358.197 287.107C357.978 287.211 356.341 284.364 354.543 280.751C352.741 277.135 351.459 274.121 351.68 274.017C351.899 273.913 353.536 276.76 355.336 280.375C357.134 283.989 358.418 287.004 358.197 287.107Z" fill="#FAFAFA"/>
<path d="M388.037 275.075C387.993 275.31 384.508 274.901 380.25 274.163C375.991 273.425 372.574 272.637 372.618 272.403C372.658 272.171 376.145 272.578 380.404 273.317C384.661 274.054 388.079 274.842 388.037 275.075Z" fill="#FAFAFA"/>
<path d="M151.069 306.01C150.849 305.909 152.26 302.539 154.217 298.484C156.178 294.427 157.944 291.222 158.165 291.323C158.385 291.425 156.977 294.796 155.017 298.852C153.058 302.906 151.29 306.112 151.069 306.01Z" fill="#FAFAFA"/>
<path d="M166.885 278.819C166.704 278.977 164.406 276.772 161.751 273.896C159.095 271.016 157.092 268.555 157.273 268.396C157.454 268.236 159.753 270.441 162.407 273.319C165.061 276.197 167.067 278.66 166.885 278.819Z" fill="#FAFAFA"/>
<path d="M165.575 322.492C165.729 322.674 164.555 323.877 162.951 325.175C161.346 326.476 159.921 327.381 159.765 327.199C159.609 327.016 160.782 325.815 162.387 324.515C163.991 323.214 165.42 322.309 165.575 322.492Z" fill="#FAFAFA"/>
<path d="M170.915 249.922C171.106 250.071 170.394 251.247 169.325 252.547C168.257 253.849 167.236 254.784 167.046 254.635C166.855 254.488 167.567 253.312 168.636 252.01C169.704 250.709 170.724 249.775 170.915 249.922Z" fill="#FAFAFA"/>
<path d="M279.196 319.727L278.693 313.806C278.547 310.269 278.437 307.378 278.349 304.876L278.638 304.905L279.196 319.727Z" fill="#2D6344"/>
<path d="M278.638 304.904L278.349 304.876L278.638 304.904Z" fill="#732B2E"/>
<path d="M278.638 304.905L278.348 304.876C278.169 299.767 278.082 296.281 277.991 292.247C278.049 292.255 278.106 292.263 278.164 292.271L278.638 304.905ZM278.03 288.699C277.989 288.691 277.949 288.683 277.91 288.673C277.876 287.256 277.84 285.724 277.796 284.009L277.854 284.014L278.03 288.699Z" fill="#242C2F"/>
<path d="M278.164 292.271C278.106 292.263 278.048 292.255 277.991 292.247C277.963 291.115 277.938 289.94 277.91 288.673C277.949 288.683 277.989 288.691 278.03 288.699L278.164 292.271ZM277.853 284.014L277.796 284.009C277.759 282.507 277.716 280.865 277.666 279.04C277.667 279.04 277.667 279.04 277.667 279.041L277.853 284.014Z" fill="#B5B6B5"/>
<path d="M279.371 324.39C272.279 302.667 266.786 279.877 259.726 258.131C260.806 259.892 261.943 261.549 263.092 263.097C266.074 267.108 269.13 270.434 271.749 273.162C274.132 275.626 276.167 277.601 277.666 279.039C277.716 280.865 277.759 282.507 277.796 284.009C277.84 285.724 277.876 287.255 277.91 288.673C277.939 289.94 277.964 291.114 277.991 292.246C278.083 296.28 278.169 299.766 278.349 304.876C278.437 307.377 278.547 310.268 278.693 313.806L279.196 319.727L279.371 324.39Z" fill="#2D6344"/>
<path d="M277.667 279.042C277.667 279.04 277.667 279.04 277.666 279.04C276.167 277.601 274.131 275.627 271.748 273.162C269.13 270.434 266.073 267.109 263.092 263.097C261.943 261.55 260.806 259.893 259.726 258.131C259.651 257.898 259.575 257.667 259.5 257.434C264.972 265.759 271.016 272.939 277.662 278.914L277.667 279.042Z" fill="#242C2F"/>
<path d="M142.871 286.162C142.861 286.157 142.937 285.972 143.09 285.622C143.291 285.179 143.518 284.679 143.781 284.099C144.383 282.779 145.29 280.884 146.439 278.554C148.736 273.897 152.066 267.533 156.053 260.669C160.046 253.806 163.934 247.748 166.853 243.435C168.311 241.275 169.514 239.544 170.367 238.363C170.742 237.844 171.065 237.398 171.352 237.003C171.58 236.694 171.704 236.536 171.715 236.542C171.725 236.549 171.619 236.721 171.409 237.041C171.14 237.447 170.835 237.905 170.48 238.437C169.579 239.79 168.433 241.51 167.062 243.567C164.199 247.914 160.35 253.983 156.36 260.839C152.378 267.695 149.015 274.034 146.663 278.662C145.558 280.864 144.632 282.708 143.905 284.156C143.62 284.725 143.373 285.217 143.154 285.65C142.979 285.99 142.883 286.167 142.871 286.162Z" fill="#1D302E"/>
<path d="M154.307 265.134C154.324 265.189 153.592 265.42 152.456 265.894C151.32 266.368 149.793 267.12 148.248 268.166C146.704 269.217 145.449 270.35 144.598 271.224C143.747 272.096 143.27 272.684 143.224 272.65C143.203 272.637 143.303 272.475 143.502 272.194C143.697 271.911 144.007 271.522 144.414 271.06C145.226 270.135 146.475 268.951 148.046 267.883C149.617 266.819 151.192 266.089 152.363 265.67C152.95 265.458 153.431 265.309 153.772 265.23C154.11 265.146 154.3 265.111 154.307 265.134Z" fill="#1D302E"/>
<path d="M155.902 231.247C156.098 231.386 153.792 234.824 150.747 238.926C147.705 243.03 145.076 246.24 144.88 246.101C144.681 245.962 146.988 242.524 150.034 238.422C153.076 234.32 155.703 231.108 155.902 231.247Z" fill="#FAFAFA"/>
<path d="M168.142 204.373C169.767 204.877 171.501 203.772 172.448 202.391C173.395 201.008 173.833 199.354 174.676 197.91C177.195 193.59 182.924 191.712 185.227 187.279C185.549 186.661 185.746 185.801 185.195 185.363C184.683 184.958 183.929 185.232 183.339 185.52C178.306 187.976 173.274 190.433 168.24 192.888L168.142 204.373Z" fill="#F7B8A0"/>
<path d="M168.24 192.888C168.211 192.832 168.763 192.491 169.789 191.928C170.814 191.366 172.313 190.577 174.174 189.621C176.115 188.64 178.323 187.525 180.73 186.309C181.352 186 181.986 185.685 182.632 185.364C183.259 185.108 183.959 184.505 185.093 184.787C185.652 184.956 186.018 185.566 186.013 186.061C186.033 186.559 185.893 186.98 185.711 187.375C185.325 188.103 184.891 188.782 184.35 189.407C182.198 191.913 179.491 193.433 177.505 195.245C176.496 196.134 175.643 197.076 175.042 198.074C174.44 199.07 174.043 200.125 173.574 201.062C172.718 202.997 171.204 204.242 169.996 204.513C168.763 204.819 168.106 204.393 168.141 204.373C168.155 204.277 168.818 204.546 169.881 204.166C170.948 203.796 172.204 202.67 172.955 200.786C173.37 199.868 173.726 198.789 174.348 197.687C174.971 196.585 175.867 195.556 176.901 194.611C178.944 192.696 181.623 191.138 183.605 188.812C184.103 188.242 184.506 187.601 184.844 186.981C185.149 186.367 185.14 185.729 184.771 185.652C184.382 185.506 183.688 185.843 183.043 186.165C182.393 186.478 181.754 186.783 181.128 187.082C178.686 188.234 176.449 189.288 174.477 190.216C172.579 191.095 171.035 191.792 169.956 192.255C168.88 192.718 168.27 192.947 168.24 192.888Z" fill="#F39772"/>
<path d="M618.201 51.1249C618.199 51.3641 606.823 51.4966 592.792 51.4236C578.757 51.351 567.384 51.1001 567.386 50.8623C567.388 50.6245 578.763 50.4906 592.797 50.565C606.826 50.6362 618.203 50.8885 618.201 51.1249Z" fill="#141414"/>
<path d="M593.051 75.7578C592.807 75.7597 592.495 64.674 592.353 51C592.21 37.3209 592.292 26.2338 592.536 26.2319C592.78 26.2287 593.092 37.3125 593.234 50.9916C593.377 64.6656 593.293 75.756 593.051 75.7578Z" fill="#141414"/>
<path d="M644.998 420.875C644.888 421.086 637.905 417.827 629.403 413.592C620.898 409.359 614.097 405.754 614.207 405.542C614.319 405.331 621.301 408.592 629.803 412.826C638.305 417.06 645.11 420.663 644.998 420.875Z" fill="#141414"/>
<path d="M621.976 428.331C621.757 428.228 624.995 421.37 629.207 413.019C633.419 404.666 637.01 397.982 637.229 398.086C637.448 398.192 634.212 405.045 630 413.399C625.786 421.75 622.194 428.436 621.976 428.331Z" fill="#141414"/>
<path d="M36.5608 304.548C36.6511 304.769 28.5399 308.128 18.4453 312.048C8.34787 315.972 0.0910746 318.972 0.000747242 318.751C-0.0895802 318.531 8.02067 315.172 18.1181 311.251C28.2127 307.329 36.4709 304.328 36.5608 304.548Z" fill="#29383E"/>
<path d="M17.8533 293.809C17.7798 293.841 17.5645 293.327 16.9524 292.57C16.349 291.827 15.2386 290.842 13.5517 290.421C11.9051 289.978 9.63975 290.271 7.96005 291.767C6.2717 293.2 5.41839 295.891 6.40959 298.255C7.35851 300.637 9.87758 302.018 12.1141 301.926C14.3906 301.886 16.2404 300.578 17.124 299.154C18.0508 297.717 18.1613 296.258 18.0743 295.315C17.985 294.355 17.7784 293.836 17.8533 293.809C17.8889 293.793 18.2117 294.27 18.4154 295.27C18.612 296.249 18.6072 297.839 17.6582 299.468C16.7583 301.078 14.7288 302.627 12.1391 302.719C9.59939 302.874 6.67913 301.315 5.58992 298.574C4.44785 295.855 5.46547 292.764 7.41856 291.176C9.36397 289.507 11.9282 289.269 13.7184 289.835C15.5562 290.382 16.6819 291.531 17.2311 292.374C17.7889 293.236 17.8922 293.798 17.8533 293.809Z" fill="#29383E"/>
<path d="M30.5616 324.883C30.4881 324.916 30.2729 324.401 29.6603 323.644C29.0573 322.9 27.9465 321.916 26.2586 321.495C24.6135 321.054 22.3476 321.344 20.6674 322.843C18.9791 324.274 18.1258 326.965 19.1179 329.329C20.0664 331.711 22.5859 333.092 24.822 333C27.0989 332.962 28.9487 331.654 29.8308 330.229C30.7591 328.792 30.8686 327.332 30.7831 326.39C30.6933 325.428 30.4857 324.91 30.5616 324.883C30.5977 324.866 30.9191 325.344 31.1223 326.343C31.3198 327.323 31.3145 328.913 30.3661 330.541C29.4662 332.152 27.4367 333.701 24.847 333.793C22.3082 333.948 19.387 332.388 18.2978 329.648C17.1547 326.928 18.1738 323.839 20.1269 322.25C22.0709 320.581 24.6365 320.343 26.4267 320.91C28.265 321.455 29.3907 322.605 29.9385 323.447C30.4963 324.31 30.5996 324.873 30.5616 324.883Z" fill="#29383E"/>
<path d="M131.331 132.815C131.331 132.815 131.525 133.259 131.847 134.12C132.174 135.01 132.644 136.283 133.254 137.936C134.474 141.316 136.259 146.25 138.554 152.597L138.664 152.902L138.332 152.859C132.327 152.063 124.957 151.087 116.5 149.967L116.712 149.912C110.048 155.014 101.141 159.425 90.5938 161.024C87.969 161.439 85.2515 161.676 82.4744 161.703C81.0859 161.738 79.6853 161.599 78.2694 161.554C77.5617 161.52 76.8496 161.486 76.1352 161.452C75.4236 161.391 74.7159 161.255 74 161.159C68.256 160.507 62.4385 158.759 56.8743 156.13C51.3081 153.502 45.9879 149.91 41.3303 145.4C36.7034 140.867 32.779 135.414 29.9168 129.322C24.1561 117.173 22.9554 102.293 27.6255 88.6333C31.6609 76.4344 40.2627 66.306 50.5086 59.6743C55.6361 56.3058 61.3263 54.036 67.0361 52.5177L69.1857 51.9792L70.2576 51.7132L71.3478 51.553C72.7998 51.3381 74.2431 51.1231 75.6778 50.9119C77.123 50.7944 78.5677 50.7583 80 50.6787C81.4313 50.5551 82.8554 50.6393 84.2714 50.7218C85.682 50.8323 87.1018 50.7747 88.4802 51.0243C89.8635 51.2308 91.2371 51.4373 92.6017 51.6401C93.9642 51.8569 95.2745 52.2779 96.5986 52.5837L98.569 53.0792C99.2114 53.2825 99.8379 53.5269 100.469 53.7465C105.592 55.3556 110.153 57.9313 114.326 60.6507C122.528 66.357 128.713 73.5848 132.469 81.08C136.323 88.5443 138.029 96.0578 138.425 102.646C138.954 109.261 138.017 114.974 136.873 119.474C135.699 123.991 134.221 127.327 133.142 129.531C132.593 130.631 132.15 131.459 131.832 131.994C131.518 132.536 131.331 132.815 131.331 132.815C131.331 132.815 131.457 132.529 131.747 131.966C132.043 131.401 132.459 130.565 132.982 129.456C134.006 127.237 135.423 123.895 136.54 119.395C137.623 114.908 138.505 109.232 137.932 102.678C137.493 96.1486 135.759 88.7208 131.913 81.3563C128.164 73.9599 122.021 66.8426 113.907 61.2357C109.778 58.564 105.272 56.0347 100.215 54.4621C99.5915 54.2458 98.9721 54.006 98.3379 53.8079L96.3935 53.3237C95.0871 53.0249 93.7956 52.6118 92.4513 52.402C91.1055 52.2035 89.7501 52.004 88.3861 51.8021C87.0268 51.5596 85.6272 51.6204 84.2353 51.5132C82.8405 51.4341 81.4366 51.353 80.0236 51.48C78.6129 51.5596 77.1893 51.5975 75.7642 51.7146C74.3507 51.9262 72.9295 52.1393 71.4991 52.3524L70.4258 52.5144L69.3707 52.7786L67.2528 53.3106C61.6309 54.8157 56.0291 57.056 50.9833 60.3796C40.9003 66.9218 32.4349 76.8971 28.4629 88.9044C23.8663 102.351 25.0396 117.005 30.6981 128.974C33.5107 134.976 37.3688 140.352 41.9203 144.829C46.503 149.28 51.7395 152.828 57.2217 155.433C62.7018 158.037 68.4352 159.777 74.1014 160.436C74.8072 160.533 75.5048 160.669 76.2077 160.731C76.9135 160.766 77.615 160.803 78.3136 160.837C79.7108 160.885 81.0936 161.029 82.4648 160.997C85.2078 160.981 87.8921 160.756 90.4857 160.356C100.91 158.813 109.737 154.496 116.367 149.479L116.462 149.408L116.579 149.425C125.026 150.602 132.389 151.629 138.388 152.464L138.169 152.727C135.949 146.324 134.221 141.349 133.04 137.941C132.476 136.283 132.042 135.006 131.738 134.113C131.452 133.253 131.331 132.815 131.331 132.815Z" fill="#141414"/>
<path d="M84.6394 93.3287C85.4 93.6855 85.9246 94.4442 85.9256 95.3213L85.9246 106.324C85.9256 107.016 85.5926 107.669 85.0266 108.087C84.4606 108.503 83.727 108.638 83.0428 108.45C81.2511 107.958 79.2366 108.257 77.517 109.275C75.9334 110.211 74.8355 111.642 74.5045 113.2C74.1734 114.753 74.5924 116.506 75.6566 118.007C76.7953 119.615 78.5332 120.74 80.3152 121.016C83.9518 121.579 88.018 119.017 89.1937 115.419C89.5738 114.256 90.8484 113.613 92.0409 113.983C93.2527 114.365 93.8927 115.597 93.5136 116.76C91.6657 122.415 85.4245 126.283 79.6007 125.379C76.5825 124.912 73.7799 123.139 71.9258 120.517C70.1611 118.026 69.4841 115.032 70.0659 112.301C70.6516 109.547 72.5096 107.067 75.1646 105.498C77.0836 104.363 79.2505 103.785 81.3924 103.799L81.391 95.3213C81.3919 94.1004 82.4067 93.1109 83.6588 93.1123C84.0105 93.1123 84.342 93.19 84.6394 93.3287Z" fill="#379C60"/>
<path d="M81.5185 88.7032C81.4916 87.7052 82.3012 86.8759 83.3245 86.8492C84.3479 86.8248 85.1993 87.6125 85.2253 88.6105C85.2517 89.6084 84.4435 90.4378 83.4197 90.4626C82.3953 90.4888 81.5439 89.7007 81.5185 88.7032Z" fill="#379C60"/>
</svg>
