<svg width="118" height="94" viewBox="0 0 118 94" fill="none" xmlns="http://www.w3.org/2000/svg">
<path d="M30.4519 93.0462C30.4414 93.0364 30.4282 92.8713 30.4176 92.5584C30.4091 92.1969 30.3978 91.7489 30.3827 91.1887C30.3655 89.9282 30.3418 88.1805 30.3114 85.9542C30.2752 81.3517 30.2231 74.777 30.1565 66.5791C30.0938 50.0993 30.0074 27.1043 29.9059 0.716923L30.4519 1.22688C20.9675 1.23179 10.935 1.23547 0.621513 1.2416C1.73345 0.193475 0.928215 0.966681 1.17817 0.739013V4.20312C1.17817 5.36417 1.17617 6.51846 1.17617 7.66908C1.17617 9.96968 1.17418 12.2549 1.17418 14.52C1.17022 19.0481 1.16759 23.5015 1.16297 27.8609C1.14846 36.5779 1.13525 44.9274 1.12008 52.7859C1.06402 68.4722 1.01457 82.2072 0.971042 93.0444L0.614944 92.7148C9.91605 92.7909 17.3204 92.8535 22.4824 92.8959C24.9945 92.9315 26.9559 92.9578 28.3692 92.9775C28.9977 92.9922 29.5049 93.0039 29.9059 93.0119C30.2554 93.0235 30.4414 93.0339 30.4519 93.0462C30.4644 93.056 30.3049 93.0683 29.9771 93.08C29.5913 93.0879 29.1052 93.1002 28.5038 93.1143C27.1096 93.134 25.1732 93.1604 22.6941 93.1947C17.4819 93.2389 10.0071 93.299 0.614944 93.377L0.258781 93.3813V93.0444C0.217891 82.2072 0.16579 68.4722 0.110391 52.7859C0.0978598 44.9274 0.0820212 36.5779 0.0668524 27.8609C0.0648738 23.5015 0.0609065 19.0481 0.0562899 14.52C0.0562899 12.2549 0.0543577 9.96968 0.0543577 7.66908C0.0543577 6.51846 0.0543577 5.36417 0.0543577 4.20312V2.46033L0.0517171 1.58709V0.739013C0.306949 0.5003 -0.515487 1.23731 0.621513 0.195312C10.935 0.201449 20.9675 0.205137 30.4519 0.209433H31V0.716923C30.8991 27.2448 30.81 50.3626 30.748 66.932C30.6828 75.0789 30.6293 81.6125 30.5944 86.1892C30.564 88.3695 30.5384 90.0804 30.5212 91.3151C30.508 91.8496 30.4968 92.2791 30.4882 92.624C30.4757 92.9137 30.4644 93.056 30.4519 93.0462Z" fill="#1D302E"/>
<path d="M74.4386 92.9954C74.4164 92.9754 74.3956 92.597 74.3734 91.8879C74.3546 91.099 74.3316 90.0745 74.3025 88.7933C74.2663 86.0214 74.2143 82.1463 74.1503 77.3139C74.0843 67.4832 73.9912 53.769 73.8821 37.7823L74.4386 38.2673C64.6292 38.2776 53.9035 38.2879 42.7275 38.297C42.5892 38.4084 43.8468 37.3282 43.3167 37.7938V38.7747L43.3139 39.7689V41.7507C43.3139 43.0664 43.3139 44.376 43.3125 45.6754C43.3097 48.273 43.307 50.8366 43.3049 53.3584C43.2938 58.4027 43.2847 63.2787 43.2736 67.9482C43.2326 77.2624 43.1965 85.7301 43.1624 92.9936L42.7234 92.6109C52.3625 92.6981 60.2147 92.7671 65.7819 92.8173C68.4602 92.8567 70.5855 92.8882 72.1494 92.9118C72.8227 92.93 73.3771 92.9433 73.8321 92.9536C74.2184 92.9675 74.4226 92.9808 74.4386 92.9954C74.4706 93.0208 73.7411 93.0486 72.3203 93.0783C70.7787 93.1001 68.6874 93.1322 66.0529 93.174C60.419 93.223 52.4758 93.292 42.7234 93.3774L42.2843 93.3817V92.9936C42.2502 85.7301 42.2113 77.2624 42.171 67.9482C42.1613 63.2787 42.1523 58.4027 42.1412 53.3584C42.1391 50.8366 42.1369 48.273 42.1321 45.6754C42.1321 44.376 42.1321 43.0664 42.1321 41.7507L42.13 39.7689V37.7938C41.6048 38.2516 42.8484 37.1502 42.7275 37.267C53.9035 37.2767 64.6292 37.287 74.4386 37.2949L75 37.2967L74.9986 37.7823C74.8889 53.8997 74.7958 67.7266 74.7298 77.6384C74.6665 82.4248 74.6137 86.263 74.5776 89.007C74.5477 90.2471 74.5255 91.2401 74.5074 92.003C74.4866 92.6745 74.4616 93.0147 74.4386 92.9954Z" fill="#1D302E"/>
<path d="M117.451 93.0256C117.438 93.0159 117.429 92.8735 117.416 92.6054C117.408 92.2878 117.396 91.9023 117.382 91.4308C117.364 90.3355 117.342 88.8402 117.313 86.9418C117.276 82.9781 117.224 77.3395 117.16 70.2997C117.095 56.1192 117.005 36.3033 116.902 13.4222L117.451 13.9243C107.469 13.9298 96.726 13.9383 85.629 13.9438C86.7561 12.9011 85.9419 13.6683 86.1933 13.4405V16.3682C86.1919 17.348 86.1919 18.3253 86.1919 19.2984C86.1919 21.2475 86.1892 23.1802 86.1892 25.0994C86.1872 28.9367 86.1832 32.7122 86.1805 36.4199C86.1692 43.8269 86.1565 50.9522 86.1431 57.7062C86.093 71.1915 86.0468 83.19 86.0101 93.0238L85.625 92.672C95.4404 92.7532 103.332 92.8173 108.869 92.8632C111.558 92.9016 113.671 92.9297 115.198 92.9517C115.876 92.9676 116.424 92.9798 116.86 92.9896C117.239 93.0018 117.438 93.0134 117.451 93.0256C117.465 93.0372 117.289 93.0501 116.937 93.0617C116.517 93.0714 115.992 93.0831 115.343 93.0971C113.838 93.1197 111.755 93.1496 109.101 93.1875C103.51 93.2315 95.5387 93.2974 85.625 93.3793L85.2399 93.3811L85.2379 93.0238C85.2005 83.19 85.1544 71.1915 85.1022 57.7062C85.0908 50.9522 85.0801 43.8269 85.0668 36.4199C85.0648 32.7122 85.0607 28.9367 85.0581 25.0994C85.0581 23.1802 85.0561 21.2475 85.0561 19.2984C85.0561 18.3253 85.0561 17.348 85.0534 16.3682V13.4405C85.3102 13.2023 84.4785 13.9401 85.629 12.9023C96.726 12.9103 107.469 12.9146 117.451 12.9207L118 12.9225L117.998 13.4222C117.896 36.4419 117.806 56.3746 117.742 70.6436C117.678 77.6351 117.626 83.234 117.591 87.1696C117.561 89.0222 117.536 90.4809 117.521 91.5523C117.497 92.5419 117.473 93.0476 117.451 93.0256Z" fill="#1D302E"/>
</svg>
