<svg viewBox="0 0 742 680" fill="none" xmlns="http://www.w3.org/2000/svg">
<path d="M44.6129 678.701H128.889V374.071H44.6129V678.701Z" fill="#F4F4F4"/>
<path d="M501.246 677.02H585.522V475.375H501.246V677.02Z" fill="#F4F4F4"/>
<path d="M629.952 677.02H714.229V316.882H629.952V677.02Z" fill="#F4F4F4"/>
<path d="M358.472 677.02H442.748V329.955H358.472V677.02Z" fill="#F4F4F4"/>
<path d="M189.399 677.02H273.675V231.692H189.399V677.02Z" fill="#F4F4F4"/>
<path d="M629.952 32.7046C629.952 32.7046 629.545 33.1202 628.722 33.9053C627.886 34.698 626.657 35.8585 625.049 37.3832C621.794 40.4422 617.005 44.945 610.815 50.7624C598.388 62.3989 580.349 79.2907 557.854 100.358C512.791 142.463 449.884 201.242 378.45 267.986L378.135 268.283L377.852 267.957C363.747 251.735 349.008 234.781 333.978 217.496C293.622 171.051 255.344 127.001 221.372 87.9035L221.973 87.8715C182.025 145.519 148.259 194.248 124.469 228.579C112.56 245.718 103.15 259.259 96.7087 268.529C93.4862 273.145 91.008 276.693 89.3261 279.101C88.4896 280.289 87.8521 281.193 87.4153 281.812C86.9841 282.418 86.7512 282.718 86.7512 282.718C86.7512 282.718 86.9485 282.396 87.3639 281.78C87.7889 281.152 88.4094 280.238 89.2238 279.037C90.8837 276.614 93.3291 273.044 96.5092 268.403C102.909 259.106 112.259 245.527 124.092 228.34C147.822 193.969 181.502 145.184 221.346 87.4716L221.627 87.0685L221.949 87.4412C255.939 126.524 294.237 170.558 334.614 216.986C349.641 234.274 364.379 251.23 378.479 267.454L377.88 267.424C449.392 200.756 512.366 142.044 557.478 99.9865C580.047 78.9929 598.145 62.1591 610.611 50.5606C616.845 44.786 621.667 40.3152 624.944 37.279C626.576 35.7777 627.82 34.634 628.668 33.8532C629.509 33.0849 629.952 32.7046 629.952 32.7046Z" fill="#EBECEC"/>
<path d="M237.298 87.6717C237.298 95.9638 230.297 102.684 221.66 102.684C213.024 102.684 206.023 95.9638 206.023 87.6717C206.023 79.3801 213.024 72.6582 221.66 72.6582C230.297 72.6582 237.298 79.3801 237.298 87.6717Z" fill="#EBECEC"/>
<path d="M102.389 282.718C102.389 291.01 95.3873 297.73 86.7511 297.73C78.1138 297.73 71.1127 291.01 71.1127 282.718C71.1127 274.426 78.1138 267.705 86.7511 267.705C95.3873 267.705 102.389 274.426 102.389 282.718Z" fill="#EBECEC"/>
<path d="M393.804 267.705C393.804 275.997 386.802 282.718 378.165 282.718C369.53 282.718 362.528 275.997 362.528 267.705C362.528 259.414 369.53 252.693 378.165 252.693C386.802 252.693 393.804 259.414 393.804 267.705Z" fill="#EBECEC"/>
<path d="M653.578 26.9796C653.578 35.2717 646.579 41.9936 637.941 41.9936C629.304 41.9936 622.303 35.2717 622.303 26.9796C622.303 18.688 629.304 11.9678 637.941 11.9678C646.579 11.9678 653.578 18.688 653.578 26.9796Z" fill="#EBECEC"/>
<path d="M76.2934 82.685C67.9658 90.9668 68.2066 104.161 76.8332 112.155C85.4586 120.151 99.2015 119.918 107.529 111.638C115.856 103.356 115.615 90.1632 106.989 82.1674C98.3634 74.1737 84.6205 74.4054 76.2934 82.685ZM65.5074 56.8093C69.3335 54.5902 73.4055 52.9071 77.6068 51.7612L80.0981 40.2636L100.331 39.9229L103.244 51.3277C107.484 52.3314 111.616 53.8756 115.521 55.965L125.746 49.5301L140.305 63.0255L133.967 73.0598C136.279 76.733 138.032 80.6449 139.224 84.6784L151.199 87.07L151.554 106.495L139.675 109.291C138.63 113.361 137.021 117.326 134.845 121.076L141.547 130.894L127.492 144.871L117.037 138.786C113.211 141.005 109.138 142.688 104.937 143.832L102.444 155.33L82.2118 155.67L79.2989 144.266C75.0597 143.262 70.9284 141.717 67.0231 139.628L56.7972 146.063L42.2393 132.569L48.5775 122.533C46.2649 118.86 44.5112 114.95 43.3187 110.916L31.3442 108.523L30.9893 89.0982L42.8694 86.3018C43.9144 82.233 45.5234 78.2652 47.6987 74.5171L40.9965 64.6993L55.0514 50.7227L65.5074 56.8093Z" fill="#EBECEC"/>
<path d="M412.854 53.8777C402.503 64.1691 402.802 80.5678 413.524 90.5044C424.244 100.439 441.324 100.152 451.675 89.8582C462.024 79.5673 461.724 63.1686 451.004 53.2331C440.284 43.2965 423.203 43.5851 412.854 53.8777ZM399.447 21.7152C404.202 18.9573 409.265 16.8641 414.484 15.4414L417.581 1.15177L442.73 0.728027L446.349 14.9038C451.619 16.1495 456.755 18.068 461.608 20.6658L474.318 12.6673L492.412 29.4403L484.535 41.9124C487.408 46.4792 489.588 51.3406 491.069 56.3534L505.952 59.3256L506.394 83.4694L491.629 86.9441C490.331 92.003 488.331 96.9311 485.626 101.591L493.956 113.795L476.487 131.165L463.494 123.602C458.738 126.362 453.675 128.452 448.453 129.875L445.356 144.166L420.208 144.588L416.589 130.412C411.32 129.166 406.184 127.246 401.33 124.649L388.621 132.648L370.528 115.875L378.406 103.402C375.531 98.8361 373.351 93.9774 371.869 88.9635L356.986 85.9897L356.544 61.8475L371.31 58.3707C372.608 53.3139 374.61 48.3836 377.313 43.724L368.983 31.5227L386.451 14.1507L399.447 21.7152Z" fill="#F4F4F4"/>
<path d="M167.9 22.3816C163.541 26.7162 163.666 33.6225 168.181 37.8074C172.696 41.9906 179.889 41.8701 184.248 37.535C188.607 33.2009 188.48 26.2957 183.966 22.1108C179.451 17.926 172.257 18.0481 167.9 22.3816ZM162.253 8.83847C164.256 7.67628 166.389 6.79515 168.587 6.19616L169.892 0.178508L180.481 0L182.005 5.96881C184.225 6.49402 186.387 7.30191 188.43 8.39573L193.784 5.028L201.404 12.0917L198.086 17.3443C199.297 19.2672 200.214 21.3138 200.838 23.4244L207.106 24.6766L207.292 34.8439L201.073 36.3072C200.527 38.4378 199.685 40.5137 198.546 42.4762L202.053 47.6143L194.697 54.9298L189.226 51.7438C187.223 52.9066 185.091 53.7877 182.891 54.3861L181.586 60.4043L170.998 60.5828L169.473 54.614C167.254 54.0883 165.092 53.2793 163.048 52.1855L157.695 55.5548L150.075 48.4911L153.392 43.2385C152.182 41.3156 151.265 39.2685 150.641 37.1579L144.372 35.9057L144.187 25.7384L150.405 24.2751C150.952 22.1445 151.795 20.0691 152.932 18.1067L149.424 12.9685L156.78 5.6525L162.253 8.83847Z" fill="#F4F4F4"/>
<path d="M663.2 133.893C657.306 139.755 657.476 149.093 663.582 154.753C669.688 160.412 679.417 160.247 685.311 154.385C691.205 148.525 691.035 139.184 684.929 133.525C678.823 127.868 669.095 128.031 663.2 133.893ZM655.565 115.576C658.274 114.005 661.156 112.813 664.129 112.002L665.894 103.864L680.217 103.623L682.277 111.696C685.279 112.405 688.203 113.499 690.968 114.978L698.207 110.423L708.511 119.974L704.025 127.08C705.662 129.679 706.903 132.448 707.748 135.303L716.222 136.997L716.475 150.746L708.066 152.725C707.326 155.606 706.187 158.414 704.647 161.068L709.391 168.016L699.441 177.911L692.042 173.604C689.333 175.173 686.45 176.365 683.477 177.176L681.712 185.313L667.389 185.555L665.329 177.481C662.327 176.771 659.403 175.677 656.64 174.199L649.401 178.755L639.095 169.202L643.581 162.099C641.945 159.499 640.703 156.731 639.86 153.875L631.382 152.181L631.131 138.432L639.54 136.453C640.28 133.571 641.421 130.763 642.959 128.11L638.215 121.162L648.165 111.267L655.565 115.576Z" fill="#F4F4F4"/>
<path d="M742 679.105C741.943 679.321 581 679.497 380.594 679.502H371.019H361.441C160.93 679.497 0 679.321 0 679.105C0 678.886 166.079 678.707 371.019 678.707C575.849 678.707 741.942 678.886 742 679.105Z" fill="#29383E"/>
<path d="M485.704 679.105H616.286C618.78 679.105 620.753 677.074 620.577 674.685L614.059 585.964C613.9 583.805 612.031 582.129 609.775 582.126L489.896 581.962C487.594 581.96 485.696 583.698 485.593 585.905L481.407 674.789C481.298 677.14 483.253 679.105 485.704 679.105Z" fill="#253E3C"/>
<path d="M503.72 679.105C503.922 679.105 504.084 657.395 504.084 630.62C504.084 603.837 503.922 582.131 503.72 582.131C503.519 582.131 503.355 603.837 503.355 630.62C503.355 657.395 503.519 679.105 503.72 679.105Z" fill="#191919"/>
<path d="M505.266 584.431C505.255 584.437 505.322 584.558 505.462 584.785C505.627 585.045 505.837 585.375 506.1 585.787C506.703 586.699 507.548 587.974 508.62 589.597C510.84 592.883 514.064 597.641 518.415 603.279C522.81 608.864 528.326 615.421 535.751 621.421C539.449 624.423 543.64 627.228 548.284 629.644C552.941 632.001 558.187 633.881 563.823 634.316C569.467 634.768 574.973 633.549 579.857 631.65C584.751 629.722 589.142 627.132 592.909 624.194C600.456 618.278 605.442 611.124 608.492 604.757C611.563 598.35 612.656 592.666 613.106 588.783C613.195 587.803 613.298 586.937 613.341 586.183C613.351 585.44 613.36 584.803 613.367 584.272C613.367 583.788 613.367 583.4 613.367 583.098C613.362 582.833 613.354 582.698 613.341 582.698C613.328 582.698 613.312 582.833 613.291 583.098C613.273 583.4 613.249 583.785 613.22 584.268C613.194 584.798 613.161 585.431 613.125 586.169C613.06 586.919 612.934 587.781 612.824 588.75C612.289 592.603 611.127 598.226 608.024 604.549C604.943 610.832 599.963 617.88 592.486 623.692C588.755 626.58 584.417 629.123 579.588 631.014C574.774 632.876 569.381 634.061 563.881 633.618C558.382 633.195 553.219 631.359 548.617 629.038C544.024 626.658 539.861 623.891 536.182 620.928C528.795 615.003 523.261 608.512 518.825 602.982C514.435 597.396 511.149 592.685 508.857 589.447C507.735 587.855 506.854 586.604 506.222 585.709C505.934 585.312 505.705 584.996 505.526 584.746C505.365 584.532 505.277 584.425 505.266 584.431Z" fill="#191919"/>
<path d="M559.304 634.396C559.304 637.573 561.989 640.148 565.297 640.148C568.606 640.148 571.29 637.573 571.29 634.396C571.29 631.218 568.606 628.643 565.297 628.643C561.989 628.643 559.304 631.218 559.304 634.396Z" fill="#191919"/>
<path d="M524.241 564.064C526.748 561.834 530.273 561.009 533.673 560.685C541.875 559.905 550.901 561.542 558.068 565.449C565.236 569.356 570.509 575.864 574.012 583.025L569.305 587.756C567.38 580.31 563.085 573.828 556.417 569.597C549.751 565.367 542.667 563.428 534.776 564.645C532.964 564.926 530.399 565.576 528.894 566.587C525.816 568.655 525.343 571.06 525.888 574.129C526.691 578.665 527.879 580.638 529.901 583.071C526.435 583.149 525.627 583.167 522.16 583.245C521.285 579.967 520.403 576.64 520.466 573.255C520.529 569.871 521.654 566.363 524.241 564.064Z" fill="#253E3C"/>
<path d="M343.615 651.279H393.121V632.554H343.615V651.279Z" fill="#FAFAFA"/>
<path d="M341.554 633.261H497.029V629.338H341.554V633.261Z" fill="#379C60"/>
<path d="M342.274 654.365H497.028V650.443H342.274V654.365Z" fill="#379C60"/>
<path d="M393.121 630.272L393.355 653.618H497.029V630.272H393.121Z" fill="#379C60"/>
<path d="M418.318 641.92C418.318 645.13 415.809 647.731 412.713 647.731C409.62 647.731 407.11 645.13 407.11 641.92C407.11 638.712 409.62 636.111 412.713 636.111C415.809 636.111 418.318 638.712 418.318 641.92Z" fill="#191919"/>
<path d="M412.713 636.946C410.103 636.946 407.98 639.177 407.98 641.92C407.98 644.663 410.103 646.897 412.713 646.897C415.322 646.897 417.448 644.663 417.448 641.92C417.448 639.177 415.322 636.946 412.713 636.946ZM412.713 648.566C409.145 648.566 406.24 645.585 406.24 641.92C406.24 638.257 409.145 635.277 412.713 635.277C416.283 635.277 419.187 638.257 419.187 641.92C419.187 645.585 416.283 648.566 412.713 648.566Z" fill="#DEDDE1"/>
<path d="M389.4 646.686C389.4 646.927 379.228 647.122 366.684 647.122C354.135 647.122 343.965 646.927 343.965 646.686C343.965 646.447 354.135 646.253 366.684 646.253C379.228 646.253 389.4 646.447 389.4 646.686Z" fill="#191919"/>
<path d="M389.4 643.425C389.4 643.666 379.228 643.861 366.684 643.861C354.135 643.861 343.965 643.666 343.965 643.425C343.965 643.185 354.135 642.991 366.684 642.991C379.228 642.991 389.4 643.185 389.4 643.425Z" fill="#191919"/>
<path d="M389.4 640.164C389.4 640.403 379.228 640.599 366.684 640.599C354.135 640.599 343.965 640.403 343.965 640.164C343.965 639.925 354.135 639.729 366.684 639.729C379.228 639.729 389.4 639.925 389.4 640.164Z" fill="#191919"/>
<path d="M389.4 636.902C389.4 637.141 379.228 637.337 366.684 637.337C354.135 637.337 343.965 637.141 343.965 636.902C343.965 636.661 354.135 636.468 366.684 636.468C379.228 636.468 389.4 636.661 389.4 636.902Z" fill="#191919"/>
<path d="M438.812 647.731H485.531V635.237H438.812V647.731Z" fill="#FEFEFE"/>
<path d="M446.089 646.46C445.839 646.46 445.637 644.232 445.637 641.483C445.637 638.734 445.839 636.505 446.089 636.505C446.339 636.505 446.542 638.734 446.542 641.483C446.542 644.232 446.339 646.46 446.089 646.46Z" fill="#DEDDE1"/>
<path d="M452.267 646.46C452.017 646.46 451.813 644.232 451.813 641.483C451.813 638.734 452.017 636.505 452.267 636.505C452.517 636.505 452.72 638.734 452.72 641.483C452.72 644.232 452.517 646.46 452.267 646.46Z" fill="#DEDDE1"/>
<path d="M458.444 646.46C458.194 646.46 457.991 644.232 457.991 641.483C457.991 638.734 458.194 636.505 458.444 636.505C458.694 636.505 458.898 638.734 458.898 641.483C458.898 644.232 458.694 646.46 458.444 646.46Z" fill="#DEDDE1"/>
<path d="M464.621 646.46C464.372 646.46 464.168 644.232 464.168 641.483C464.168 638.734 464.372 636.505 464.621 636.505C464.871 636.505 465.075 638.734 465.075 641.483C465.075 644.232 464.871 646.46 464.621 646.46Z" fill="#DEDDE1"/>
<path d="M470.799 646.46C470.549 646.46 470.346 644.232 470.346 641.483C470.346 638.734 470.549 636.505 470.799 636.505C471.049 636.505 471.252 638.734 471.252 641.483C471.252 644.232 471.049 646.46 470.799 646.46Z" fill="#DEDDE1"/>
<path d="M476.977 646.46C476.727 646.46 476.523 644.232 476.523 641.483C476.523 638.734 476.727 636.505 476.977 636.505C477.226 636.505 477.43 638.734 477.43 641.483C477.43 644.232 477.226 646.46 476.977 646.46Z" fill="#DEDDE1"/>
<path d="M350.194 675.617H399.699V656.891H350.194V675.617Z" fill="#FAFAFA"/>
<path d="M348.13 657.597H503.605V653.675H348.13V657.597Z" fill="#9EBEA9"/>
<path d="M348.851 678.702H503.605V674.779H348.851V678.702Z" fill="#9EBEA9"/>
<path d="M399.698 654.609L399.932 677.955H503.605V654.609H399.698Z" fill="#9EBEA9"/>
<path d="M424.895 666.259C424.895 669.467 422.387 672.068 419.291 672.068C416.196 672.068 413.687 669.467 413.687 666.259C413.687 663.05 416.196 660.448 419.291 660.448C422.387 660.448 424.895 663.05 424.895 666.259Z" fill="#191919"/>
<path d="M419.291 661.284C416.679 661.284 414.556 663.515 414.556 666.259C414.556 669.002 416.679 671.233 419.291 671.233C421.901 671.233 424.025 669.002 424.025 666.259C424.025 663.515 421.901 661.284 419.291 661.284ZM419.291 672.902C415.72 672.902 412.817 669.921 412.817 666.259C412.817 662.595 415.72 659.614 419.291 659.614C422.86 659.614 425.763 662.595 425.763 666.259C425.763 669.921 422.86 672.902 419.291 672.902Z" fill="#DEDDE1"/>
<path d="M395.978 671.024C395.978 671.264 385.807 671.458 373.262 671.458C360.713 671.458 350.542 671.264 350.542 671.024C350.542 670.785 360.713 670.589 373.262 670.589C385.807 670.589 395.978 670.785 395.978 671.024Z" fill="#191919"/>
<path d="M395.978 667.763C395.978 668.003 385.807 668.198 373.262 668.198C360.713 668.198 350.542 668.003 350.542 667.763C350.542 667.523 360.713 667.329 373.262 667.329C385.807 667.329 395.978 667.523 395.978 667.763Z" fill="#191919"/>
<path d="M395.978 664.502C395.978 664.742 385.807 664.936 373.262 664.936C360.713 664.936 350.542 664.742 350.542 664.502C350.542 664.261 360.713 664.067 373.262 664.067C385.807 664.067 395.978 664.261 395.978 664.502Z" fill="#191919"/>
<path d="M395.978 661.24C395.978 661.48 385.807 661.674 373.262 661.674C360.713 661.674 350.542 661.48 350.542 661.24C350.542 661 360.713 660.805 373.262 660.805C385.807 660.805 395.978 661 395.978 661.24Z" fill="#191919"/>
<path d="M445.389 672.068H492.108V659.574H445.389V672.068Z" fill="#FEFEFE"/>
<path d="M452.666 670.8C452.416 670.8 452.214 668.569 452.214 665.822C452.214 663.071 452.416 660.845 452.666 660.845C452.917 660.845 453.12 663.071 453.12 665.822C453.12 668.569 452.917 670.8 452.666 670.8Z" fill="#DEDDE1"/>
<path d="M458.843 670.8C458.594 670.8 458.392 668.569 458.392 665.822C458.392 663.071 458.594 660.845 458.843 660.845C459.095 660.845 459.297 663.071 459.297 665.822C459.297 668.569 459.095 670.8 458.843 670.8Z" fill="#DEDDE1"/>
<path d="M465.021 670.8C464.771 670.8 464.569 668.569 464.569 665.822C464.569 663.071 464.771 660.845 465.021 660.845C465.271 660.845 465.474 663.071 465.474 665.822C465.474 668.569 465.271 670.8 465.021 670.8Z" fill="#DEDDE1"/>
<path d="M471.198 670.8C470.949 670.8 470.746 668.569 470.746 665.822C470.746 663.071 470.949 660.845 471.198 660.845C471.448 660.845 471.652 663.071 471.652 665.822C471.652 668.569 471.448 670.8 471.198 670.8Z" fill="#DEDDE1"/>
<path d="M477.376 670.8C477.126 670.8 476.924 668.569 476.924 665.822C476.924 663.071 477.126 660.845 477.376 660.845C477.626 660.845 477.829 663.071 477.829 665.822C477.829 668.569 477.626 670.8 477.376 670.8Z" fill="#DEDDE1"/>
<path d="M483.554 670.8C483.304 670.8 483.102 668.569 483.102 665.822C483.102 663.071 483.304 660.845 483.554 660.845C483.803 660.845 484.007 663.071 484.007 665.822C484.007 668.569 483.803 670.8 483.554 670.8Z" fill="#DEDDE1"/>
<path d="M298.581 207.935L285.769 205.471C277.154 210.111 266.988 212.359 256.276 211.301C231.016 208.801 211.523 187.861 211.709 163.482C211.923 135.313 237.284 113.358 266.689 116.286C291.651 118.771 311.01 139.243 311.216 163.335C311.322 175.292 306.883 186.156 299.523 194.541L299.545 194.524L298.581 207.935Z" fill="#FEFEFE"/>
<path d="M298.581 207.934C298.581 207.934 298.584 207.615 298.614 207.027C298.649 206.407 298.696 205.544 298.758 204.432C298.898 202.137 299.102 198.81 299.365 194.513L299.649 194.67L299.627 194.685L299.373 194.642L299.383 194.427C303.294 189.889 307.779 183.059 309.804 173.857C310.831 169.282 311.166 164.175 310.606 158.793C310 153.421 308.35 147.799 305.486 142.404C302.601 137.028 298.47 131.915 293.208 127.65C287.955 123.406 281.578 119.924 274.423 118.137C267.301 116.295 259.507 115.976 251.859 117.391C244.19 118.76 236.767 122.152 230.469 127.058C227.207 129.466 224.501 132.425 221.991 135.438C220.856 137.031 219.693 138.608 218.701 140.261L217.315 142.794L216.632 144.058L216.084 145.377C213.013 152.348 211.849 159.83 212.286 166.964C212.689 174.125 215.045 180.871 218.391 186.691C221.763 192.521 226.246 197.428 231.231 201.197C236.237 204.955 241.712 207.592 247.118 209.193C248.487 209.531 249.835 209.863 251.16 210.19C252.492 210.487 253.836 210.615 255.135 210.83C257.745 211.221 260.302 211.295 262.739 211.259C272.555 211.066 280.366 208.127 285.681 205.323L285.804 205.304C289.876 206.131 293.046 206.774 295.238 207.219C296.299 207.441 297.122 207.612 297.716 207.736C298.28 207.856 298.581 207.934 298.581 207.934C298.581 207.934 298.318 207.904 297.769 207.811C297.18 207.707 296.365 207.563 295.317 207.378C293.089 206.975 289.87 206.39 285.734 205.639L285.855 205.619C280.541 208.51 272.68 211.551 262.753 211.812C260.287 211.864 257.702 211.805 255.057 211.424C253.739 211.213 252.377 211.09 251.024 210.797C249.681 210.473 248.312 210.142 246.921 209.807C241.433 208.21 235.866 205.558 230.771 201.762C225.696 197.954 221.127 192.987 217.681 187.069C214.264 181.165 211.852 174.307 211.429 167.019C210.969 159.76 212.144 152.146 215.264 145.045L215.822 143.701L216.516 142.414C216.986 141.557 217.455 140.697 217.926 139.834C218.936 138.149 220.117 136.544 221.273 134.922C223.825 131.851 226.584 128.84 229.901 126.386C236.315 121.392 243.877 117.943 251.685 116.553C259.476 115.117 267.403 115.453 274.65 117.339C281.93 119.173 288.406 122.727 293.733 127.055C299.07 131.402 303.248 136.608 306.156 142.076C309.042 147.562 310.689 153.276 311.275 158.726C311.815 164.184 311.443 169.353 310.373 173.974C308.257 183.272 303.662 190.132 299.664 194.655L299.42 194.396L299.443 194.381L299.697 194.423L299.729 194.538C299.371 198.874 299.093 202.234 298.901 204.549C298.805 205.643 298.729 206.488 298.675 207.097C298.623 207.664 298.581 207.934 298.581 207.934Z" fill="#29383E"/>
<path d="M239.402 166.883L245.635 160.478L258.454 170.691L282.083 147.328L288.293 153.325L257.956 182.668L239.402 166.883Z" fill="#379C60"/>
<path d="M644.183 127.646H603.681L485.496 195.933C485.939 196.572 499.888 206.257 518.11 218.764L346.963 521.294L203.73 460.563L76.9044 679.396H146.206L233.593 526.148L365.034 584.603L420.75 590.988L571.582 255.278C590.534 268.178 605.092 278.053 605.092 278.053H645.594C645.594 278.053 633.783 182.884 633.783 182.128C633.783 181.372 644.183 127.646 644.183 127.646Z" fill="#ED7068"/>
<path d="M117.907 679.396H76.9044L143.331 564.778L168.168 581.907L229.602 485.796L117.907 679.396Z" fill="#253E3C"/>
<path d="M420.75 590.989L365.034 584.604L273.676 543.976L266.301 540.695L274.594 526.149L420.752 590.989H420.75ZM387.965 521.294L355.114 506.883L355.344 506.479C362.506 508.318 369.49 509.393 375.08 509.393C378.623 509.392 381.61 508.961 383.727 508.02C396.165 502.49 415.159 469.504 415.159 469.504L418.641 467.067L387.965 521.294Z" fill="#253E3C"/>
<path d="M456.077 400.895C474.369 363.052 491.17 322.824 487.262 309.231C485.308 302.437 480.874 297.727 475.815 293.525L518.109 218.764C499.887 206.257 485.938 196.572 485.496 195.933L603.681 127.646H644.182C644.182 127.646 641.693 140.507 639.148 153.732C636.495 167.539 633.783 181.743 633.783 182.128C633.783 182.884 645.594 278.053 645.594 278.053H605.092C605.092 278.053 602.743 276.459 598.704 273.716L626.829 223.572L572.027 195.933L456.075 400.896L456.077 400.895Z" fill="#253E3C"/>
<path d="M117.907 679.397L245.24 458.687L387.966 521.294L572.027 195.934L626.829 223.573L420.753 590.989L274.594 526.149L187.207 679.397H117.907Z" fill="#379C60"/>
<path d="M525.996 195.933C527.3 197.812 645.594 278.053 645.594 278.053L644.183 127.646L525.996 195.933Z" fill="#379C60"/>
<path d="M525.995 195.934C525.995 196.154 516.929 196.331 505.746 196.331C494.561 196.331 485.496 196.154 485.496 195.934C485.496 195.714 494.561 195.535 505.746 195.535C516.929 195.535 525.995 195.714 525.995 195.934Z" fill="#29383E"/>
<path d="M557.636 219.398C557.636 219.618 548.569 219.797 537.386 219.797C526.201 219.797 517.136 219.618 517.136 219.398C517.136 219.178 526.201 219.001 537.386 219.001C548.569 219.001 557.636 219.178 557.636 219.398Z" fill="#29383E"/>
<path d="M253.462 355.624C253.462 355.624 251.006 356.65 250.62 353.499C250.235 350.348 257.075 343.79 259.262 341.708C261.45 339.625 264.576 340.073 267.349 340.665C270.123 341.259 281.48 342.357 285.245 344.679C289.013 347 294.78 358.646 295.982 359.199C297.185 359.752 332.608 361.525 332.608 361.525L331.084 389.398C331.084 389.398 296.316 383.038 289.431 378.903C282.545 374.769 283.451 373.122 281.492 369.265C279.536 365.408 277.434 361.313 277.434 361.313L274.18 360.795L268.962 363.559C268.962 363.559 268.347 370.634 263.183 370.455L260.651 369.176C260.651 369.176 258.962 371.05 257.038 368.152C255.114 365.255 255.479 364.714 255.479 364.714C255.479 364.714 253.456 367.118 251.268 364.137C249.081 361.156 253.462 355.624 253.462 355.624Z" fill="#F7B8A0"/>
<path d="M291.625 367.456C291.629 367.477 291.499 367.517 291.241 367.572C290.985 367.631 290.593 367.679 290.086 367.68C289.076 367.691 287.547 367.451 285.918 366.542C284.297 365.658 282.595 364.067 281.503 361.843C280.379 359.634 279.828 356.916 279.671 354.034L280.234 354.362C277.905 355.397 275.16 356.062 272.289 356.158C270.271 356.231 268.296 356.016 266.45 355.569C265.569 355.318 264.549 355.188 263.781 354.377C263.372 353.992 263.275 353.19 263.69 352.737C264.069 352.285 264.546 352.125 264.942 351.964C268.13 350.724 271.06 349.757 273.547 349.03C276.032 348.3 278.073 347.807 279.489 347.498C280.907 347.193 281.701 347.069 281.713 347.119C281.726 347.176 280.959 347.4 279.57 347.798C278.183 348.197 276.175 348.77 273.725 349.565C271.276 350.357 268.383 351.371 265.233 352.641C264.848 352.792 264.482 352.963 264.312 353.186C264.15 353.404 264.159 353.644 264.382 353.884C264.845 354.405 265.766 354.589 266.647 354.812C268.422 355.232 270.321 355.434 272.259 355.363C275.021 355.271 277.658 354.645 279.903 353.667L280.439 353.435L280.465 353.995C280.594 356.819 281.091 359.442 282.119 361.564C283.116 363.701 284.664 365.226 286.177 366.132C287.69 367.051 289.125 367.353 290.096 367.424C291.076 367.491 291.615 367.395 291.625 367.456Z" fill="#7F493E"/>
<path d="M273.692 348.343C273.758 348.425 272.495 349.08 270.348 348.967C269.293 348.955 268.051 348.785 266.736 348.868C265.397 348.926 264.143 349.471 263.111 350.619C260.958 352.927 258.382 354.452 256.445 355.228C254.492 356.019 253.182 356.181 253.161 356.094C253.124 355.969 254.364 355.616 256.197 354.72C258.029 353.825 260.407 352.323 262.514 350.066C263.069 349.514 263.69 348.948 264.452 348.628C265.193 348.29 265.976 348.167 266.692 348.137C268.135 348.091 269.36 348.328 270.383 348.405C272.435 348.654 273.643 348.228 273.692 348.343Z" fill="#7F493E"/>
<path d="M266.391 355.77C266.585 355.832 265.154 358.967 261.876 361.641C258.625 364.346 255.18 365.229 255.145 365.037C255.047 364.809 258.227 363.632 261.337 361.038C264.477 358.482 266.173 355.642 266.391 355.77Z" fill="#7F493E"/>
<path d="M267.667 360.044C267.874 360.066 267.408 362.81 265.335 365.504C263.285 368.217 260.702 369.474 260.618 369.291C260.476 369.09 262.732 367.605 264.665 365.034C266.631 362.489 267.427 359.975 267.667 360.044Z" fill="#7F493E"/>
<path d="M374.653 301.302L342.954 356.215L293.754 355.401L290.056 383.766L340.827 395.718L361.729 373.681L374.653 301.302Z" fill="#DEDDE1"/>
<path d="M346.909 365.532C346.664 365.553 346.358 363.295 345.259 360.745C344.187 358.184 342.763 356.364 342.954 356.215C343.102 356.068 344.891 357.746 346.026 360.444C347.181 363.135 347.122 365.536 346.909 365.532Z" fill="#29383E"/>
<path d="M386.707 204.109C382.696 204.619 378.518 201.857 377.586 198.079C376.652 194.299 379.096 190.031 382.919 188.76C380.372 186.344 379.669 182.323 381.255 179.241C382.839 176.16 386.595 174.253 390.14 174.726C390.223 171.334 392.27 168.047 395.345 166.372C398.419 164.697 402.41 164.696 405.486 166.369C409.326 163.088 415.619 162.856 419.71 165.844C423.131 165.175 426.906 166.865 428.573 169.808C430.24 172.753 429.664 176.713 427.219 179.105L386.707 204.109Z" fill="#191919"/>
<path d="M421.635 173.636L419.82 173.671C401.566 174.008 386.643 187.747 385.53 205.242C384.493 221.514 383.565 239.504 383.851 248.218C384.448 266.261 403.306 268.718 403.306 268.718L402.154 290.428L404.385 306.978L447.75 288.223L450.2 209.513C451.504 190.743 441.215 174.369 421.635 173.636Z" fill="#F7B8A0"/>
<path d="M403.151 268.694C403.151 268.694 415.17 269.165 427.642 261.315C427.642 261.315 421.817 275.29 403.026 274.013L403.151 268.694Z" fill="#7F493E"/>
<path d="M391.633 223.637C391.609 225 392.792 226.14 394.273 226.189C395.751 226.238 396.97 225.177 396.992 223.814C397.016 222.452 395.834 221.31 394.355 221.261C392.873 221.212 391.655 222.277 391.633 223.637Z" fill="#191919"/>
<path d="M389.749 213.997C390.088 214.327 392.092 212.843 394.981 212.797C397.865 212.71 400.015 214.099 400.321 213.754C400.473 213.6 400.121 212.999 399.185 212.371C398.263 211.745 396.701 211.149 394.902 211.19C393.102 211.233 391.602 211.896 390.744 212.564C389.869 213.236 389.581 213.849 389.749 213.997Z" fill="#191919"/>
<path d="M416.098 223.061C416.074 224.422 417.257 225.563 418.739 225.611C420.216 225.66 421.435 224.599 421.457 223.237C421.481 221.876 420.297 220.732 418.82 220.683C417.338 220.634 416.12 221.698 416.098 223.061Z" fill="#191919"/>
<path d="M418.154 213.986C418.494 214.316 420.501 212.833 423.388 212.787C426.272 212.701 428.422 214.088 428.727 213.742C428.879 213.589 428.53 212.988 427.591 212.36C426.669 211.734 425.108 211.139 423.308 211.18C421.509 211.223 420.008 211.887 419.15 212.553C418.278 213.224 417.987 213.838 418.154 213.986Z" fill="#191919"/>
<path d="M408.086 234.749C408.095 234.59 406.294 234.325 403.377 234.023C402.638 233.963 401.937 233.835 401.804 233.354C401.618 232.845 401.912 232.077 402.253 231.246C402.912 229.52 403.601 227.709 404.325 225.812C407.2 218.079 409.265 211.726 408.94 211.617C408.614 211.509 406.021 217.688 403.146 225.422C402.455 227.33 401.793 229.148 401.167 230.886C400.903 231.697 400.442 232.617 400.839 233.673C401.049 234.199 401.598 234.573 402.074 234.686C402.549 234.816 402.964 234.816 403.329 234.829C406.261 234.927 408.077 234.906 408.086 234.749Z" fill="#191919"/>
<path d="M415.434 203.361C415.829 204.056 418.288 203.249 421.335 203.097C424.376 202.88 426.957 203.384 427.221 202.648C427.334 202.297 426.781 201.677 425.669 201.133C424.569 200.59 422.904 200.186 421.079 200.296C419.254 200.408 417.679 201.008 416.691 201.677C415.692 202.347 415.258 203.028 415.434 203.361Z" fill="#191919"/>
<path d="M389.378 202.563C389.999 203.182 392.369 202.484 395.236 202.399C398.099 202.235 400.54 202.723 401.086 202.054C401.324 201.73 400.928 201.106 399.856 200.53C398.8 199.956 397.04 199.502 395.07 199.586C393.102 199.673 391.407 200.277 390.422 200.939C389.423 201.606 389.103 202.261 389.378 202.563Z" fill="#191919"/>
<path d="M387.17 196.932C387.17 196.932 391.9 185.538 397.523 182.795C404.331 179.474 407.436 186.66 413.95 184.782C420.463 182.902 426.962 179.716 433.751 184.452C441.186 189.636 437.829 193.431 438.443 201.431C440.933 233.861 447.293 242.927 448.741 227.603C448.9 225.924 453.716 224.501 454.292 217.41C455.037 208.214 455.18 197.063 452.915 190.589C451.005 185.133 447.668 181.4 441.736 177.327C432.374 170.897 419.692 170.992 411.1 171.983C402.508 172.974 386.099 182.795 387.17 196.932Z" fill="#191919"/>
<path d="M447.534 227.134C447.596 224.347 450.051 222.101 452.948 222.311C456.46 222.566 460.399 224.404 460.309 231.364C460.146 243.709 447.27 241.007 447.252 240.653C447.239 240.412 447.417 232.3 447.534 227.134Z" fill="#F7B8A0"/>
<path d="M450.111 236.042C450.169 236.002 450.334 236.194 450.709 236.366C451.077 236.532 451.71 236.653 452.383 236.419C453.748 235.958 454.919 233.901 455.011 231.675C455.059 230.553 454.827 229.48 454.424 228.59C454.042 227.681 453.443 227.043 452.762 226.917C452.082 226.759 451.592 227.147 451.432 227.492C451.254 227.834 451.333 228.081 451.264 228.102C451.228 228.133 450.991 227.892 451.1 227.383C451.158 227.139 451.312 226.851 451.618 226.617C451.93 226.378 452.385 226.261 452.86 226.317C453.851 226.395 454.731 227.281 455.175 228.259C455.673 229.242 455.959 230.448 455.907 231.709C455.792 234.196 454.435 236.508 452.569 237.001C451.661 237.217 450.91 236.946 450.525 236.649C450.13 236.341 450.067 236.063 450.111 236.042Z" fill="#7F493E"/>
<path d="M446.8 203.233C445.154 204.359 443.411 205.52 441.406 205.747C439.398 205.976 437.075 204.91 436.698 203.004C436.528 202.148 436.727 201.147 436.125 200.495C435.408 199.716 434.117 199.988 433.042 200.118C429.313 200.566 424.868 196.687 423.847 193.214C422.92 194.603 420.842 195.054 419.381 194.189C417.922 193.324 417.386 192.825 416.231 191.604C415.077 190.384 413.47 189.304 411.778 189.567C410.829 189.715 409.952 190.274 408.994 190.211C407.303 190.099 406.44 188.216 406.153 186.613C405.865 185.009 405.629 183.137 404.181 182.289C402.841 181.504 401.133 182.003 399.585 182.253C398.036 182.501 396.022 182.188 395.595 180.738C395.371 179.977 395.697 179.164 396.125 178.489C398.064 175.427 402.403 174.002 405.89 175.28C407.064 171.181 410.971 167.934 415.367 167.406C419.764 166.878 424.384 169.101 426.575 172.797C429.243 170.379 433.171 169.313 436.762 170.031C440.354 170.747 443.514 173.226 444.958 176.464C448.068 175.616 451.656 176.71 453.686 179.126C455.714 181.542 456.07 185.139 454.548 187.879C456.885 189.102 458.907 191.27 459.006 193.822C459.106 196.376 456.565 198.967 453.985 198.344C455.061 200.313 454.273 203.027 452.289 204.176C450.303 205.324 447.435 204.727 446.124 202.893L446.8 203.233Z" fill="#191919"/>
<path d="M405.065 178.762C405.056 178.763 405.057 178.839 405.073 178.987C405.094 179.136 405.106 179.36 405.169 179.645C405.298 180.212 405.554 181.053 406.149 182.006C406.748 182.943 407.67 184.023 409.058 184.869C410.419 185.725 412.273 186.36 414.351 186.212L414.128 185.943C413.75 187.006 413.885 188.271 414.455 189.345C414.996 190.439 415.833 191.401 416.715 192.338C417.167 192.788 417.561 193.318 418.182 193.728C418.785 194.12 419.503 194.34 420.235 194.415C421.687 194.566 423.315 194.105 424.342 192.915L423.858 192.792C424.235 195.239 425.738 197.665 428.076 199.12C429.315 199.944 430.838 200.434 432.324 200.369C433.811 200.327 435.184 199.881 436.465 199.414L436.118 199.276C436.84 200.796 437.927 202.085 439.236 203.028C440.522 203.968 442.219 204.503 443.738 204.115C446.758 203.442 448.721 200.983 449.081 198.695L448.793 198.83C450.314 199.589 451.93 199.636 453.222 199.371C454.531 199.116 455.551 198.548 456.275 197.995C457.002 197.43 457.427 196.857 457.681 196.46C457.914 196.049 458.008 195.823 457.993 195.817C457.928 195.766 457.588 196.763 456.141 197.832C455.421 198.342 454.421 198.861 453.161 199.078C451.919 199.306 450.387 199.226 448.98 198.498L448.737 198.372L448.693 198.633C448.328 200.769 446.435 203.065 443.633 203.658C442.257 203.995 440.765 203.517 439.548 202.626C438.324 201.739 437.287 200.495 436.616 199.066L436.511 198.84L436.269 198.927C435.009 199.383 433.682 199.8 432.308 199.835C430.933 199.889 429.568 199.454 428.386 198.672C426.176 197.297 424.767 195.026 424.398 192.711L424.306 192.127L423.914 192.586C423.047 193.605 421.593 194.044 420.287 193.911C419.632 193.847 418.995 193.654 418.469 193.315C417.956 192.991 417.544 192.468 417.086 192.014C416.205 191.093 415.391 190.167 414.876 189.15C414.336 188.146 414.215 187.033 414.536 186.072L414.635 185.777L414.311 185.803C412.355 185.965 410.57 185.393 409.241 184.591C407.885 183.802 406.966 182.777 406.354 181.884C405.145 180.038 405.157 178.731 405.065 178.762Z" fill="#253E3C"/>
<path d="M408.906 244.225C408.97 243.764 412.144 244.34 414.915 242.145C417.691 239.956 417.981 236.644 418.429 236.7C418.636 236.696 418.902 237.537 418.668 238.915C418.449 240.268 417.608 242.149 415.914 243.492C414.217 244.83 412.238 245.176 410.916 245.042C409.565 244.914 408.846 244.432 408.906 244.225Z" fill="#191919"/>
<path d="M317.294 418.933L341.771 393.014L362.242 333.624C366.421 323.321 370.007 310.238 375.071 300.469C377.563 295.664 381.759 291.874 386.869 289.695L395.558 285.99L400.756 278.026C397.762 296.04 424.056 298.257 452.002 275.894C452.002 275.894 461.235 281.891 474.247 292.25C479.942 296.786 485.108 301.743 487.262 309.231C491.171 322.824 474.369 363.053 456.077 400.895C450.604 412.217 424.54 462.941 424.54 462.941L415.159 469.504C415.159 469.504 332.217 445.378 324.755 432.156C317.294 418.933 317.294 418.933 317.294 418.933Z" fill="#DEDDE1"/>
<path d="M330.873 403.479C330.853 403.461 331.091 403.193 331.566 402.702C332.105 402.158 332.803 401.453 333.674 400.574C335.6 398.682 338.276 396.052 341.566 392.818L341.498 392.927C343.03 388.401 344.861 382.991 346.901 376.968C349.009 370.938 351.145 364.244 353.306 357.166C357.487 343.289 361.443 330.737 365.098 321.919C366.87 317.492 368.532 314 369.702 311.6C370.29 310.473 370.763 309.565 371.127 308.87C371.461 308.251 371.648 307.932 371.675 307.944C371.7 307.956 371.561 308.3 371.277 308.939C370.95 309.651 370.524 310.577 369.994 311.729C368.919 314.163 367.342 317.679 365.645 322.118C362.14 330.964 358.283 343.504 354.1 357.391C351.942 364.465 349.77 371.187 347.623 377.197C345.518 383.199 343.627 388.59 342.045 393.101L342.022 393.165L341.975 393.21C338.607 396.37 335.868 398.94 333.898 400.789C332.984 401.625 332.248 402.296 331.682 402.814C331.17 403.268 330.891 403.499 330.873 403.479Z" fill="#29383E"/>
<path d="M407.023 304.57L378.337 417.472L348.541 431.699V404.08L400.102 302.117L407.023 304.57Z" fill="#379C60"/>
<path d="M415.776 436.479C409.409 436.479 403.009 434.872 397.134 432.421C389.163 429.096 381.984 424.283 374.799 419.588C374.673 419.505 374.548 419.423 374.422 419.341L378.337 417.471L379.871 411.438L441.81 420.671C439.007 428.567 431.057 434.147 422.547 435.833C420.31 436.276 418.046 436.479 415.776 436.479Z" fill="#9D9E9E"/>
<path d="M374.422 419.34C367.36 414.731 360.15 410.193 352.159 407.307L379.871 411.438L378.337 417.471L374.422 419.34Z" fill="#253E3C"/>
<path d="M395.558 285.64L402.891 274.862L405.771 289.629L413.078 281.692L449.331 265.41L455.625 278.349L415.568 301.091L404.457 300.295L396.356 291.065L395.558 285.64Z" fill="#DEDDE1"/>
<path d="M395.558 285.641C395.652 285.632 395.813 286.462 396.108 287.868C396.471 289.552 396.882 291.453 397.337 293.559L396.613 293.454C397.235 292.361 397.897 291.197 398.586 289.986C399.681 288.125 400.707 286.381 401.64 284.796L402.032 284.13L402.291 284.839C402.934 286.599 403.276 288.083 403.565 289.114C403.838 290.146 404.006 290.735 403.933 290.763C403.865 290.79 403.557 290.242 403.163 289.236C402.756 288.237 402.306 286.759 401.62 285.088L402.271 285.13C401.365 286.731 400.371 288.494 399.311 290.37C398.608 291.576 397.932 292.732 397.297 293.818L396.777 294.708L396.571 293.714C395.61 289.056 395.362 285.656 395.558 285.641Z" fill="#29383E"/>
<path d="M407.761 291.085L403.146 290.544C401.895 291.893 398.838 294.672 397.587 296.021L397.596 296.145C398.142 299.1 398.69 302.056 399.235 305.009C401.814 304.889 404.411 305.089 406.937 305.604C408.477 303.009 409.638 301.052 411.18 298.457L407.761 291.085Z" fill="#379C60"/>
<path d="M415.637 457.618C415.542 457.7 414.187 456.31 411.915 454.156C409.644 452.001 406.417 449.114 402.621 446.191C398.819 443.271 395.179 440.877 392.493 439.22C389.806 437.563 388.101 436.596 388.161 436.49C388.188 436.441 388.647 436.627 389.454 437.004C390.265 437.377 391.408 437.968 392.798 438.741C395.579 440.283 399.304 442.625 403.139 445.569C406.967 448.519 410.16 451.497 412.335 453.765C413.425 454.898 414.275 455.841 414.831 456.519C415.393 457.194 415.68 457.581 415.637 457.618Z" fill="#29383E"/>
<path d="M408.12 291.995L413.244 289.571L414.981 298.184L410.714 298.548L408.12 291.995Z" fill="#379C60"/>
<path d="M412.545 305.604V300.873L415.124 301.058L415.165 301.302L415.547 301.089L415.568 301.091L417.06 300.243L450.31 281.657L412.545 305.604Z" fill="#9D9E9E"/>
<path d="M415.568 301.091L415.547 301.089L417.06 300.243L415.568 301.091ZM415.124 301.059L412.545 300.874V298.392L414.634 298.213L415.124 301.059ZM412.545 289.903V286.104L413.151 289.616L412.545 289.903Z" fill="#9D9E9E"/>
<path d="M412.545 298.392V289.903L413.151 289.616L414.634 298.213L412.545 298.392Z" fill="#253E3C"/>
<path d="M455.625 278.349C455.657 278.393 454.875 278.958 453.43 279.94C451.971 280.903 449.835 282.262 447.122 283.827C441.729 287.012 433.984 290.91 425.638 295.512C422.111 297.477 418.784 299.451 415.789 301.401L415.293 301.723L415.184 301.161C414.039 295.206 413.044 290.04 412.297 286.15L412.722 286.278C411.088 287.74 409.758 288.932 408.736 289.845C407.801 290.662 407.284 291.085 407.25 291.051C407.217 291.019 407.672 290.534 408.547 289.659C409.525 288.703 410.801 287.458 412.369 285.93L412.699 285.608L412.795 286.059C413.612 289.935 414.699 295.084 415.951 301.019L415.347 300.781C418.345 298.795 421.683 296.796 425.223 294.824C433.599 290.205 441.371 286.393 446.824 283.343C449.567 281.843 451.743 280.56 453.253 279.68C454.749 278.781 455.592 278.303 455.625 278.349Z" fill="#29383E"/>
<path d="M403.2 292.192L401.083 287.213L397.587 293.379L399.084 295.613L403.2 292.192Z" fill="#379C60"/>
<path d="M408.99 291.472C409.169 291.631 406.641 294.436 403.924 298.172C401.19 301.899 399.307 305.137 399.091 305.03C398.896 304.943 400.473 301.497 403.246 297.715C406.003 293.925 408.84 291.327 408.99 291.472Z" fill="#29383E"/>
<path d="M406.428 305.752C406.369 305.966 404.635 305.717 402.518 305.377C400.402 305.033 398.679 304.724 398.697 304.501C398.714 304.286 400.498 304.243 402.656 304.594C404.813 304.94 406.485 305.542 406.428 305.752Z" fill="#29383E"/>
<path d="M216.055 375.976L192.156 311.126C191.7 309.729 192.591 308.257 194.081 307.944L249.286 294.1C250.664 293.808 252.048 294.564 252.49 295.85L277.609 368.903L355.511 418.025L351.767 421.694L331.838 417.031L216.055 375.976Z" fill="#253E3C"/>
<path d="M351.767 421.694C351.759 421.705 351.622 421.634 351.365 421.482C351.069 421.303 350.695 421.076 350.228 420.793C349.19 420.14 347.742 419.232 345.905 418.078C342.12 415.658 336.73 412.213 330.093 407.97C316.742 399.342 298.381 387.478 278.101 374.372C276.687 373.456 275.283 372.543 273.975 371.694L273.857 371.618L273.814 371.491C266.477 350.238 259.904 331.2 255.144 317.41C252.82 310.57 250.944 305.034 249.624 301.149C249.006 299.272 248.517 297.795 248.168 296.732C248.021 296.26 247.901 295.879 247.808 295.579C247.731 295.318 247.7 295.182 247.713 295.177C247.725 295.174 247.784 295.3 247.885 295.553C248 295.849 248.142 296.22 248.32 296.683C248.705 297.735 249.24 299.196 249.921 301.054C251.297 304.921 253.26 310.431 255.683 317.236C260.507 331.006 267.165 350.017 274.599 371.239L274.438 371.036C275.746 371.885 277.151 372.796 278.563 373.713C298.792 386.894 317.104 398.827 330.421 407.504C336.997 411.834 342.335 415.351 346.086 417.822C347.887 419.028 349.304 419.978 350.321 420.661C350.77 420.971 351.127 421.218 351.411 421.415C351.654 421.589 351.775 421.684 351.767 421.694Z" fill="#191919"/>
<path d="M225.582 374.591C225.572 374.371 236.428 373.7 249.829 373.093C263.232 372.485 274.104 372.17 274.115 372.391C274.126 372.609 263.271 373.279 249.866 373.888C236.466 374.496 225.592 374.811 225.582 374.591Z" fill="#191919"/>
<path d="M234.384 337.575C235.345 340.517 234.804 343.299 233.176 343.79C231.547 344.281 229.447 342.294 228.485 339.354C227.522 336.413 228.063 333.63 229.692 333.14C231.321 332.648 233.421 334.635 234.384 337.575Z" fill="#DEDDE1"/>
<path d="M302.408 360.702C302.408 360.702 300.346 361.686 300.025 358.528C299.74 355.727 306.742 351.581 309.362 350.026C311.982 348.47 317.508 349.539 320.328 349.891C324.137 350.366 333.009 354.18 335.83 357.429C338.695 360.729 340.66 369.17 341.702 369.97C342.744 370.768 378.018 384.091 378.018 384.091L369.988 410.917C369.988 410.917 337.608 397.196 331.871 391.678C326.133 386.159 327.401 384.751 326.4 380.569C325.398 376.389 324.313 371.945 324.313 371.945L321.264 370.735L315.531 372.299C315.531 372.299 314.831 374.39 313.353 376.024C311.587 377.972 308.393 377.887 306.617 375.946C306.617 375.946 303.708 376.917 302.289 373.763C301.706 372.472 302.125 370.506 302.125 370.506C302.125 370.506 299.517 370.998 299.498 367.879C299.476 364.531 302.408 360.702 302.408 360.702Z" fill="#F7B8A0"/>
<path d="M320.775 364.25C320.77 364.383 319.591 364.34 317.776 364.722C315.975 365.092 313.522 365.996 311.413 367.78C309.303 369.565 308.058 371.789 307.453 373.459C306.829 375.137 306.724 376.267 306.587 376.254C306.498 376.255 306.39 375.091 306.893 373.289C307.38 371.505 308.612 369.089 310.864 367.182C313.116 365.278 315.768 364.408 317.673 364.169C319.597 363.917 320.786 364.165 320.775 364.25Z" fill="#7F493E"/>
<path d="M318.137 358.497C318.123 358.639 316.853 358.434 314.91 358.868C312.977 359.276 310.435 360.471 308.266 362.517C306.092 364.572 304.618 366.878 303.543 368.525C302.481 370.186 301.813 371.219 301.706 371.164C301.61 371.115 302.094 369.994 303.035 368.247C303.986 366.516 305.413 364.103 307.686 361.948C309.969 359.793 312.727 358.599 314.8 358.316C316.888 358.006 318.166 358.427 318.137 358.497Z" fill="#7F493E"/>
<path d="M317.623 352.205C317.607 352.338 316.513 352.195 314.817 352.496C313.124 352.777 310.864 353.617 308.738 355.114C306.61 356.615 304.971 358.341 303.771 359.571C302.578 360.812 301.818 361.574 301.727 361.502C301.641 361.435 302.237 360.552 303.326 359.207C304.42 357.873 306.024 356.042 308.25 354.471C310.478 352.899 312.928 352.087 314.734 351.939C316.553 351.77 317.647 352.125 317.623 352.205Z" fill="#7F493E"/>
<path d="M468.163 291.282C478.078 293.144 484.533 301.509 486.552 311.969C489.414 326.805 453.985 396.928 447.384 412.236C440.429 428.364 425.041 431.889 416.081 431.691C407.121 431.49 344.335 403.219 344.335 403.219L353.539 372.629L409.328 388.532L431.437 328.813L468.163 291.282Z" fill="#DEDDE1"/>
<path d="M431.437 328.813C431.437 328.813 431.333 329.18 431.089 329.88C430.83 330.605 430.465 331.636 429.986 332.983C428.989 335.729 427.534 339.735 425.663 344.885C421.866 355.236 416.385 370.175 409.613 388.628L409.517 388.888L409.243 388.81C393.209 384.261 374.259 378.887 353.432 372.979L353.902 372.732C350.967 382.513 347.896 392.744 344.72 403.326L344.505 402.87C359.159 409.402 374.845 416.257 391.193 422.863C397.834 425.507 404.414 428.141 411.062 430.174L413.561 430.862C414.393 431.069 415.221 431.138 416.046 431.289C417.759 431.315 419.476 431.235 421.168 431.014C424.554 430.614 427.841 429.687 430.894 428.367C437.008 425.724 442.067 421.204 445.141 415.749C446.703 413.053 447.846 410.129 449.171 407.333C450.48 404.537 451.776 401.77 453.056 399.038C463.363 377.231 472.502 357.516 479.056 340.538C482.279 332.053 485.074 324.26 486.21 317.175C486.449 315.407 486.597 313.675 486.345 312.054C486.016 310.424 485.637 308.864 485.123 307.412C484.131 304.5 482.807 301.975 481.31 299.909C478.305 295.736 474.674 293.604 472.167 292.558C470.898 292.039 469.889 291.722 469.199 291.567C468.511 291.392 468.163 291.282 468.163 291.282C468.163 291.282 468.523 291.339 469.219 291.487C469.92 291.618 470.942 291.91 472.232 292.411C474.779 293.417 478.49 295.533 481.574 299.729C483.11 301.809 484.472 304.355 485.498 307.293C486.031 308.758 486.423 310.332 486.769 311.981C487.044 313.681 486.899 315.44 486.668 317.234C485.563 324.405 482.799 332.215 479.605 340.734C473.111 357.762 464.022 377.513 453.751 399.34C452.477 402.073 451.186 404.839 449.882 407.635C448.566 410.42 447.438 413.331 445.831 416.12C442.694 421.705 437.495 426.365 431.23 429.077C428.101 430.432 424.739 431.381 421.274 431.794C419.543 432.022 417.788 432.103 416.024 432.077C415.142 431.927 414.222 431.844 413.366 431.629L410.819 430.931C404.1 428.877 397.528 426.246 390.874 423.596C374.505 416.983 358.821 410.12 344.164 403.568L343.853 403.429L343.948 403.112C347.139 392.533 350.226 382.306 353.175 372.528L353.282 372.177L353.646 372.281C374.458 378.242 393.394 383.666 409.414 388.254L409.045 388.434C415.924 370.016 421.491 355.109 425.35 344.778C427.285 339.65 428.79 335.662 429.822 332.927C430.336 331.593 430.73 330.57 431.006 329.852C431.278 329.16 431.437 328.813 431.437 328.813Z" fill="#29383E"/>
<path d="M418.234 410.968C417.976 411.012 417.122 405.64 414.635 399.437C412.192 393.217 409.107 388.663 409.328 388.531C409.415 388.477 410.297 389.545 411.492 391.424C412.688 393.299 414.158 396.01 415.41 399.153C416.654 402.3 417.437 405.261 417.844 407.426C418.253 409.593 418.335 410.954 418.234 410.968Z" fill="#29383E"/>
<path d="M464.302 291.413C464.349 291.553 462.248 292.201 459.093 293.732C457.512 294.486 455.701 295.517 453.775 296.777C451.872 298.069 449.869 299.607 447.935 301.402C446.021 303.218 444.371 305.105 442.982 306.903C441.625 308.721 440.509 310.436 439.687 311.937C438.021 314.93 437.296 316.93 437.153 316.881C437.099 316.863 437.242 316.353 437.551 315.438C437.843 314.52 438.389 313.228 439.165 311.681C439.932 310.126 441.014 308.352 442.362 306.476C443.739 304.623 445.405 302.683 447.355 300.834C449.326 299.004 451.385 297.452 453.345 296.172C455.329 294.921 457.202 293.926 458.838 293.226C460.469 292.516 461.826 292.021 462.791 291.763C463.748 291.489 464.284 291.362 464.302 291.413Z" fill="#29383E"/>
<path d="M116.202 511.409L86.0514 475.235C86.0514 475.235 202.685 382.987 213.711 376.398C222.062 371.41 239.037 364.783 255.105 369.967C271.173 375.151 298.375 393.193 308.402 399.044C318.428 404.897 405.723 456.805 415.159 469.504C415.159 469.504 396.165 502.49 383.727 508.02C373.986 512.352 345.903 505.885 329.496 496.309C313.088 486.733 237.809 424.839 237.809 424.839L116.202 511.409Z" fill="#191919"/>
<path d="M127.436 553.817L168.168 581.907L246.557 459.267L325.706 493.89L272.486 408.523C272.486 408.523 229.564 409.007 222.816 408.278C214.161 407.346 198.361 420.459 189.735 436.47C182.238 450.386 127.436 553.817 127.436 553.817Z" fill="#191919"/>
<path d="M300.087 483.782C299.921 483.935 282.048 466.428 260.169 444.683C238.281 422.934 220.678 405.184 220.843 405.031C221.007 404.878 238.878 422.382 260.764 444.132C282.644 465.875 300.251 483.629 300.087 483.782Z" fill="#253E3C"/>
<path d="M150.32 487.122L169.43 473.518L150.32 487.122Z" fill="#B5B6B5"/>
<path d="M150.32 487.122C150.359 487.052 185.401 424.187 201.913 419.999C201.913 419.999 201.839 420.095 201.699 420.28C198.196 423.866 194.848 428.055 192.01 432.569C189.404 436.386 186.832 440.478 184.329 444.781C182.702 447.633 181.157 450.452 179.685 453.212C176.605 458.553 173.761 464.001 171.589 469.119C170.844 470.631 170.125 472.099 169.43 473.517L150.32 487.122Z" fill="#2B2A29"/>
<path d="M192.01 432.569C194.848 428.055 198.196 423.866 201.699 420.279C201.632 420.367 201.55 420.474 201.457 420.599C199.874 422.175 198.343 423.924 196.886 425.809C195.254 427.945 193.626 430.204 192.01 432.569Z" fill="#242C2F"/>
<path d="M228.31 412.483C228.28 412.59 226.719 411.88 223.705 411.637C220.719 411.357 216.23 411.856 211.389 414.153C206.516 416.401 201.719 420.72 197.498 426.247C193.3 431.81 189.084 438.237 185.053 445.167C177.097 459.116 170.961 472.293 166.065 481.613C163.66 486.295 161.605 490.03 160.165 492.602C159.454 493.822 158.883 494.797 158.453 495.534C158.054 496.2 157.832 496.544 157.807 496.53C157.781 496.517 157.954 496.149 158.307 495.459C158.702 494.705 159.225 493.706 159.88 492.459C161.229 489.845 163.203 486.076 165.539 481.367C170.296 471.992 176.344 458.78 184.329 444.781C188.381 437.814 192.619 431.395 196.886 425.809C201.178 420.254 206.119 415.878 211.132 413.649C216.106 411.367 220.708 410.95 223.736 411.33C226.794 411.672 228.31 412.483 228.31 412.483Z" fill="#253E3C"/>
<path d="M147.425 531.034L125.114 570.509C125.114 570.509 75.3706 564.868 70.95 572.047L151.781 611.723L185.328 549.515L147.425 531.034Z" fill="#191919"/>
<path d="M151.898 579.415C155.189 582.268 150.8 587.306 147.367 584.531C143.701 581.355 148.936 576.233 152.147 579.661L151.898 579.415Z" fill="#E0E0E0"/>
<path d="M151.781 611.722L154.906 605.324L76.2387 569.678C76.2387 569.678 71.8389 569.415 70.95 572.047L151.781 611.722Z" fill="#379C60"/>
<path d="M124.014 569.472C123.825 569.857 125.706 570.997 127 573.168C128.352 575.308 128.479 577.441 128.923 577.469C131.18 576.154 126.295 568.208 124.014 569.472Z" fill="#FEFEFE"/>
<path d="M113.743 568.676C113.457 569 114.823 570.483 115.311 572.743C115.867 574.989 115.282 576.888 115.684 577.066C118.275 576.555 116.306 568.079 113.743 568.676Z" fill="#FEFEFE"/>
<path d="M103.74 576.055C105.919 576.325 106.244 567.925 104.055 568.044C104.159 568.3 103.857 575.812 103.74 576.055Z" fill="#FEFEFE"/>
<path d="M129.596 560.677C129.881 560.663 137.612 565.027 137.732 565.256C138.976 563.476 130.596 558.766 129.596 560.677Z" fill="#FEFEFE"/>
<path d="M117.079 460.67L78.8452 486.551C78.8452 486.551 36.8681 460.312 29.59 464.867L83.7066 534.841L141.055 491.497L117.079 460.67Z" fill="#191919"/>
<path d="M98.737 505.937C100.369 509.896 94.1073 512.543 92.3123 508.593C90.4942 504.186 97.553 501.822 98.8467 506.262L98.737 505.937Z" fill="#E0E0E0"/>
<path d="M83.7066 534.843L89.4633 530.438L35.4241 464.995C35.4241 464.995 31.6031 462.886 29.59 464.867L83.7066 534.843Z" fill="#379C60"/>
<path d="M78.3388 485.151C77.9912 485.417 79.1515 487.241 79.3075 489.737C79.5313 492.231 78.6592 494.197 79.0441 494.41C81.6744 494.192 80.9668 484.991 78.3388 485.151Z" fill="#FEFEFE"/>
<path d="M69.5003 480.065C69.095 480.234 69.6348 482.146 69.0267 484.378C68.4869 486.628 67.0853 488.082 67.3657 488.411C69.9224 489.058 72.0729 480.622 69.5003 480.065Z" fill="#FEFEFE"/>
<path d="M57.1266 482.419C58.9549 483.591 63.1263 476.2 61.1093 475.375C61.0833 475.648 57.3436 482.253 57.1266 482.419Z" fill="#FEFEFE"/>
<path d="M292.842 476.909C285.53 471.522 248.46 443.999 238.893 432.696C231.833 424.357 226.992 416.179 224.584 411.725C225.446 411.828 226.162 411.966 226.728 412.095L262.449 446.951C274.99 459.403 286.018 470.267 292.842 476.909ZM226.45 411.825C225.896 411.679 225.218 411.533 224.417 411.417C223.357 409.442 222.816 408.278 222.816 408.278L226.45 411.825Z" fill="#2B2A29"/>
<path d="M294.099 477.831C294.099 477.831 293.655 477.506 292.842 476.909C286.018 470.267 274.99 459.402 262.449 446.95L294.099 477.831Z" fill="#253E3C"/>
<path d="M226.728 412.094C226.162 411.964 225.446 411.827 224.584 411.724C224.527 411.619 224.471 411.517 224.417 411.416C225.218 411.532 225.896 411.677 226.45 411.824L226.728 412.094Z" fill="#31444B"/>
</svg>
