<svg width="1721" height="351" viewBox="0 0 1721 351" fill="none" xmlns="http://www.w3.org/2000/svg">
<g filter="url(#filter0_d_179_415)">
<path d="M918.504 118.391C918.497 118.384 918.49 118.287 918.483 118.107C918.478 117.895 918.471 117.637 918.462 117.322C918.452 116.6 918.435 115.62 918.416 114.4C918.394 111.875 918.363 108.363 918.328 104.204L918.504 104.381C915.177 104.387 911.378 104.394 907.36 104.402C907.315 104.444 907.73 104.028 907.555 104.206V105.183C907.555 105.509 907.555 105.833 907.554 106.155C907.554 106.799 907.553 107.436 907.552 108.066C907.55 109.326 907.548 110.555 907.545 111.747C907.536 114.128 907.528 116.359 907.522 118.39L907.359 118.226C910.665 118.261 913.422 118.29 915.402 118.311C916.348 118.329 917.107 118.343 917.675 118.354C918.204 118.367 918.492 118.378 918.504 118.391C918.516 118.402 918.251 118.414 917.741 118.427C917.183 118.438 916.435 118.452 915.504 118.47C913.499 118.491 910.708 118.52 907.359 118.555L907.196 118.556L907.195 118.39C907.188 116.359 907.18 114.128 907.171 111.747C907.169 110.555 907.167 109.326 907.164 108.066C907.164 107.436 907.163 106.799 907.163 106.155C907.163 105.833 907.162 105.509 907.162 105.183V104.206C906.987 104.382 907.4 103.962 907.36 104.006C911.378 104.013 915.177 104.02 918.504 104.026L918.681 104.027L918.679 104.204C918.644 108.409 918.613 111.962 918.592 114.516C918.572 115.719 918.556 116.685 918.545 117.396C918.537 117.697 918.53 117.944 918.524 118.146C918.517 118.314 918.511 118.397 918.504 118.391Z" fill="#1D302E"/>
<path d="M933.284 118.391C933.28 118.387 933.276 118.325 933.272 118.206C933.269 118.069 933.265 117.899 933.26 117.687C933.254 117.21 933.246 116.547 933.235 115.704C933.222 113.96 933.204 111.47 933.181 108.364C933.159 102.121 933.129 93.4093 933.093 83.4127L933.284 83.6059C929.972 83.6077 926.469 83.6091 922.868 83.6115C923.256 83.2144 922.975 83.5073 923.062 83.4211V84.7334C923.062 85.1733 923.061 85.6106 923.061 86.0465C923.061 86.918 923.061 87.7838 923.061 88.6418C923.059 90.3573 923.058 92.0444 923.057 93.6959C923.052 96.9983 923.047 100.161 923.042 103.139C923.022 109.081 923.005 114.285 922.99 118.39L922.865 118.265C926.113 118.294 928.699 118.318 930.501 118.334C931.378 118.347 932.063 118.357 932.557 118.365C932.776 118.37 932.953 118.375 933.093 118.378C933.215 118.382 933.28 118.386 933.284 118.391C933.288 118.395 933.233 118.399 933.118 118.404C932.984 118.407 932.814 118.411 932.604 118.417C932.117 118.424 931.441 118.434 930.575 118.447C928.755 118.464 926.145 118.487 922.865 118.516L922.741 118.518V118.39C922.727 114.285 922.709 109.081 922.689 103.139C922.685 100.161 922.679 96.9983 922.674 93.6959C922.673 92.0444 922.672 90.3573 922.67 88.6418C922.67 87.7838 922.67 86.918 922.67 86.0465C922.67 85.6106 922.67 85.1733 922.67 84.7334V84.0732L922.669 83.7424V83.4211C922.758 83.3306 922.471 83.6098 922.868 83.2151C926.469 83.2174 929.972 83.2188 933.284 83.2204H933.475V83.4127C933.44 93.4625 933.409 102.22 933.387 108.498C933.365 111.584 933.346 114.059 933.334 115.793C933.323 116.619 933.314 117.267 933.308 117.735C933.304 117.937 933.3 118.1 933.297 118.231C933.292 118.341 933.288 118.395 933.284 118.391Z" fill="#1D302E"/>
<path d="M948.451 118.39C948.443 118.383 948.436 118.238 948.429 117.965C948.423 117.662 948.415 117.269 948.406 116.777C948.394 115.713 948.376 114.225 948.355 112.37C948.333 108.595 948.302 103.329 948.266 97.1912L948.451 97.3774C945.199 97.3814 941.644 97.3853 937.939 97.3888C937.894 97.4316 938.31 97.0168 938.135 97.1956V97.5722L938.134 97.954V98.7149C938.134 99.22 938.134 99.7229 938.133 100.222C938.132 101.219 938.131 102.203 938.131 103.172C938.127 105.108 938.124 106.981 938.12 108.774C938.107 112.35 938.095 115.601 938.084 118.39L937.938 118.243C941.133 118.276 943.736 118.303 945.581 118.322C946.469 118.337 947.173 118.349 947.692 118.358C947.915 118.365 948.099 118.371 948.25 118.374C948.378 118.38 948.445 118.385 948.451 118.39C948.461 118.4 948.219 118.411 947.749 118.422C947.237 118.431 946.544 118.443 945.671 118.459C943.804 118.478 941.171 118.504 937.938 118.537L937.792 118.539V118.39C937.781 115.601 937.768 112.35 937.755 108.774C937.752 106.981 937.749 105.108 937.745 103.172C937.744 102.203 937.744 101.219 937.742 100.222C937.742 99.7229 937.742 99.22 937.742 98.7149L937.741 97.954V97.1956C937.567 97.3714 937.979 96.9485 937.939 96.9933C941.644 96.9971 945.199 97.001 948.451 97.004L948.637 97.0047L948.636 97.1912C948.6 103.38 948.569 108.688 948.547 112.494C948.526 114.332 948.509 115.806 948.497 116.859C948.487 117.335 948.479 117.717 948.473 118.009C948.467 118.267 948.458 118.398 948.451 118.39Z" fill="#1D302E"/>
<path d="M963.92 118.391C963.916 118.387 963.913 118.333 963.908 118.231C963.905 118.11 963.901 117.963 963.896 117.784C963.89 117.367 963.883 116.798 963.873 116.075C963.86 114.567 963.842 112.421 963.82 109.741C963.798 104.344 963.767 96.8025 963.731 88.0941L963.92 88.2852C960.482 88.2873 956.781 88.2905 952.958 88.2926C953.347 87.8958 953.066 88.1878 953.153 88.1011V89.2153C953.152 89.5882 953.152 89.9602 953.152 90.3305C953.152 91.0724 953.151 91.8079 953.151 92.5384C953.151 93.9988 953.149 95.4358 953.148 96.8469C953.144 99.666 953.14 102.378 953.135 104.948C953.118 110.081 953.102 114.647 953.09 118.39L952.957 118.256C956.338 118.287 959.057 118.311 960.964 118.329C961.89 118.344 962.618 118.354 963.144 118.363C963.378 118.369 963.566 118.373 963.717 118.377C963.847 118.382 963.916 118.386 963.92 118.391C963.925 118.395 963.865 118.4 963.743 118.404C963.599 118.408 963.418 118.413 963.194 118.418C962.676 118.427 961.958 118.438 961.044 118.452C959.118 118.469 956.372 118.494 952.957 118.525L952.824 118.526L952.824 118.39C952.811 114.647 952.795 110.081 952.777 104.948C952.773 102.378 952.769 99.666 952.765 96.8469C952.764 95.4358 952.763 93.9988 952.762 92.5384C952.762 91.8079 952.761 91.0724 952.761 90.3305C952.761 89.9602 952.761 89.5882 952.76 89.2153V88.1011C952.849 88.0104 952.562 88.2912 952.958 87.8962C956.781 87.8993 960.482 87.9009 963.92 87.9032L964.109 87.9039L964.109 88.0941C964.073 96.8553 964.042 104.442 964.021 109.872C963.999 112.533 963.981 114.664 963.968 116.162C963.958 116.867 963.95 117.422 963.944 117.83C963.936 118.207 963.928 118.399 963.92 118.391Z" fill="#1D302E"/>
<path d="M910.054 300.413L930.355 297.281C932.057 308.524 924.293 319.189 913.156 320.907C902.019 322.625 891.454 314.787 889.753 303.544C888.051 292.302 895.814 281.637 906.952 279.918C908.725 279.645 910.526 279.607 912.309 279.807L910.054 300.413Z" fill="#303B3F"/>
<path d="M916.641 279.872L914.176 295.759L929.624 292.83C929.624 292.83 927.352 283.927 916.641 279.872Z" fill="#1D302E"/>
<path d="M866.849 161.559L923.991 195.761C912.041 216.107 890.28 228.621 866.849 228.621C830.406 228.621 800.419 198.348 800.419 161.559C800.419 125.146 829.797 95.0449 865.865 94.5049L866.849 161.559Z" fill="#379C60"/>
<path d="M804.994 137.229C813.348 117.023 830.758 105.375 830.758 105.375L838.379 134.273L804.994 137.229Z" fill="#32734C"/>
<path d="M1082.7 275.152L1076.35 274.809L1076.91 262.802L1086.2 263.203L1086.21 263.949C1086.24 267.271 1086.13 280.842 1085.36 283.026C1084.5 285.461 1082.7 275.152 1082.7 275.152Z" fill="#379C60"/>
<path d="M1082.75 263.054L1082.71 263.053C1082.71 263.053 1082.71 263.053 1082.71 263.052L1082.75 263.054Z" fill="#1D302E"/>
<path d="M1085.77 267.521C1084.84 267.28 1084 266.695 1083.44 265.901C1082.86 265.068 1082.58 264.064 1082.71 263.053L1082.76 263.054L1086.03 263.207L1085.94 263.209L1085.77 267.521Z" fill="#8FB198"/>
<path d="M1085.11 283.437C1085.06 283.437 1085.01 283.411 1084.95 283.365C1084.99 283.387 1085.02 283.399 1085.06 283.399C1085.17 283.399 1085.27 283.283 1085.36 283.026C1085.37 282.994 1085.38 282.96 1085.39 282.923C1085.33 283.195 1085.27 283.362 1085.22 283.403C1085.18 283.425 1085.15 283.437 1085.11 283.437ZM1083.96 280.969C1083.86 280.626 1083.79 280.354 1083.77 280.246C1083.83 280.494 1083.89 280.735 1083.96 280.969ZM1086.06 274.73C1086.2 270.41 1086.23 265.722 1086.21 263.95L1086.2 263.204C1086.32 266.075 1086.24 270.656 1086.06 274.73Z" fill="#FEFEFE"/>
<path d="M1085.06 283.399C1085.02 283.399 1084.99 283.387 1084.95 283.365C1084.59 283.054 1084.19 281.803 1083.96 280.969C1083.89 280.735 1083.83 280.494 1083.77 280.246C1083.76 280.215 1083.76 280.197 1083.76 280.197C1083.82 279.5 1085.34 279.208 1085.34 279.208L1085.77 267.521C1085.82 267.533 1085.86 267.543 1085.91 267.553L1086.03 263.207H1086.03L1086.2 263.204L1086.21 263.95C1086.23 265.722 1086.2 270.41 1086.06 274.73C1085.9 278.433 1085.65 281.717 1085.39 282.923C1085.38 282.96 1085.37 282.994 1085.36 283.026C1085.27 283.283 1085.17 283.399 1085.06 283.399Z" fill="#8FB198"/>
<path d="M1085.91 267.553C1085.86 267.543 1085.82 267.533 1085.77 267.521L1085.93 263.21L1086.03 263.207H1086.03L1085.91 267.553Z" fill="#1D302E"/>
<path d="M1085.94 263.021C1085.94 263.021 1085.95 263.092 1085.95 263.229C1085.95 263.407 1085.95 263.603 1085.96 263.824C1085.96 264.417 1085.95 265.148 1085.95 266.01C1085.93 267.856 1085.87 270.407 1085.75 273.222C1085.62 276.037 1085.45 278.582 1085.3 280.423C1085.23 281.281 1085.16 282.009 1085.11 282.601C1085.09 282.82 1085.07 283.014 1085.05 283.193C1085.03 283.327 1085.02 283.398 1085.02 283.398C1085.01 283.397 1085.01 283.325 1085.02 283.189C1085.03 283.011 1085.04 282.817 1085.05 282.596C1085.09 282.003 1085.14 281.275 1085.2 280.415C1085.32 278.573 1085.47 276.028 1085.6 273.215C1085.73 270.402 1085.8 267.853 1085.85 266.008C1085.87 265.146 1085.89 264.416 1085.9 263.823C1085.91 263.602 1085.91 263.407 1085.92 263.229C1085.93 263.092 1085.93 263.021 1085.94 263.021Z" fill="#303B3F"/>
<path d="M1085.52 279.213C1085.52 279.257 1085.01 279.268 1084.47 279.572C1083.93 279.867 1083.64 280.304 1083.61 280.277C1083.57 280.267 1083.82 279.762 1084.4 279.444C1084.98 279.119 1085.53 279.178 1085.52 279.213Z" fill="#1D302E"/>
<path d="M1083.9 275.587C1083.92 275.622 1083.71 275.782 1083.43 275.945C1083.15 276.107 1082.9 276.209 1082.88 276.174C1082.86 276.14 1083.08 275.98 1083.36 275.817C1083.64 275.656 1083.88 275.552 1083.9 275.587Z" fill="#1D302E"/>
<path d="M1083.44 274.591C1083.47 274.619 1083.33 274.803 1083.14 275.001C1082.95 275.199 1082.77 275.337 1082.74 275.308C1082.71 275.281 1082.84 275.096 1083.04 274.899C1083.23 274.701 1083.41 274.562 1083.44 274.591Z" fill="#1D302E"/>
<path d="M1082.34 273.923C1082.38 273.925 1082.41 274.207 1082.39 274.554C1082.38 274.901 1082.34 275.18 1082.3 275.179C1082.26 275.178 1082.24 274.895 1082.25 274.549C1082.26 274.202 1082.3 273.921 1082.34 273.923Z" fill="#1D302E"/>
<path d="M1081.56 273.675C1081.6 273.664 1081.72 273.976 1081.73 274.384C1081.74 274.793 1081.64 275.111 1081.6 275.102C1081.56 275.093 1081.6 274.777 1081.59 274.389C1081.58 274 1081.52 273.687 1081.56 273.675Z" fill="#1D302E"/>
<path d="M1082.85 275.946C1082.86 275.945 1082.89 276.242 1082.81 276.717C1082.77 276.953 1082.7 277.231 1082.59 277.53C1082.53 277.678 1082.48 277.833 1082.38 277.991C1082.32 278.065 1082.25 278.147 1082.13 278.171C1082.01 278.197 1081.89 278.13 1081.83 278.04C1081.49 277.284 1081.93 276.565 1082.32 276.309C1082.52 276.167 1082.71 276.108 1082.84 276.081C1082.97 276.056 1083.05 276.062 1083.05 276.072C1083.06 276.099 1082.75 276.109 1082.38 276.392C1082.2 276.532 1082.02 276.747 1081.93 277.031C1081.83 277.3 1081.79 277.687 1081.95 277.953C1082.03 278.08 1082.18 278.039 1082.26 277.907C1082.35 277.784 1082.41 277.622 1082.47 277.482C1082.58 277.194 1082.66 276.926 1082.71 276.697C1082.81 276.238 1082.82 275.944 1082.85 275.946Z" fill="#1D302E"/>
<path d="M1082.88 276.147C1082.88 276.158 1082.68 276.263 1082.34 276.212C1082.17 276.185 1081.98 276.112 1081.79 275.975C1081.63 275.83 1081.4 275.644 1081.43 275.314C1081.46 275.136 1081.67 275.058 1081.8 275.093C1081.93 275.113 1082.04 275.179 1082.13 275.24C1082.32 275.363 1082.47 275.5 1082.58 275.626C1082.8 275.879 1082.88 276.074 1082.87 276.081C1082.85 276.094 1082.74 275.921 1082.5 275.697C1082.39 275.586 1082.24 275.464 1082.06 275.352C1081.9 275.239 1081.62 275.154 1081.57 275.346C1081.55 275.537 1081.73 275.744 1081.87 275.869C1082.03 275.998 1082.21 276.074 1082.36 276.11C1082.67 276.184 1082.87 276.121 1082.88 276.147Z" fill="#1D302E"/>
<path d="M1082.67 263.114C1082.7 263.118 1082.62 263.457 1082.66 264.003C1082.7 264.543 1082.88 265.3 1083.36 265.975C1083.85 266.649 1084.5 267.062 1085 267.264C1085.5 267.47 1085.84 267.505 1085.84 267.531C1085.84 267.541 1085.75 267.541 1085.6 267.52C1085.45 267.501 1085.23 267.454 1084.96 267.36C1084.44 267.178 1083.75 266.762 1083.25 266.061C1082.74 265.357 1082.57 264.564 1082.56 264.008C1082.55 263.727 1082.58 263.501 1082.61 263.348C1082.63 263.194 1082.66 263.113 1082.67 263.114Z" fill="#1D302E"/>
<path d="M1077.66 264.127C1077.67 264.087 1078.76 264.092 1080.11 264.137C1081.46 264.183 1082.56 264.253 1082.55 264.292C1082.55 264.332 1081.46 264.327 1080.11 264.283C1078.76 264.237 1077.66 264.167 1077.66 264.127Z" fill="#303B3F"/>
<path d="M1084.68 269.009C1084.71 269.006 1084.81 269.794 1084.77 270.77C1084.74 271.746 1084.59 272.526 1084.55 272.519C1084.51 272.513 1084.59 271.732 1084.62 270.764C1084.66 269.798 1084.63 269.011 1084.68 269.009Z" fill="#1D302E"/>
<path d="M1084.78 266.656C1084.81 266.628 1084.94 266.727 1085.12 266.815C1085.29 266.906 1085.45 266.954 1085.44 266.996C1085.44 267.035 1085.25 267.048 1085.05 266.945C1084.85 266.842 1084.75 266.68 1084.78 266.656Z" fill="#1D302E"/>
<path d="M1083.73 265.718C1083.76 265.69 1083.88 265.774 1084 265.903C1084.12 266.033 1084.19 266.16 1084.16 266.188C1084.13 266.216 1084.01 266.132 1083.89 266.002C1083.77 265.872 1083.7 265.745 1083.73 265.718Z" fill="#1D302E"/>
<path d="M1083.29 264.425C1083.33 264.436 1083.32 264.595 1083.37 264.774C1083.42 264.955 1083.51 265.085 1083.48 265.115C1083.46 265.146 1083.3 265.038 1083.23 264.815C1083.17 264.592 1083.25 264.412 1083.29 264.425Z" fill="#1D302E"/>
<path d="M1083.09 263.511C1083.13 263.498 1083.19 263.57 1083.22 263.671C1083.26 263.773 1083.25 263.865 1083.22 263.877C1083.18 263.89 1083.12 263.818 1083.09 263.717C1083.05 263.616 1083.06 263.524 1083.09 263.511Z" fill="#1D302E"/>
<path d="M1038.53 335.72L1034.68 330.614L1044.11 323.274L1049.82 330.685L1049.26 331.178C1046.77 333.349 1036.45 342.04 1034.3 342.862C1031.91 343.778 1038.53 335.72 1038.53 335.72Z" fill="#379C60"/>
<path d="M1046.28 333.149C1045.86 332.275 1045.76 331.247 1046 330.305C1046.25 329.319 1046.83 328.453 1047.67 327.898L1049.7 330.553L1049.64 330.484L1046.28 333.149Z" fill="#8FB198"/>
<path d="M1033.95 343C1033.94 343 1033.93 342.999 1033.93 342.996C1033.83 342.97 1033.79 342.887 1033.79 342.767C1033.8 342.876 1033.87 342.935 1033.99 342.935C1034.07 342.935 1034.18 342.912 1034.3 342.862C1034.33 342.851 1034.37 342.838 1034.4 342.823C1034.19 342.939 1034.03 343 1033.95 343ZM1034.93 340.48C1035.15 340.15 1035.33 339.9 1035.39 339.823C1035.23 340.046 1035.08 340.266 1034.93 340.48ZM1041.02 338.033C1044.38 335.349 1047.94 332.337 1049.26 331.178L1049.82 330.685C1047.73 332.633 1044.22 335.536 1041.02 338.033Z" fill="#FEFEFE"/>
<path d="M1033.99 342.935C1033.87 342.935 1033.8 342.876 1033.79 342.767C1033.79 342.288 1034.46 341.198 1034.93 340.48C1035.08 340.266 1035.23 340.046 1035.39 339.823C1035.4 339.807 1035.4 339.799 1035.4 339.799C1035.5 339.729 1035.62 339.701 1035.74 339.701C1036.35 339.701 1037.17 340.375 1037.17 340.375L1046.28 333.149C1046.3 333.19 1046.32 333.231 1046.34 333.271L1049.71 330.557L1049.7 330.553L1049.82 330.685L1049.26 331.178C1047.94 332.336 1044.38 335.348 1041.02 338.033C1038.12 340.306 1035.47 342.245 1034.4 342.823C1034.37 342.838 1034.33 342.851 1034.3 342.862C1034.18 342.912 1034.07 342.935 1033.99 342.935Z" fill="#8FB198"/>
<path d="M1046.34 333.271C1046.32 333.231 1046.3 333.19 1046.28 333.149L1049.64 330.484L1049.7 330.553L1049.71 330.557L1046.34 333.271Z" fill="#1D302E"/>
<path d="M1049.79 330.363C1049.79 330.367 1049.74 330.416 1049.64 330.507C1049.51 330.625 1049.36 330.754 1049.19 330.898C1048.74 331.281 1048.19 331.752 1047.54 332.308C1046.13 333.487 1044.17 335.093 1041.96 336.815C1039.75 338.54 1037.72 340.056 1036.23 341.133C1035.53 341.631 1034.94 342.053 1034.46 342.396C1034.28 342.521 1034.12 342.631 1033.98 342.731C1033.87 342.807 1033.81 342.844 1033.8 342.84C1033.8 342.836 1033.85 342.791 1033.96 342.707C1034.1 342.601 1034.26 342.483 1034.43 342.35C1034.91 341.997 1035.49 341.563 1036.17 341.05C1037.64 339.952 1039.66 338.424 1041.87 336.701C1044.08 334.978 1046.05 333.387 1047.47 332.228C1048.14 331.686 1048.7 331.228 1049.16 330.854C1049.33 330.718 1049.48 330.595 1049.62 330.484C1049.73 330.401 1049.78 330.359 1049.79 330.363Z" fill="#1D302E"/>
<path d="M1037.29 340.521C1037.26 340.552 1036.92 340.16 1036.34 339.945C1035.76 339.719 1035.25 339.783 1035.25 339.738C1035.23 339.704 1035.77 339.567 1036.39 339.809C1037.01 340.041 1037.32 340.506 1037.29 340.521Z" fill="#1D302E"/>
<path d="M1038.98 336.929C1038.97 336.966 1038.71 336.906 1038.4 336.795C1038.1 336.683 1037.86 336.563 1037.88 336.525C1037.89 336.488 1038.15 336.547 1038.45 336.658C1038.76 336.77 1038.99 336.891 1038.98 336.929Z" fill="#1D302E"/>
<path d="M1039.43 335.927C1039.43 335.967 1039.2 335.983 1038.93 335.962C1038.65 335.941 1038.43 335.892 1038.44 335.852C1038.44 335.812 1038.67 335.796 1038.94 335.817C1039.21 335.837 1039.44 335.887 1039.43 335.927Z" fill="#1D302E"/>
<path d="M1039.23 334.653C1039.25 334.684 1039.05 334.884 1038.79 335.099C1038.52 335.315 1038.28 335.463 1038.25 335.431C1038.23 335.4 1038.43 335.2 1038.7 334.985C1038.97 334.771 1039.2 334.621 1039.23 334.653Z" fill="#1D302E"/>
<path d="M1038.91 333.89C1038.94 333.911 1038.79 334.207 1038.48 334.479C1038.18 334.753 1037.88 334.878 1037.86 334.844C1037.84 334.808 1038.1 334.631 1038.39 334.37C1038.67 334.112 1038.87 333.866 1038.91 333.89Z" fill="#1D302E"/>
<path d="M1038.03 336.348C1038.04 336.36 1037.83 336.57 1037.42 336.816C1037.21 336.938 1036.96 337.066 1036.66 337.175C1036.51 337.224 1036.37 337.289 1036.18 337.31C1036.09 337.315 1035.98 337.311 1035.88 337.237C1035.79 337.164 1035.76 337.024 1035.79 336.92C1036.13 336.166 1036.97 336.044 1037.41 336.178C1037.65 336.239 1037.82 336.348 1037.92 336.432C1038.02 336.518 1038.07 336.579 1038.06 336.586C1038.05 336.61 1037.84 336.376 1037.39 336.278C1037.17 336.231 1036.89 336.234 1036.61 336.342C1036.35 336.445 1036.03 336.665 1035.93 336.955C1035.89 337.101 1036.01 337.187 1036.17 337.167C1036.32 337.154 1036.48 337.093 1036.62 337.049C1036.91 336.95 1037.16 336.835 1037.37 336.726C1037.78 336.508 1038.01 336.329 1038.03 336.348Z" fill="#1D302E"/>
<path d="M1037.89 336.5C1037.89 336.514 1037.68 336.427 1037.5 336.131C1037.41 335.984 1037.34 335.786 1037.32 335.555C1037.32 335.336 1037.32 335.041 1037.59 334.851C1037.74 334.759 1037.93 334.867 1037.99 334.987C1038.06 335.103 1038.08 335.232 1038.1 335.341C1038.12 335.564 1038.12 335.766 1038.09 335.934C1038.05 336.268 1037.95 336.458 1037.94 336.451C1037.91 336.445 1037.97 336.247 1037.99 335.923C1038 335.762 1038 335.569 1037.96 335.359C1037.95 335.164 1037.83 334.888 1037.66 334.979C1037.49 335.083 1037.45 335.355 1037.45 335.549C1037.46 335.756 1037.52 335.94 1037.59 336.08C1037.73 336.366 1037.91 336.481 1037.89 336.5Z" fill="#1D302E"/>
<path d="M1047.6 327.909C1047.62 327.932 1047.31 328.094 1046.93 328.476C1046.54 328.852 1046.09 329.485 1045.89 330.293C1045.7 331.101 1045.81 331.873 1045.98 332.387C1046.15 332.907 1046.34 333.192 1046.32 333.205C1046.31 333.21 1046.25 333.145 1046.17 333.014C1046.09 332.883 1045.98 332.683 1045.88 332.421C1045.68 331.902 1045.55 331.101 1045.75 330.258C1045.96 329.416 1046.44 328.768 1046.86 328.402C1047.06 328.215 1047.25 328.087 1047.38 328.011C1047.52 327.933 1047.6 327.901 1047.6 327.909Z" fill="#303B3F"/>
<path d="M1043.6 324.711C1043.63 324.687 1044.33 325.533 1045.17 326.601C1046.01 327.672 1046.67 328.559 1046.64 328.583C1046.61 328.608 1045.9 327.762 1045.06 326.693C1044.22 325.623 1043.57 324.736 1043.6 324.711Z" fill="#303B3F"/>
<path d="M1044.45 333.268C1044.48 333.295 1043.94 333.875 1043.18 334.478C1042.42 335.084 1041.73 335.474 1041.72 335.442C1041.69 335.406 1042.34 334.964 1043.09 334.364C1043.84 333.767 1044.42 333.238 1044.45 333.268Z" fill="#1D302E"/>
<path d="M1046.29 331.826C1046.34 331.831 1046.34 331.997 1046.39 332.188C1046.43 332.38 1046.5 332.533 1046.47 332.556C1046.43 332.58 1046.3 332.444 1046.25 332.221C1046.2 332 1046.26 331.818 1046.29 331.826Z" fill="#1D302E"/>
<path d="M1046.32 330.408C1046.36 330.413 1046.38 330.56 1046.36 330.735C1046.33 330.911 1046.28 331.05 1046.24 331.044C1046.21 331.04 1046.19 330.894 1046.21 330.718C1046.23 330.542 1046.28 330.404 1046.32 330.408Z" fill="#1D302E"/>
<path d="M1047.01 329.233C1047.03 329.27 1046.9 329.367 1046.8 329.523C1046.7 329.678 1046.66 329.834 1046.62 329.831C1046.58 329.833 1046.56 329.636 1046.68 329.444C1046.81 329.25 1047 329.196 1047.01 329.233Z" fill="#1D302E"/>
<path d="M1047.58 328.492C1047.61 328.512 1047.59 328.602 1047.54 328.694C1047.49 328.786 1047.41 328.843 1047.38 328.822C1047.34 328.802 1047.36 328.711 1047.42 328.62C1047.47 328.528 1047.54 328.471 1047.58 328.492Z" fill="#1D302E"/>
<path d="M984.274 184.777L974.955 172.819C974.955 172.819 959.679 184.668 957.964 183.743C948.464 178.621 940.825 169.257 938.235 165.839C938.145 165.226 938.058 164.503 937.994 163.645C937.941 162.911 938.017 162.172 938.209 161.46C938.443 160.598 938.799 159.465 939.185 158.906C939.663 158.215 939.059 157.297 938.341 157.545C937.623 157.793 936.261 159.668 935.788 162.341C935.314 165.013 933.264 161.276 932.491 159.927C931.72 158.579 929.138 154.521 928.54 154.431C927.662 154.301 927.362 155.227 928.164 156.555C928.975 157.9 931.092 162.038 930.366 162.416C929.653 162.788 925.816 155.869 925.816 155.869C925.816 155.869 925.234 154.256 924.383 154.664C922.845 155.399 927.459 162.45 927.914 163.111C928.231 163.569 927.457 164.008 927.144 163.496C926.821 162.97 923.477 156.506 921.905 157.239C920.698 157.803 925.646 163.076 925.602 164.805C925.558 166.535 922.252 160.421 921.122 161.007C920.701 161.225 920.417 161.446 922.817 164.681C923.982 166.25 926.416 168.846 928.655 171.142L928.622 171.168C928.622 171.168 950.818 206.218 966.505 197.037C983.151 187.294 984.274 184.777 984.274 184.777Z" fill="#E4AF9A"/>
<path d="M895.013 154.928L955.094 192.895C955.094 192.895 965.036 182.698 965.553 157.491L895.013 154.928Z" fill="#8FB198"/>
<path d="M984.263 222.075C984.263 222.075 1018.99 273.061 1021.93 274.293C1024.87 275.525 1080.52 279.095 1080.52 279.095L1081.45 257.869C1081.45 257.869 1033.08 253.547 1032.52 252.534C1031.97 251.522 1001.11 199.23 1001.11 199.23L984.263 222.075Z" fill="#1D302E"/>
<path d="M1077.85 257.116C1077.96 257.124 1077.71 261.914 1077.3 267.814C1076.89 273.716 1076.47 278.493 1076.36 278.485C1076.26 278.478 1076.5 273.689 1076.91 267.787C1077.32 261.887 1077.74 257.109 1077.85 257.116Z" fill="#379C60"/>
<path d="M1032.77 252.707C1032.85 252.777 1031.97 253.989 1030.81 255.415C1029.64 256.842 1028.63 257.942 1028.55 257.872C1028.46 257.802 1029.34 256.589 1030.51 255.163C1031.67 253.737 1032.68 252.637 1032.77 252.707Z" fill="#379C60"/>
<path d="M1032.53 253.076C1032.64 253.1 1032.4 254.505 1032 256.21C1031.59 257.917 1031.18 259.28 1031.08 259.255C1030.97 259.23 1031.21 257.825 1031.61 256.119C1032.01 254.413 1032.42 253.05 1032.53 253.076Z" fill="#379C60"/>
<path d="M1042.32 261.274C1041.75 261.603 1041.69 262.545 1042.21 262.951C1042.73 263.355 1043.61 263.054 1043.79 262.416C1043.96 261.779 1043.34 261.065 1042.69 261.148L1042.32 261.274Z" fill="#379C60"/>
<path d="M1014.33 240.461C1013.76 240.79 1013.69 241.733 1014.21 242.137C1014.73 242.542 1015.62 242.241 1015.79 241.603C1015.96 240.965 1015.35 240.252 1014.7 240.334L1014.33 240.461Z" fill="#379C60"/>
<path d="M1049.61 270.28C1049.04 270.609 1048.98 271.552 1049.5 271.956C1050.01 272.362 1050.9 272.06 1051.08 271.422C1051.25 270.785 1050.63 270.071 1049.98 270.154L1049.61 270.28Z" fill="#379C60"/>
<path d="M1067.42 273.09C1066.85 273.419 1066.79 274.363 1067.31 274.766C1067.83 275.171 1068.71 274.871 1068.89 274.234C1069.06 273.595 1068.44 272.881 1067.79 272.964L1067.42 273.09Z" fill="#379C60"/>
<path d="M1059.98 261.686C1059.41 262.015 1059.35 262.957 1059.87 263.362C1060.38 263.766 1061.27 263.466 1061.44 262.828C1061.62 262.19 1061 261.477 1060.35 261.56L1059.98 261.686Z" fill="#379C60"/>
<path d="M1021.61 263.845C1021.04 264.174 1020.98 265.117 1021.5 265.522C1022.01 265.926 1022.9 265.626 1023.07 264.987C1023.25 264.349 1022.63 263.636 1021.98 263.719L1021.61 263.845Z" fill="#379C60"/>
<path d="M1072.28 263.547C1071.71 263.875 1071.65 264.818 1072.17 265.223C1072.69 265.627 1073.57 265.327 1073.75 264.689C1073.92 264.051 1073.3 263.337 1072.65 263.421L1072.28 263.547Z" fill="#379C60"/>
<path d="M1033.29 267.964C1032.72 268.293 1032.66 269.236 1033.18 269.641C1033.7 270.045 1034.58 269.744 1034.76 269.107C1034.93 268.469 1034.31 267.755 1033.66 267.838L1033.29 267.964Z" fill="#379C60"/>
<path d="M1024.82 248.302C1024.25 248.63 1024.19 249.574 1024.71 249.978C1025.22 250.382 1026.11 250.082 1026.28 249.445C1026.46 248.806 1025.84 248.093 1025.19 248.176L1024.82 248.302Z" fill="#379C60" stroke="#1D302E" stroke-width="0.287999" stroke-miterlimit="10"/>
<path d="M1007.91 210.757L1009.35 212.553C1013.3 217.454 1014.54 224.888 1014.27 231.356C1014.23 232.306 1013.98 233.232 1013.51 234.059L1011.53 237.575L1013.86 273.451C1013.86 276.354 1014.83 279.172 1016.62 281.449L1049.78 323.747L1035.17 336.13C1035.17 336.13 992.384 286.184 991.222 283.813L983.119 220.714L1007.91 210.757Z" fill="#1D302E"/>
<path d="M997.467 218.549C997.532 218.528 997.708 219.194 998.268 220.117C998.819 221.031 999.817 222.203 1001.28 222.925C1002.51 223.545 1003.8 223.718 1004.79 223.684C1005.8 223.655 1006.52 223.442 1006.83 223.376L1006.84 223.373C1006.98 223.378 1007.05 223.39 1007.05 223.406C1007.05 223.423 1006.99 223.445 1006.85 223.47L1006.86 223.468C1006.58 223.615 1005.85 223.909 1004.81 223.995C1003.78 224.084 1002.41 223.937 1001.1 223.28C999.554 222.513 998.536 221.242 998.027 220.257C997.509 219.258 997.427 218.555 997.467 218.549Z" fill="#379C60"/>
<path d="M1011.74 217.332C1011.75 217.326 1011.86 217.498 1012.07 217.833C1012.27 218.168 1012.57 218.667 1012.93 219.322C1013.64 220.631 1014.71 222.553 1015.37 225.177C1015.69 226.485 1015.84 227.994 1015.59 229.58C1015.37 231.182 1014.56 232.724 1013.76 234.279C1013.36 235.065 1012.97 235.872 1012.69 236.739C1012.4 237.602 1012.23 238.522 1012.12 239.468C1011.91 241.362 1012.02 243.351 1012.16 245.384C1012.69 253.517 1013.16 260.879 1013.51 266.255C1013.66 268.897 1013.79 271.048 1013.88 272.584C1013.91 273.301 1013.93 273.875 1013.95 274.305C1013.97 274.7 1013.97 274.906 1013.96 274.907C1013.94 274.908 1013.92 274.703 1013.88 274.311C1013.84 273.882 1013.79 273.31 1013.72 272.594C1013.6 271.061 1013.44 268.913 1013.23 266.274C1012.86 260.9 1012.34 253.541 1011.77 245.411C1011.63 243.375 1011.52 241.362 1011.74 239.424C1011.85 238.457 1012.03 237.511 1012.33 236.619C1012.63 235.722 1013.03 234.899 1013.44 234.112C1014.26 232.55 1015.04 231.065 1015.27 229.525C1015.52 227.997 1015.4 226.529 1015.1 225.241C1014.48 222.657 1013.47 220.721 1012.8 219.395C1012.47 218.76 1012.2 218.254 1012 217.873C1011.82 217.526 1011.73 217.339 1011.74 217.332Z" fill="#379C60"/>
<path d="M1014.52 277.87C1014.52 277.99 1012.62 278.108 1010.36 278.721C1008.1 279.319 1006.39 280.174 1006.34 280.067C1006.28 279.984 1007.95 278.952 1010.26 278.339C1012.57 277.712 1014.52 277.772 1014.52 277.87Z" fill="#379C60"/>
<path d="M1047.83 321.079C1047.85 321.1 1047.66 321.289 1047.3 321.613C1046.94 321.938 1046.4 322.393 1045.73 322.945C1044.4 324.046 1042.51 325.517 1040.36 327.052C1038.2 328.586 1036.2 329.892 1034.72 330.796C1033.98 331.248 1033.38 331.604 1032.96 331.837C1032.53 332.073 1032.29 332.19 1032.28 332.168C1032.25 332.118 1033.14 331.523 1034.57 330.56C1036.01 329.597 1037.98 328.258 1040.13 326.729C1042.27 325.198 1044.18 323.767 1045.56 322.723C1046.94 321.68 1047.8 321.034 1047.83 321.079Z" fill="#379C60"/>
<path d="M994.137 241.729C993.569 242.058 993.505 243.001 994.023 243.405C994.541 243.81 995.429 243.509 995.601 242.871C995.773 242.233 995.159 241.521 994.51 241.603L994.137 241.729Z" fill="#379C60"/>
<path d="M1004.33 249.985C1003.76 250.313 1003.7 251.257 1004.22 251.66C1004.73 252.065 1005.62 251.765 1005.79 251.127C1005.97 250.488 1005.35 249.775 1004.7 249.859L1004.33 249.985Z" fill="#379C60"/>
<path d="M996.289 275.659C995.721 275.986 995.656 276.93 996.174 277.334C996.693 277.738 997.58 277.438 997.753 276.801C997.925 276.162 997.31 275.448 996.661 275.532L996.289 275.659Z" fill="#379C60"/>
<path d="M1001.63 288.721C1001.06 289.049 1001 289.992 1001.51 290.396C1002.03 290.801 1002.92 290.5 1003.09 289.863C1003.26 289.225 1002.65 288.511 1002 288.595L1001.63 288.721Z" fill="#379C60"/>
<path d="M1013.85 301.812C1013.28 302.14 1013.21 303.083 1013.73 303.488C1014.25 303.893 1015.14 303.592 1015.31 302.954C1015.48 302.317 1014.87 301.602 1014.22 301.686L1013.85 301.812Z" fill="#379C60"/>
<path d="M1023.38 300.545C1022.81 300.873 1022.75 301.816 1023.27 302.221C1023.79 302.625 1024.67 302.325 1024.85 301.687C1025.02 301.049 1024.4 300.335 1023.75 300.419L1023.38 300.545Z" fill="#379C60"/>
<path d="M1032.56 321.233C1031.99 321.561 1031.92 322.505 1032.44 322.909C1032.96 323.313 1033.85 323.013 1034.02 322.375C1034.19 321.737 1033.58 321.023 1032.93 321.107L1032.56 321.233Z" fill="#379C60"/>
<path d="M1033.04 311.282C1032.47 311.61 1032.4 312.554 1032.92 312.958C1033.44 313.362 1034.33 313.062 1034.5 312.424C1034.67 311.786 1034.06 311.072 1033.41 311.155L1033.04 311.282Z" fill="#379C60"/>
<path d="M1001.19 263.229C1000.62 263.557 1000.56 264.501 1001.08 264.905C1001.6 265.308 1002.48 265.009 1002.66 264.37C1002.83 263.733 1002.21 263.018 1001.56 263.102L1001.19 263.229Z" fill="#379C60"/>
<path d="M1013.93 286.939C1013.36 287.268 1013.29 288.211 1013.81 288.615C1014.33 289.02 1015.22 288.719 1015.39 288.082C1015.56 287.443 1014.95 286.729 1014.3 286.814L1013.93 286.939Z" fill="#379C60"/>
<path d="M1022.76 311.246C1022.19 311.576 1022.13 312.519 1022.64 312.923C1023.16 313.327 1024.05 313.027 1024.22 312.389C1024.4 311.751 1023.78 311.037 1023.13 311.121L1022.76 311.246Z" fill="#379C60"/>
<path d="M991.829 257.05C991.261 257.379 991.197 258.322 991.714 258.726C992.233 259.131 993.121 258.83 993.293 258.193C993.465 257.554 992.851 256.84 992.201 256.924L991.829 257.05Z" fill="#379C60"/>
<path d="M988.596 231.273C988.028 231.602 987.964 232.545 988.482 232.949C989 233.353 989.888 233.054 990.061 232.415C990.232 231.777 989.618 231.064 988.969 231.147L988.596 231.273Z" fill="#379C60"/>
<path d="M1002.89 234.919C1002.32 235.249 1002.26 236.191 1002.77 236.596C1003.29 237 1004.18 236.7 1004.35 236.062C1004.52 235.424 1003.91 234.711 1003.26 234.794L1002.89 234.919Z" fill="#379C60"/>
<path d="M999.187 164.847C1002.55 164.648 1006.13 165.727 1008.96 168.51C1014.89 175.332 1009.95 184.172 1007.52 191.628L1005.68 197.277C1004.47 202.07 1011.77 209.186 1014.38 217.014L982.382 224.157L979.235 205.305L974.986 191.9L969.708 195.291L958.606 182.087L969.066 173.809C977.465 165.65 987.649 165.591 987.649 165.591L999.187 164.847Z" fill="#8FB198"/>
<path d="M978.405 180.979C978.432 181.047 977.703 181.285 976.746 182.014C975.796 182.725 974.644 184.025 974.129 185.787C973.621 187.552 973.9 189.274 974.32 190.39C974.738 191.525 975.225 192.122 975.166 192.164C975.148 192.179 975.007 192.047 974.795 191.772C974.582 191.498 974.312 191.068 974.063 190.494C973.558 189.363 973.213 187.55 973.752 185.676C974.298 183.804 975.557 182.465 976.584 181.786C977.101 181.438 977.558 181.223 977.884 181.107C978.209 180.991 978.398 180.957 978.405 180.979Z" fill="#1D302E"/>
<path d="M986.681 165.489C986.774 165.473 986.586 166.781 987.445 168.567C987.878 169.438 988.585 170.405 989.64 171.13C990.683 171.864 992.092 172.272 993.56 172.197C995.028 172.111 996.386 171.55 997.344 170.706C998.315 169.869 998.913 168.831 999.249 167.917C999.912 166.047 999.583 164.768 999.677 164.774C999.69 164.771 999.712 164.846 999.743 164.991C999.779 165.137 999.806 165.353 999.828 165.636C999.867 166.2 999.82 167.035 999.512 168.009C999.195 168.972 998.596 170.079 997.58 170.982C996.576 171.894 995.135 172.503 993.582 172.592C992.029 172.674 990.532 172.227 989.435 171.431C988.328 170.644 987.613 169.61 987.194 168.688C986.783 167.753 986.647 166.927 986.624 166.363C986.616 166.08 986.619 165.861 986.64 165.712C986.654 165.565 986.669 165.488 986.681 165.489Z" fill="#1D302E"/>
<path d="M943.704 174.934C943.68 173.382 939.16 168.895 940.194 168.334C941.541 167.603 944.703 173.234 945.005 173.69C945.297 174.132 945.957 173.703 945.664 173.307C945.241 172.738 940.948 166.643 942.265 165.911C942.996 165.507 943.565 166.923 943.565 166.923C943.565 166.923 947.172 172.937 947.782 172.57C948.403 172.198 946.4 168.593 945.642 167.427C944.892 166.275 945.12 165.433 945.893 165.508C946.419 165.559 948.825 169.072 949.549 170.243C950.274 171.413 952.205 174.663 952.52 172.247L952.54 172.137C952.787 169.75 953.76 167.994 954.384 167.679C954.994 167.372 955.628 168.008 955.478 168.683C955.462 168.793 955.431 168.905 955.366 169.012L955.286 169.176C955.04 169.818 954.872 170.806 954.769 171.577C954.67 172.308 954.692 173.051 954.842 173.772C955.016 174.605 955.197 175.318 955.366 175.912C958.379 178.95 967.18 187.215 977.272 191.022C979.094 191.71 996.668 178.04 996.668 178.04L1003.6 190.549C1001.73 192.349 996.273 196.193 987.482 203.057C973.139 214.255 947.513 181.319 947.513 181.319L947.253 181.08C945.053 178.996 942.456 176.449 941.264 174.953C939.047 172.17 939.288 171.959 939.647 171.744C940.615 171.166 943.728 176.485 943.704 174.934Z" fill="#F8C0A9"/>
<path d="M980.156 188.548C980.123 188.501 980.938 187.87 982.262 186.864C983.666 185.785 985.447 184.418 987.416 182.907C989.361 181.362 991.12 179.967 992.507 178.867C993.806 177.827 994.615 177.189 994.651 177.233C994.668 177.253 994.49 177.44 994.152 177.761C993.812 178.082 993.311 178.533 992.684 179.083C991.429 180.179 989.66 181.655 987.655 183.22C985.651 184.784 983.792 186.14 982.425 187.091C981.741 187.566 981.182 187.942 980.789 188.191C980.396 188.442 980.172 188.57 980.156 188.548Z" fill="#1D302E"/>
<path d="M1008.26 168.567C1008.26 168.567 1014.55 174.918 1006.67 186.976C998.78 199.034 987.769 204.721 987.769 204.721L979.735 189.138C986.574 185.324 992.887 180.845 998.557 175.546L1008.24 168.55L1008.26 168.567Z" fill="#8FB198"/>
<path d="M979.603 188.79C979.655 188.766 980.093 189.648 980.808 191.067C981.523 192.486 982.526 194.436 983.701 196.552C984.879 198.669 986.006 200.55 986.834 201.905C987.661 203.259 988.179 204.095 988.131 204.128C988.109 204.144 987.95 203.955 987.685 203.599C987.416 203.243 987.045 202.716 986.601 202.057C985.71 200.737 984.541 198.872 983.359 196.746C982.179 194.621 981.211 192.642 980.558 191.188C980.232 190.461 979.98 189.867 979.819 189.452C979.657 189.036 979.579 188.802 979.603 188.79Z" fill="#1D302E"/>
<path d="M1001.05 194.889C1001.11 194.976 998.417 197.179 995.025 199.808C991.632 202.438 988.828 204.498 988.761 204.412C988.696 204.325 991.392 202.124 994.785 199.494C998.178 196.865 1000.98 194.803 1001.05 194.889Z" fill="#1D302E"/>
<path d="M999.704 166.052L999.667 145.946C999.661 141.985 997.726 138.279 994.494 136.034L993.064 135.042C991.929 134.33 990.51 134.251 989.305 134.835L986.496 136.193C983.922 137.439 982.257 140.036 982.193 142.917C982.111 146.592 982.046 151.536 982.195 154.356C982.452 159.242 987.326 159.802 987.326 159.802C987.326 159.802 987.158 162.495 986.987 165.328C986.774 168.831 989.381 171.86 992.848 172.132C996.42 172.414 999.52 169.665 999.704 166.052Z" fill="#F8C0A9"/>
<path d="M987.323 159.802C987.323 159.802 990.581 159.865 993.749 157.668C993.749 157.668 992.269 161.242 987.42 161.001L987.323 159.802Z" fill="#E4AF9A"/>
<path d="M995.447 134.482C998.542 136.11 1000.49 137.869 1002.67 138.198C1004.84 138.526 1007.06 138.333 1009.25 138.41C1011.45 138.488 1013.74 138.877 1015.5 140.199C1017.27 141.521 1018.35 143.984 1017.52 146.041C1020.47 146.079 1023.46 147.508 1025.06 150.019C1026.66 152.528 1026.63 156.096 1024.71 158.365C1023.79 159.451 1022.52 160.205 1021.67 161.352C1021.13 162.092 1020.79 162.965 1020.25 163.714C1018.78 165.787 1015.82 166.611 1013.5 165.59C1010.87 164.428 1009.24 161.289 1006.4 160.852C1004.88 160.619 1003.35 161.242 1001.82 161.123C999.433 160.94 997.487 158.949 996.608 156.703C995.73 154.457 995.711 151.976 995.703 149.561L995.447 134.482Z" fill="#141414"/>
<path d="M983.072 136.992C981.934 138.262 981.218 139.913 981.071 141.619C980.923 143.326 981.341 145.077 982.243 146.528C983.16 145.036 984.076 143.508 984.499 141.806C984.921 140.104 984.784 138.173 983.729 136.778L983.072 136.992Z" fill="#141414"/>
<path d="M983.102 136.949C983.039 140.042 985.288 142.887 988.125 144.054C988.534 144.222 988.972 144.363 989.411 144.317C989.849 144.273 990.291 144 990.418 143.574C990.545 143.147 990.233 142.61 989.791 142.614C990.843 143.507 991.985 144.29 993.194 144.948C993.76 145.255 994.415 145.542 995.025 145.338C995.635 145.133 995.955 144.179 995.413 143.831C996.301 144.848 996.951 147.571 998.068 148.324C998.421 148.561 999.218 146.968 999.618 146.825C1000.11 146.649 1000.25 146.032 1000.33 145.511C1000.59 143.578 1000.84 141.543 1000.13 139.731C999.063 137.039 996.417 134.494 993.649 133.729C991.781 133.212 989.438 133.456 987.528 133.777C985.618 134.098 983.888 135.666 982.912 137.354L983.102 136.949Z" fill="#141414"/>
<path d="M998.459 146.628C998.904 146.16 999.653 146.048 1000.24 146.31C1000.83 146.571 1001.24 147.165 1001.35 147.803C1001.46 148.442 1001.28 149.113 1000.93 149.656C1000.59 150.18 999.988 150.621 999.386 150.469L998.459 146.628Z" fill="#F8C0A9"/>
<path d="M1014.07 148.324C1014.05 148.285 1014.58 148.176 1015.43 147.765C1016.27 147.356 1017.5 146.627 1018.45 145.227C1018.91 144.529 1019.28 143.667 1019.37 142.685C1019.47 141.712 1019.33 140.628 1018.82 139.657C1018.32 138.68 1017.42 137.885 1016.28 137.518C1015.16 137.132 1013.88 137.125 1012.63 137.355C1010.12 137.811 1007.82 139.03 1005.47 138.962C1003.15 138.9 1001.23 138.049 999.65 137.429C998.069 136.775 996.828 136.157 995.985 135.706C995.564 135.481 995.241 135.297 995.025 135.167C994.809 135.037 994.698 134.963 994.705 134.95C994.712 134.938 994.834 134.989 995.062 135.096C995.328 135.224 995.656 135.379 996.053 135.569C996.915 135.975 998.168 136.552 999.752 137.169C1001.34 137.756 1003.25 138.561 1005.47 138.596C1007.7 138.652 1009.96 137.447 1012.56 136.965C1013.86 136.727 1015.2 136.731 1016.41 137.15C1017.62 137.544 1018.62 138.43 1019.14 139.487C1019.67 140.54 1019.81 141.692 1019.7 142.721C1019.59 143.76 1019.17 144.67 1018.67 145.386C1017.65 146.827 1016.36 147.532 1015.49 147.906C1015.05 148.096 1014.69 148.197 1014.45 148.261C1014.2 148.315 1014.07 148.338 1014.07 148.324Z" fill="#141414"/>
<path d="M1015.11 134.956C1015.09 134.993 1014.8 134.848 1014.25 134.791C1013.69 134.728 1012.87 134.794 1011.94 135.164C1011 135.514 1010.01 136.208 1008.84 136.912C1007.69 137.632 1006.2 138.176 1004.61 138.212C1003.02 138.272 1001.52 137.95 1000.24 137.493C998.954 137.036 997.865 136.463 996.977 135.954C996.089 135.442 995.396 134.988 994.92 134.669C994.446 134.349 994.192 134.159 994.207 134.136C994.22 134.112 994.502 134.257 995 134.537C995.499 134.815 996.213 135.231 997.11 135.708C998.885 136.636 1001.51 137.922 1004.59 137.816C1006.13 137.777 1007.52 137.283 1008.66 136.595C1009.81 135.923 1010.85 135.233 1011.84 134.901C1012.82 134.549 1013.7 134.524 1014.27 134.638C1014.56 134.69 1014.77 134.772 1014.91 134.834C1015.04 134.902 1015.11 134.944 1015.11 134.956Z" fill="#141414"/>
<path d="M787.838 96.6108C787.846 96.6171 789.982 95.2652 792.611 93.9127C796.024 92.1563 800.268 90.4006 801.759 91.6207C804.398 93.7788 805.861 97.3169 805.861 97.3169L793.708 102.195L787.838 96.6108Z" fill="#F8C0A9"/>
<path d="M740.474 103.323L765.935 106.53L789.654 93.3904L795.514 101.942L765.808 121.26L735.637 117.442L740.474 103.323Z" fill="#E94D5C"/>
<path d="M765.808 121.26L735.637 117.442L740.474 103.323L765.935 106.53L789.654 93.3904L795.514 101.942L765.808 121.26Z" fill="#32734C"/>
<path d="M765.454 135.833C765.454 135.833 760.941 70.4734 820.492 63.0315L830.281 129.196L765.454 135.833Z" fill="#1D302E"/>
<path d="M634.612 256.632L640.448 254.088L635.798 243.022L627.221 246.652L627.466 247.357C628.581 250.482 633.353 263.169 634.824 264.948C636.465 266.932 634.612 256.632 634.612 256.632Z" fill="#379C60"/>
<path d="M630.411 245.301L630.448 245.287L630.411 245.301Z" fill="#FEFEFE"/>
<path d="M629.106 250.552L627.473 246.565L627.382 246.597L630.41 245.302L630.447 245.287C630.914 246.19 630.996 247.23 630.737 248.214C630.489 249.155 629.899 249.999 629.106 250.552Z" fill="#8FB198"/>
<path d="M635.137 265.258C635.121 265.258 635.105 265.256 635.088 265.251C635.019 265.234 634.907 265.099 634.758 264.865C634.781 264.894 634.803 264.922 634.824 264.948C634.968 265.122 635.085 265.202 635.179 265.202C635.234 265.202 635.281 265.174 635.321 265.123C635.272 265.209 635.212 265.258 635.137 265.258ZM635.436 262.59C635.414 262.317 635.387 262.033 635.356 261.744C635.363 261.806 635.402 262.145 635.436 262.59ZM631.326 257.438C629.754 253.673 628.1 249.393 627.221 246.652L627.466 247.357C628.062 249.028 629.703 253.43 631.326 257.438Z" fill="#FEFEFE"/>
<path d="M635.179 265.202C635.085 265.202 634.968 265.122 634.824 264.949C634.803 264.923 634.781 264.895 634.758 264.865C634.104 263.828 632.748 260.845 631.326 257.438C629.703 253.43 628.062 249.028 627.466 247.357L627.221 246.652L627.382 246.597L628.993 250.627C629.031 250.603 629.069 250.577 629.106 250.552L633.532 261.36C633.532 261.36 633.841 261.307 634.207 261.307C634.656 261.307 635.191 261.385 635.355 261.734C635.355 261.734 635.355 261.738 635.356 261.745C635.387 262.034 635.414 262.317 635.436 262.59C635.503 263.453 635.552 264.713 635.321 265.124C635.281 265.175 635.234 265.202 635.179 265.202Z" fill="#8FB198"/>
<path d="M628.993 250.627L627.382 246.597L627.473 246.566L629.106 250.552C629.069 250.578 629.031 250.603 628.993 250.627Z" fill="#F9D1D9"/>
<path d="M627.407 246.388C627.403 246.39 627.423 246.459 627.467 246.587C627.526 246.756 627.591 246.94 627.663 247.147C627.869 247.705 628.122 248.389 628.422 249.197C629.074 250.921 630.006 253.292 631.092 255.888C632.179 258.484 633.214 260.812 633.984 262.486C634.35 263.265 634.659 263.925 634.911 264.462C635.008 264.66 635.094 264.835 635.172 264.995C635.233 265.116 635.268 265.179 635.272 265.177C635.276 265.174 635.251 265.108 635.198 264.983C635.128 264.82 635.05 264.64 634.962 264.439C634.722 263.896 634.426 263.23 634.077 262.443C633.33 260.758 632.312 258.425 631.225 255.831C630.14 253.237 629.193 250.874 628.517 249.158C628.201 248.358 627.933 247.679 627.716 247.127C627.633 246.923 627.561 246.742 627.494 246.577C627.442 246.451 627.412 246.387 627.407 246.388Z" fill="#303B3F"/>
<path d="M633.361 261.429C633.373 261.472 633.862 261.3 634.47 261.398C635.079 261.486 635.496 261.795 635.52 261.757C635.55 261.735 635.144 261.35 634.491 261.254C633.839 261.151 633.339 261.399 633.361 261.429Z" fill="#1D302E"/>
<path d="M633.632 257.462C633.626 257.501 633.88 257.576 634.199 257.629C634.519 257.684 634.783 257.694 634.79 257.655C634.797 257.615 634.543 257.539 634.223 257.486C633.903 257.433 633.639 257.421 633.632 257.462Z" fill="#1D302E"/>
<path d="M633.726 256.364C633.709 256.401 633.898 256.526 634.147 256.644C634.397 256.762 634.613 256.828 634.63 256.792C634.647 256.755 634.458 256.63 634.208 256.512C633.959 256.394 633.743 256.329 633.726 256.364Z" fill="#1D302E"/>
<path d="M634.523 255.355C634.486 255.371 634.562 255.643 634.692 255.964C634.823 256.285 634.959 256.533 634.995 256.518C635.032 256.502 634.956 256.23 634.826 255.909C634.695 255.588 634.56 255.34 634.523 255.355Z" fill="#1D302E"/>
<path d="M635.171 254.849C635.133 254.85 635.125 255.186 635.256 255.572C635.384 255.96 635.591 256.223 635.623 256.201C635.658 256.179 635.514 255.895 635.393 255.527C635.268 255.159 635.213 254.845 635.171 254.849Z" fill="#1D302E"/>
<path d="M634.746 257.428C634.731 257.433 634.813 257.721 635.049 258.137C635.167 258.346 635.327 258.582 635.532 258.824C635.639 258.941 635.736 259.07 635.891 259.182C635.967 259.232 636.065 259.282 636.183 259.265C636.302 259.248 636.396 259.141 636.42 259.036C636.484 258.206 635.82 257.688 635.366 257.585C635.129 257.522 634.929 257.532 634.798 257.554C634.665 257.577 634.598 257.608 634.6 257.616C634.601 257.645 634.898 257.546 635.337 257.684C635.552 257.752 635.793 257.891 635.983 258.123C636.162 258.343 636.332 258.692 636.281 258.995C636.246 259.144 636.096 259.157 635.969 259.062C635.845 258.978 635.736 258.845 635.632 258.735C635.427 258.505 635.263 258.28 635.136 258.083C634.882 257.69 634.768 257.418 634.746 257.428Z" fill="#1D302E"/>
<path d="M634.789 257.627C634.785 257.64 635.009 257.668 635.312 257.5C635.46 257.416 635.621 257.28 635.746 257.086C635.849 256.893 635.997 256.64 635.856 256.34C635.766 256.183 635.546 256.183 635.439 256.26C635.321 256.326 635.238 256.426 635.175 256.515C635.043 256.696 634.951 256.876 634.889 257.033C634.767 257.348 634.759 257.56 634.775 257.563C634.797 257.567 634.842 257.366 634.983 257.075C635.053 256.931 635.15 256.764 635.281 256.596C635.389 256.435 635.628 256.254 635.735 256.419C635.827 256.589 635.727 256.846 635.632 257.015C635.527 257.191 635.389 257.325 635.259 257.412C634.995 257.589 634.784 257.601 634.789 257.627Z" fill="#1D302E"/>
<path d="M630.502 245.333C630.478 245.345 630.665 245.636 630.817 246.161C630.97 246.68 631.057 247.456 630.836 248.256C630.614 249.059 630.141 249.675 629.744 250.039C629.344 250.409 629.035 250.561 629.049 250.584C629.053 250.592 629.133 250.562 629.27 250.49C629.407 250.418 629.598 250.296 629.811 250.117C630.237 249.764 630.744 249.132 630.975 248.296C631.206 247.46 631.096 246.655 630.914 246.13C630.824 245.866 630.723 245.662 630.643 245.528C630.563 245.395 630.509 245.327 630.502 245.333Z" fill="#303B3F"/>
<path d="M635.546 244.528C635.531 244.491 634.505 244.88 633.254 245.395C632.003 245.911 631.001 246.36 631.016 246.397C631.031 246.434 632.057 246.046 633.309 245.53C634.559 245.014 635.562 244.566 635.546 244.528Z" fill="#303B3F"/>
<path d="M630.646 251.563C630.61 251.574 630.795 252.344 631.165 253.247C631.533 254.15 631.94 254.829 631.972 254.811C632.01 254.791 631.663 254.086 631.299 253.192C630.932 252.298 630.686 251.551 630.646 251.563Z" fill="#303B3F"/>
<path d="M629.74 249.392C629.701 249.377 629.613 249.516 629.479 249.66C629.348 249.806 629.217 249.906 629.236 249.943C629.251 249.979 629.433 249.927 629.585 249.759C629.739 249.592 629.776 249.405 629.74 249.392Z" fill="#303B3F"/>
<path d="M630.405 248.145C630.368 248.129 630.283 248.249 630.216 248.412C630.149 248.575 630.125 248.721 630.162 248.736C630.199 248.751 630.283 248.631 630.35 248.468C630.417 248.305 630.441 248.159 630.405 248.145Z" fill="#303B3F"/>
<path d="M630.374 246.777C630.34 246.801 630.403 246.948 630.415 247.134C630.431 247.321 630.39 247.475 630.427 247.493C630.459 247.515 630.576 247.355 630.559 247.124C630.543 246.893 630.403 246.752 630.374 246.777Z" fill="#303B3F"/>
<path d="M630.242 245.852C630.203 245.853 630.173 245.94 630.176 246.047C630.179 246.154 630.214 246.24 630.254 246.238C630.294 246.237 630.324 246.149 630.32 246.042C630.317 245.936 630.282 245.85 630.242 245.852Z" fill="#303B3F"/>
<path d="M616.432 209.155L622.783 208.888L622.362 196.875L613.067 197.167L613.046 197.914C612.979 201.235 612.94 214.806 613.683 216.998C614.513 219.442 616.432 209.155 616.432 209.155Z" fill="#379C60"/>
<path d="M613.446 201.489L613.334 197.178L613.238 197.174L616.554 197.057H616.563C616.679 198.07 616.388 199.07 615.796 199.896C615.232 200.685 614.382 201.26 613.446 201.489Z" fill="#8FB198"/>
<path d="M613.925 217.411C613.89 217.411 613.855 217.401 613.822 217.377C613.764 217.335 613.707 217.168 613.651 216.893C613.662 216.93 613.673 216.966 613.684 216.998C613.772 217.258 613.872 217.373 613.981 217.373C614.015 217.373 614.051 217.362 614.086 217.34C614.031 217.386 613.977 217.411 613.925 217.411ZM615.081 215.05C615.161 214.774 615.24 214.485 615.318 214.188C615.318 214.188 615.226 214.559 615.081 215.05ZM613.078 208.711C613.009 206.607 612.968 204.368 612.966 202.298V201.923C612.968 200.124 612.999 198.469 613.067 197.167L613.046 197.914C613.01 199.687 612.983 204.385 613.078 208.711Z" fill="#FEFEFE"/>
<path d="M613.981 217.373C613.872 217.373 613.772 217.258 613.684 216.998C613.673 216.966 613.662 216.93 613.651 216.893C613.407 215.686 613.199 212.407 613.078 208.711C612.983 204.385 613.01 199.687 613.046 197.914L613.067 197.167L613.238 197.173H613.237L613.313 201.519C613.357 201.51 613.402 201.5 613.445 201.489L613.749 213.18C613.749 213.18 615.264 213.49 615.318 214.188C615.24 214.485 615.161 214.774 615.081 215.05C614.837 215.877 614.443 217.042 614.086 217.34C614.05 217.362 614.015 217.373 613.981 217.373Z" fill="#8FB198"/>
<path d="M613.313 201.52L613.237 197.174H613.238L613.334 197.178L613.445 201.489C613.402 201.5 613.357 201.511 613.313 201.52Z" fill="#1D302E"/>
<path d="M613.335 196.988C613.329 196.988 613.324 197.058 613.319 197.195C613.315 197.373 613.31 197.568 613.304 197.789C613.3 198.384 613.294 199.115 613.286 199.976C613.284 201.822 613.315 204.373 613.409 207.189C613.504 210.006 613.645 212.554 613.772 214.396C613.837 215.255 613.892 215.983 613.937 216.576C613.958 216.796 613.975 216.99 613.991 217.168C614.006 217.303 614.016 217.374 614.021 217.374C614.025 217.373 614.025 217.302 614.021 217.165C614.012 216.987 614.003 216.792 613.993 216.572C613.96 215.979 613.92 215.25 613.874 214.39C613.773 212.546 613.648 210 613.553 207.184C613.459 204.37 613.412 201.82 613.389 199.975C613.377 199.114 613.368 198.384 613.36 197.79C613.356 197.569 613.352 197.374 613.348 197.195C613.344 197.058 613.339 196.988 613.335 196.988Z" fill="#303B3F"/>
<path d="M613.564 213.183C613.56 213.227 614.078 213.244 614.611 213.554C615.149 213.857 615.429 214.297 615.464 214.27C615.5 214.26 615.258 213.753 614.682 213.428C614.109 213.096 613.554 213.148 613.564 213.183Z" fill="#1D302E"/>
<path d="M615.224 209.577C615.203 209.611 615.414 209.773 615.693 209.939C615.973 210.105 616.216 210.212 616.236 210.176C616.256 210.142 616.046 209.98 615.766 209.814C615.487 209.648 615.244 209.542 615.224 209.577Z" fill="#1D302E"/>
<path d="M615.7 208.586C615.671 208.614 615.803 208.799 615.994 209C616.185 209.2 616.364 209.34 616.393 209.312C616.421 209.284 616.289 209.099 616.098 208.898C615.907 208.697 615.728 208.558 615.7 208.586Z" fill="#1D302E"/>
<path d="M616.801 207.931C616.761 207.932 616.736 208.214 616.744 208.561C616.752 208.908 616.791 209.188 616.831 209.187C616.87 209.187 616.896 208.904 616.888 208.557C616.88 208.211 616.841 207.93 616.801 207.931Z" fill="#1D302E"/>
<path d="M617.586 207.692C617.55 207.68 617.424 207.991 617.409 208.399C617.391 208.808 617.492 209.127 617.529 209.118C617.57 209.11 617.536 208.792 617.553 208.405C617.567 208.017 617.627 207.704 617.586 207.692Z" fill="#1D302E"/>
<path d="M616.276 209.948C616.26 209.948 616.234 210.245 616.307 210.72C616.343 210.956 616.409 211.235 616.515 211.535C616.573 211.684 616.618 211.84 616.723 211.998C616.776 212.073 616.85 212.155 616.967 212.181C617.082 212.21 617.209 212.143 617.269 212.053C617.622 211.302 617.185 210.578 616.798 210.317C616.6 210.173 616.41 210.111 616.28 210.084C616.147 210.057 616.073 210.062 616.072 210.071C616.063 210.098 616.375 210.113 616.737 210.399C616.914 210.541 617.089 210.759 617.184 211.044C617.273 211.314 617.308 211.702 617.153 211.967C617.068 212.092 616.923 212.05 616.838 211.916C616.752 211.792 616.698 211.629 616.639 211.488C616.53 211.2 616.456 210.93 616.407 210.701C616.31 210.241 616.299 209.947 616.276 209.948Z" fill="#1D302E"/>
<path d="M616.245 210.149C616.237 210.16 616.436 210.268 616.779 210.219C616.947 210.194 617.145 210.125 617.33 209.989C617.495 209.846 617.723 209.663 617.698 209.332C617.669 209.155 617.464 209.073 617.336 209.107C617.203 209.126 617.09 209.19 616.999 209.25C616.812 209.372 616.662 209.507 616.549 209.631C616.323 209.881 616.24 210.076 616.255 210.084C616.274 210.096 616.387 209.925 616.621 209.704C616.739 209.594 616.888 209.474 617.069 209.364C617.227 209.253 617.515 209.17 617.556 209.362C617.581 209.555 617.397 209.759 617.25 209.882C617.088 210.009 616.912 210.084 616.76 210.118C616.451 210.188 616.249 210.122 616.245 210.149Z" fill="#1D302E"/>
<path d="M616.599 197.12C616.572 197.123 616.643 197.462 616.598 198.007C616.558 198.547 616.365 199.303 615.874 199.971C615.383 200.639 614.722 201.045 614.222 201.241C613.719 201.442 613.376 201.472 613.38 201.498C613.382 201.507 613.467 201.509 613.621 201.491C613.774 201.472 613.995 201.428 614.258 201.338C614.78 201.161 615.478 200.754 615.99 200.058C616.502 199.361 616.685 198.569 616.701 198.014C616.71 197.733 616.689 197.507 616.661 197.353C616.633 197.199 616.608 197.117 616.599 197.12Z" fill="#1D302E"/>
<path d="M621.594 198.191C621.593 198.151 620.497 198.142 619.146 198.172C617.795 198.202 616.701 198.259 616.701 198.299C616.702 198.339 617.798 198.347 619.149 198.317C620.5 198.287 621.595 198.231 621.594 198.191Z" fill="#303B3F"/>
<path d="M614.525 202.99C614.488 202.986 614.388 203.774 614.413 204.75C614.436 205.727 614.576 206.507 614.613 206.502C614.655 206.497 614.58 205.713 614.558 204.746C614.532 203.779 614.567 202.993 614.525 202.99Z" fill="#1D302E"/>
<path d="M614.448 200.636C614.418 200.608 614.285 200.705 614.109 200.792C613.935 200.881 613.778 200.927 613.781 200.968C613.783 201.008 613.972 201.024 614.174 200.923C614.376 200.822 614.477 200.661 614.448 200.636Z" fill="#1D302E"/>
<path d="M615.511 199.71C615.482 199.682 615.361 199.764 615.24 199.893C615.12 200.021 615.045 200.147 615.074 200.175C615.104 200.202 615.225 200.121 615.345 199.992C615.466 199.864 615.54 199.738 615.511 199.71Z" fill="#1D302E"/>
<path d="M615.967 198.423C615.927 198.432 615.934 198.592 615.878 198.77C615.827 198.95 615.734 199.08 615.762 199.11C615.785 199.142 615.951 199.035 616.017 198.813C616.083 198.591 616.003 198.41 615.967 198.423Z" fill="#1D302E"/>
<path d="M616.171 197.511C616.134 197.498 616.075 197.568 616.041 197.669C616.006 197.77 616.008 197.863 616.045 197.877C616.083 197.889 616.142 197.819 616.177 197.717C616.212 197.617 616.21 197.524 616.171 197.511Z" fill="#1D302E"/>
<path d="M804.681 113.379C807.303 112.327 810.43 111.011 811.975 110.123C814.852 108.47 814.714 108.203 814.474 107.891C813.829 107.053 809.31 110.601 809.859 109.26C810.408 107.919 815.867 105.581 815.158 104.735C814.234 103.632 809.568 107.435 809.151 107.726C808.746 108.01 808.317 107.408 808.707 107.166C809.269 106.817 815.078 103.001 814.18 101.909C813.682 101.302 812.706 102.338 812.706 102.338C812.706 102.338 807.521 106.32 807.114 105.79C806.701 105.251 809.67 102.808 810.727 102.057C811.77 101.315 811.858 100.502 811.161 100.3C810.685 100.162 807.397 102.384 806.368 103.152C805.34 103.919 802.555 106.077 803.102 103.867C803.648 101.655 803.264 99.7506 802.814 99.3131C802.362 98.8758 801.604 99.3707 801.727 100.066C801.826 100.627 801.711 101.617 801.594 102.359C801.498 102.97 801.307 103.562 801.019 104.107C800.769 104.579 800.535 104.988 800.317 105.352L798.031 109.256L800.918 114.81L804.681 113.379Z" fill="#F8C0A9"/>
<path d="M711.848 159.209L714.249 154.632L701.277 143.728C701.277 143.728 688.439 155.171 687.56 157.531C686.68 159.891 669.832 194.5 669.832 194.5L618.025 195.982L617.434 216.166C617.434 216.166 667.584 214.897 675.506 214.441C685.88 213.845 690.895 199.135 690.895 199.135L691.86 197.295C691.171 202.957 690.506 208.078 689.988 211.143C689.705 212.825 688.674 214.278 687.189 215.094L630.67 242.224L639.181 262.224C639.181 262.224 705.148 229.464 707.816 222.409C711.118 213.678 726.704 161.934 726.704 161.934L711.848 159.209Z" fill="#1D302E"/>
<path d="M689.54 212.563C689.527 212.558 689.587 212.372 689.712 212.02C689.856 211.634 690.046 211.124 690.283 210.487L690.277 210.512C690.344 208.434 690.583 204.984 691.182 200.689C691.749 196.389 692.677 191.253 693.574 185.717C694.167 182.01 694.679 178.462 694.882 175.226C695.042 171.987 694.757 169.052 694.887 166.576C694.941 165.339 695.087 164.224 695.27 163.258C695.473 162.295 695.702 161.479 695.938 160.829C696.164 160.175 696.377 159.684 696.537 159.357C696.689 159.028 696.775 158.858 696.788 158.864C696.8 158.87 696.738 159.051 696.61 159.389C696.473 159.724 696.285 160.222 696.082 160.878C695.872 161.529 695.666 162.344 695.485 163.299C695.326 164.259 695.2 165.361 695.164 166.586C695.07 169.038 695.384 171.967 695.243 175.243C695.058 178.513 694.556 182.066 693.962 185.78C693.063 191.324 692.113 196.45 691.505 200.735C690.865 205.016 690.568 208.449 690.432 210.519L690.431 210.534L690.426 210.545C690.161 211.17 689.948 211.671 689.787 212.051C689.637 212.393 689.552 212.568 689.54 212.563Z" fill="#379C60"/>
<path d="M722.547 170.425C722.565 170.437 722.463 170.646 722.211 170.982C721.961 171.318 721.529 171.759 720.902 172.177C720.277 172.596 719.437 172.963 718.449 173.123C717.467 173.285 716.328 173.21 715.248 172.765C714.176 172.302 713.323 171.536 712.748 170.715C712.166 169.893 711.836 169.031 711.693 168.288C711.547 167.544 711.556 166.924 711.617 166.508C711.677 166.091 711.752 165.871 711.774 165.875C711.858 165.881 711.613 166.807 711.964 168.225C712.134 168.928 712.476 169.734 713.039 170.5C713.599 171.263 714.405 171.969 715.4 172.4C716.402 172.811 717.465 172.896 718.396 172.762C719.332 172.63 720.141 172.309 720.756 171.939C722.003 171.195 722.483 170.369 722.547 170.425Z" fill="#379C60"/>
<path d="M693.734 218.488C693.636 218.543 692.872 217.32 691.87 215.859C690.872 214.396 690.012 213.24 690.097 213.166C690.177 213.097 691.183 214.151 692.193 215.634C693.207 217.114 693.827 218.437 693.734 218.488Z" fill="#379C60"/>
<path d="M696.654 216.595C696.579 216.682 695.244 215.593 693.488 214.417C691.735 213.234 690.226 212.411 690.276 212.307C690.318 212.213 691.926 212.887 693.705 214.087C695.488 215.281 696.723 216.52 696.654 216.595Z" fill="#379C60"/>
<path d="M644.602 259.143C644.504 259.191 642.321 254.933 639.725 249.632C637.129 244.33 635.103 239.993 635.2 239.944C635.298 239.896 637.481 244.154 640.077 249.456C642.673 254.758 644.699 259.094 644.602 259.143Z" fill="#379C60"/>
<path d="M624.048 215.991C624.021 215.99 624.005 215.704 624 215.187C623.997 214.583 623.995 213.854 623.992 213C623.992 211.153 623.969 208.603 623.917 205.786C623.867 202.967 623.82 200.414 623.816 198.566C623.813 197.642 623.818 196.894 623.832 196.377C623.845 195.859 623.866 195.573 623.893 195.573C623.92 195.572 623.951 195.857 623.985 196.374C624.015 196.978 624.051 197.706 624.093 198.56C624.168 200.406 624.26 202.957 624.31 205.779C624.361 208.599 624.34 211.156 624.27 213.004C624.236 213.928 624.195 214.677 624.152 215.192C624.111 215.708 624.075 215.993 624.048 215.991Z" fill="#379C60"/>
<path d="M735.804 82.4448C736.24 80.7067 735.527 78.7318 734.081 77.6922C732.635 76.653 730.544 76.6242 729.077 77.6334C727.61 78.6428 726.873 80.6268 727.331 82.3583C727.79 84.0902 729.418 85.4405 731.191 85.5449C732.695 85.6339 734.117 84.9186 735.456 84.2228L735.804 82.4448Z" fill="#141414"/>
<path d="M743.951 78.0459L730.793 102.936L741.12 109.113L744.609 103.213C744.609 103.213 747.976 105.979 750.799 102.97C752.602 101.048 761.588 83.548 761.588 83.548L743.951 78.0459Z" fill="#F8C0A9"/>
<path d="M762.689 87.2859C761.194 88.3944 756.366 89.3027 756.366 89.3027L752.65 92.6346C752.874 90.7496 749.672 89.3475 748.428 91.743C747.185 94.1378 749.249 95.2049 749.249 95.2049C746.919 96.6548 745.194 97.913 742.358 98.9622C739.289 100.096 738.093 99.7356 735.98 98.6516L733.67 97.4155C733.67 97.4155 731.036 90.9014 737.481 80.8999C743.926 70.8989 751.517 76.2343 755.105 77.7147C755.782 77.994 767.681 83.5867 762.689 87.2859Z" fill="#141414"/>
<path d="M752.651 92.6347C752.651 92.6347 751.594 96.0524 749.992 95.6023C749.288 95.4043 748.565 94.6324 748.565 94.6324L745.599 97.129C745.599 97.129 742.261 101.253 744.608 103.213C746.783 105.026 749.488 106.047 751.779 102.281L753.325 99.5031C753.325 99.5031 751.161 98.9096 751.44 97.9178C751.721 96.9275 754.8 90.707 754.8 90.707L752.651 92.6347Z" fill="#141414"/>
<path d="M757.261 84.5087C757.284 84.4836 757.459 84.6554 757.829 84.8692C758.194 85.0808 758.782 85.3303 759.531 85.3242C760.268 85.3286 761.164 84.9688 761.743 84.1702C762.03 83.7792 762.227 83.2898 762.247 82.7651C762.271 82.2401 762.128 81.6894 761.857 81.1919C761.317 80.1748 760.35 79.545 759.431 79.1547C758.502 78.7606 757.598 78.56 756.844 78.3705C755.321 78.0206 754.418 77.628 754.443 77.5734C754.453 77.5452 754.685 77.6119 755.105 77.7147C755.527 77.8198 756.139 77.9476 756.903 78.0967C757.664 78.2517 758.59 78.4245 759.569 78.8178C760.533 79.2028 761.601 79.8751 762.202 81.0024C762.501 81.5541 762.664 82.1769 762.631 82.7839C762.602 83.3928 762.365 83.9556 762.032 84.3892C761.365 85.2777 760.334 85.6483 759.529 85.6041C758.71 85.5727 758.103 85.26 757.747 84.9985C757.384 84.7337 757.246 84.5222 757.261 84.5087Z" fill="#141414"/>
<path d="M735.094 85.3379C734.993 85.2998 735.163 84.5816 735.475 83.7333C735.701 83.1189 735.94 82.6044 736.09 82.3868L736.125 82.4875L736.13 82.4761L736.102 82.5093L736.044 82.4705C736.039 82.4386 736.039 82.3064 736.213 82.3445L736.256 82.3536L736.247 82.4456C736.221 82.7104 736.069 83.2565 735.843 83.8719C735.531 84.7193 735.196 85.3758 735.094 85.3379Z" fill="#379C60"/>
<path d="M751.495 92.4179C751.461 92.4667 751.265 92.3532 750.94 92.3C750.62 92.2437 750.152 92.2893 749.834 92.6429C749.503 92.9893 749.533 93.454 749.691 93.7272C749.84 94.0085 750.049 94.1005 750.029 94.1575C750.027 94.2047 749.737 94.2107 749.463 93.8867C749.334 93.7279 749.221 93.4929 749.216 93.2053C749.208 92.9168 749.331 92.609 749.547 92.3739C749.991 91.8785 750.666 91.8815 751.012 92.0299C751.383 92.1738 751.526 92.3821 751.495 92.4179Z" fill="#E4AF9A"/>
<path d="M735.674 83.7504C735.685 83.7943 735.162 83.9815 734.274 84.0187C733.393 84.0601 732.135 83.9008 730.904 83.2968C729.672 82.6928 728.77 81.7936 728.256 81.0697C727.736 80.3422 727.559 79.812 727.599 79.7931C727.655 79.7627 727.918 80.239 728.474 80.8953C729.025 81.5511 729.908 82.3688 731.075 82.9402C732.241 83.5123 733.424 83.7076 734.274 83.739C735.129 83.7739 735.663 83.6879 735.674 83.7504Z" fill="#1D302E"/>
<path d="M732.153 76.8381C732.233 76.7793 732.97 78.3078 732.746 80.318C732.544 82.3325 731.504 83.6683 731.439 83.5946C731.331 83.536 732.169 82.1781 732.356 80.2762C732.571 78.3785 732.037 76.8713 732.153 76.8381Z" fill="#1D302E"/>
<path d="M763.477 83.9618C763.49 83.9672 763.456 84.0667 763.379 84.2548C763.291 84.4366 763.151 84.706 762.895 84.9973C762.404 85.5899 761.439 86.272 760.079 86.5398C758.713 86.829 757.056 86.5682 755.337 86.0948C753.621 85.6468 751.723 84.9973 749.718 85.2293C747.706 85.4483 746.221 86.9659 744.443 87.4862C743.555 87.7601 742.652 87.7426 741.857 87.5904C741.059 87.433 740.354 87.1454 739.749 86.8246C738.543 86.1674 737.71 85.433 737.138 84.938C736.571 84.4335 736.274 84.1376 736.291 84.1178C736.309 84.0957 736.641 84.3529 737.235 84.8192C737.833 85.2756 738.688 85.9686 739.875 86.5749C741.042 87.1552 742.671 87.655 744.337 87.137C745.163 86.8792 745.958 86.3915 746.805 85.9079C747.643 85.4225 748.605 84.9554 749.67 84.836C751.8 84.5949 753.733 85.2825 755.431 85.7426C757.131 86.2311 758.724 86.504 760.028 86.2655C761.336 86.0423 762.278 85.4299 762.782 84.8936C763.301 84.3566 763.438 83.939 763.477 83.9618Z" fill="#1D302E"/>
<path d="M755.882 88.6625C755.865 88.7482 754.681 87.9527 752.571 88.1656C751.531 88.2577 750.318 88.5825 749.029 89.1058C747.734 89.617 746.34 90.3063 744.758 90.7566C743.182 91.2297 741.533 91.2314 740.16 90.8166C738.778 90.4249 737.662 89.7107 736.865 88.9863C736.06 88.2607 735.561 87.5259 735.276 86.9972C735.124 86.7361 735.038 86.5171 734.98 86.3702C734.922 86.2228 734.898 86.1431 734.91 86.1377C734.991 86.0812 735.439 87.4033 737.047 88.774C737.84 89.4482 738.93 90.1101 740.257 90.4651C741.579 90.841 743.123 90.831 744.653 90.3754C746.187 89.9397 747.58 89.265 748.898 88.7657C750.215 88.2524 751.473 87.945 752.55 87.8864C753.628 87.8188 754.503 88.0043 755.063 88.2205C755.342 88.3314 755.553 88.4325 755.686 88.5202C755.822 88.6022 755.889 88.6511 755.882 88.6625Z" fill="#1D302E"/>
<path d="M761.585 81.6036C761.593 81.6146 761.524 81.6792 761.383 81.7931C761.245 81.9103 761.024 82.0616 760.728 82.2374C760.136 82.5845 759.204 82.9883 757.984 83.1815C756.77 83.3816 755.28 83.377 753.687 83.0629C752.089 82.766 750.399 82.1941 748.648 81.5932C746.896 80.9892 745.216 80.4629 743.644 80.2125C742.078 79.9591 740.626 79.9812 739.464 80.2443C738.301 80.5136 737.461 81.0683 737.038 81.5802C736.607 82.0937 736.53 82.4838 736.491 82.468C736.479 82.4641 736.497 82.3704 736.544 82.1925C736.609 82.0228 736.705 81.7629 736.92 81.4837C737.328 80.9116 738.194 80.2876 739.398 79.9728C740.6 79.6624 742.091 79.6129 743.699 79.8519C745.309 80.0879 747.019 80.6126 748.773 81.2173C750.528 81.8206 752.194 82.3941 753.755 82.7044C755.312 83.0315 756.757 83.0636 757.944 82.9046C760.352 82.5919 761.551 81.5148 761.585 81.6036Z" fill="#1D302E"/>
<path d="M733.207 91.6703C733.243 91.6642 733.291 92.0327 733.513 92.6525C733.732 93.2665 734.154 94.1434 734.977 94.9659C735.784 95.7844 737.066 96.4742 738.588 96.5358C740.113 96.6416 741.712 95.8946 743.142 94.8534C743.861 94.3275 744.514 93.7449 745.122 93.156C745.744 92.556 746.4 92.0357 747.069 91.6059C748.402 90.7341 749.811 90.2979 751.005 90.1908C752.205 90.0813 753.173 90.2935 753.805 90.4927C754.124 90.5902 754.361 90.6943 754.519 90.772C754.677 90.8466 754.757 90.8915 754.752 90.9045C754.737 90.9424 754.4 90.7924 753.764 90.6411C753.132 90.4914 752.186 90.3284 751.033 90.4693C749.886 90.6092 748.543 91.0528 747.264 91.9132C746.623 92.3361 745.991 92.8473 745.389 93.4343C744.776 94.0353 744.112 94.6334 743.372 95.1735C742.633 95.7135 741.851 96.1678 741.042 96.4872C740.234 96.8187 739.371 96.9489 738.57 96.9003C736.952 96.8157 735.6 96.0474 734.779 95.1628C733.943 94.2743 733.547 93.3448 733.367 92.6997C733.276 92.3749 733.233 92.1168 733.212 91.9411C733.196 91.7649 733.195 91.6721 733.207 91.6703Z" fill="#1D302E"/>
<path d="M702.465 127.068L695.457 142.283L688.779 155.311L723.882 170.886L734.945 146.262C737.65 140.566 740.599 134.696 743.164 129.474C745.936 129.826 771.698 133.103 773.284 133.678C774.959 134.286 802.776 115.564 802.776 115.564C800.92 111.502 797.478 106.116 797.478 106.116C797.478 106.116 774.49 117.883 772.788 118.411C771.086 118.939 749.492 110.752 749.492 110.752C744.889 108.658 738.879 104.432 732.796 101.616C726.482 98.6945 718.987 100.594 714.839 106.218C711.672 110.511 707.509 117.089 702.465 127.068Z" fill="#379C60"/>
<path d="M718.329 120.573C718.223 120.592 717.959 119.614 717.739 118.39C717.519 117.164 717.427 116.156 717.534 116.136C717.641 116.117 717.905 117.094 718.125 118.319C718.345 119.545 718.436 120.553 718.329 120.573Z" fill="#D6D5DA"/>
<path d="M721.926 128.858C721.972 128.958 720.702 129.647 719.092 130.398C717.48 131.149 716.138 131.678 716.093 131.579C716.047 131.48 717.316 130.79 718.927 130.039C720.538 129.287 721.881 128.758 721.926 128.858Z" fill="#D6D5DA"/>
<path d="M709.195 126.835C709.087 126.831 709.031 125.936 709.071 124.836C709.111 123.735 709.231 122.847 709.339 122.851C709.447 122.855 709.503 123.75 709.463 124.85C709.423 125.95 709.303 126.839 709.195 126.835Z" fill="#D6D5DA"/>
<path d="M711.846 132.951C711.863 133.058 710.723 133.334 709.299 133.567C707.874 133.799 706.707 133.9 706.689 133.792C706.672 133.684 707.812 133.408 709.236 133.176C710.66 132.944 711.828 132.842 711.846 132.951Z" fill="#D6D5DA"/>
<path d="M711.22 138.798C711.329 138.792 711.469 139.739 711.534 140.915C711.599 142.09 711.564 143.048 711.455 143.054C711.348 143.06 711.207 142.113 711.142 140.937C711.077 139.762 711.111 138.804 711.22 138.798Z" fill="#D6D5DA"/>
<path d="M703.828 140.941C703.871 141.042 702.842 141.59 701.528 142.165C700.216 142.742 699.116 143.127 699.072 143.027C699.029 142.927 700.059 142.378 701.372 141.802C702.685 141.227 703.784 140.841 703.828 140.941Z" fill="#D6D5DA"/>
<path d="M705.952 150.808C705.856 150.843 705.428 149.82 705.277 148.469C705.119 147.121 705.303 146.026 705.405 146.037C705.518 146.046 705.513 147.12 705.667 148.424C705.813 149.729 706.061 150.774 705.952 150.808Z" fill="#D6D5DA"/>
<path d="M698.227 153.317C698.124 153.288 698.249 152.492 698.508 151.539C698.767 150.586 699.061 149.836 699.166 149.865C699.27 149.894 699.145 150.69 698.886 151.644C698.627 152.597 698.332 153.346 698.227 153.317Z" fill="#D6D5DA"/>
<path d="M709.935 160.796C709.867 160.881 709.08 160.353 708.178 159.618C707.275 158.881 706.599 158.215 706.667 158.13C706.735 158.045 707.522 158.573 708.425 159.309C709.327 160.045 710.003 160.711 709.935 160.796Z" fill="#D6D5DA"/>
<path d="M715.688 150.863C715.785 150.903 715.483 151.873 714.849 152.943C714.219 154.016 713.517 154.746 713.436 154.679C713.349 154.608 713.898 153.786 714.512 152.741C715.131 151.698 715.586 150.82 715.688 150.863Z" fill="#D6D5DA"/>
<path d="M720.827 163.968C720.723 163.989 720.447 162.999 720.309 161.745C720.169 160.49 720.222 159.463 720.328 159.46C720.438 159.455 720.561 160.462 720.699 161.701C720.835 162.938 720.935 163.949 720.827 163.968Z" fill="#D6D5DA"/>
<path d="M726.826 154.195C726.825 154.167 726.905 154.136 727.052 154.103L727.066 154.26C726.651 154.382 725.681 154.553 724.545 154.694C723.017 154.883 721.768 154.949 721.755 154.84C721.742 154.732 722.969 154.491 724.496 154.3C725.633 154.159 726.615 154.087 727.047 154.104L727.061 154.261C726.911 154.245 726.828 154.223 726.826 154.195Z" fill="#D6D5DA"/>
<path d="M721.259 148.705C721.154 148.725 720.844 147.506 720.661 145.969C720.476 144.431 720.491 143.173 720.597 143.167C720.707 143.16 720.867 144.398 721.051 145.921C721.231 147.444 721.367 148.685 721.259 148.705Z" fill="#D6D5DA"/>
<path d="M730.888 142.91C730.908 143.021 729.955 143.285 728.799 143.651C727.641 144.013 726.709 144.343 726.663 144.24C726.62 144.144 727.499 143.643 728.682 143.273C729.864 142.898 730.87 142.805 730.888 142.91Z" fill="#D6D5DA"/>
<path d="M723.612 135.59C723.635 135.698 722.743 135.993 721.618 136.251C720.492 136.51 719.561 136.632 719.536 136.526C719.513 136.419 720.405 136.123 721.53 135.865C722.655 135.607 723.587 135.483 723.612 135.59Z" fill="#D6D5DA"/>
<path d="M729.962 134.707C729.856 134.725 729.625 133.478 729.448 131.922C729.271 130.366 729.216 129.098 729.324 129.092C729.433 129.085 729.662 130.332 729.838 131.877C730.014 133.422 730.069 134.689 729.962 134.707Z" fill="#D6D5DA"/>
<path d="M739.942 129.975C740.026 130.045 739.342 131.107 738.415 132.347C737.488 133.588 736.664 134.543 736.574 134.481C736.484 134.421 737.168 133.358 738.102 132.109C739.035 130.86 739.859 129.905 739.942 129.975Z" fill="#D6D5DA"/>
<path d="M734.716 128.788C734.61 128.768 734.725 127.656 734.973 126.304C735.221 124.952 735.509 123.872 735.615 123.893C735.721 123.912 735.606 125.025 735.358 126.376C735.11 127.728 734.823 128.808 734.716 128.788Z" fill="#D6D5DA"/>
<path d="M728.748 122.346C728.74 122.455 727.57 122.463 726.135 122.364C724.697 122.265 723.54 122.096 723.547 121.987C723.555 121.879 724.725 121.87 726.161 121.969C727.597 122.068 728.755 122.238 728.748 122.346Z" fill="#D6D5DA"/>
<path d="M714.668 109.955C714.757 110.026 713.973 111.121 713.157 112.557C712.333 113.989 711.788 115.222 711.681 115.18C711.584 115.147 711.975 113.824 712.817 112.359C713.652 110.891 714.591 109.886 714.668 109.955Z" fill="#D6D5DA"/>
<path d="M721.578 110.18C721.476 110.201 721.199 109.165 721.179 107.851C721.154 106.537 721.396 105.492 721.498 105.509C721.61 105.524 721.547 106.566 721.572 107.844C721.59 109.122 721.689 110.161 721.578 110.18Z" fill="#D6D5DA"/>
<path d="M729.437 102.481C729.45 102.591 728.507 102.803 727.346 103.048C726.183 103.289 725.234 103.473 725.203 103.367C725.174 103.264 726.087 102.906 727.266 102.659C728.443 102.412 729.423 102.374 729.437 102.481Z" fill="#D6D5DA"/>
<path d="M729.27 113.008C729.31 113.115 728.398 113.543 727.345 114.184C726.288 114.821 725.486 115.433 725.41 115.348C725.339 115.272 726.05 114.504 727.143 113.845C728.232 113.181 729.237 112.909 729.27 113.008Z" fill="#D6D5DA"/>
<path d="M733.195 110.691C733.115 110.764 732.345 110.037 731.476 109.067C730.607 108.096 729.968 107.25 730.048 107.177C730.128 107.103 730.898 107.83 731.767 108.801C732.636 109.771 733.276 110.617 733.195 110.691Z" fill="#D6D5DA"/>
<path d="M701.704 134.346C701.606 134.305 701.894 133.383 702.453 132.34C703.009 131.295 703.612 130.545 703.701 130.605C703.792 130.667 703.344 131.501 702.798 132.528C702.249 133.552 701.805 134.389 701.704 134.346Z" fill="#D6D5DA"/>
<path d="M692.787 153.511C692.687 153.469 692.983 152.538 693.451 151.433C693.916 150.328 694.375 149.468 694.475 149.511C694.574 149.554 694.277 150.483 693.812 151.589C693.345 152.693 692.886 153.555 692.787 153.511Z" fill="#D6D5DA"/>
<path d="M737.811 116.061C737.848 116.165 736.757 116.656 735.375 117.159C733.993 117.662 732.843 117.987 732.806 117.885C732.769 117.781 733.86 117.29 735.243 116.787C736.624 116.283 737.774 115.959 737.811 116.061Z" fill="#D6D5DA"/>
<path d="M744.994 111.203C744.934 111.298 744.01 110.809 742.856 110.252C741.704 109.692 740.75 109.27 740.786 109.164C740.818 109.063 741.851 109.324 743.027 109.896C744.204 110.463 745.051 111.113 744.994 111.203Z" fill="#D6D5DA"/>
<path d="M744.796 120.532C744.698 120.567 744.294 119.617 744.132 118.363C743.965 117.109 744.11 116.086 744.214 116.094C744.326 116.099 744.359 117.099 744.522 118.31C744.678 119.523 744.904 120.497 744.796 120.532Z" fill="#D6D5DA"/>
<path d="M744.273 125.266C744.193 125.336 743.389 124.545 742.57 123.423C741.748 122.304 741.236 121.294 741.326 121.238C741.42 121.179 742.075 122.083 742.886 123.188C743.694 124.295 744.357 125.193 744.273 125.266Z" fill="#D6D5DA"/>
<path d="M752.391 124.328C752.437 124.429 751.745 124.849 750.908 125.38C750.07 125.908 749.394 126.354 749.324 126.267C749.256 126.185 749.838 125.588 750.7 125.045C751.56 124.498 752.347 124.231 752.391 124.328Z" fill="#D6D5DA"/>
<path d="M750.313 117.354C750.209 117.38 749.906 116.53 749.73 115.435C749.552 114.341 749.572 113.437 749.678 113.428C749.788 113.42 749.942 114.296 750.117 115.371C750.29 116.447 750.42 117.326 750.313 117.354Z" fill="#D6D5DA"/>
<path d="M757.511 120.083C757.505 120.193 756.336 120.218 754.9 120.139C753.463 120.06 752.304 119.908 752.31 119.798C752.315 119.69 753.485 119.665 754.921 119.744C756.357 119.823 757.517 119.975 757.511 120.083Z" fill="#D6D5DA"/>
<path d="M764.452 119.322C764.418 119.421 763.392 119.131 762.273 118.457C761.148 117.788 760.404 117.018 760.474 116.941C760.548 116.853 761.383 117.467 762.472 118.116C763.558 118.77 764.493 119.216 764.452 119.322Z" fill="#D6D5DA"/>
<path d="M760.956 128.764C760.952 128.873 759.689 128.913 758.135 128.853C756.582 128.792 755.325 128.655 755.33 128.546C755.335 128.437 756.597 128.397 758.15 128.457C759.704 128.517 760.96 128.655 760.956 128.764Z" fill="#D6D5DA"/>
<path d="M763.859 126.09C763.802 126.184 762.864 125.711 761.763 125.035C760.661 124.357 759.814 123.734 759.871 123.64C759.928 123.547 760.865 124.019 761.967 124.696C763.068 125.372 763.915 125.997 763.859 126.09Z" fill="#D6D5DA"/>
<path d="M770.07 125.87C769.963 125.89 769.714 125.009 769.514 123.901C769.314 122.793 769.238 121.881 769.345 121.861C769.452 121.841 769.7 122.723 769.9 123.83C770.1 124.937 770.176 125.851 770.07 125.87Z" fill="#D6D5DA"/>
<path d="M771.341 129.824C771.375 129.924 770.193 130.402 768.652 130.67C767.112 130.943 765.84 130.896 765.838 130.79C765.833 130.677 767.075 130.548 768.585 130.279C770.095 130.018 771.308 129.716 771.341 129.824Z" fill="#D6D5DA"/>
<path d="M775.929 128.652C775.822 128.636 775.86 127.791 776.014 126.765C776.168 125.74 776.379 124.921 776.487 124.938C776.594 124.954 776.555 125.799 776.402 126.825C776.248 127.85 776.036 128.669 775.929 128.652Z" fill="#D6D5DA"/>
<path d="M777.149 120.948C777.177 121.048 776.407 121.334 775.409 121.312C774.411 121.294 773.652 120.977 773.685 120.878C773.715 120.768 774.477 120.901 775.417 120.916C776.356 120.939 777.124 120.837 777.149 120.948Z" fill="#D6D5DA"/>
<path d="M781.383 119.441C781.277 119.417 781.399 118.437 781.654 117.252C781.91 116.067 782.203 115.124 782.309 115.148C782.415 115.171 782.294 116.151 782.037 117.336C781.782 118.522 781.489 119.464 781.383 119.441Z" fill="#D6D5DA"/>
<path d="M785.16 124.641C785.132 124.747 783.849 124.49 782.294 124.068C780.738 123.645 779.5 123.216 779.528 123.111C779.557 123.006 780.84 123.262 782.395 123.685C783.951 124.107 785.189 124.536 785.16 124.641Z" fill="#D6D5DA"/>
<path d="M790.411 119.822C790.458 119.921 789.764 120.362 788.859 120.81C787.954 121.258 787.182 121.54 787.135 121.442C787.087 121.344 787.782 120.902 788.686 120.454C789.591 120.007 790.363 119.724 790.411 119.822Z" fill="#D6D5DA"/>
<path d="M786.571 118.281C786.482 118.219 787.031 117.246 787.797 116.106C788.565 114.965 789.259 114.092 789.349 114.153C789.439 114.214 788.889 115.188 788.122 116.328C787.355 117.468 786.66 118.342 786.571 118.281Z" fill="#D6D5DA"/>
<path d="M794.469 110.461C794.478 110.57 793.521 110.73 792.332 110.818C791.144 110.906 790.175 110.889 790.167 110.78C790.159 110.672 791.115 110.512 792.304 110.424C793.492 110.336 794.462 110.353 794.469 110.461Z" fill="#D6D5DA"/>
<path d="M795.894 113.068C795.79 113.039 795.968 112.057 796.292 110.874C796.616 109.692 796.964 108.757 797.068 108.786C797.172 108.814 796.995 109.796 796.67 110.98C796.346 112.163 795.998 113.098 795.894 113.068Z" fill="#D6D5DA"/>
<path d="M796.85 116.258C796.848 116.367 795.943 116.439 794.83 116.418C793.715 116.396 792.814 116.291 792.816 116.182C792.818 116.072 793.723 116.001 794.837 116.022C795.95 116.043 796.852 116.148 796.85 116.258Z" fill="#D6D5DA"/>
<path d="M1694.75 17.8405L1687.72 3.8335C1683.61 5.9108 1680.22 9.64247 1678.41 14.1078C1676.28 19.3684 1676.36 25.644 1680.04 31.4339C1680.45 32.0661 1680.89 32.6941 1681.38 33.3131L1681.41 33.3585L1681.41 33.3561L1696.38 21.1423L1694.75 17.8405Z" fill="#D6D5DA"/>
<path d="M1709.45 5.05117C1704.76 1.24201 1698.31 -0.420908 1691.53 2.23773C1691.35 2.30882 1691.16 2.38238 1690.98 2.45873C1690.87 2.50706 1690.75 2.55295 1690.64 2.60339C1690.3 2.75364 1689.97 2.91509 1689.63 3.086L1689.59 3.10772L1689.58 3.10877L1689.54 3.12942L1689.54 3.13153L1696.42 17.294L1698.04 20.6223L1716.31 15.857L1716.33 15.8524C1716.01 14.5219 1715.54 13.2222 1714.94 11.9788C1713.65 9.32335 1711.77 6.92808 1709.45 5.05117Z" fill="#EBECEC"/>
<path d="M1697.97 22.4915L1683.27 34.8143C1688.73 41.7642 1698.3 44.145 1706.39 40.0009C1714.51 35.8364 1718.47 26.4547 1716.33 17.7278L1697.99 22.481L1697.97 22.4915Z" fill="#EBECEC"/>
<path d="M1261.54 33.4365C1264.99 34.0662 1325.45 46.0689 1320.12 112.403L1254 107.382L1261.38 33.4365H1261.54Z" fill="#D6D5DA"/>
<path d="M1515.65 249.093H1541.31C1541.31 262.274 1529.72 273.121 1515.65 273.121C1501.58 273.121 1490 262.274 1490 249.093C1490 236.122 1501.21 225.37 1515.06 225.071L1515.65 249.093Z" fill="#D6D5DA"/>
<path d="M1522.5 243.018L1521.92 219.282C1528.6 219.282 1535.61 221.696 1540.39 226.007C1545.18 230.318 1547.96 236.471 1548.15 242.649L1522.5 243.018Z" fill="#EBECEC"/>
<path d="M165.381 45.9681L159.999 43.9297L154.618 41.8926L155.593 47.7232L156.57 53.5524L159.615 50.9315L171.887 66.1118L174.606 63.7695L162.335 48.5889L165.381 45.9681Z" fill="#D6D5DA"/>
<path d="M74.3825 97.1523C74.3825 97.1523 74.7852 97.1457 75.5864 97.1618C76.4068 97.1815 77.5975 97.2111 79.1543 97.2496C82.3157 97.338 86.9459 97.4686 92.9043 97.6375C104.884 98.0018 122.182 98.5275 143.536 99.177L143.303 99.4026C143.617 89.7101 141.892 79.0415 137.486 68.7076C135.268 63.5557 132.365 58.5208 128.837 53.776C125.243 49.0901 121.07 44.633 116.204 40.8323C111.384 36.9734 105.919 33.7504 100.031 31.2479C97.0646 30.056 94.0137 28.9883 90.8599 28.1904C87.7021 27.4311 84.4801 26.7678 81.1844 26.4835C68.0461 25.1118 54.0328 27.8219 41.7601 34.7623C29.4602 41.6501 19.5824 52.2409 13.4246 64.3032C7.21259 76.3655 4.76967 89.8219 5.70391 102.356C6.56824 114.931 10.711 126.54 16.6641 135.974C22.5753 145.498 30.4092 152.686 38.3614 157.821L38.0504 157.898C49.251 139.125 58.3228 123.919 64.6049 113.39C67.7402 108.159 70.1771 104.095 71.8397 101.321C72.6643 99.9575 73.2945 98.9135 73.7284 98.1963C74.1559 97.4959 74.3825 97.1523 74.3825 97.1523C74.3825 97.1523 74.1759 97.5372 73.7608 98.2558C73.3348 98.9871 72.7145 100.048 71.9061 101.436C70.2617 104.231 67.8527 108.328 64.753 113.598C58.5277 124.135 49.5368 139.354 38.4362 158.142L38.3178 158.343L38.1252 158.219C30.1076 153.073 22.2014 145.851 16.2281 136.268C10.213 126.774 6.01982 115.077 5.1338 102.4C4.1782 89.7635 6.62966 76.1859 12.8911 64.0111C19.0974 51.8413 29.0563 41.1543 41.4655 34.2053C53.8468 27.2025 67.9908 24.4725 81.2451 25.8636C84.5682 26.1525 87.8195 26.8243 91.0039 27.5915C94.1848 28.3988 97.2625 29.477 100.254 30.6832C106.19 33.2103 111.698 36.4691 116.554 40.3645C121.455 44.2029 125.654 48.7015 129.27 53.4291C132.82 58.216 135.736 63.2942 137.963 68.4902C142.384 78.9116 144.096 89.6636 143.755 99.4174L143.747 99.6508L143.521 99.6426C122.209 98.8991 104.946 98.2963 92.9924 97.8796C87.0202 97.6585 82.3793 97.4861 79.2131 97.3686C77.644 97.305 76.4431 97.2561 75.6178 97.2228C74.8067 97.1856 74.3825 97.1523 74.3825 97.1523Z" fill="#141414"/>
<path d="M280 294.416H291.146V278.358H280V294.416Z" fill="#D6D5DA"/>
<path d="M295.507 294.417H305.926V254.826H295.507V294.417Z" fill="#D6D5DA"/>
<path d="M310.579 294.417H321.092V270.421H310.579V294.417Z" fill="#D6D5DA"/>
<path d="M325.598 294.416H336.561V260.124H325.598V294.416Z" fill="#D6D5DA"/>
<path d="M550.48 51.9915L574.916 49.8247C575.645 59.1919 571.592 68.2859 564.323 73.5927C553.221 81.6995 537.836 78.6179 530.242 66.7677C522.647 54.9177 525.534 38.496 536.636 30.3899L550.48 51.9915Z" fill="#EBECEC"/>
</g>
<defs>
<filter id="filter0_d_179_415" x="0.933838" y="0.938965" width="1719.97" height="350.061" filterUnits="userSpaceOnUse" color-interpolation-filters="sRGB">
<feFlood flood-opacity="0" result="BackgroundImageFix"/>
<feColorMatrix in="SourceAlpha" type="matrix" values="0 0 0 0 0 0 0 0 0 0 0 0 0 0 0 0 0 0 127 0" result="hardAlpha"/>
<feOffset dy="4"/>
<feGaussianBlur stdDeviation="2"/>
<feComposite in2="hardAlpha" operator="out"/>
<feColorMatrix type="matrix" values="0 0 0 0 0 0 0 0 0 0 0 0 0 0 0 0 0 0 0.25 0"/>
<feBlend mode="normal" in2="BackgroundImageFix" result="effect1_dropShadow_179_415"/>
<feBlend mode="normal" in="SourceGraphic" in2="effect1_dropShadow_179_415" result="shape"/>
</filter>
</defs>
</svg>
